<?xml version="1.0" encoding="utf-8"?>
<!-- Generator: Adobe Illustrator 21.0.0, SVG Export Plug-In . SVG Version: 6.00 Build 0)  -->
<svg version="1.1" id="Layer_1" xmlns="http://www.w3.org/2000/svg" xmlns:xlink="http://www.w3.org/1999/xlink" x="0px" y="0px"
	 viewBox="0 0 63.2 85.8" style="enable-background:new 0 0 63.2 85.8;" xml:space="preserve">
<style type="text/css">
	.st0{fill:#FFFFFF;}
</style>
<g>
	<g>
		<g>
			<g>
				<g>
					<g>
						<path class="st0" d="M32.1,85c0.1,0,0.3,0,0.2-0.1L32,84.8L32.1,85z"/>
						<path class="st0" d="M32.7,84.2c-0.2-0.1-0.4-0.3-0.7-0.2c0.3,0.1,0.2,0.2,0.6,0.3c0,0.1-0.1,0.2-0.2,0.2
							c0.1,0-0.1,0.2,0.1,0.3c0.3-0.2,0.3-0.4,0.1-0.6C32.5,84.1,32.6,84.2,32.7,84.2z"/>
						<path class="st0" d="M33.2,72.1L33.2,72.1C33.2,72.2,33.2,72.2,33.2,72.1z"/>
						<path class="st0" d="M33.4,64.7C33.4,64.7,33.4,64.7,33.4,64.7C33.4,64.7,33.4,64.6,33.4,64.7z"/>
						<path class="st0" d="M33.7,63.4C33.7,63.4,33.7,63.4,33.7,63.4C33.8,63.4,33.8,63.4,33.7,63.4z"/>
						<path class="st0" d="M33.2,72.1l0.1-0.2C33.2,71.9,33.2,72,33.2,72.1z"/>
						<path class="st0" d="M31.9,82.5c0,0,0,0.1,0.1,0.1C32,82.6,31.9,82.6,31.9,82.5C31.9,82.5,31.9,82.5,31.9,82.5z"/>
						<path class="st0" d="M33.5,75.4L33.5,75.4c0,0.1,0.1,0.1,0.1,0.1L33.5,75.4z"/>
						<path class="st0" d="M33.5,77.9c0-0.1-0.3-0.1-0.4-0.1c0.1,0,0.2,0.1,0.2,0.1C33.4,78,33.4,78,33.5,77.9z"/>
						<path class="st0" d="M33,82L33,82C33,82,33,82,33,82z"/>
						<path class="st0" d="M33.5,73.6c0,0,0.1,0,0.1,0C33.6,73.6,33.6,73.6,33.5,73.6z"/>
						<path class="st0" d="M31.4,2.9C31.4,2.9,31.4,2.9,31.4,2.9C31.4,2.9,31.4,2.9,31.4,2.9z"/>
						<path class="st0" d="M32.8,0L32.8,0c0.1,0,0.1,0,0.2,0L32.8,0z"/>
						<path class="st0" d="M34.1,61.1C34.1,61.1,34.1,61.1,34.1,61.1C34.1,61.1,34.1,61.1,34.1,61.1z"/>
						<path class="st0" d="M33.9,39.6c-0.3,0.2-0.3-0.4-0.6,0C33.4,39.6,33.7,39.9,33.9,39.6z"/>
						<path class="st0" d="M31.9,82.5c0,0,0-0.1,0-0.1C31.9,82.4,31.9,82.4,31.9,82.5z"/>
						<path class="st0" d="M33.3,39.6C33.3,39.6,33.3,39.6,33.3,39.6L33.3,39.6C33.3,39.6,33.3,39.6,33.3,39.6z"/>
						<path class="st0" d="M33.9,55.7c0,0-0.1,0-0.1,0.1C33.8,55.7,33.9,55.7,33.9,55.7z"/>
						<path class="st0" d="M33.5,59.7L33.5,59.7C33.5,59.6,33.5,59.7,33.5,59.7z"/>
						<path class="st0" d="M33.5,53.6c0-0.1,0.1-0.1,0-0.1c0,0,0,0,0,0C33.6,53.5,33.6,53.5,33.5,53.6z"/>
						<path class="st0" d="M33.5,51.4C33.5,51.4,33.5,51.5,33.5,51.4c-0.1,0.1,0,0.1,0,0.1L33.5,51.4z"/>
						<path class="st0" d="M31.6,9.5c0.1,0,0.2-0.1,0.3-0.1C31.6,9.5,31.5,9.1,31.6,9.5z"/>
						<path class="st0" d="M32,82.5c-0.1,0-0.1,0-0.1-0.1c0,0,0,0,0,0.1C32,82.5,32,82.5,32,82.5z"/>
						<path class="st0" d="M31.3,53.5l0-0.3C31.3,53.3,31.3,53.4,31.3,53.5z"/>
						<path class="st0" d="M31.6,25.1L31.6,25.1C31.6,25,31.6,25,31.6,25.1z"/>
						<path class="st0" d="M31.3,52.1c0.1-0.1,0.2-0.1,0.2-0.2c0,0,0,0-0.1,0L31.3,52.1z"/>
						<path class="st0" d="M31.8,9.4C31.8,9.4,31.8,9.4,31.8,9.4C31.8,9.4,31.8,9.4,31.8,9.4z"/>
						<path class="st0" d="M31.1,7.2c0,0.3,0.4,0.2,0.6,0.2c0.1,0.4-0.3,0.2-0.5,0.3c0.1,0.2,0.4,0.4,0.4,0.6c-0.1,0-0.1,0-0.2,0
							c0.3,0.3,0,0.8,0.4,1.1c0,0-0.1,0-0.1,0c0.2,0,0.4-0.1,0.5,0c0,0.1,0.2,0.3,0,0.3c0-0.1-0.1-0.1-0.2-0.1l0.1,0.2
							c-0.3,0.1-0.1-0.2-0.4-0.2c0.1,0.3,0.4,0.7,0.3,0.9c-0.3,0-0.1-0.5-0.4-0.2l0.1-0.4c-0.5,0.3,0-0.2-0.5,0
							c-0.1,0.5,0.2,0.5,0.1,1c0.2,0.1,0.3,0,0.5,0.1c0.3,0.7-0.9,0.5-0.4,1c0.2,0.1,0.7,0.2,0.4,0.5l-0.4-0.1
							c0,0.5,0.6,0.3,0.3,0.7c-0.2-0.1-0.1-0.4-0.2-0.3c-0.3,0.3,0.2,0.2,0.2,0.5l-0.3,0c0.1,0.5,0.3,1,0.4,1.5
							c-0.1,0-0.2-0.1-0.3,0c0.2,0.7,0,1.4-0.2,2.1l0.3,0.2c0,0.1-0.1,0.1-0.2,0c-0.1,0.3,0.2,0,0.3,0.1c0,0.1-0.2,0.2-0.3,0.1
							c0.2,0.4,0.5,1.3,0.2,1.7l-0.1-0.1c-0.1,0.4,0.6,0.4,0.3,0.8l-0.1-0.1c-0.1,0.8,0.1,1.7-0.3,2.3c0.4,0.1-0.2,0.8,0.4,0.8
							c-0.3,0.5-0.4,0.3-0.6,1c0,0.2,0.4,0.3,0.4,0.5l-0.3,0l0.3,0.3l-0.4,0.2l0.1,0.2c0-0.1,0.1-0.2,0.2-0.2
							c0.1,0.3-0.2,0.8-0.4,0.8l0.3,0.7c-0.1,0-0.2-0.1-0.2-0.2c0.3,0.4-0.3,0.1,0,0.4c0.1,0,0.2,0,0.2,0c-0.2,0.2-0.2,0.6-0.1,0.9
							l-0.2-0.1c-0.1,0.5,0.1,1.1,0.1,1.8c0.1-0.2,0.5-0.2,0.5,0l-0.3,0.1c0.2,0.1,0.1-0.2,0.4,0.1c0,0.2-0.4,0.2-0.5,0l0.1,0.3
							c-0.1,0-0.1,0-0.3-0.1c0.2,0.1-0.3,0.5,0,0.6l-0.1,0c0,0.6,0.1,0.9,0.1,1.4c0.3,0,0.2,0.2,0.4,0.4c-0.1,0.4-0.3,0.8-0.3,1.2
							c0.1,0.3,0.2,0.1,0.4,0.2c-0.3,0-0.2,0.5-0.4,0.2c0,0.5,0.1,0.7,0.3,1.3c0.1-0.1,0.2-0.2,0.2-0.1c0,0.1-0.1,0.3-0.2,0.3l0,0
							c0.4,0.7-0.7,1.7-0.2,2.3l0,0l0.3,0.6c0,0.3-0.2-0.2-0.4,0c0.4,0.7-0.1,1.1,0.2,1.6c-0.8,0.4,0.1,1.5-0.4,2.1l0.2,0
							c0.2,0.1-0.1,0.2-0.1,0.3c0.1,0,0.2-0.2,0.3-0.1c0.2,1.3-0.3,2.6-0.4,3.9c0,0.5,0.9,0.3,0.5,0.9l-0.3-0.2c0.4,1,0,1.9,0.3,2.9
							c-0.1-0.1-0.2-0.1-0.2-0.1c-0.2,0.2,0,0.7,0.2,0.7c0,0.1-0.2,0-0.3,0.1c-0.1,0.2,0.3,0.5,0.1,0.6c0,0-0.1-0.1-0.1-0.1
							c0.1,0.1,0,0.6,0.2,0.5c-0.1,0.3,0.1,0.7,0,0.9c0.3,0.2-0.1,0.6,0.3,0.7c-0.5,0-0.4,0.6-0.2,0.8c-0.1-0.1-0.1,0.2-0.3,0.1
							c0,0.3,0.1,0.5,0.3,0.4c-0.5,0.5,0.4,0.9-0.3,1.2c0.2,0.7,0.4,1.4,0.5,2.1c-0.5,0,0-0.7-0.5-0.7c0.2,0.6,0.6,1,0.5,1.6
							c-0.1,0.2-0.2-0.1-0.3-0.1c0.2,0.6,0,1.2,0.2,1.8c0,0-0.1-0.1-0.1-0.1c0,0.1-0.1,0.3,0.1,0.2l-0.1-0.1
							c0.3-0.2,0.6,0.4,0.8,0.5c-0.6-0.2-0.1,0.6-0.9,0.3c0,0.1,0.1,0.2,0.3,0.1c0,0.1-0.1,0.1-0.3,0c0.1,0.4,0.3,0.3,0.3,0.6
							c-0.1,0-0.1-0.1-0.3-0.1c0.2,0.2,0.4,0.4,0.3,0.7c-0.1,0-0.1,0-0.1-0.1c0,0.5,0.5,0.9,0.3,1.5c-0.4-0.2-0.1,0.2-0.5,0.2
							l0.1,0.3l0.2-0.1c0,0.3,0.3,0.5,0.1,0.7L32,64.4l0.1,0.5l0.1-0.3c0.2,0.3,0.5,0,0.4,0.3c0-0.1,0,0.3-0.2,0.4c0,0,0,0,0,0
							c0.1,0.1,0.2,0.3,0.2,0.5c-0.1,0.1-0.4,0-0.5,0c0.3,0.1,0.1,0.6,0.4,0.8c-0.1-0.1-0.3-0.1-0.3,0l0.3,0.1
							c-0.1,0.1-0.1,0.1-0.3,0.1c0,0.4,0.5-0.1,0.3,0.3c0,0-0.1,0-0.1-0.1c-0.1,0.5,0.2,0.9,0,1.3c-0.4,0.1-0.1-0.4-0.4-0.2
							c0.1,0.6,0.5,1.2,0.4,1.8l0-0.1c0.5,0.1-0.3,0.4,0,0.7c0-0.1-0.3-0.1-0.2-0.1c-0.1,0.4,0.1,0.8,0.3,1.4l-0.1-0.1
							C32,72,32.1,72.4,32,72.7c0.1,0.1,0.1,0.2,0.3,0.1c-0.8,0.8,0.4,1.5-0.2,2.2c0-0.1-0.1-0.2-0.1-0.1l0.1,0.6
							c0.2,0,0.1-0.1,0.3-0.2c0.1,0.1,0.2,0.2,0.2,0.4c-0.2-0.3-0.4,0-0.5,0.1c0.1,0,0.1,0,0.2,0c-0.4,0.3,0.5,0.1,0.2,0.5l-0.1,0
							c0.1,0.2,0.2,0.3,0.2,0.5c-0.3,0.1-0.1-0.2-0.3-0.2c0,0.2,0.5,0.5,0.2,0.7c-0.1-0.1-0.1-0.2-0.1-0.3c-0.3,0.2-0.2,0.3-0.3,0.4
							l0,0L32,77.7l0.1-0.1c0.7,0.3,0.1,0.6,0.6,1c-0.4-0.4-0.3-0.1-0.6-0.1c-0.1,0.1-0.2,0.3-0.3,0.2c0.2,0.2-0.2,0.3,0.2,0.6
							c-0.1,0,0,0.2-0.3,0.2c0.1,0.2,0.2-0.1,0.3,0c0.3,0.4-0.4,0.9,0.1,1.4c0.2,0.5,0.5,0.6,0.7,1c-0.2,0.1-0.4-0.1-0.4-0.1
							c-0.1,0.2-0.1,0.4,0,0.6c-0.1,0-0.2,0-0.3,0.1c0,0.2,0.4,0.1,0.2,0.4c-0.1,0-0.3-0.1-0.4-0.2c0.1,0.2,0.3,0.4,0.4,0.6
							c-0.2,0.1-0.3-0.1-0.4-0.2c0.1,0.2,0.2,0.6,0.4,0.7l0.1-0.2c0,0.1-0.2,0-0.3,0c-0.2-0.2,0.1-0.3,0.2-0.3l0.1,0.2
							c0.6-0.2-0.1-0.6-0.1-0.9l0.4,0.1l-0.3-0.3c0.1-0.1,0.3-0.1,0.4,0c0.2-0.2-0.1-0.2,0.1-0.4c0,0,0.1,0,0.1,0l-0.1-0.2
							c0.1,0,0.3,0,0.2,0.1c0.2-0.4-0.3-0.6,0-0.8l0,0c-0.1-0.6-0.3-0.1-0.7-0.5l0.8-0.3l-0.3-0.1c0-0.1,0-0.2,0.2-0.1
							c-0.2-0.2-0.1,0-0.3-0.1c0.3-0.3-0.1-0.8,0.4-0.8c-0.2-0.1-0.2,0.3-0.3,0c0.5-0.1-0.1-0.3,0.2-0.6c0.3,0.1,0.1,0.3,0.4,0.1
							c-0.5-0.2,0.1-0.5,0-0.7c-0.4,0-0.2-0.5-0.3-0.8c0.1,0,0.2-0.7,0.3-1l0.1,0c-0.4-0.1-0.3-0.4-0.4-0.7c0.2,0,0.3,0.1,0.4,0.2
							l0-0.2c-0.1-0.1-0.2-0.1-0.2-0.3l0.3,0.1c0-0.3-0.3-0.6-0.1-1c-0.3,0-0.7,0.3-0.9-0.1c0.1,0,0.4,0,0.4,0.1
							c0,0-0.1-0.1-0.1-0.2l0.2,0.2c0.1-0.2-0.2-0.1-0.2-0.2c0.2,0,0.1-0.1,0.3-0.1c0,0-0.1,0.1,0,0.2c0-0.2,0.2-0.4,0.3-0.4
							c-0.1,0-0.3,0-0.3-0.1c0-0.3,0.2-0.1,0.3-0.3c-0.1-0.1,0-0.3-0.3-0.3c0-0.1,0.1-0.1,0.2-0.1c-0.1-0.2,0-0.7-0.4-0.6l0,0
							c0,0,0,0,0,0c0,0,0,0,0,0v0c-0.3-0.5,0.2-1.1,0-1.6l0.1,0c-0.1-0.3-0.1-0.7-0.3-0.9c0-0.1,0.2-0.2,0.3-0.2
							c-0.1-0.2-0.2-0.3,0-0.6c0.2,0.2,0.2-0.1,0.1,0.2c0.1-0.3,0.2-0.4,0-0.7c0.3,0.1,0.3-0.2,0.2-0.4l-0.2,0.2c0-0.2,0-0.3,0-0.5
							l0.3,0.1c0.4-0.6-0.7-1.1,0-1.6c-0.2-0.2-0.2,0.3-0.4,0.2c0-0.3,0.5-0.6,0.5-0.7c0.2-0.4-0.5-0.4-0.4-0.8
							c-0.1,0.1-0.4,0.1-0.5-0.2c0-0.3,0.5-0.4,0.6-0.2c0,0.1,0,0.1-0.1,0.1c0,0.1,0.1,0.2,0.2,0.1l-0.1,0c0.1-0.1,0.1-0.5,0.3-0.5
							c-0.1-0.2-0.2-0.1-0.3,0.1c0.2-0.4,0-0.6,0.1-1c-0.1,0.1-0.2,0.1-0.2,0.1c0.1-0.6-0.2-0.2-0.3-0.6c0.2-0.2,0.4,0.1,0.3-0.3
							c0.1-0.2,0.3,0,0.4,0c-0.2-0.3,0.2-0.7,0.2-0.9l0.1,0.2c-0.1-0.1-0.1-0.2-0.1-0.3l-0.2,0.1c0-0.1,0-0.2,0.1-0.2
							c-0.2-0.1-0.4,0.1-0.6-0.1c0.1-0.1-0.1-0.4,0.2-0.5c-0.1,0.5,0.3-0.1,0.4,0.3c0-0.1,0-0.2,0-0.3c0,0,0.1,0,0.1,0
							c0.3-0.4-0.4-0.2-0.3-0.6c0.2,0.1,0.3-0.1,0.3-0.2c0,0.2-0.3,0.1-0.4-0.1c0.1-0.3-0.1-0.3-0.1-0.5l-0.1,0.2
							c-0.2-0.1-0.2-0.2-0.2-0.4c0.1,0,0.1,0.2,0.2,0.1c-0.3-0.2,0.3-0.5,0.1-0.8c0.1-0.1,0.3,0,0.4-0.1c-0.2-0.3,0.2-0.4,0.1-0.7
							c-0.2,0.1-0.2,0.1-0.4-0.1l0.2,0.6l-0.3-0.4c0,0.2,0.1,0.4,0.1,0.5c-0.2-0.2-0.1-0.2-0.3-0.1c0.4-0.2-0.2-0.5,0-0.8l0.6,0
							c0.3-0.4-0.3-0.8-0.2-1.3l-0.1,0.2c-0.2-0.1,0-0.3-0.1-0.5c0.2,0,0.3-0.1,0.4-0.2c-0.1,0,0-0.4-0.4-0.5l0.3-0.3
							c0.1-0.5-0.6-0.5-0.5-1c0.2,0.1,0.4-0.1,0.5,0.2c0-0.1,0-0.3-0.1-0.3c0.1-0.1-0.3-0.4-0.1-0.5c-0.1-0.1-0.3-0.1-0.3-0.2
							c0,0,0.1,0,0.1,0c-0.1,0-0.1-0.3-0.4-0.1c0.6-0.4,0-1.3,0.5-1.6c-0.1-0.3-0.1-0.7-0.1-1c0.1,0,0.1,0,0.1,0.1
							c0.2-0.4-0.6-0.2-0.4-0.7c0.3-0.2,0.2,0.2,0.3,0.1c0.6-0.1-0.1-0.5,0.3-0.9l0,0.1c0.2-0.2-0.2-0.6-0.2-0.9c0,0,0.1,0,0.1,0
							c-0.3-0.3-0.4-0.8-0.5-1.1c0.3,0.1,0.1,0.2,0.4,0.1c0-0.2-0.4,0-0.5-0.3c0.1-0.1,0.3-0.3,0.5-0.4l0,0.3c0.4-0.2,0-0.4,0-0.6
							l0.2,0c-0.1-0.5-0.4-0.5-0.4-1l-0.1,0.1c-0.4-0.3,0.2-0.2-0.1-0.5l0.4-0.1c-0.1-0.2-0.4-0.6-0.5-1c0.3,0.2,0.4,0.6,0.6,0.8
							c0-0.2,0-0.6-0.2-0.7c0,0.1,0.1,0.2,0.1,0.2c-0.3-0.2-0.5-0.5-0.5-0.9c0.8,0.1,0.2-0.9,0.8-1.2c-0.3-0.6,0.1-1.3,0.1-2
							c-0.6,0.3,0-0.2-0.6-0.2c0-0.2,0-0.2,0-0.3l0.4-0.5c0.2-0.1,0.1,0.2,0.3,0.1c0-0.4,0.3-0.2,0.4-0.4c-0.2,0.1-0.3-0.1-0.2-0.3
							l-0.3,0.3c-0.3-0.5,0.5-0.5,0.2-1l0.2,0.2c-0.1-0.3,0-1-0.5-1.3c0.1,0,0.2-0.1,0.3,0c0.1-0.7-0.5-1.5-0.2-2l0.1,0
							c0-0.1-0.3-0.2-0.1-0.4c0.1,0,0.1,0,0.2,0c-0.1-0.1-0.3-0.3-0.2-0.5L34,34c0.2-0.6-0.4-1-0.5-1.5c0.4,0,0.6-0.5,0.7-0.8l0.1,0
							c0.1-0.7-0.4-1.3-0.5-2c0.5-0.4,0.2-1.5,0.5-2.1c-0.1,0.1-0.3,0-0.4-0.1c0.1-0.2-0.3-0.4,0.1-0.4l0,0.1
							c0.4-0.1,0.3-0.5,0.3-0.7l-0.5,0c0.8-0.7-0.3-1.8,0.4-2.2c-0.1-0.2-0.1-0.4-0.3-0.5l0.3,0c0.1-0.5,0.1-0.7,0-1.2l0.2,0.1
							c0-0.3-0.8-0.4-0.8-0.7l0.4-0.1c0-0.6,0.4-1.1,0-1.7c0.1,0,0.2,0,0.2,0.1c0-0.3,0.3-1-0.3-0.9c0.4,0,0-0.6-0.1-0.9l0.3,0
							c-0.4-0.3-0.5-0.3-0.6-0.6c0-0.1,0.2-0.1,0.2,0c0.1-0.3-0.3-0.2-0.1-0.6l0.2,0.1c0-0.3-0.1-0.3-0.3-0.4
							c-0.1-0.2,0.1-0.5,0.3-0.6c-0.2,0-0.4-0.2-0.3-0.4c0.1,0,0.2,0,0.2,0.1c0.2-0.5-0.3-0.7-0.1-1c0.1,0,0.1,0,0.2-0.1
							c0,0.4,0,0.7,0,0.7c0.3,0,0.3-0.3,0.7-0.1c-0.2-0.2-0.6-0.7-0.5-1c0,0,0,0,0.1,0l0,0c0-0.1,0-0.1,0-0.2c0-0.1,0.1-0.2,0.1-0.2
							c0.2,0,0.1-0.4,0.1-0.5c-0.3,0-0.2-0.2-0.5,0c0,0,0,0,0,0.1c0,0,0,0.1,0,0.1c0,0,0,0,0,0c0,0.1,0,0.2,0,0.4
							c-0.1-0.1-0.3-0.2-0.1-0.4c-0.2-0.1-0.4-0.2-0.5-0.2c0.4-0.2,0.6-0.6,0.8-0.7c-0.2-0.5-0.1-1.1-0.6-1.4
							c-0.1-0.1,0.2-0.2,0.2-0.2c0.1,0.1,0,0.2,0.1,0.2c-0.1-0.3-0.1-0.8-0.4-0.9c0.2-0.3,0.3,0.2,0.3-0.3l0.1,0.1
							c0.6-0.9-0.9-1.5-0.2-2.5c0,0.1-0.1,0.1-0.1,0.1c0.3-1.1-0.3-2.4,0.2-3.5c0.1-0.3-0.1-0.4-0.3-0.6l0.3-0.1l-0.3-0.3
							c-0.3-0.5,0.7-0.8,0.3-1.4l-0.2,0.1c0-0.2-0.1-0.7,0.1-0.6c0,0-0.2-0.1-0.1-0.2l0.2,0l-0.3-0.5c0.1-0.4,0.6,0.1,0.7-0.5
							c-0.1-0.2-0.5-0.6-0.6-0.6c0,0.1-0.1,0.2-0.3,0.2l-0.1-0.2c-0.5,0-0.9-0.2-1.3,0.3l0.3,0.3l-0.2,0.1l0-0.3
							c-0.2,0.2,0,0.3,0.1,0.4c-0.1,0-0.2,0.1-0.2,0.1l0.4,0.3c-0.2,0-0.4-0.2-0.5,0.1c0.2,0.2,0.4-0.2,0.5,0.1
							c-0.2,0.2-0.4,0.1-0.2,0.3c-0.1,0-0.2,0-0.2-0.1c0.1,0.2,0.1,0.5,0.3,0.6c-0.3,0.2,0.1,0.6-0.4,0.6c0.1,0.1,0.3,0.3,0.4,0.5
							c-0.5-0.3,0,0.6-0.6,0.5c0.5,0.2,0.2,0.8,0.5,1.2c0,0-0.1-0.1-0.1-0.1c0,0.2-0.2,0.3-0.3,0.4c0.4,0,0.5,0.4,0.7,0.5
							c-0.4,0.3-0.5-0.2-0.8-0.1c0.3,0,0.3,0.5,0.6,0.4c-0.2,0.2-0.1,0.2-0.4,0.3c0.5,0,0.1,0.2,0.4,0.4c-0.2,0.3-0.5,0.1-0.3,0.4
							C31.3,7.4,31.1,7.2,31.1,7.2z M32,14.8C32,14.8,32,14.8,32,14.8c0-0.1,0-0.1,0-0.2C32,14.7,32,14.7,32,14.8z M32,15.5
							c0-0.1,0-0.2,0-0.3c0.1,0,0.2,0,0.2,0.1C32.1,15.2,32.1,15.4,32,15.5z M33.9,14.1c0,0.1,0,0.1-0.1,0.1c0,0,0-0.1,0-0.2
							c0,0,0,0,0,0C33.9,14.1,33.9,14.1,33.9,14.1z"/>
						<path class="st0" d="M33.6,13.9C33.6,13.9,33.6,13.9,33.6,13.9C33.5,13.9,33.5,13.9,33.6,13.9C33.5,13.9,33.5,14,33.6,13.9
							C33.6,13.9,33.6,13.9,33.6,13.9z"/>
						<path class="st0" d="M33.2,72.2L33.2,72.2C33.1,72.2,33.1,72.2,33.2,72.2C33.1,72.2,33.1,72.2,33.2,72.2z"/>
						<polygon class="st0" points="31.5,24.3 31.5,24.3 31.5,24.3 						"/>
						<path class="st0" d="M32.2,75.8C32.2,75.8,32.1,75.8,32.2,75.8C32.1,75.8,32.2,75.8,32.2,75.8z"/>
						<path class="st0" d="M32.1,77.3L32,77.5C32.1,77.4,32.1,77.3,32.1,77.3z"/>
						<path class="st0" d="M32,78.5c0,0,0.1,0,0.1,0c0,0,0,0,0,0L32,78.5z"/>
						<path class="st0" d="M31.7,59.8C31.7,59.7,31.6,59.7,31.7,59.8C31.6,59.6,31.6,59.7,31.7,59.8z"/>
						<path class="st0" d="M32.3,65.3c-0.1-0.1-0.1-0.1-0.1-0.2C32.2,65.2,32.2,65.3,32.3,65.3z"/>
						<path class="st0" d="M31.3,53.5C31.3,53.5,31.3,53.5,31.3,53.5C31.3,53.5,31.3,53.5,31.3,53.5L31.3,53.5z"/>
						<path class="st0" d="M32.2,64.9c-0.1,0.1,0,0.2,0,0.3C32.2,65.1,32.2,65,32.2,64.9z"/>
						<path class="st0" d="M31.9,83.6L31.9,83.6C31.9,83.6,31.9,83.6,31.9,83.6L31.9,83.6z"/>
						<path class="st0" d="M31.9,83.6L31.9,83.6C31.9,83.7,31.9,83.6,31.9,83.6z"/>
						<path class="st0" d="M32,83.8l-0.1-0.1C31.9,83.7,31.9,83.8,32,83.8z"/>
						<path class="st0" d="M32,82l-0.1,0C31.9,82,31.9,82,32,82z"/>
						<path class="st0" d="M32,81.5c0,0.1-0.2,0.3-0.2,0.4l0.1,0C31.7,81.9,32.1,81.6,32,81.5z"/>
						<path class="st0" d="M33.2,79.6L33.1,80c0.1-0.1,0.3-0.2,0.3,0C33.7,79.5,33.2,80.1,33.2,79.6z"/>
						<path class="st0" d="M33.4,78.3c0.1,0.2,0.2,0,0.2,0C33.5,78.2,33.5,78.2,33.4,78.3z"/>
						<path class="st0" d="M33.4,69.4l0.3,0C33.6,69.3,33.5,69.5,33.4,69.4z"/>
						<polygon class="st0" points="32.1,67.7 31.9,67.9 32.1,68 						"/>
						<polygon class="st0" points="33.9,66.7 33.9,66.8 33.8,66.5 						"/>
						<path class="st0" d="M33.8,51.8l-0.3,0C33.5,52,33.9,52,33.8,51.8z"/>
						<path class="st0" d="M33.5,45.4c0.2-0.1,0.3-0.3,0.1-0.4C33.5,45.2,33.4,45.3,33.5,45.4z"/>
						<polygon class="st0" points="34,26 34.1,26.2 34,25.9 						"/>
					</g>
				</g>
			</g>
		</g>
	</g>
	<g>
		<g>
			<g>
				<g>
					<g>
						<path class="st0" d="M0.2,57.5C0.1,57.5,0,57.7,0,57.7l0.2-0.2L0.2,57.5z"/>
						<path class="st0" d="M0.1,58.2c0.2-0.1,0.4-0.2,0.6-0.5c-0.3,0.2-0.2,0.1-0.5,0.3c-0.1,0,0-0.2,0.1-0.2c-0.1,0.1,0-0.1-0.2,0
							c-0.1,0.2,0,0.3,0.2,0.2C0.2,58.1,0.1,58.2,0.1,58.2z"/>
						<path class="st0" d="M4.4,62.5L4.4,62.5C4.4,62.4,4.4,62.4,4.4,62.5z"/>
						<path class="st0" d="M7.2,65C7.2,65,7.2,65,7.2,65C7.2,65,7.2,65,7.2,65z"/>
						<path class="st0" d="M7.5,65.7C7.5,65.6,7.5,65.6,7.5,65.7C7.5,65.7,7.5,65.7,7.5,65.7z"/>
						<path class="st0" d="M4.4,62.5l0,0.1C4.5,62.5,4.5,62.5,4.4,62.5z"/>
						<path class="st0" d="M1.2,58.1C1.2,58.1,1.2,58.2,1.2,58.1C1.2,58.2,1.2,58.2,1.2,58.1C1.2,58.2,1.2,58.2,1.2,58.1z"/>
						<path class="st0" d="M3,61.6L3,61.6c-0.1,0-0.1,0-0.1,0.1L3,61.6z"/>
						<path class="st0" d="M2,60.9c0,0,0.2-0.2,0.3-0.3c-0.1,0.1-0.1,0.1-0.2,0.1C2.1,60.7,2,60.8,2,60.9z"/>
						<path class="st0" d="M0.7,59.2L0.7,59.2C0.7,59.2,0.7,59.2,0.7,59.2z"/>
						<path class="st0" d="M3.7,62.2C3.6,62.3,3.6,62.3,3.7,62.2C3.6,62.3,3.6,62.3,3.7,62.2z"/>
						<path class="st0" d="M32.4,83.1C32.4,83.1,32.4,83.1,32.4,83.1C32.4,83.1,32.4,83.1,32.4,83.1z"/>
						<path class="st0" d="M32.7,85.1L32.7,85.1c-0.1,0-0.1,0.1-0.1,0.1L32.7,85.1z"/>
						<path class="st0" d="M8.2,66.7C8.2,66.7,8.2,66.7,8.2,66.7C8.1,66.7,8.1,66.7,8.2,66.7z"/>
						<path class="st0" d="M16.6,73.3c0.1-0.3,0.4-0.1,0.4-0.5C17,73,16.6,73.1,16.6,73.3z"/>
						<path class="st0" d="M1.2,58.2C1.3,58.2,1.3,58.2,1.2,58.2C1.3,58.2,1.3,58.2,1.2,58.2z"/>
						<path class="st0" d="M17,72.9C17,72.9,17,72.9,17,72.9L17,72.9C17,72.9,17,72.9,17,72.9z"/>
						<path class="st0" d="M10.4,68.3c0,0,0-0.1,0.1-0.1C10.4,68.2,10.4,68.2,10.4,68.3z"/>
						<path class="st0" d="M9.1,66.7L9.1,66.7C9.1,66.7,9.1,66.7,9.1,66.7z"/>
						<path class="st0" d="M11.4,68.6C11.4,68.6,11.4,68.7,11.4,68.6C11.5,68.7,11.5,68.7,11.4,68.6C11.4,68.7,11.4,68.7,11.4,68.6z
							"/>
						<path class="st0" d="M12.3,69.3C12.3,69.3,12.3,69.3,12.3,69.3C12.3,69.2,12.3,69.2,12.3,69.3L12.3,69.3z"/>
						<path class="st0" d="M29.8,81.1c0,0.1-0.1,0.2-0.1,0.2C29.8,81.1,30,81.2,29.8,81.1z"/>
						<path class="st0" d="M1.1,58.3c0-0.1,0.1-0.1,0.1-0.1C1.2,58.2,1.2,58.2,1.1,58.3C1.2,58.2,1.2,58.2,1.1,58.3z"/>
						<path class="st0" d="M12.9,66.9l0.1,0.1C12.9,67,12.9,67,12.9,66.9z"/>
						<path class="st0" d="M23.7,76.2L23.7,76.2C23.8,76.2,23.8,76.2,23.7,76.2z"/>
						<path class="st0" d="M13.4,67.4c0,0.1-0.1,0.2,0,0.2c0,0,0,0,0.1,0L13.4,67.4z"/>
						<path class="st0" d="M29.7,81.3C29.7,81.3,29.7,81.3,29.7,81.3C29.7,81.3,29.7,81.3,29.7,81.3z"/>
						<path class="st0" d="M31,81.5c-0.1-0.1-0.3,0.2-0.4,0.4c-0.2,0,0.1-0.3,0.2-0.5c-0.2,0-0.4,0.2-0.5,0.1c0-0.1,0-0.1,0.1-0.1
							c-0.3,0.1-0.3-0.2-0.7,0c0,0,0-0.1,0-0.1c-0.1,0.2-0.2,0.3-0.3,0.4c-0.1,0-0.3,0.1-0.1-0.1c0,0,0.1,0,0.2-0.1l-0.1,0
							c0.2-0.3,0.2,0,0.3-0.2c-0.2,0-0.5,0.1-0.5,0c0.2-0.3,0.3,0.1,0.4-0.2l0.1,0.2c0.2-0.5,0.1,0.1,0.3-0.4
							c-0.1-0.2-0.3,0-0.4-0.3c-0.2,0.1-0.2,0.2-0.3,0.3c-0.5,0.1,0.3-0.8-0.1-0.6c-0.2,0.1-0.5,0.5-0.5,0.2l0.3-0.3
							c-0.2-0.2-0.5,0.3-0.5,0c0.1-0.1,0.2,0,0.2,0c0.1-0.3-0.2,0.1-0.3,0l0.2-0.3c-0.2-0.1-0.6-0.1-0.8-0.2
							c0.1-0.1,0.2-0.1,0.2-0.2c-0.4-0.1-0.5-0.5-0.7-0.9l-0.3,0.1c0,0,0-0.1,0.1-0.2c0-0.2-0.1,0.1-0.2,0.2c-0.1,0,0-0.2,0.1-0.2
							c-0.3,0.1-0.8,0-0.8-0.4l0.1,0c-0.1-0.2-0.5,0.3-0.5,0l0.1,0c-0.2-0.4-0.7-0.4-0.7-1c-0.3,0.3-0.2-0.4-0.6,0
							c0-0.4,0.1-0.4,0-0.8c0-0.1-0.3,0.2-0.5,0.2l0.2-0.2l-0.3,0.2l0.2-0.3l-0.1,0c0,0,0,0.2-0.1,0.2c-0.2,0-0.2-0.4-0.1-0.5
							l-0.4,0c0.1-0.1,0.2-0.1,0.2-0.1c-0.4,0.1,0.2-0.3-0.1-0.2c0,0.1-0.1,0.1-0.2,0.2c0-0.2-0.1-0.3-0.3-0.4l0.2-0.1
							c-0.2-0.2-0.5-0.3-0.7-0.5c0,0.1-0.2,0.4-0.3,0.4l0.2-0.3c-0.2,0.1,0,0.2-0.3,0.3c-0.1-0.1,0.2-0.3,0.3-0.4l-0.2,0
							c0.1-0.1,0.1-0.1,0.2-0.2c-0.2,0.1,0-0.4-0.3-0.2l0.1-0.1c-0.2-0.2-0.4-0.2-0.6-0.3c-0.2,0.2-0.2,0.1-0.4,0.2
							c-0.1-0.2-0.1-0.5-0.3-0.6c-0.2,0-0.2,0.2-0.3,0.2c0.2-0.2,0-0.3,0.2-0.4c-0.2-0.1-0.3-0.2-0.7-0.2c0,0.1,0,0.2-0.1,0.2
							c-0.1,0,0-0.2,0-0.3l0,0c-0.5,0.1-0.2-1.1-0.8-0.9l0,0l-0.4,0c-0.1-0.1,0.2-0.1,0.2-0.3c-0.5,0.1-0.4-0.4-0.8-0.3
							c0.3-0.7-0.6-0.4-0.5-1l-0.1,0.1c-0.2,0.1,0-0.1,0-0.2c-0.1,0.1,0,0.2-0.1,0.2c-0.6-0.2-0.8-1-1.2-1.6
							c-0.2-0.2-0.7,0.6-0.6,0.1l0.3-0.2c-0.6,0-0.7-0.6-1.3-0.7c0.1,0,0.1-0.1,0.2-0.1c0.1-0.2-0.3-0.2-0.4-0.1
							c0-0.1,0.1-0.1,0.1-0.3c0-0.2-0.4,0.1-0.3-0.1c0,0,0.1,0,0.1,0c-0.1,0-0.2-0.2-0.3,0c-0.1-0.2-0.3-0.1-0.3-0.3
							c-0.3,0.2-0.1-0.3-0.4,0c0.3-0.3,0-0.5-0.2-0.4c0.1-0.1,0-0.2,0.2-0.3c-0.1-0.1-0.2-0.1-0.4,0.1c0.2-0.6-0.6,0-0.3-0.6
							c-0.4-0.1-0.8-0.1-1.1-0.3c0.3-0.3,0.3,0.2,0.6-0.2c-0.4-0.1-0.8,0.1-0.9-0.2c0-0.1,0.2-0.1,0.2-0.2c-0.4-0.1-0.5-0.4-0.8-0.4
							c0,0,0.1,0,0.1-0.1c-0.1,0-0.1-0.1-0.2,0l0.1,0c-0.1,0.3-0.6,0.3-0.7,0.5c0.4-0.4-0.1-0.3,0.5-0.8c-0.1,0-0.2,0.1-0.2,0.2
							c0-0.1,0-0.1,0.2-0.2c-0.2,0-0.3,0.2-0.4,0.1c0.1-0.1,0.1-0.1,0.2-0.2c-0.2,0.1-0.4,0.2-0.5,0c0,0,0.1-0.1,0.1-0.1
							c-0.2-0.1-0.7,0.1-0.8-0.2c0.3-0.3,0-0.2,0.2-0.5l-0.2,0l-0.1,0.2c-0.1-0.1-0.4,0-0.4-0.1L8.2,64L8,63.9l0,0.2
							c-0.2,0.1-0.3,0.4-0.4,0.2c0.1,0-0.1-0.1,0-0.3c0,0,0,0,0,0c-0.1,0-0.3,0.1-0.3,0c0.1-0.1,0.3-0.3,0.3-0.4
							c-0.2,0.2-0.3-0.1-0.6,0.1c0.1,0,0.2-0.2,0.2-0.2l-0.2,0.2c0-0.1,0-0.1,0.1-0.3c-0.1-0.2-0.3,0.4-0.3,0.1c0,0,0,0,0.1,0
							c-0.1-0.2-0.4-0.2-0.5-0.4c0.2-0.3,0.2,0,0.3-0.2c-0.3-0.1-0.8,0-0.9-0.3l0,0.1c-0.4,0.4,0-0.3-0.3-0.2c0.1,0,0.2-0.2,0.2-0.2
							c-0.1-0.2-0.4-0.2-0.7-0.2l0.1-0.1c0-0.2-0.2-0.3-0.3-0.4c-0.1,0.1-0.2,0-0.2,0.2c0.2-0.8-0.8-0.2-0.7-0.9c0,0,0.2,0,0.1-0.1
							l-0.3-0.1c-0.1,0.2-0.1,0.1-0.1,0.3C3.6,61,3.5,61,3.4,61c0.2,0,0.2-0.3,0.3-0.4c0,0.1-0.1,0.1-0.1,0.2c0.1-0.4-0.3,0.3-0.3,0
							l0.1-0.1c-0.1,0-0.3,0.1-0.3,0c0.1-0.2,0.1,0,0.3-0.2c-0.1-0.1-0.5,0.2-0.4,0c0.1,0,0.1,0,0.2,0c0.1-0.3,0-0.3,0-0.4l0,0
							l-0.1-0.2l0,0.1c-0.6,0.4-0.3-0.1-0.8,0.1c0.4-0.2,0.2-0.2,0.4-0.4c0-0.1,0-0.2,0.1-0.3c-0.2,0.1,0-0.2-0.3-0.1
							c0.1-0.1-0.1-0.1,0.1-0.2c-0.1,0-0.1,0.1-0.2,0.2c-0.4,0.1-0.1-0.6-0.6-0.4c-0.3,0-0.5,0.2-0.8,0.2c0-0.2,0.3-0.2,0.3-0.2
							c0-0.2-0.1-0.2-0.2-0.2c0.1-0.1,0.1-0.1,0.1-0.2c-0.1,0-0.3,0.2-0.3,0c0.1-0.1,0.2-0.2,0.3-0.2c-0.1,0-0.3,0.1-0.5,0.1
							C0.8,58.1,0.9,58.1,1,58c-0.1,0-0.3-0.1-0.5,0.1l0,0.1c0,0,0.1-0.2,0.2-0.2c0.2-0.1,0.1,0.2,0,0.2l-0.1,0
							c-0.3,0.5,0.3,0.1,0.4,0.3l-0.3,0.3L1,58.7c0,0.1-0.2,0.3-0.3,0.3c0,0.2,0.2-0.1,0.1,0.2c0,0,0,0,0,0.1l0.2,0
							c-0.1,0.1-0.2,0.2-0.2,0.1c0,0.3,0.4,0,0.3,0.3l0,0c0.3,0.1,0.2-0.2,0.6-0.4l-0.4,0.7l0.2-0.2c0,0,0,0.1,0,0.2
							c0.2-0.1,0.1-0.1,0.2-0.2c-0.1,0.3,0.4,0.1,0.1,0.5c0.2-0.1,0-0.2,0.2-0.3c-0.3,0.4,0.2,0,0.1,0.3c-0.2,0.2-0.2,0-0.3,0.3
							c0.3-0.3,0.1,0.2,0.3,0.2c0.2-0.3,0.3,0,0.5,0c-0.1,0.1,0.1,0.4,0.2,0.6l0,0c0.3-0.3,0.3-0.1,0.5-0.1
							c-0.1,0.2-0.2,0.2-0.3,0.3L3,61.6c0.1-0.1,0.2-0.1,0.2-0.1L3,61.7c0.1,0.1,0.4-0.1,0.5,0.2c0.2-0.2,0.3-0.7,0.6-0.7
							c-0.1,0.1-0.2,0.3-0.3,0.3c0,0,0.1,0,0.1,0l-0.2,0.1c0,0.1,0.2-0.1,0.2-0.1c-0.1,0.2,0,0.1-0.2,0.3c0,0,0-0.1-0.1-0.1
							c0,0.1,0,0.2,0,0.4c0.1-0.1,0.2-0.2,0.2-0.2c0.1,0.1-0.1,0.2-0.1,0.4c0.1-0.1,0.1,0.1,0.3-0.1c0,0,0,0.1-0.1,0.2
							c0.1,0,0.3,0.2,0.4-0.1l0,0c0,0,0,0,0,0c0,0,0,0,0,0l0,0c0.4-0.1,0.3,0.5,0.6,0.5L5,63c0.2,0,0.3,0.2,0.5,0.1
							c0,0,0,0.2-0.1,0.3c0.1,0,0.2-0.1,0.2,0.2c-0.2,0.1-0.1,0.1-0.2,0c0.1,0.2,0,0.3,0.3,0.2c-0.2,0.2-0.1,0.3,0,0.3l0-0.2
							c0.1,0,0.1,0.1,0.2,0.2l-0.2,0.2c0,0.5,0.9-0.2,0.6,0.5c0.2-0.1,0-0.2,0.2-0.4c0.1,0.1-0.1,0.6-0.1,0.6c0,0.3,0.5-0.3,0.5,0
							c0.1-0.1,0.2-0.4,0.4-0.4c0.1,0.1-0.2,0.5-0.3,0.5c0,0,0-0.1,0-0.1C7.1,65,7,65,7,65.1l0.1-0.1c0,0.1,0.1,0.3,0,0.4
							c0.2,0,0.2-0.1,0.1-0.2c0,0.3,0.2,0.2,0.3,0.4c0-0.1,0.1-0.2,0.1-0.2c0.1,0.3,0.2-0.1,0.4,0c0,0.2-0.3,0.3-0.1,0.3
							c0,0.2-0.2,0.3-0.3,0.3c0.3-0.1,0.2,0.3,0.2,0.4l-0.1,0c0.1,0,0.1,0,0.1,0.1L8,66.3c0,0.1,0.1,0.1,0,0.2
							c0.1-0.1,0.2-0.3,0.4-0.4c0,0.1,0.3,0,0.1,0.3c-0.1-0.2-0.2,0.3-0.4,0.2c0.1,0,0.1,0,0.1,0.1c0,0,0,0-0.1,0.1
							c0,0.4,0.3-0.2,0.5-0.1c-0.1,0.1-0.2,0.3-0.1,0.3c-0.1-0.1,0.2-0.3,0.3-0.3c0,0.2,0.2,0,0.2,0.1l0-0.1c0.1-0.1,0.2-0.1,0.3,0
							c-0.1,0.1-0.1,0-0.1,0.1c0.3-0.2,0,0.4,0.2,0.3c0,0.1-0.2,0.3-0.2,0.4c0.3-0.1,0,0.3,0.3,0.3c0.1-0.2,0.1-0.2,0.3-0.3
							l-0.3-0.1l0.4-0.1c-0.1-0.1-0.2,0-0.3-0.1C9.8,67,9.7,67,9.8,66.8c-0.1,0.4,0.3,0,0.3,0.3l-0.4,0.5c0,0.3,0.5,0,0.6,0.3l0-0.1
							c0.2-0.2,0.2,0.1,0.3,0.1c-0.1,0.1-0.1,0.2-0.2,0.4c0.1-0.1,0.2,0.1,0.4-0.1l-0.1,0.3c0.1,0.2,0.6-0.3,0.7-0.1
							c-0.2,0.1-0.2,0.3-0.4,0.3c0.1,0,0.1,0.1,0.2,0c0,0.1,0.3-0.1,0.3,0.1c0.1,0,0.2-0.2,0.3-0.1c0,0-0.1,0.1-0.1,0.1
							c0.1-0.1,0.2,0,0.3-0.2c-0.2,0.6,0.5,0.4,0.3,0.9c0.2,0,0.4,0.1,0.5,0.2c0,0-0.1,0.1-0.1,0c0,0.3,0.5-0.4,0.5-0.1
							c-0.1,0.3-0.2,0.1-0.2,0.2c-0.4,0.5,0.3,0.1,0.1,0.5l-0.1,0c0,0.2,0.4,0,0.5,0.1c0,0,0,0-0.1,0.1c0.3-0.2,0.6-0.1,0.8-0.1
							c-0.2,0.2-0.1,0.1-0.3,0.3c0.1,0,0.2-0.3,0.4-0.3c0,0.1,0,0.3-0.2,0.5l-0.1-0.1c-0.2,0.3,0.2,0.1,0.2,0.2l-0.1,0.1
							c0.2,0.1,0.5-0.2,0.6,0l0.1-0.1c0.4-0.2,0,0.2,0.2,0.1l-0.2,0.3c0.1,0,0.5-0.1,0.7,0c-0.3,0.2-0.5,0.2-0.7,0.2
							c0.1,0.1,0.3,0.2,0.4,0.1c-0.1,0-0.1,0.1-0.1,0c0.3-0.2,0.5-0.2,0.6-0.1c-0.5,0.6,0.2,0.4,0,1c0.4,0,0.4,0.5,0.7,0.7
							c0.3-0.5,0.1,0.1,0.5-0.4c0.1,0,0.1,0.1,0.1,0.1l0,0.5c-0.1,0.2-0.1,0.1-0.2,0.2c0.1,0.2-0.1,0.3-0.1,0.5
							c0.1-0.2,0.2-0.2,0.3-0.1l0.1-0.3c0.4-0.1-0.1,0.5,0.3,0.5l-0.2,0.1c0.2,0,0.4,0.3,0.8,0c0,0.1-0.1,0.2-0.2,0.2
							c0.2,0.3,0.9,0.1,0.9,0.5l-0.1,0.1c0.1,0,0.3-0.1,0.2,0c0,0-0.1,0.1-0.1,0.1c0.1,0,0.3-0.1,0.3,0l-0.2,0.1
							c0.1,0.4,0.6,0,0.9,0.1c-0.3,0.3-0.2,0.6-0.1,0.7l0,0c0.3,0.3,0.7,0.1,1.1,0.2c-0.1,0.5,0.4,0.6,0.5,1c0-0.1,0.2-0.3,0.3-0.3
							c0,0.1,0.4-0.1,0.1,0.2l0,0c-0.2,0.3,0,0.4,0.1,0.5l0.4-0.4c-0.2,0.8,0.9,0.3,0.6,1c0.1-0.1,0.2,0,0.4,0l-0.2,0.2
							c0.1,0.2,0.2,0.3,0.5,0.4L23,79c0.1,0.1,0.7-0.5,0.8-0.4L23.6,79c0.2,0.2,0.2,0.6,0.7,0.5c0,0-0.1,0.1-0.2,0.1
							c0.1,0.1,0.2,0.5,0.5,0.1c-0.2,0.3,0.2,0.2,0.4,0.2L24.8,80c0.3-0.2,0.4-0.3,0.6-0.2c0,0.1-0.1,0.2-0.1,0.1
							c0,0.2,0.3-0.1,0.3,0.1l-0.2,0.1c0.1,0.1,0.1,0,0.3-0.1c0.1,0,0.2,0.2,0,0.4c0.1-0.1,0.3-0.2,0.3-0.1
							c-0.1,0.1-0.1,0.1-0.1,0.1c0.1,0.3,0.5,0,0.4,0.3c-0.1,0.1-0.1,0.1-0.1,0.1c-0.1-0.1-0.3-0.2-0.2-0.2
							c-0.2,0.2-0.1,0.3-0.4,0.5c0.2-0.1,0.6-0.3,0.7-0.1c0,0,0,0,0,0.1l0,0c0,0,0,0,0.1,0c0,0.1,0,0.1,0,0.1
							c-0.1,0.2,0.1,0.2,0.1,0.3c0.2-0.2,0.2-0.1,0.3-0.4c0,0,0,0-0.1,0c0,0,0,0,0,0c0,0,0,0,0,0c0,0-0.1-0.1-0.2-0.1
							c0.1-0.1,0.3-0.1,0.2,0c0.1-0.1,0.3-0.2,0.4-0.3c-0.2,0.4-0.1,0.7-0.3,0.9c0.3,0,0.5,0.3,0.9,0c0.1,0,0,0.2-0.1,0.2
							c-0.1,0-0.1,0-0.2,0c0.2,0,0.3,0.2,0.6-0.1c0,0.2-0.3,0.2-0.1,0.3l-0.1,0.1c0,0.7,1.2-0.3,1.1,0.6c0-0.1,0-0.1,0-0.1
							c0.2,0.6,1.1,0.5,1.2,1.3c0.1,0.2,0.2,0,0.4-0.1l-0.2,0.3l0.4-0.2c0.3,0-0.1,0.8,0.4,0.7l0.1-0.2c0.1,0.1,0.3,0.1,0.2,0.3
							c0,0,0.2-0.1,0.1,0L31.7,85l0.4,0c0.1,0.2-0.4,0.5-0.2,0.7c0.1,0,0.5-0.2,0.6-0.3c0,0,0-0.1,0.1-0.3l0.1,0
							c0.3-0.3,0.7-0.7,0.7-1.1L33,84.1l0.1-0.2l0.1,0.1c0.1-0.2-0.1-0.1-0.2,0c0.1-0.1,0.1-0.2,0.1-0.2l-0.4,0.2
							c0.1-0.2,0.3-0.2,0.3-0.4c-0.2,0.1-0.2,0.4-0.4,0.4c0.1-0.2,0.2-0.3,0-0.3c0.1-0.1,0.1-0.1,0.2-0.2c-0.2,0.1-0.2-0.1-0.4,0.1
							c0.1-0.3-0.3-0.1,0-0.5c-0.1,0.1-0.3,0.2-0.4,0.1c0.4-0.3-0.2-0.2,0.2-0.6c-0.4,0.3-0.4-0.1-0.8,0c0,0,0.1-0.1,0.1,0
							c-0.1-0.1,0-0.2,0-0.3c-0.3,0.3-0.4,0.3-0.7,0.4c0.1-0.4,0.4-0.3,0.6-0.6c-0.2,0.3-0.4,0.1-0.5,0.3c0.1-0.2,0-0.1,0.2-0.4
							c-0.3,0.4-0.1,0-0.4,0.2c0-0.3,0.3-0.4,0-0.4C30.8,81.6,31,81.5,31,81.5z M27.5,79.7C27.5,79.7,27.5,79.7,27.5,79.7
							C27.5,79.7,27.5,79.8,27.5,79.7C27.5,79.8,27.5,79.7,27.5,79.7z M27.2,79.5c0,0,0.1,0.1,0.1,0.1c-0.1,0.1-0.1,0.2-0.1,0.1
							C27.2,79.7,27.2,79.6,27.2,79.5z M26.5,81.5c-0.1,0,0-0.1,0-0.1C26.5,81.4,26.5,81.4,26.5,81.5c0.1-0.1,0.1-0.1,0.1-0.1
							C26.6,81.4,26.5,81.4,26.5,81.5z"/>
						<path class="st0" d="M26.8,81.2C26.8,81.2,26.8,81.2,26.8,81.2C26.8,81.2,26.9,81.2,26.8,81.2C26.8,81.2,26.8,81.2,26.8,81.2
							C26.8,81.2,26.8,81.2,26.8,81.2z"/>
						<path class="st0" d="M4.4,62.4L4.4,62.4C4.4,62.4,4.4,62.4,4.4,62.4C4.4,62.4,4.4,62.4,4.4,62.4z"/>
						<polygon class="st0" points="24.1,76.3 24.1,76.3 24.1,76.3 						"/>
						<path class="st0" d="M3.7,60.5C3.7,60.5,3.7,60.5,3.7,60.5C3.7,60.5,3.7,60.5,3.7,60.5z"/>
						<path class="st0" d="M3.1,60l0-0.1C3.1,59.9,3.1,60,3.1,60z"/>
						<path class="st0" d="M2.7,59.5C2.7,59.5,2.7,59.6,2.7,59.5C2.7,59.6,2.7,59.6,2.7,59.5L2.7,59.5z"/>
						<path class="st0" d="M10.2,65.2C10.2,65.2,10.2,65.2,10.2,65.2C10.3,65.2,10.3,65.2,10.2,65.2z"/>
						<path class="st0" d="M7.6,63.9c0.1,0,0.1,0,0.2,0C7.8,63.8,7.7,63.8,7.6,63.9z"/>
						<path class="st0" d="M12.8,66.9C12.8,66.9,12.8,66.9,12.8,66.9C12.9,66.9,12.9,66.9,12.8,66.9L12.8,66.9z"/>
						<path class="st0" d="M7.9,64C7.9,63.9,7.9,63.9,7.9,64C7.8,63.9,7.8,64,7.9,64z"/>
						<path class="st0" d="M0.9,57.8L0.9,57.8C0.8,57.8,0.8,57.8,0.9,57.8L0.9,57.8z"/>
						<path class="st0" d="M0.8,57.8L0.8,57.8C0.8,57.8,0.8,57.8,0.8,57.8z"/>
						<path class="st0" d="M0.7,57.8L0.7,57.8C0.7,57.8,0.7,57.8,0.7,57.8z"/>
						<path class="st0" d="M1.4,58.4L1.4,58.4C1.4,58.3,1.4,58.4,1.4,58.4z"/>
						<path class="st0" d="M1.6,58.5c0-0.1,0-0.3-0.1-0.3l-0.1,0.1C1.6,58.2,1.4,58.6,1.6,58.5z"/>
						<path class="st0" d="M1.5,60.1l-0.1-0.2c0,0.1-0.1,0.2-0.2,0.2C1.2,60.5,1.4,59.9,1.5,60.1z"/>
						<path class="st0" d="M1.9,60.6c-0.1,0-0.1,0.1-0.1,0.2C1.9,60.8,1.9,60.8,1.9,60.6z"/>
						<path class="st0" d="M5.4,63.5l-0.2,0.2C5.3,63.7,5.3,63.6,5.4,63.5z"/>
						<polygon class="st0" points="6.9,63 6.9,62.8 6.7,63 						"/>
						<polygon class="st0" points="6.1,64.7 6.1,64.7 6.2,64.7 						"/>
						<path class="st0" d="M12,69.4l0.2-0.3C12.1,69.1,11.8,69.4,12,69.4z"/>
						<path class="st0" d="M14.7,71.2c-0.1,0.1-0.1,0.3,0.1,0.2C14.7,71.3,14.7,71.2,14.7,71.2z"/>
						<polygon class="st0" points="21.8,77.7 21.7,77.7 21.9,77.8 						"/>
					</g>
				</g>
			</g>
		</g>
	</g>
	<g>
		<g>
			<g>
				<g>
					<g>
						<path class="st0" d="M63.2,58.5c0-0.1-0.2-0.2-0.2-0.1l0.2,0.3L63.2,58.5z"/>
						<path class="st0" d="M62.5,58.3c0.1,0.2,0.2,0.4,0.4,0.6c-0.2-0.3-0.1-0.2-0.3-0.5c0-0.1,0.1,0,0.2,0.1c0-0.1,0.1,0,0-0.2
							c-0.2-0.1-0.3-0.1-0.2,0.1C62.6,58.4,62.5,58.4,62.5,58.3z"/>
						<path class="st0" d="M57.9,61.8L57.9,61.8C57.9,61.8,57.9,61.8,57.9,61.8z"/>
						<path class="st0" d="M55.1,64C55.1,64,55.1,63.9,55.1,64C55.1,64,55.1,64,55.1,64z"/>
						<path class="st0" d="M54.4,64.1C54.4,64.1,54.5,64.1,54.4,64.1C54.4,64.1,54.4,64.1,54.4,64.1z"/>
						<path class="st0" d="M57.9,61.8l-0.1,0C57.8,61.8,57.8,61.8,57.9,61.8z"/>
						<path class="st0" d="M62.4,59.4C62.4,59.4,62.4,59.4,62.4,59.4C62.4,59.4,62.4,59.4,62.4,59.4C62.4,59.4,62.4,59.4,62.4,59.4z
							"/>
						<path class="st0" d="M58.9,60.5L58.9,60.5c0-0.1,0-0.1-0.1-0.1L58.9,60.5z"/>
						<path class="st0" d="M59.7,59.7c0,0,0.2,0.2,0.2,0.3c-0.1-0.1-0.1-0.2-0.1-0.2C59.8,59.8,59.8,59.7,59.7,59.7z"/>
						<path class="st0" d="M61.5,58.8L61.5,58.8C61.5,58.7,61.5,58.8,61.5,58.8z"/>
						<path class="st0" d="M58.2,61C58.2,61,58.1,61,58.2,61C58.1,61,58.2,61,58.2,61z"/>
						<path class="st0" d="M34.7,85.1C34.6,85,34.6,85,34.7,85.1C34.6,85.1,34.6,85.1,34.7,85.1z"/>
						<path class="st0" d="M32.7,85L32.7,85c0-0.1-0.1-0.1-0.1-0.1L32.7,85z"/>
						<path class="st0" d="M53.4,64.6C53.4,64.6,53.4,64.6,53.4,64.6C53.4,64.6,53.4,64.6,53.4,64.6z"/>
						<path class="st0" d="M45.9,71.6c0.3,0.1,0.1,0.4,0.4,0.5C46.2,71.9,46.2,71.6,45.9,71.6z"/>
						<path class="st0" d="M62.4,59.4C62.4,59.4,62.4,59.5,62.4,59.4C62.4,59.5,62.4,59.4,62.4,59.4z"/>
						<path class="st0" d="M46.3,72C46.3,72,46.3,72,46.3,72L46.3,72C46.4,72,46.3,72,46.3,72z"/>
						<path class="st0" d="M51.6,66.4c0,0,0.1,0.1,0.1,0.1C51.7,66.5,51.6,66.5,51.6,66.4z"/>
						<path class="st0" d="M53.3,65.5L53.3,65.5C53.2,65.5,53.2,65.5,53.3,65.5z"/>
						<path class="st0" d="M51.1,67.4C51.1,67.4,51,67.4,51.1,67.4C51.1,67.4,51.1,67.4,51.1,67.4C51.1,67.4,51.1,67.4,51.1,67.4z"
							/>
						<path class="st0" d="M50.3,68.1C50.4,68.1,50.4,68.1,50.3,68.1C50.4,68.1,50.4,68.1,50.3,68.1L50.3,68.1z"/>
						<path class="st0" d="M36.9,82.9c-0.1,0-0.1-0.1-0.2-0.2C36.8,82.9,36.8,83,36.9,82.9z"/>
						<path class="st0" d="M62.3,59.3c0,0.1,0.1,0.1,0.1,0.1C62.4,59.4,62.4,59.4,62.3,59.3C62.4,59.4,62.3,59.3,62.3,59.3z"/>
						<path class="st0" d="M52.6,69.1l-0.1,0.1C52.5,69.1,52.5,69.1,52.6,69.1z"/>
						<path class="st0" d="M42.3,77.9L42.3,77.9C42.3,78,42.4,77.9,42.3,77.9z"/>
						<path class="st0" d="M52.1,69.5c-0.1-0.1-0.1-0.1-0.2-0.1c0,0,0,0,0,0.1L52.1,69.5z"/>
						<path class="st0" d="M36.7,82.7C36.7,82.7,36.7,82.7,36.7,82.7C36.7,82.7,36.7,82.7,36.7,82.7z"/>
						<path class="st0" d="M36.3,83.9c0.1-0.1-0.2-0.3-0.3-0.5c0.1-0.2,0.2,0.1,0.4,0.2c0-0.2-0.1-0.5-0.1-0.5c0,0,0.1,0,0.1,0.1
							c-0.1-0.3,0.3-0.3,0.1-0.6c0,0,0.1,0,0.1,0.1c-0.1-0.1-0.3-0.3-0.4-0.4c0-0.1-0.1-0.3,0.1-0.1c0,0,0,0.1,0.1,0.2l0-0.1
							c0.3,0.2,0,0.2,0.2,0.3c0-0.2,0-0.5,0.1-0.5c0.2,0.2-0.1,0.3,0.2,0.4l-0.2,0c0.5,0.3-0.1,0,0.4,0.4c0.2-0.1,0.1-0.3,0.3-0.4
							c-0.1-0.2-0.2-0.2-0.3-0.4c0-0.5,0.8,0.5,0.6,0c-0.1-0.2-0.4-0.5-0.1-0.5l0.2,0.3c0.2-0.1-0.3-0.5,0.1-0.5
							c0.1,0.1,0,0.2,0,0.2c0.3,0.1-0.1-0.2,0-0.3l0.2,0.2c0.1-0.2,0.2-0.5,0.3-0.8c0.1,0.1,0.1,0.2,0.2,0.2
							c0.1-0.3,0.5-0.4,0.9-0.5l-0.1-0.3c0,0,0.1,0.1,0.1,0.1c0.2,0-0.1-0.1-0.2-0.3c0-0.1,0.2,0.1,0.2,0.2c0-0.3,0.1-0.8,0.5-0.7
							l0,0.1c0.2,0-0.3-0.6,0-0.5l0,0.1c0.4-0.2,0.5-0.6,1-0.5c-0.2-0.4,0.4-0.1,0-0.6c0.4,0.1,0.4,0.2,0.7,0.1
							c0.1,0-0.2-0.4-0.1-0.5l0.2,0.2L42,77.9l0.3,0.2l0-0.1c0,0-0.2,0-0.2-0.1c0-0.2,0.4-0.1,0.5,0l0.1-0.4
							c0.1,0.1,0.1,0.2,0.1,0.3c-0.1-0.4,0.2,0.2,0.2-0.1c-0.1,0-0.1-0.1-0.2-0.2c0.2,0.1,0.3,0,0.4-0.2l0.1,0.2
							c0.2-0.1,0.3-0.4,0.6-0.6c-0.1,0-0.4-0.3-0.3-0.4l0.2,0.2c-0.1-0.2-0.1,0-0.2-0.3c0.1,0,0.3,0.2,0.3,0.3l0-0.2
							c0.1,0.1,0.1,0.1,0.2,0.2c-0.1-0.2,0.4,0.1,0.2-0.2l0.1,0.1c0.2-0.2,0.2-0.4,0.4-0.5c-0.2-0.2-0.1-0.2-0.2-0.4
							c0.2,0,0.5,0,0.6-0.2c0-0.2-0.1-0.2-0.2-0.4c0.2,0.2,0.3,0,0.4,0.2c0.2-0.2,0.2-0.3,0.3-0.6c-0.1-0.1-0.2-0.1-0.2-0.1
							c0-0.1,0.2,0,0.2,0.1l0,0c0-0.5,1.1,0,1-0.6l0,0l0-0.4c0.1-0.1,0.1,0.2,0.2,0.2c-0.1-0.5,0.4-0.3,0.4-0.7
							c0.7,0.4,0.5-0.5,1-0.3l-0.1-0.1c-0.1-0.2,0.1,0,0.2,0c-0.1-0.1-0.2-0.1-0.2-0.2c0.3-0.6,1.1-0.6,1.7-0.9
							c0.2-0.1-0.5-0.8,0-0.6l0.2,0.3c0.1-0.6,0.7-0.6,0.8-1.2c0,0.1,0.1,0.1,0.1,0.2c0.2,0.1,0.3-0.2,0.1-0.4
							c0.1,0,0.1,0.1,0.2,0.2c0.2,0,0-0.4,0.2-0.2c0,0,0,0.1,0,0.1c0-0.1,0.2-0.2,0-0.3c0.2,0,0.2-0.3,0.4-0.3
							c-0.1-0.3,0.3-0.1,0-0.4c0.3,0.3,0.5,0.1,0.4-0.2c0.1,0.1,0.2,0,0.3,0.2c0.1-0.1,0.1-0.2-0.1-0.4c0.5,0.3,0-0.6,0.6-0.2
							c0.1-0.4,0.2-0.8,0.4-1.1c0.3,0.3-0.2,0.3,0.1,0.6c0.1-0.3,0-0.7,0.3-0.9c0.1,0,0.1,0.2,0.1,0.2c0.1-0.3,0.5-0.4,0.5-0.7
							c0,0,0,0.1,0,0.1c0,0,0.1,0,0-0.2l0,0.1c-0.3-0.2-0.3-0.6-0.4-0.7c0.3,0.5,0.3-0.1,0.7,0.6c0-0.1,0-0.2-0.1-0.3
							c0.1,0,0.1,0,0.2,0.2c0.1-0.2-0.1-0.3,0-0.4c0.1,0.1,0.1,0.1,0.1,0.2c-0.1-0.2-0.1-0.4,0-0.4c0,0.1,0.1,0.1,0.1,0.1
							c0.2-0.2,0-0.7,0.3-0.7c0.2,0.4,0.2,0,0.4,0.3l0-0.2l-0.2-0.1c0.1-0.1,0-0.4,0.2-0.3l0,0.2l0.1-0.2l-0.2,0
							c0-0.2-0.3-0.3-0.1-0.4c0,0.1,0.1-0.1,0.3,0c0,0,0,0,0,0c0-0.1-0.1-0.3,0.1-0.3c0.1,0.1,0.3,0.3,0.3,0.4
							c-0.2-0.3,0.2-0.3,0-0.6c0,0.1,0.2,0.2,0.2,0.2l-0.1-0.2c0.1,0,0.1,0,0.2,0.2c0.2-0.1-0.4-0.3-0.1-0.3c0,0,0,0,0,0.1
							c0.2-0.1,0.2-0.4,0.4-0.4c0.3,0.2-0.1,0.2,0.2,0.4c0.2-0.2,0.1-0.7,0.4-0.8l-0.1,0C57.4,62.8,58,63.3,58,63
							c0,0.1,0.2,0.2,0.1,0.2c0.2-0.1,0.2-0.4,0.3-0.7l0.1,0.1c0.2,0,0.3-0.1,0.4-0.2c-0.1-0.1,0-0.2-0.2-0.3
							c0.8,0.3,0.2-0.8,0.9-0.5c0,0,0,0.2,0,0.1l0.1-0.3c-0.2-0.2-0.1-0.1-0.3-0.2c-0.1-0.1-0.1-0.3,0-0.3c0,0.2,0.2,0.3,0.4,0.3
							c-0.1,0-0.1-0.1-0.1-0.2c0.4,0.2-0.3-0.4,0-0.3l0.1,0.1c0-0.1,0-0.3,0-0.3c0.2,0.2,0,0.1,0.2,0.3c0.1-0.1-0.2-0.5,0.1-0.4
							c0,0.1,0,0.1,0,0.2c0.3,0.2,0.2,0.1,0.3,0.1l0,0l0.2,0l-0.1,0c-0.4-0.6,0.1-0.3,0-0.8c0.2,0.4,0.1,0.2,0.3,0.4
							c0.1,0,0.2,0.1,0.3,0.1c-0.1-0.2,0.2,0,0.1-0.3c0.1,0.1,0.1-0.1,0.2,0.1c0-0.1-0.1-0.1-0.2-0.2c-0.1-0.4,0.6,0,0.5-0.5
							c0-0.3-0.1-0.6-0.1-0.8c0.2,0.1,0.2,0.3,0.2,0.3c0.2,0,0.2,0,0.2-0.2c0,0.1,0.1,0.1,0.2,0.2c0-0.1-0.2-0.3,0-0.3
							c0.1,0.1,0.2,0.2,0.2,0.3c0-0.1,0-0.3,0-0.5c0.1,0.1,0.1,0.2,0.2,0.3c0-0.1,0.1-0.3,0-0.5l-0.1,0c0,0,0.2,0.2,0.2,0.2
							c0.1,0.2-0.2,0-0.2,0l0-0.1c-0.4-0.4-0.2,0.3-0.3,0.3l-0.2-0.4l0.1,0.4c-0.1-0.1-0.3-0.2-0.3-0.3c-0.2-0.1,0,0.2-0.2,0.1
							c0,0,0,0,0-0.1l0,0.2c0-0.1-0.2-0.2-0.1-0.2c-0.3-0.1,0,0.4-0.3,0.2l0,0c-0.1,0.3,0.2,0.2,0.3,0.6l-0.6-0.5l0.2,0.2
							c0,0-0.1,0-0.2-0.1c0.1,0.2,0.1,0.1,0.2,0.3c-0.3-0.1-0.2,0.3-0.5,0c0.1,0.2,0.2,0,0.2,0.3c-0.4-0.4-0.1,0.2-0.3,0.1
							c-0.2-0.2,0-0.2-0.2-0.3c0.3,0.4-0.2,0.1-0.3,0.2c0.2,0.3-0.1,0.3-0.1,0.5c-0.1-0.1-0.4,0.1-0.6,0.1l0,0
							c0.2,0.3,0.1,0.3,0,0.5C59,60.6,59,60.5,59,60.4l-0.1,0.1c0.1,0.1,0.1,0.2,0.1,0.3l-0.2-0.2c-0.1,0.1,0,0.4-0.3,0.4
							c0.2,0.2,0.6,0.4,0.6,0.7c-0.1-0.1-0.3-0.3-0.3-0.3c0,0,0,0.1,0,0.1l-0.1-0.2c-0.1,0,0.1,0.2,0,0.2c-0.1-0.1-0.1-0.1-0.2-0.2
							c0,0,0.1,0,0.1-0.1c-0.1,0-0.2,0-0.4-0.1c0.1,0.1,0.2,0.2,0.2,0.3c-0.1,0.1-0.2-0.1-0.3-0.2c0.1,0.1-0.1,0.1,0.1,0.3
							c0,0-0.1-0.1-0.2-0.1c0,0.1-0.2,0.3,0,0.4l0,0c0,0,0,0,0,0c0,0,0,0,0,0l0,0c0,0.4-0.5,0.2-0.6,0.5l-0.1-0.1
							c0,0.2-0.2,0.3-0.1,0.5c0,0-0.2-0.1-0.3-0.2c0,0.1,0,0.2-0.2,0.2c0-0.2-0.1-0.1,0-0.2c-0.2,0-0.3-0.1-0.2,0.2
							c-0.1-0.2-0.3-0.2-0.3-0.1l0.2,0.1c0,0.1-0.1,0.1-0.2,0.1L56,62.7c-0.5-0.1,0.1,0.9-0.6,0.5c0.1,0.2,0.2,0,0.4,0.3
							c-0.1,0.1-0.6-0.2-0.6-0.2c-0.3,0,0.2,0.5,0,0.5c0.1,0.1,0.3,0.3,0.3,0.5C55.3,64.3,55,64,55,63.9c0,0,0.1,0,0.1,0
							c0-0.1,0-0.1-0.1-0.2l0.1,0.1c-0.1,0-0.3,0.1-0.4-0.1c0,0.2,0.1,0.2,0.2,0.2c-0.2,0-0.2,0.2-0.4,0.2c0.1,0,0.2,0.1,0.2,0.1
							c-0.3,0.1,0.1,0.2,0,0.4c-0.2-0.1-0.3-0.3-0.3-0.1c-0.2,0-0.2-0.2-0.3-0.3c0,0.3-0.3,0.1-0.4,0.1l0-0.1c0,0.1,0,0.1-0.1,0.1
							l0.2,0.1c-0.1,0-0.1,0-0.2,0c0.1,0.2,0.3,0.3,0.4,0.5c-0.1,0-0.1,0.2-0.3,0c0.2-0.1-0.2-0.2-0.1-0.4c0,0.1,0,0.1-0.1,0.1
							c0,0,0-0.1,0-0.1c-0.3-0.1,0.2,0.3,0,0.5c-0.1-0.2-0.3-0.2-0.3-0.2c0.1-0.1,0.2,0.2,0.3,0.3c-0.2,0,0,0.2-0.1,0.2l0.1,0
							c0.1,0.2,0,0.2,0,0.3c-0.1-0.1,0-0.1-0.1-0.2c0.1,0.3-0.4-0.1-0.4,0.2c-0.1,0-0.2-0.2-0.3-0.3c0,0.3-0.3-0.1-0.3,0.2
							c0.2,0.1,0.2,0.1,0.2,0.3l0.1-0.3l0.1,0.4c0.1-0.1,0-0.2,0.1-0.2c0.1,0.2,0,0.2,0.2,0.3c-0.3-0.2,0,0.3-0.3,0.2l-0.4-0.4
							c-0.3-0.1-0.1,0.5-0.4,0.5l0.1,0c0.1,0.2-0.1,0.1-0.1,0.3c-0.1-0.2-0.2-0.2-0.3-0.2c0.1,0.1-0.2,0.1,0.1,0.4l-0.3-0.1
							c-0.2,0.1,0.2,0.6,0,0.7c-0.1-0.2-0.3-0.2-0.3-0.4c-0.1,0-0.1,0.1,0,0.2c-0.1-0.1,0,0.3-0.1,0.2c0,0.1,0.2,0.2,0.1,0.3
							c0,0-0.1-0.1-0.1-0.1c0.1,0.1,0,0.2,0.2,0.3c-0.6-0.3-0.4,0.4-0.9,0.2c-0.1,0.2-0.2,0.3-0.3,0.4c0,0-0.1-0.1,0-0.1
							c-0.3,0,0.3,0.5,0,0.5c-0.3-0.2,0-0.2-0.2-0.2c-0.5-0.5-0.1,0.2-0.5,0.1l0-0.1c-0.2-0.1,0,0.4-0.2,0.4c0,0,0,0-0.1-0.1
							c0.1,0.3,0,0.6,0,0.8c-0.1-0.2,0-0.2-0.2-0.3c0,0.1,0.3,0.3,0.2,0.5c-0.1-0.1-0.3-0.1-0.5-0.3l0.1-0.1
							c-0.3-0.2-0.1,0.1-0.2,0.1l-0.1-0.1c-0.1,0.2,0.1,0.5-0.1,0.6l0.1,0.1c0.2,0.4-0.2-0.1-0.1,0.2L48,70.2c0,0.1,0,0.5,0,0.6
							c-0.1-0.3-0.1-0.5-0.1-0.7c-0.1,0.1-0.2,0.2-0.1,0.4c0-0.1,0-0.2,0-0.1c0.1,0.3,0.1,0.5,0,0.6c-0.5-0.6-0.5,0.2-1-0.2
							c0,0.4-0.5,0.3-0.8,0.6c0.5,0.4-0.1,0.1,0.4,0.5c0,0.1-0.1,0.1-0.1,0.1l-0.4-0.1c-0.2-0.1,0-0.2-0.1-0.2
							c-0.2,0.1-0.2-0.1-0.4-0.2c0.2,0.1,0.2,0.3,0,0.3l0.3,0.1c0,0.4-0.5-0.2-0.5,0.2l-0.1-0.2c0,0.2-0.4,0.3-0.1,0.8
							c-0.1,0-0.2-0.1-0.2-0.2c-0.3,0.2-0.2,0.9-0.6,0.8l-0.1-0.1c0,0.1,0.1,0.3,0,0.2c0,0-0.1-0.1-0.1-0.1c0,0.1,0.1,0.3-0.1,0.3
							l-0.1-0.2c-0.4,0.1-0.1,0.6-0.2,0.9c-0.3-0.3-0.6-0.3-0.7-0.2l0,0c-0.3,0.2-0.2,0.7-0.3,1c-0.5-0.2-0.6,0.3-1.1,0.3
							c0.1,0,0.2,0.3,0.2,0.3c-0.1,0,0,0.4-0.2,0.1l0,0c-0.3-0.3-0.4-0.1-0.5,0l0.3,0.4c-0.8-0.4-0.4,0.8-1,0.4c0,0.2,0,0.2,0,0.4
							l-0.2-0.2c-0.2,0.1-0.3,0.1-0.5,0.4l-0.1-0.2c-0.1,0.1,0.4,0.7,0.3,0.8l-0.3-0.3c-0.2,0.2-0.6,0.1-0.6,0.5
							c0,0-0.1-0.1-0.1-0.2c-0.1,0.1-0.5,0.1-0.1,0.5c-0.3-0.3-0.2,0.2-0.2,0.4l-0.2-0.2c0.1,0.3,0.2,0.4,0.2,0.6
							c-0.1,0-0.2-0.1-0.1-0.1c-0.2,0,0.1,0.3-0.1,0.3l-0.1-0.2c-0.1,0.1,0,0.1,0,0.3c0,0.1-0.2,0.1-0.4-0.1
							c0.1,0.1,0.2,0.3,0.1,0.3C38,79.4,38,79.4,38,79.3c-0.3,0,0,0.5-0.3,0.4c-0.1-0.1-0.1-0.1-0.1-0.1c0.1-0.1,0.3-0.2,0.3-0.2
							c-0.2-0.2-0.3-0.1-0.5-0.5c0,0.2,0.2,0.7,0,0.7c0,0,0,0-0.1-0.1l0,0c0,0,0,0,0,0.1c-0.1,0-0.1,0-0.1,0c-0.2-0.1-0.2,0-0.3,0.1
							c0.2,0.2,0.1,0.2,0.3,0.3c0,0,0,0,0-0.1c0,0,0,0,0,0c0,0,0,0,0,0c0,0,0.1-0.1,0.1-0.1c0.1,0.1,0.1,0.3-0.1,0.2
							c0.1,0.2,0.2,0.3,0.2,0.4c-0.3-0.2-0.6-0.3-0.8-0.4c-0.1,0.3-0.3,0.4-0.1,0.9c0,0.1-0.2-0.1-0.2-0.1c0-0.1,0-0.1,0-0.2
							c0,0.2-0.2,0.3,0,0.6c-0.2,0-0.2-0.3-0.3-0.1L35.9,81c-0.7-0.2,0.1,1.2-0.8,0.9c0.1,0,0.1,0,0.1,0.1c-0.6,0.1-0.6,1-1.4,0.9
							c-0.2,0,0,0.2,0,0.4l-0.2-0.2l0.1,0.4c0,0.3-0.8-0.3-0.7,0.3l0.2,0.1c-0.1,0-0.2,0.3-0.3,0.1c0,0,0.1,0.2,0,0.1L32.9,84l0,0.4
							c-0.2,0-0.4-0.5-0.6-0.3c0,0.1,0.1,0.5,0.2,0.6c0,0,0.1,0,0.3,0.1l0,0.1c0.3,0.4,0.6,0.8,1,0.8l-0.1-0.3l0.2,0.1l-0.1,0.1
							c0.2,0.1,0.1-0.1,0.1-0.2c0.1,0.1,0.2,0.1,0.2,0.1l-0.2-0.4c0.1,0.1,0.2,0.3,0.3,0.3c-0.1-0.2-0.3-0.3-0.3-0.4
							c0.2,0.1,0.3,0.2,0.2,0.1c0.1,0.1,0.1,0.2,0.1,0.2c0-0.2,0.1-0.2,0-0.4c0.2,0.1,0.2-0.2,0.5,0.1c-0.1-0.1-0.1-0.4-0.1-0.4
							c0.2,0.5,0.2-0.2,0.6,0.3c-0.2-0.4,0.1-0.4,0.1-0.7c0,0,0.1,0.1,0,0.1c0.1,0,0.2,0,0.3,0.1c-0.3-0.3-0.2-0.5-0.3-0.7
							c0.3,0.2,0.3,0.4,0.5,0.6c-0.2-0.2,0-0.4-0.3-0.5c0.2,0.1,0.1,0,0.4,0.2c-0.3-0.4,0-0.1-0.1-0.4c0.3,0.1,0.3,0.3,0.3,0.1
							C36.3,83.7,36.3,83.9,36.3,83.9z M38.5,80.9C38.5,80.9,38.5,80.9,38.5,80.9C38.4,80.9,38.4,80.9,38.5,80.9
							C38.4,80.9,38.4,80.9,38.5,80.9z M38.7,80.7c0,0-0.1,0-0.1,0.1c-0.1-0.1-0.1-0.1-0.1-0.2C38.5,80.6,38.6,80.6,38.7,80.7z
							 M36.9,79.6c0-0.1,0.1,0,0.1,0C37,79.7,37,79.7,36.9,79.6c0.1,0.1,0.1,0.1,0.1,0.1C36.9,79.7,36.9,79.7,36.9,79.6z"/>
						<path class="st0" d="M37.1,80C37.1,80,37.1,80,37.1,80C37.1,80,37.1,80,37.1,80C37.1,80,37.1,80,37.1,80
							C37.1,80,37.1,80,37.1,80z"/>
						<path class="st0" d="M57.9,61.8L57.9,61.8C57.9,61.8,58,61.8,57.9,61.8C58,61.8,57.9,61.8,57.9,61.8z"/>
						<polygon class="st0" points="42.2,78.2 42.1,78.2 42.2,78.3 						"/>
						<path class="st0" d="M59.8,61.4C59.9,61.4,59.9,61.4,59.8,61.4C59.9,61.4,59.9,61.4,59.8,61.4z"/>
						<path class="st0" d="M60.4,60.9l0.1,0C60.5,60.9,60.4,60.9,60.4,60.9z"/>
						<path class="st0" d="M60.9,60.6C60.9,60.6,60.9,60.6,60.9,60.6C60.9,60.5,60.9,60.5,60.9,60.6L60.9,60.6z"/>
						<path class="st0" d="M54.5,66.8C54.5,66.8,54.5,66.8,54.5,66.8C54.5,66.9,54.5,66.9,54.5,66.8z"/>
						<path class="st0" d="M56.1,64.6c0,0.1,0,0.1,0,0.2C56.1,64.7,56.2,64.7,56.1,64.6z"/>
						<path class="st0" d="M52.6,69.1C52.6,69.1,52.6,69.1,52.6,69.1C52.6,69.1,52.6,69.1,52.6,69.1L52.6,69.1z"/>
						<path class="st0" d="M56,64.8C56.1,64.8,56.1,64.8,56,64.8C56.1,64.7,56,64.8,56,64.8z"/>
						<path class="st0" d="M62.8,59.1L62.8,59.1C62.8,59.1,62.8,59.1,62.8,59.1L62.8,59.1z"/>
						<path class="st0" d="M62.8,59.1L62.8,59.1C62.8,59,62.8,59.1,62.8,59.1z"/>
						<path class="st0" d="M62.8,58.9L62.8,58.9C62.8,59,62.9,59,62.8,58.9z"/>
						<path class="st0" d="M62.2,59.5L62.2,59.5C62.2,59.6,62.2,59.6,62.2,59.5z"/>
						<path class="st0" d="M62,59.7c0.1,0,0.2,0.1,0.3,0l0-0.1C62.3,59.7,62,59.5,62,59.7z"/>
						<path class="st0" d="M60.5,59.4l0.2-0.1c-0.1-0.1-0.2-0.1-0.2-0.2C60.1,59,60.7,59.3,60.5,59.4z"/>
						<path class="st0" d="M59.9,59.7c0-0.1-0.1-0.1-0.1-0.2C59.8,59.6,59.8,59.6,59.9,59.7z"/>
						<path class="st0" d="M56.8,62.5l-0.2-0.2C56.6,62.4,56.7,62.4,56.8,62.5z"/>
						<polygon class="st0" points="57.1,64 57.3,64.1 57.1,63.9 						"/>
						<polygon class="st0" points="55.5,63 55.5,62.9 55.5,63.1 						"/>
						<path class="st0" d="M50.3,67.8l0.2,0.2C50.5,67.9,50.3,67.6,50.3,67.8z"/>
						<path class="st0" d="M48.3,70.1c-0.1-0.1-0.3-0.1-0.2,0C48.1,70.1,48.3,70.1,48.3,70.1z"/>
						<polygon class="st0" points="41.1,75.8 41.1,75.7 41,75.8 						"/>
					</g>
				</g>
			</g>
		</g>
	</g>
</g>
</svg>
