<?xml version="1.0" encoding="utf-8"?>
<!-- Generator: Adobe Illustrator 21.0.0, SVG Export Plug-In . SVG Version: 6.00 Build 0)  -->
<svg version="1.1" id="Layer_1" xmlns="http://www.w3.org/2000/svg" xmlns:xlink="http://www.w3.org/1999/xlink" x="0px" y="0px"
	 viewBox="0 0 52.7 89.3" style="enable-background:new 0 0 52.7 89.3;" xml:space="preserve">
<style type="text/css">
	.st0{fill:none;}
</style>
<g>
	<defs>
		<path id="SVGID_1_" d="M22.1,1l-3.3,2.3l-1,5.8v2.6c-0.1,0.1-0.1,0.2-0.2,0.3c0,0.4,0,0.8,0,1.3c0,0.7,0,1.3,0.1,2
			c0.2,0.4,0.3,0.8,0.5,1.2c0.1,0.1,0.2,0.3,0.3,0.4c0.1,0,0.2,0.1,0.2,0.1c0.3,0.1,0.6,0.1,0.9,0.2c0.1,0.8,0.2,1.5,0.3,2.3
			c0.1,0.1,0.1,0.2,0.2,0.3c0,0.2,0,0.3,0.1,0.5c0,0.4,0,0.9,0,1.3c0,0.4,0.1,1,0.1,1.7c0,0.3,0.1,0.6,0,0.8
			c-0.2,0.2-0.5,0.2-0.7,0.4c-0.2,0.2-0.1,0.4-0.1,0.6c0,0.4-0.1,1.1-0.5,2.6c-0.4,0.3-0.7,0.5-1.1,0.8c-0.5,0.4-1,0.8-1.6,1.1
			c-1.3,0.4-2.6,0.8-3.9,1.2c-1.2,0.4-2.4,0.8-3.6,1.2l-2.6,0.9l-1.1,1.5l-0.8,6.6c-0.2,1.3-0.4,2.6-0.6,3.9c0,1.7-0.1,3.3-0.1,5
			c-0.4,1.3-0.9,2.6-1.3,3.8c-0.1,0.8-0.1,1.5-0.2,2.3c-0.2,1-0.4,2-0.7,3v2.5l-1,1.8l0.3,2l0.5,1l-0.8,1.5c0,0-0.6,1.7-0.5,1.7
			s0.4,6.3,0.4,6.3L1,80.7l0.4,1.7l0.3,3.3L3,86.2l0.2,1.3l0.6,0.3l0.5,1.7l38.3-0.5l-0.4-10.2l0-2.5l-0.3-4.3l-0.1-2.1l0.6,2
			l0.5,2.4v1.8l0.4,1.2l0.3,2.8c0,0,0.5,2.3,0.5,2.4s0.2,2.4,0.2,2.4l-0.4,1.3l-0.5,1.3c0,0,0.1,1.5,0,1.6s6.9,0.2,6.9,0.2v-1.8
			v-0.5l0.4,0l0.5-0.4l0.4-0.6l0.1-0.5l0.2-1v-0.9l-0.3-0.9l-0.4-0.8l0-0.9l0.1-0.8L51,78.9l0.3-0.8l0.2-1.6l0.3-3.5L51,71.5
			c0,0,0-1.4,0-1.5s0.1-1.8,0.1-1.8l0-3.5L51,61.8l-0.3-2l-1-1.8l-0.4-1.9v-1.5l-0.8-4.2l0.2-1.2l-0.6-1.5v-1.3l-0.2-1.8l-0.3-5
			l-0.8-4.3l-0.3-1.7L46.4,32l-1.1-0.9l-8.4-2.4l-2.1-0.4l-3-3L31.4,24L31,23.5l0.2-3.1l0.3-0.7l0.6-1.6l0.2-1h0.5l0.3-0.3l0.4-0.5
			l0.1-0.6l0.2-1.1l-0.1-1c0,0,0.1-1.1,0.1-1.2S33.9,12,33.9,12l-0.5,0.1l0.2-0.7l0.3-1.1L34,8.8l-0.3-1.6c0,0-0.2-0.8-0.2-1
			s0-2.1,0-2.1l-1-1.6l-1.1-1.2l-1.5-0.7L27.3,0h-3l-1.8,0.3l-1.5,1L22.1,1z"/>
	</defs>
	<clipPath id="SVGID_2_">
		<use xlink:href="#SVGID_1_"  style="overflow:visible;"/>
	</clipPath>
	<g transform="matrix(1 0 0 1 0 0)" style="clip-path:url(#SVGID_2_);">
		
			<image style="overflow:visible;" width="2736" height="3648" xlink:href="../../../../euc.jpg"  transform="matrix(5.820541e-02 0 0 6.045173e-02 -51.7741 -37.8577)">
		</image>
	</g>
</g>
<path class="st0" d="M52.7,9.2"/>
</svg>
