<?xml version="1.0" encoding="utf-8"?>
<!-- Generator: Adobe Illustrator 21.0.0, SVG Export Plug-In . SVG Version: 6.00 Build 0)  -->
<svg version="1.1" id="Layer_1" xmlns="http://www.w3.org/2000/svg" xmlns:xlink="http://www.w3.org/1999/xlink" x="0px" y="0px"
	 viewBox="0 0 127.9 221.1" style="enable-background:new 0 0 127.9 221.1;" xml:space="preserve">
<style type="text/css">
	.st0{clip-path:url(#SVGID_2_);}
</style>
<g>
	<g>
		<defs>
			<path id="SVGID_1_" d="M54.8,2.6l-8,5.6l-2.5,14.2v6.5c-0.2,0.3-0.3,0.6-0.5,0.8c0,1,0,2.1,0.1,3.1c0.1,1.6,0.1,3.3,0.2,4.9
				c0.4,1,0.8,1.9,1.2,2.9c0.2,0.3,0.5,0.7,0.7,1c0.2,0.1,0.4,0.2,0.6,0.3c0.7,0.2,1.5,0.4,2.2,0.5c0.3,1.9,0.5,3.8,0.8,5.6
				c0.2,0.3,0.3,0.5,0.5,0.8c0,0.4,0.1,0.8,0.1,1.1c0,1.1,0,2.2,0,3.3c0.1,1,0.2,2.5,0.2,4.3c0,0.7,0.3,1.5-0.1,2.1
				c-0.4,0.6-1.1,0.4-1.6,1.1c-0.4,0.5-0.4,1.1-0.4,1.4c0,1-0.3,2.8-1.3,6.4c-0.9,0.6-1.8,1.3-2.6,1.9c-1.3,0.9-2.6,1.9-3.9,2.8
				c-3.2,1-6.4,1.9-9.6,2.9c-3,1-5.9,1.9-8.9,2.9l-6.5,2.2l-2.8,3.7l-1.9,16.4c-0.5,3.2-1,6.4-1.5,9.7c-0.1,4.1-0.1,8.3-0.2,12.4
				c-1.1,3.2-2.2,6.3-3.3,9.5c-0.2,1.9-0.4,3.8-0.5,5.6c-0.5,2.5-1.1,4.9-1.6,7.4v6.2l-2.5,4.3l0.7,4.8l1.1,2.5l-1.9,3.6
				c0,0-1.4,4.1-1.1,4.1s1.1,15.8,1.1,15.8l1.5,12.7l0.9,4.1l0.7,8l3.3,1.3l0.4,3.1l1.4,0.6l1.2,4.1l94.8-1.2l-1-25.2v-6.2
				l-0.9-10.6l-0.2-5.2l1.5,5l1.2,6v4.3l1.1,2.9l0.6,6.9c0,0,1.2,5.7,1.2,6c0.1,0.2,0.4,6,0.4,6l-1.1,3.3l-1.2,3.2
				c0,0,0.2,3.6,0,3.9s17.1,0.5,17.1,0.5v-4.4V215l0.9,0.1l1.3-0.9l1-1.6l0.3-1.1l0.4-2.6v-2.1l-0.6-2.2l-0.9-2l0.1-2.3l0.3-1.9
				l-0.6-3.1l0.6-2.1l0.4-4l0.7-8.8l-1.6-3.4c0,0-0.1-3.5-0.1-3.8s0.3-4.5,0.3-4.5l0.1-8.7l-0.3-7.3l-0.7-5l-2.4-4.4l-1.1-4.7V135
				l-2-10.4l0.4-3L119,118v-3.3l-0.5-4.4L117.6,98l-1.9-10.5l-0.7-4.3l-0.2-4.1l-2.7-2.2l-20.9-6l-5.1-0.8l-7.4-7.4l-0.8-3.3
				L77,58.2l0.5-7.6l0.8-1.6l1.5-3.9l0.4-2.6h1.2l0.9-0.6l1-1.2l0.3-1.5l0.5-2.8L83.9,34c0,0,0.2-2.6,0.2-2.9c0-0.2-0.2-1.3-0.2-1.3
				l-1,0.2l0.5-1.7l0.7-2.8l0.3-3.6L83.6,18c0,0-0.5-2-0.5-2.6c-0.1-0.5,0-5.3,0-5.3l-2.5-3.9l-2.7-2.9l-3.7-1.8L67.8,0h-7.4
				l-4.6,0.6L52,3.2L54.8,2.6z"/>
		</defs>
		<clipPath id="SVGID_2_">
			<use xlink:href="#SVGID_1_"  style="overflow:visible;"/>
		</clipPath>
		<g class="st0">
			
				<image style="overflow:visible;enable-background:new    ;" width="2736" height="3648" xlink:href="../../../../euc.jpg"  transform="matrix(0.1442 0 0 0.1497 -128.0805 -93.7575)">
			</image>
		</g>
	</g>
</g>
</svg>
