<?xml version="1.0" encoding="utf-8"?>
<!-- Generator: Adobe Illustrator 21.0.0, SVG Export Plug-In . SVG Version: 6.00 Build 0)  -->
<svg version="1.1" id="Layer_1" xmlns="http://www.w3.org/2000/svg" xmlns:xlink="http://www.w3.org/1999/xlink" x="0px" y="0px"
	 viewBox="0 0 129.4 152.4" style="enable-background:new 0 0 129.4 152.4;" xml:space="preserve">
<style type="text/css">
	.st0{opacity:0.1797;fill:#FFFFFF;enable-background:new    ;}
	.st1{opacity:0.1091;fill:#FFFFFF;enable-background:new    ;}
</style>
<g>
	<g>
		<g>
			<path d="M129.3,138.7c0,7.5-6.6,13.6-14.8,13.6H14.9c-8.2,0-14.8-6.1-14.8-13.6v-8.8c0-7.5,6.6-13.6,14.8-13.6h99.7
				c8.2,0,14.8,6.1,14.8,13.6L129.3,138.7L129.3,138.7z"/>
			<g>
				<g>
					<path class="st0" d="M129.1,139.1c-0.1,0.8-0.2,1.6-0.2,2.4c-0.6,2.7-1.9,5.1-4.1,7c-0.8,0.7-1.6,1.3-2.5,1.8
						c-2.4,1.4-5.3,2.2-8.2,2.1c-0.9-0.1-1.8,0-2.8-0.1c-2.2,0-4.5,0-6.8,0c-13.7,0-27.4,0-41.2,0c-13.6,0-27.3,0-40.9,0
						c-2.6,0-5.1,0-7.8,0c-4.3,0-8.4-1.7-11.2-4.9c-1.6-1.8-2.7-3.9-3.1-6.2c-0.2-1-0.2-2-0.2-3c0.1-2.3,0-4.6,0-7c0-1,0-2,0.2-2.9
						c0.3-2.1,1.2-4.2,2.6-5.9c2.8-3.5,7.4-5.9,12.3-5.4c1.2,0.1,2.4,0.1,3.6,0.1c12,0.1,24,0,36,0c14.9,0,29.8,0,44.7,0
						c4.6,0,9.3,0,13.9,0c1.1,0,2.2,0,3.3,0.2c3.3,0.4,6.4,1.9,8.7,4.3c2.2,2.3,3.6,5.2,3.6,8.4c0,0.9,0,1.7,0,2.6
						C129.1,134.6,129.1,136.8,129.1,139.1c0,0.1,0.1,0,0.1,0c0.1,0,0.1-0.2,0.1-0.3c0.1-2.9-0.1-5.7,0.1-8.6c0,0.1,0,0.2,0,0.2
						c0-0.1,0-0.2,0-0.2c0.1-0.7-0.1-1.9-0.2-2.5c-0.3-1.6-0.9-3.1-1.8-4.5c-2.4-3.8-6.8-6.4-11.4-6.7c-0.9-0.1-2-0.1-2.9-0.1
						c-1.9,0-3.7,0-5.6,0c-6.7,0-13.3,0-20,0c-17,0-34.1,0-51.2,0c-5.5,0-11,0-16.4,0c-1.4,0-2.9,0-4.3,0c-1.5,0-3,0.1-4.5,0.5
						c-2.8,0.7-5.4,2.2-7.3,4.3c-1.6,1.8-2.8,3.9-3.2,6.2c-0.3,1.4-0.2,2.7-0.2,4.1c0,1.2,0,2.3,0,3.4c0,1.1,0,2.2,0,3.3
						c-0.3,4.1,1.8,8.1,4.9,10.7c1.9,1.6,4.3,2.6,6.8,3c1.2,0.2,2.4,0.2,3.7,0.2c4.4,0,8.9,0,13.3,0c16.6,0,33.2,0,49.8,0
						c8.1,0,16.2,0,24.3,0c2.7,0,5.5,0,8.2,0c1,0,2,0,3,0.1c1.5,0.1,3.1-0.2,4.5-0.6c2.6-0.7,5-2.1,6.8-4.1c1.1-1.2,2-2.5,2.6-4
						c0.2-0.4,0.3-0.8,0.4-1.2c0.4-1.2,0.5-2.4,0.6-3.7c0-0.1-0.1-0.1-0.1,0C129.1,138.8,129.1,139,129.1,139.1z"/>
					<path class="st0" d="M128.9,138.9c-0.1,1.6-0.3,3.1-0.9,4.7c-0.3,0.7-0.7,1.4-1.1,2.1c-1.1,1.7-2.6,3.1-4.2,4.1
						c-0.4,0.2-0.7,0.4-1.1,0.6c-1.3,0.7-2.7,1.1-4.2,1.1c-3.8,0.7-2,0.6-3.3,0.6c-0.9,0-1.9,0-2.8,0c-10.8,0-21.7,0-32.4,0
						c-14.9,0-29.8,0-44.7,0c-4.5,0-9,0-13.5,0c-1.5,0-2.9,0-4.4,0c-1,0-1.9,0-2.9-0.1c-5.7-0.5-11-4.3-12.6-9.8
						c-0.6-2-0.5-3-0.4-4.7c0-2.3,0-4.5,0-6.8c0-0.3,0-0.5,0-0.8c0,0,5.2-10.3,5.2-10.3c1.6-1.3,3.6-2.1,5.5-2.6
						c1.3-0.4,2.8-0.5,4.1-0.4c1.2,0.1,2.4,0,3.6,0c26,0.1,52,0,78.1,0c4.9,0,9.8,0,14.7,0c1,0,2,0,3,0c0.9,0,1.8,0.1,2.7,0.2
						c4.8,0.7,9.4,4.3,11,8.7c0.6,1.5,0.9,3.2,0.8,4.8c-0.1,0.7,0,1.5-0.1,2.2C128.9,134.6,128.9,136.8,128.9,138.9
						c0,0.1,0.3-0.2,0.3-0.3c0-0.9,0-1.7,0-2.6c0-1.6,0-3.2,0-4.7c0-1.3,0-2.5-0.2-3.8c-0.4-2-1.2-3.8-2.4-5.4
						c-1.5-2-3.5-3.4-5.7-4.5c-1-0.4-2-0.7-3-1c-0.6-0.1-1.3-0.2-1.9-0.3c-0.4,0-1,0-1.4,0c-1.1,0-2.3,0-3.4,0
						c-31.3,0-62.6,0.1-94,0c-1,0-1.9,0-2.9,0c-3,0.1-5.9,1.1-8.4,2.8c-2.5,1.8-4.4,4.3-5.3,7.2c-0.7,2.5-0.5,5.1-0.5,7.6
						c0,1.4,0,2.7,0,4.1c0,1,0,2.1,0.2,3.1c0.6,3.1,2.4,5.9,4.9,8c1.5,1.2,3.2,2.1,5,2.6c1.1,0.3,2.1,0.5,3.2,0.6c0.6,0,1.2,0,1.8,0
						c1.5,0,3,0,4.5,0c3.1,0,6.3,0,9.4,0c8.9,0,17.7,0,26.6,0c18.4,0,36.8,0,55.3,0c1.1,0,2.3,0,3.4,0c0.9,0,1.8-0.1,2.7-0.2
						c1.1-0.2,2.1-0.5,3.1-0.9c2.9-1.1,5.4-3.1,7-5.7c0.6-1,1.2-2.1,1.5-3.2c0.1-0.2,0.1-0.4,0.2-0.6c0.2-1,0.3-2,0.4-3
						C129.3,138.6,128.9,138.8,128.9,138.9z"/>
					<path class="st0" d="M129,138.7c-0.1,1.7-0.3,3.1-0.9,4.7c-0.3,0.7-0.7,1.4-1.1,2.1c-2.5,4-8.1,7-12.9,6.4
						c-0.8-0.1-1.7-0.1-2.5-0.1c-2.1,0-4.3,0-6.5,0c-13.6,0-27.1,0-40.7,0c-13.8,0-27.6,0-41.4,0c-2.7,0-5.4,0-8.2,0
						c-1.4,0-2.8-0.2-4.2-0.5c-3.2-0.8-6-2.7-7.9-5.3c-1.6-2.2-2.6-5-2.5-7.7c0-0.7,0-1.5,0.1-2.3c0-2.2,0-4.3,0-6.4
						c0-0.4,0-0.8,0.1-1.3c0.1-0.8,0.2-1.6,0.5-2.3c0.1-0.4,0.2-0.7,0.3-1.1c0.8-1.9,1.9-3.4,3.4-4.8c1.5-1.4,3.4-2.4,5.3-3
						c3-1,4.3-0.7,6.7-0.7c1.9,0,3.7,0,5.6,0c27.1,0,54.2,0,81.3,0c3.6,0,7.3,0,11,0c1.8,0,3.6,0.3,5.4,0.9c2.3,0.8,4.4,2.2,6,4
						c0.2,0.3,0.5,0.6,0.7,0.9c0.4,0.7,0.8,1.3,1.2,2c0.7,1.4,1.1,3,1.3,4.5c0.1,1.2,0,2.3,0,3.4C129,134.4,129.1,136.6,129,138.7
						c0,0.1,0.2,0.2,0.2,0c0-2.4,0-4.9,0-7.3c0-0.4,0-0.8,0-1.2c0-0.4,0-0.9,0-1.4c0-0.6-0.1-1.2-0.3-1.8c-0.5-2.1-1.5-4.1-2.9-5.8
						c-1.6-1.8-3.7-3.2-6-4.1c-1.8-0.6-3.6-0.9-5.6-0.9c-4.1,0-8.2,0-12.3,0c-17.1,0-34.3,0-51.4,0c-7.9,0-15.7,0-23.5,0
						c-2.5,0-5,0-7.6,0c-1.4,0-2.8,0-4.1-0.1c-3.3-0.2-6.7,0.8-9.3,2.7c-2.9,2-5,5-5.6,8.3c-0.3,1.5-0.2,3-0.2,4.4
						c0,1.7,0,3.4,0,5.1c0,0.9-0.1,1.9,0,2.8c0.1,1.9,0.7,3.7,1.6,5.3c2.1,3.7,6,6.4,10.4,7.1c1.2,0.2,2.5,0.2,3.7,0.2
						c1.9,0,3.7,0,5.6,0c15.9-0.1,31.8,0,47.7,0c9.5,0,19,0,28.5,0c5.3,0,10.7,0,16,0c1.4,0,2.7,0,4.1-0.3c1.8-0.4,3.6-1.1,5.2-2.1
						c1.5-1,2.8-2.3,3.8-3.7c0.8-1.1,1.4-2.4,1.8-3.7c0.4-1.2,0.5-2.4,0.5-3.6C129.1,138.7,129,138.6,129,138.7z"/>
					<path class="st0" d="M129.1,138.8c-0.1,1.3-0.2,2.4-0.5,3.6c-0.3,1.1-0.9,2.2-1.5,3.2c-1.1,1.7-2.5,3.1-4.2,4.2
						c-1.8,1.1-3.7,1.8-5.8,2.2c-1.6,0.3-3.2,0.2-4.8,0.2c-11.8-0.1-23.6,0-35.5,0c-15.3,0-30.6,0-46,0c-4.6,0-9.2,0-13.8,0
						c-0.7,0-1.5,0-2.2,0c-0.7,0-1.4,0-2.1-0.1c-1.5-0.2-2.9-0.6-4.3-1.2c-4.1-1.8-7.2-5.5-8-9.8c-0.2-1-0.2-2.1-0.1-3.1
						c0-1.3,0-2.5,0-3.7c0-3.4-0.2-6.9,1.5-10.1c2.2-4.1,6.6-6.9,11.3-7.4c1.2-0.1,2.3-0.1,3.5-0.1c1.5,0,2.9,0,4.4,0
						c6.4,0,12.8,0,19.2,0c15.8,0,31.5,0,47.4,0c6.7,0,13.3,0,20,0c2.1,0,4.2,0,6.4,0c1.6,0,3.2,0.1,4.7,0.5
						c2.4,0.6,4.6,1.8,6.4,3.5c2.6,2.5,4.3,6.1,4.1,9.7c0,0.5,0,1,0,1.5C129.1,134.1,129.2,136.5,129.1,138.8c0,0.2,0.2-0.1,0.2-0.2
						c0.1-2.2,0-4.3,0-6.5c0-1.2,0.1-2.3,0-3.4c-0.1-1.2-0.4-2.4-0.9-3.6c-1.4-3.3-4.1-6.1-7.6-7.6c-1.2-0.5-2.4-0.9-3.7-1.1
						c-1.1-0.2-1.6-0.1-2.8-0.2c-1.3-0.1-2.6,0-3.8,0c-29.1,0-58.2,0-87.3,0c-2.8,0-5.6,0-8.5,0c-5.5,0-10.9,3-13.4,7.8
						c-0.6,1.1-1,2.3-1.2,3.4C0,128.7,0,129.9,0,131.1c0,2.5,0,5.1,0,7.6c0,4.5,2.4,8.7,6.2,11.1c2.1,1.4,4.6,2.3,7.2,2.4
						c1.2,0.1,2.4,0.1,3.6,0.1c13.3,0,26.6,0,39.8,0c17.2,0,34.4,0,51.6,0c1.8,0,3.6,0,5.4,0c2,0,3.9-0.2,5.8-0.8
						c2.7-1,5.2-2.7,6.9-4.9c0.7-1,1.3-2,1.8-3.1c0.3-0.7,0.5-1.5,0.7-2.3s0.2-1.6,0.2-2.4C129.4,138.5,129.1,138.7,129.1,138.8z"/>
					<path class="st0" d="M129.1,138.7c-0.2,1.2-0.4,2.4-0.5,3.6c-0.6,1.9-1.6,3.6-3,5.1c-0.8,0.9-1.7,1.7-2.8,2.3
						c-1.8,1.1-3.7,1.9-5.8,2.2c-1.1,0.2-2.1,0.2-3.2,0.1c-1.4-0.1-2.9,0-4.3,0c-13.1,0-26.3,0-39.4,0c-14.7,0-29.5,0-44.2,0
						c-3.5,0-7.1,0-10.7,0c-1.1,0-2.1,0-3.2-0.2c-2.5-0.4-4.8-1.5-6.8-3c-2.8-2.3-4.7-5.6-4.9-9.1c0-0.8,0-1.5,0-2.3
						c0-2.3,0-4.6,0-7c0-1.4,0.1-2.9,0.5-4.2c1.2-3.6,3.4-6.4,7.8-8.3c1.2-0.5,2.4-0.8,3.7-1c1.1-0.2,2.1-0.2,3.2-0.2
						c1.4,0,2.9,0,4.3,0c27.8,0.1,55.7,0,83.5,0c3.7,0,7.5,0,11.2,0c4.7,0,9.2,2.1,12,5.8c1.4,1.9,2.3,4.2,2.4,6.5
						c0.1,1,0,1.9,0,2.8C129.1,134,129.1,136.3,129.1,138.7C129.1,138.7,129.1,138.8,129.1,138.7c0.1-2.1,0.1-4.2,0.1-6.4
						c0-0.5,0-1.1,0-1.6c0-0.1,0-0.2,0-0.4c0.1-0.5,0.1-1,0-1.6c-0.2-2.8-1.4-5.5-3.2-7.6c-1.6-1.9-3.7-3.2-6.1-4.1
						c-1.7-0.6-3.6-0.9-5.4-0.9c-4.2,0-8.3,0-12.5,0c-17.1,0-34.3,0-51.4,0c-7.6,0-15.2,0-22.8,0c-2.6,0-5.2,0-7.8,0
						c-1.6,0-3.2,0-4.8-0.1c-6.9-0.3-13.5,4.5-14.8,11.1c-0.2,1-0.2,2.1-0.2,3.1c0,1.3,0,2.5,0,3.7c0,1.3,0,2.5,0,3.7
						c0,0.6,0,1.3,0,1.9c0.1,1.2,0.4,2.4,0.9,3.5c1.7,4.1,5.4,7.2,9.9,8.4c1.5,0.4,3,0.4,4.5,0.5c1.8,0,3.6,0,5.4,0
						c15.7,0,31.5,0,47.2,0c15.1,0,30.3,0,45.4,0c1.2,0,2.4,0,3.6-0.2c2.9-0.5,5.6-1.8,7.7-3.7c1.5-1.3,2.7-3,3.4-4.7
						c0.3-0.7,0.5-1.5,0.7-2.3C129.1,140.2,129.1,139.8,129.1,138.7C129.1,138.7,129.1,138.6,129.1,138.7z"/>
					<path class="st0" d="M128.8,138.8c-0.1,1.3-0.2,2.4-0.6,3.6c-0.4,1.1-0.9,2.2-1.5,3.2c-0.2,0.3-0.5,0.6-0.7,1
						c-0.7,1-1.6,1.7-2.7,2.3c-0.6,0.5-1.3,1-1.9,1.4c-0.7,0.4-1.5,0.7-2.3,1c-1.7,0.5-3.5,0.8-5.3,0.7c-1.2-0.1-2.4,0-3.6,0
						c-13.1,0-26.2,0-39.2,0c-15.1,0-30.2,0-45.3,0c-3.5,0-7.1,0-10.7,0c-1.1,0-2.1-0.1-3.2-0.2c-5.6-0.9-10.4-5.4-11.4-10.8
						c-0.2-1-0.2-2.1-0.2-3.1c0-1.1,0-2.3,0-3.3c0-1.2,0-2.4,0-3.6c0-1.2,0-2.4,0.2-3.5c0.9-4.3,4.2-7.9,8.3-9.6
						c2-0.8,4.1-1.2,6.2-1.2c1,0,2,0,3,0.1c28,0.1,55.9,0,83.9,0c4.2,0,8.3,0,12.5,0c1.8,0,3.6,0.3,5.4,0.9c2.3,0.8,4.4,2.2,6,4
						c1.7,1.9,2.8,4.3,3.2,6.9c0.1,0.6,0.2,1.3,0.1,1.9c0,0.5-0.1,1.1-0.1,1.6C128.8,134.1,128.8,136.5,128.8,138.8
						c0,0.2,0.3-0.1,0.3-0.2c0.1-2.1,0-4.3,0-6.4c0-1.1,0.1-2.3,0-3.4c-0.2-2.8-1.4-5.4-3.3-7.5c-2.8-3.1-7-4.8-11.2-4.9
						c-3.7,0-7.5,0-11.2,0c-16.2,0-32.4,0-48.6,0c-7.4,0-14.8,0-22.2,0c-5.3,0-10.8,0.1-16.1,0c-0.4,0-0.9,0-1.3,0
						c-0.9-0.1-2,0-2.9,0.1c-2.5,0.4-4.9,1.3-6.9,2.9c-1.6,1.3-3,2.7-3.9,4.5c-1,1.9-1.5,4-1.5,6.1c0,2.5,0,4.9,0,7.4
						c0,0.8-0.1,1.5,0,2.3c0.2,2.4,1.1,4.7,2.6,6.7c1.7,2.3,4.2,4.1,7,5c1.2,0.4,2.5,0.7,3.8,0.8c0.5,0,1.1,0,1.6,0
						c1.2,0,2.4,0,3.6,0c14.2,0,28.4,0,42.6,0c16.4,0,32.9,0,49.3,0c1.3,0,2.6,0,3.9,0c2.6,0.1,5.2-0.6,7.5-1.9
						c1.8-1,3.4-2.3,4.6-3.9c0.7-1,1.3-2,1.8-3.1c0.3-0.7,0.5-1.5,0.7-2.3c0.2-0.8,0.2-1.6,0.2-2.4
						C129.2,138.6,128.8,138.7,128.8,138.8z"/>
					<path class="st0" d="M129.2,138.8c-0.1,1.3-0.2,2.4-0.5,3.6c-0.3,1.1-0.9,2.2-1.5,3.2c-1.1,1.6-2.5,3-4.2,4.1
						c-0.4,0.2-0.7,0.4-1.1,0.6c-0.8,0.3-1.5,0.6-2.3,1c-1.2,0.4-2.5,0.6-3.7,0.7c-1,0.1-1.9,0-2.8,0c-1.5,0-2.9,0-4.4,0
						c-2.5,0-5,0-7.6,0c-7.4,0-14.6,0-22,0c-15.2,0-30.4,0-45.6,0c-4.9,0-9.8,0-14.7,0c-2.6,0-5.3,0.2-7.8-0.5
						c-6.1-1.6-10.8-7-10.4-13.6c0.1-2.4,0.1-4.8,0.1-7.2c0-0.8,0-1.6,0.1-2.3c0.3-2.7,1.5-5.3,3.4-7.4c1.5-1.6,3.4-2.9,5.5-3.6
						c2-0.7,4.1-1,6.1-0.9c3.1,0.1,6.1,0,9.2,0c6.4,0,12.9,0,19.4,0c15.7,0,31.5,0,47.3,0c6.1,0,12.2,0,18.3,0c1.4,0,2.9,0,4.3,0
						c0.2,0,0.4,0,0.6,0c2.6-0.2,5,0.6,7,2.2c1.6,0.5,3,1.4,4,2.6c1.6,1.8,2.7,4,3.1,6.4c0.2,1.4,0.1,2.7,0.1,4.1
						C129.1,134.1,129.2,136.5,129.2,138.8c0,0,0.2,0,0.2,0c0-2.5,0-5.1,0-7.6c0-0.4,0-0.7,0-1c0.1-0.8,0-1.7-0.2-2.5
						c-0.5-2.7-1.9-5.3-3.9-7.2c-2.2-2-4.9-3.4-7.9-3.9c-1.2-0.2-2.4-0.2-3.7-0.2c-2,0-4.1,0-6.1,0c-17.5,0-35.1,0-52.7,0
						c-9.1,0-18.1,0-27.1,0c-2.9,0-5.9,0-8.9,0c-1.3,0-2.5,0-3.8,0c0.1,0,0.2,0,0.2,0c-0.1,0-0.2,0-0.3,0c-0.8-0.1-1.9,0.1-2.7,0.2
						c-2.9,0.5-5.7,1.8-7.9,3.7c-1.5,1.4-2.7,3-3.4,4.9C0.3,127,0.1,129,0.1,131c0,1.6,0,3.1,0,4.7c0,1.4-0.1,2.7,0,4.1
						c0.2,3.1,1.9,6.2,4.2,8.3c2.1,2,4.8,3.2,7.7,3.7c1.6,0.3,3.3,0.2,4.9,0.2c7,0,14,0,21,0c20.7,0,41.4,0,62.1,0
						c3.6,0,7.2,0,10.9,0c0.9,0,1.8,0,2.6,0c1.1,0,2.2,0.1,3.4-0.1c2.9-0.5,5.6-1.7,7.9-3.6c1.4-1.2,2.5-2.7,3.2-4.3
						c0.3-0.5,0.5-1.1,0.7-1.7c0.4-1.2,0.5-2.4,0.5-3.6C129.3,138.8,129.2,138.8,129.2,138.8z"/>
				</g>
			</g>
		</g>
	</g>
	<g>
		<g>
			<path d="M52.7,55.6c0,0-17.2,4.5-24.1,6s-6.9,8.1-6.9,8.1s0,27.2,0,37.8c0,10.5,6.9,9.1,6.9,9.1h35.9V61.7
				C64.5,56,52.7,55.6,52.7,55.6z"/>
			<g>
				<g>
					<path class="st0" d="M52.5,55.5c-3.4,0.9-6.7,1.8-10.1,2.6c-2.7,0.7-5.5,1.4-8.3,2.1c-1.1,0.3-2.3,0.5-3.4,0.8
						c-1.1,0.3-2.3,0.4-3.4,0.8c-1.6,0.6-3,1.5-4,2.9c-0.7,0.9-1.2,2-1.5,3.1c-0.5,1.8-0.3,3.6-0.3,5.4c0,6.1,0,12.1,0,18.2
						c0,3.4,0,6.8,0,10.1c0,1.3,0,2.7,0,4c0,1.6-0.1,3.2,0.2,4.8c0.4,2.8,1.7,5.9,4.9,6.6c0.7,0.1,1.4,0.2,2.1,0
						c0.7-0.1,1.5,0,2.2,0c6.6,0,13.2,0,19.8,0c4.7,0,9.4,0,14.1,0c0,0,0,0,0,0c-0.1-0.6-0.1-1.4-0.1-2c0-1.5,0-2.9,0-4.4
						c0-4.7,0-9.4,0-14.1c0-10,0-20.1,0-30.1c0-1.6,0-3.2,0-4.8c0-1.3-0.6-2.3-1.5-3.1c-1.5-1.4-3.5-2-5.5-2.4
						c-1.7-0.4-3.4-0.6-5.2-0.7C52.5,55.4,52.5,55.5,52.5,55.5c0.4,0,0.9,0,1.4,0c1.4,0.1,2.8,0.3,4.1,0.6c0.4,0.1,0.9,0.3,1.3,0.4
						c0.7,0.2,1.5,0.4,2.1,0.8c0.5,0.3,1,0.6,1.4,0.9c1.8,1.4,1.7,2.8,1.7,4.5c0,8.7,0,17.4,0,26.2c0,5,0,10.1,0,15.1
						c0,2.2,0,4.3,0,6.4c0,1.6,0,3.2-0.1,4.7c0,0.4,0,0.7-0.1,1c0,0.2,0,0.3-0.1,0.3c-0.1,0-0.1,0-0.2,0c-0.1,0-0.3,0-0.4,0
						c-0.5,0-1.1,0-1.6,0c-3.9,0-7.8,0-11.7,0c-7.2,0-14.3-0.1-21.5,0c-0.5,0-1.1,0.1-1.6,0c-0.7,0-1.4-0.2-2-0.5
						c-0.4-0.2-0.8-0.5-1.2-0.8c-0.2-0.2-0.3-0.3-0.4-0.5c-0.3-0.4-0.6-0.8-0.8-1.2c-0.4-0.8-0.7-1.6-0.9-2.5
						c-0.2-0.8-0.3-1.5-0.3-2.3c-0.1-1.6,0-3.2,0-4.9c0-4.8,0-9.7,0-14.5c0-4.2,0-8.5,0-12.7c0-2.3,0-4.7,0-7c0-1.8,0.6-3.7,1.7-5.1
						c0.3-0.4,0.7-0.8,1.1-1.2c0.3-0.3,0.7-0.6,1.1-0.8c0.6-0.4,1.2-0.6,1.9-0.8c1.8-0.6,3.7-1,5.6-1.4C39.5,59,46,57.4,52.5,55.5
						C52.5,55.7,52.5,55.5,52.5,55.5z"/>
					<path class="st0" d="M52.4,55.5c-3.6,0.9-7.2,1.9-10.8,2.8c-2.7,0.7-5.5,1.4-8.2,2.1c-1.1,0.3-2.2,0.5-3.3,0.8
						c-1.1,0.3-2.3,0.5-3.4,0.9c-1.3,0.5-2.4,1.3-3.3,2.4c-1,1.2-1.6,2.7-1.9,4.2c-0.1,0.5-0.1,1-0.1,1.6c0,1.7,0,3.4,0,5.1
						c0,6.5,0,12.9,0,19.4c0,3.2,0,6.4,0,9.6c0,2.7-0.2,5.5,0.6,8.1c0.7,2.2,2.2,4.1,4.7,4.4c0.6,0.1,1.1,0.1,1.7,0
						c0.6-0.1,1.3-0.1,1.9-0.1c6.4,0,12.9,0,19.3,0c3.4,0,6.8,0,10.1,0c1.1,0,2.3,0,3.4,0c0.4,0,0.8,0,1.3,0c0,0,0.1,0,0.1-0.1
						c0-0.7,0-1.4,0-2.2c0-1.4,0-2.7,0-4c0-4.1,0-8.2,0-12.4c0-9.3,0-18.7,0-28.1c0-2.6,0-5.2,0-7.9c0-0.5,0-1-0.1-1.5
						c-0.2-1-0.9-1.9-1.7-2.5c-1.8-1.4-4.2-2.1-6.4-2.5c-1.3-0.2-2.6-0.4-3.9-0.4c-0.1,0-0.1,0.1,0,0.1c0,0.1,0.2,0.1,0.2,0.1
						c0.4,0,0.7,0.1,1.1,0.1c0.9,0.1,1.8,0.2,2.7,0.4c2.2,0.4,4.5,1,6.3,2.4c0.8,0.6,1.4,1.5,1.6,2.4c0.1,0.5,0.1,1,0.1,1.5
						c0,2.6,0,5.2,0,7.9c0,9.3,0,18.7,0,28.1c0,4.1,0,8.2,0,12.3c0,1.3,0,2.7,0,4c0,0.7,0,1.4-0.1,2.1c0,0,0,0,0.1,0
						c-0.4,0-0.8,0-1.3,0c-1.1,0-2.3,0-3.4,0c-3.6,0-7.3,0-10.9,0c-6.5,0-13,0-19.5,0c-0.6,0-1.1,0.1-1.7,0
						c-1.7-0.1-3.3-0.9-4.3-2.3c-1.6-2.3-1.6-5.3-1.6-7.9c0-3.5,0-7,0-10.5c0-7.5,0-15,0-22.6c0-1.3,0-2.5,0-3.7
						c0-1.2,0.4-2.4,0.9-3.4c0.4-0.9,1-1.7,1.7-2.4c0.9-0.8,1.9-1.5,3.1-1.9c0.6-0.2,1.3-0.4,1.9-0.5c3.1-0.7,6.2-1.5,9.3-2.3
						c4.6-1.2,9.3-2.4,13.9-3.6C52.9,55.6,52.5,55.5,52.4,55.5z"/>
					<path class="st0" d="M52.3,55.2c-3.8,1-7.6,2-11.4,2.9c-2.7,0.7-5.4,1.4-8.2,2.1c-1.2,0.3-2.4,0.6-3.7,0.9
						c-1,0.2-2,0.5-2.9,0.9c-2.8,1.3-4.4,4.2-4.7,7.1c0,0.5,0,1,0,1.4c0,2.3,0,4.7,0,7c0,7,0,14,0,20.9c0,3,0,6.1,0,9.1
						c0,1.9,0.2,3.8,0.9,5.5c0.4,0.8,0.9,1.6,1.5,2.3c0.9,0.8,2,1.4,3.2,1.5c0.4,0,0.8,0,1.1,0c0.5,0,1,0,1.6,0
						c11.6,0.1,23.3,0,34.9,0c0,0,0,0,0,0c0.1-0.3,0.1-0.6,0.1-0.9c0-1.3,0-2.5,0-3.7c0-3.8,0-7.7,0-11.5c0-10,0-20,0-30
						c0-2.8,0-5.5,0-8.3c0-0.5,0-0.9,0-1.4c-0.1-0.9-0.5-1.7-1.2-2.4c-0.8-0.8-1.8-1.4-2.8-1.8c-1.1-0.5-2.3-0.8-3.4-1
						c-1.5-0.3-3.2-0.6-4.8-0.6c-0.2,0,0.2,0.4,0.3,0.4c0.4,0.1,0.7,0.1,1.1,0.1c0.9,0.1,1.8,0.2,2.7,0.4c2.2,0.4,4.6,1,6.3,2.4
						c1,0.8,1.7,1.9,1.7,3.2c0,0.4,0,0.8,0,1.3c0,2.9,0,5.8,0,8.8c0,9.4,0,18.9,0,28.4c0,3.9,0,7.8,0,11.7c0,1.7,0,3.4,0.1,5.1
						c0,0,0-0.1,0.1-0.1c-11.3,0-22.6,0-33.9,0c-0.6,0-1.3,0-1.9,0c-0.4,0-0.7,0.2-1.1,0.2c-1.9,0.1-3.6-0.9-4.7-2.4
						c-1.4-1.9-1.6-4.6-1.6-6.9c0-1.4,0-2.8,0-4.1c0-3.8,0-7.6,0-11.4c0-6.8,0-13.5,0-20.3c0-1,0-1.9,0.1-2.9c0.3-1.6,0.9-3.2,2-4.5
						c0.4-0.4,0.8-0.8,1.2-1.1c0.5-0.3,1-0.6,1.6-0.9c1.2-0.6,2.6-0.8,3.8-1.1c3.2-0.7,6.4-1.5,9.6-2.3c4.2-1.1,8.4-2.2,12.6-3.2
						C52.7,55.5,52.4,55.2,52.3,55.2z"/>
					<path class="st0" d="M52.6,55.5c-3.3,0.9-6.7,1.7-10.1,2.6c-2.7,0.7-5.5,1.4-8.3,2.1c-1.1,0.3-2.3,0.5-3.4,0.8
						c-1.1,0.3-2.3,0.5-3.4,0.8c-1.6,0.5-3,1.5-4,2.9c-0.9,1.1-1.4,2.5-1.7,3.9c-0.1,0.5-0.1,0.9-0.1,1.4c0,1.2,0,2.4,0,3.7
						c0,6.2,0,12.4,0,18.5c0,3.3,0,6.7,0,10c0,1.3,0,2.6,0,3.9c0,1.4,0,2.9,0.2,4.2c0.3,2.6,1.5,5.3,4.1,6.4
						c0.8,0.3,1.6,0.4,2.4,0.3c0.2,0,0.4,0,0.5-0.1c0.5,0,1.1,0,1.6,0c6.7,0,13.4,0,20.1,0c3.1,0,6.2,0,9.4,0c1.6,0,3.2,0,4.7,0
						c0,0,0.1,0,0.1-0.1c0-0.6,0-1.2,0-1.8c0-1.5,0-3,0-4.4c0-4.4,0-8.9,0-13.3c0-10.1,0-20.3,0-30.4c0-1.3,0-2.5,0-3.7
						c0-0.5,0-1.1,0-1.6c-0.1-1.7-1.1-2.9-2.5-3.7c-1.4-0.8-3-1.4-4.5-1.7c-1.7-0.4-3.4-0.6-5.1-0.7c-0.2,0,0,0.2,0.1,0.2
						c1,0.2,2,0.2,3,0.4c3,0.5,7.9,1.6,8.6,4.9c0.1,0.5,0.1,1,0.1,1.5c0,1,0,2,0,3c0,3.1,0,6.3,0,9.4c0,9,0,18,0,27
						c0,3.3,0,6.7,0,10c0,1.2,0,2.3,0,3.5c0,0.4,0,0.9,0,1.3c0,0,0,0,0.1-0.1c-0.9-0.1-1.8,0-2.8,0c-2.6,0-5.1,0-7.7,0
						c-5.7,0-11.4,0-17,0c-2.1,0-4.3,0-6.4,0c-0.7,0-1.4,0-2,0c-1.4,0.1-2.7-0.1-3.8-0.9c-0.5-0.4-1-0.8-1.3-1.4
						c-0.2-0.5-0.4-1-0.6-1.6c-0.4-0.7-0.6-1.4-0.7-2.1c-0.1-0.6-0.2-1.2-0.2-1.8c-0.1-1.2,0-2.4,0-3.6c0-1.6,0-3.1,0-4.7
						c0-6.8,0-13.6,0-20.4c0-3.4,0-7,0-10.4c0-0.8,0.2-1.6,0.4-2.3c0.5-1.5,1.3-2.8,2.5-3.8c0.3-0.3,0.7-0.5,1.1-0.8
						c0.3-0.2,0.6-0.3,0.9-0.4c0.7-0.2,1.3-0.4,2-0.7c1.1-0.3,2.3-0.5,3.4-0.8c2.9-0.7,5.8-1.4,8.7-2.2c4-1,8-2.1,12-3.1
						C52.9,55.6,52.7,55.4,52.6,55.5z"/>
					<path class="st0" d="M52.5,55.2c-3.8,1-7.6,2-11.4,2.9c-2.7,0.7-5.4,1.4-8.2,2.1c-1.2,0.3-2.4,0.6-3.7,0.9
						c-1,0.2-2,0.5-2.9,0.9c-2.2,1-3.8,3-4.5,5.3c-0.2,0.8-0.4,1.6-0.4,2.3c0,1.4,0,2.9,0,4.3c0,6.8,0,13.6,0,20.5
						c0,3.4,0,6.9,0,10.2c0,2.3-0.1,4.7,0.5,7c0.4,1.7,1.3,3.3,2.8,4.3c0.9,0.6,1.9,0.8,3,0.8c0.3,0,0.6,0,0.9-0.1
						c0.4-0.1,0.8,0,1.1,0c11.6,0,23.3,0,34.9,0c0,0,0,0,0,0c0.1-0.6,0-1.3,0-1.9c0-1.3,0-2.6,0-3.9c0-4.6,0-9.2,0-13.9
						c0-9.9,0-19.9,0-29.9c0-2,0-3.9,0-5.9c0-0.8-0.2-1.6-0.7-2.3c-0.3-0.4-0.7-0.8-1.1-1.2c-1.8-1.4-4.3-2-6.5-2.3
						C55.3,55.2,54,55,52.7,55c-0.2,0,0.1,0.3,0.2,0.4c0.3,0.1,0.7,0.1,1,0.1c1.2,0.1,2.4,0.3,3.6,0.5c2.3,0.5,5.1,1.4,6.5,3.3
						c0.5,0.7,0.7,1.6,0.7,2.4c0,0.8,0,1.7,0,2.5c0,3.2,0,6.3,0,9.5c0,9,0,17.9,0,26.9c0,3.6,0,7.2,0,10.9c0,1.7,0,3.3,0.1,5
						c0,0,0-0.1,0.1-0.1c-11.3,0-22.6,0-33.9,0c-0.7,0-1.4-0.1-2.1,0c-0.3,0-0.6,0.1-0.9,0.1c-0.6,0-1.1,0-1.7-0.2
						c-2.6-0.7-4.1-2.8-4.5-6.3c0-0.4-0.1-0.8-0.1-1.3c-0.1-1.6,0-3.2,0-4.9c0-3.7,0-7.5,0-11.3c0-6.8,0-13.5,0-20.3
						c0-1-0.1-2.1,0-3.1c0.1-1.9,0.9-3.7,2.1-5.1c1-1.2,2.3-2,3.7-2.5c0.9-0.3,1.9-0.5,2.9-0.7c3.2-0.7,6.4-1.5,9.6-2.4
						c4.2-1.1,8.4-2.2,12.6-3.2C52.7,55.4,52.6,55.2,52.5,55.2z"/>
					<path class="st0" d="M52.1,55.4c-3.8,1-7.6,2-11.4,2.9c-2.9,0.7-5.8,1.5-8.8,2.2c-1,0.2-2.1,0.5-3.1,0.7
						c-1.3,0.3-2.6,0.6-3.8,1.3c-2.1,1.3-3.4,3.6-3.8,6c-0.1,0.4-0.1,0.8-0.1,1.3c0,1,0,1.9,0,2.9c0,6.5,0,13,0,19.5
						c0,3.6,0,7.2,0,10.7c0,1.3,0,2.5,0,3.7c0,1.6,0,3.2,0.4,4.7c0.4,2.1,1.7,4.3,3.8,5.1c0.7,0.3,1.5,0.5,2.3,0.4
						c0.3,0,0.6,0,0.8-0.1c0.3-0.1,0.5,0,0.8,0c11.7,0.1,23.4,0,35.1,0c0,0,0.1,0,0.1,0c0-0.1,0-0.3,0-0.4c0-0.2,0-0.3,0-0.5
						c0-0.5,0-0.9,0-1.4c0-1.6,0-3.2,0-4.7c0-4.2,0-8.4,0-12.6c0-9.7,0-19.5,0-29.2c0-2.1,0-4.2,0-6.4c0-0.5-0.1-0.9-0.2-1.4
						c-0.3-0.9-0.9-1.6-1.6-2.2c-1.6-1.3-3.7-1.9-5.7-2.3c-1.6-0.3-3.2-0.5-4.8-0.6c-0.1,0-0.1,0.1,0,0.1c0,0.1,0.2,0.1,0.3,0.1
						c1.3,0.2,2.5,0.2,3.8,0.4c2.2,0.4,4.6,0.9,6.3,2.3c1.1,0.8,1.7,1.9,1.7,3.2c0,0.4,0,0.8,0,1.2c0,2.9,0,5.8,0,8.8
						c0,8.9,0,17.7,0,26.6c0,4.1,0,8.2,0,12.3c0,1.4,0,2.7,0,4c0,0.5,0,1,0,1.4c0,0.3,0,0.6,0,0.9c0,0,0.1,0,0.1,0
						c-11.5,0-23.1,0-34.6,0c-0.6,0-1.2,0-1.8,0c-1.7,0.2-3.4-0.6-4.6-1.9c-2.3-2.6-2.1-6.4-2.1-9.6c0-3.6,0-7.3,0-10.9
						c0-7.3,0-14.6,0-21.9c0-1-0.1-2,0-3c0.1-1.7,0.7-3.4,1.8-4.8c0.6-0.8,1.3-1.4,2.2-2c1.2-0.7,2.4-1,3.7-1.3
						c3.1-0.7,6.2-1.5,9.3-2.3c4.6-1.2,9.3-2.4,13.9-3.6c0.1,0-0.1-0.1-0.1-0.1C52.4,55.4,52.2,55.3,52.1,55.4z"/>
					<path class="st0" d="M52.7,55.4c-3.8,1-7.6,2-11.4,2.9c-2.9,0.7-5.8,1.5-8.8,2.2c-1,0.2-2.1,0.5-3.1,0.7
						c-0.7,0.2-1.3,0.3-2,0.5c-2.3,0.8-4,2.4-5,4.5c-0.6,1.4-0.9,2.9-0.8,4.3c0,5.5,0,11.1,0,16.6c0,3.7,0,7.5,0,11.3
						c0,3,0,6.1,0,9.2c0,3.2,0.6,7.4,4.1,8.9c0.8,0.3,1.7,0.5,2.6,0.4c0.2,0,0.4,0,0.6-0.1c0.3,0,0.6,0,0.8,0c6.5,0,13,0,19.5,0
						c3.4,0,6.9,0,10.3,0c1.8,0,3.5,0,5.3,0c0,0,0,0,0,0c0.1-1.9,0.1-3.8,0.1-5.7c0-4.3,0-8.7,0-12.9c0-9.8,0-19.6,0-29.4
						c0-2.3,0-4.6,0-6.9c0-0.5,0-1-0.2-1.5c-0.3-0.7-0.7-1.4-1.3-1.9c-1.9-1.6-4.5-2.3-6.9-2.6c-1.3-0.2-2.6-0.3-3.8-0.4
						C52.7,55.3,52.6,55.5,52.7,55.4c0.4,0.1,0.8,0.1,1.2,0.2c1.2,0.1,2.4,0.3,3.6,0.5c2.1,0.5,4.5,1.2,6.1,2.9
						c0.8,0.8,1.1,1.9,1.1,3c0,0.5,0,1.1,0,1.6c0,3.2,0,6.4,0,9.6c0,8.9,0,17.9,0,26.8c0,3.9,0,7.8,0,11.7c0,1.2,0,2.4,0,3.5
						c0,0.5,0,0.9,0,1.4c0,0,0.1,0,0.1,0c-0.7,0-1.3,0-2,0c-1.3,0-2.6,0-3.9,0c-3.2,0-6.5,0-9.7,0c-6.3,0-12.6,0-18.9,0
						c-0.4,0-0.9,0-1.3,0c-0.2,0-0.4,0.1-0.6,0.1c-1.2,0.1-2.3-0.2-3.3-0.8c-2.1-1.4-2.8-3.9-3-6.2c-0.1-1.4-0.1-2.8-0.1-4.2
						c0-1.8,0-3.6,0-5.4c0-7.7,0-15.4,0-23c0-2.1,0-4.2,0-6.3c0-0.5-0.1-1.1,0-1.6c0-0.5,0.2-1,0.3-1.5c0.4-0.9,0.8-1.7,1.2-2.6
						c1.5-2.3,4.4-3.2,7.1-3.8c3.2-0.7,6.4-1.5,9.6-2.3c4.2-1.1,8.5-2.1,12.7-3.2C52.6,55.4,52.7,55.4,52.7,55.4z"/>
				</g>
			</g>
		</g>
	</g>
	<g>
		<g>
			<path d="M64.5,61.6v54.9h35.9c0,0,6.9,1.4,6.9-9.1s0-37.8,0-37.8s0-6.6-6.9-8.1s-24.1-6-24.1-6S64.5,56,64.5,61.6z"/>
			<g>
				<g>
					<path class="st0" d="M64.3,62c0,18.3,0,36.6,0,54.9c0,0,0,0,0,0c0.5,0,1,0,1.5,0c1.2,0,2.4,0,3.6,0c3.6,0,7.3,0,11,0
						c6.4,0,12.8,0,19.2,0c0.3,0,0.7,0,1,0c0.2,0,0.4,0.1,0.6,0.1c0.9,0,1.9-0.2,2.7-0.6c1.6-0.9,2.6-2.5,3-4.2
						c0.4-1.5,0.6-3.2,0.6-4.7c0-1.6,0-3.2,0-4.8c0-8.2,0-16.4,0-24.6c0-2.5,0-4.9,0-7.4c0-0.3,0-0.7,0-1c0-0.4-0.1-0.8-0.2-1.3
						c-0.5-2.6-2.1-4.9-4.5-6.1c-1.7-0.8-3.6-1.1-5.4-1.5c-3.3-0.8-6.6-1.6-9.9-2.5c-3.2-0.8-6.3-1.6-9.5-2.5
						c-0.4-0.1-0.8-0.2-1.1-0.3c-0.2-0.1-0.4-0.2-0.6-0.2c-0.4,0-0.9,0-1.2,0.1c-2.2,0.3-4.4,0.6-6.5,1.4c-1.2,0.5-2.3,1.1-3.1,2
						c-0.4,0.4-0.6,0.8-0.8,1.3C64.3,60.9,64.3,61.3,64.3,62c0,0,0.1,0,0.1-0.1c0-0.1,0-0.3,0-0.4c0-0.5,0.2-1,0.5-1.4
						c0.2-0.3,0.3-0.6,0.5-1c0.3-0.3,0.6-0.5,0.9-0.8c0.7-0.5,1.4-0.9,2.2-1.2c1.8-0.7,3.6-1.1,5.5-1.3c0.6-0.1,1.2-0.1,1.7-0.2
						c0.1,0,0.2,0,0.4,0c0.2,0,0.4,0.1,0.6,0.2c0.3,0.1,0.6,0.2,0.8,0.2c1.1,0.3,2.2,0.6,3.4,0.9c5.4,1.4,10.9,2.9,16.3,4.1
						c0.5,0.1,1,0.2,1.5,0.3c0.2,0,0.3,0.1,0.5,0.1c2.3,1.4,4.5,2.8,6.8,4.2c0.4,0.6,0.6,1.4,0.9,2.1c0.2,0.7,0.3,1.4,0.3,2.2
						c0,1.2,0,2.4,0,3.5c0,3,0,6,0,8.9c0,7.2,0,14.5,0,21.7c0,2.6,0.2,5.2-0.5,7.7c-0.2,0.8-0.5,1.7-1,2.4c-0.2,0.3-0.4,0.6-0.6,0.9
						c-0.2,0.2-0.4,0.5-0.7,0.6c-0.3,0.2-0.6,0.4-0.9,0.5c-0.4,0.2-0.7,0.4-1.1,0.5c-0.2,0-0.4,0.1-0.6,0.1c-0.4,0-0.8,0.1-1.1,0
						c-0.1,0-0.2,0-0.4,0c-0.4-0.1-0.8,0-1.2,0c-6.3,0-12.6,0-18.9,0c-3.6,0-7.3,0-10.9,0c-1.1,0-2.1,0-3.1,0c-0.6,0-1.2,0-1.8,0
						c0,0,0,0,0.1,0c0-18.3-0.1-36.6,0-54.9c0-0.1-0.1-0.1-0.1,0C64.3,61.8,64.3,62,64.3,62z"/>
					<path class="st0" d="M64.1,61.9c0,18.3,0,36.6,0,54.9c0,0,0,0,0,0c1.5-0.1,3-0.1,4.5-0.1c3.6,0,7.1,0,10.7,0
						c6.6,0,13.1,0,19.7,0c0.6,0,1.1,0,1.6,0.1c1.1,0.1,2.2-0.2,3.1-0.7c2.8-1.7,3.4-5.1,3.5-8c0.1-3.3,0-6.6,0-9.9
						c0-4.3,0-8.6,0-12.9c0-3.5,0-7,0-10.5c0-1.7,0-3.4,0-5.1c0-0.6-0.1-1.3-0.3-1.9c-0.5-1.9-1.5-3.5-3.1-4.8
						c-1.1-0.8-2.4-1.4-3.7-1.7c-1.2-0.3-2.3-0.5-3.5-0.8c-3.3-0.8-6.7-1.6-10-2.5c-3.1-0.8-6.1-1.6-9.2-2.4
						c-0.3-0.1-0.6-0.2-0.8-0.2c-0.2,0-0.5-0.2-0.7-0.2c-0.1,0-0.2,0-0.2,0c-0.3,0-0.6,0-1,0.1c-2.3,0.2-4.8,0.6-6.9,1.6
						c-0.8,0.4-1.5,0.8-2.2,1.3c-0.4,0.3-0.8,0.7-1.1,1.2c-0.1,0.2-0.2,0.5-0.4,0.7c-0.2,0.5-0.3,1-0.3,1.6c0,0.2,0.4,0,0.4-0.1
						c0-0.3,0-0.5,0.1-0.8c0.1-0.4,0.2-0.7,0.4-1c0.2-0.4,0.5-0.8,0.9-1.2c1.3-1.2,3.1-1.9,4.9-2.3c1-0.3,2.1-0.5,3.1-0.6
						c0.4,0,0.8-0.1,1.2-0.1c0.3,0,0.7-0.1,1.1-0.1c0.2,0,0.4,0.1,0.6,0.1c0.3,0.1,0.7,0.2,1,0.3c1.3,0.4,2.6,0.7,3.9,1
						c3.7,1,7.4,1.9,11.1,2.8c1.7,0.4,3.5,0.9,5.2,1.3c1.5,0.4,3,0.5,4.4,1.2c1.1,0.5,2,1.2,2.8,2.1c0.8,0.9,1.3,1.9,1.6,3
						c0.2,0.6,0.3,1.3,0.4,2c0,0.4,0,0.7,0,1c0,3,0,6,0,9c0,9,0,18,0,27c0,1.8,0,3.5-0.5,5.3c-0.5,2-1.8,4.1-3.9,4.7
						c-0.9,0.3-1.7,0.3-2.6,0.2c-0.7-0.1-1.5,0-2.3,0c-1.6,0-3.1,0-4.7,0c-4.4,0-8.8,0-13.1,0c-4,0-8,0-11.9,0c-1,0-2,0-3,0
						c0.1,0-0.6,0-0.7,0c-0.1-0.1,0-0.6,0-0.7c0-9.5,0-19.1,0-28.6c0-8.5,0-17,0-25.6C64.5,61.5,64.1,61.8,64.1,61.9z"/>
					<path class="st0" d="M64.2,61.7c-0.1,8.9,0,17.7,0,26.5c0,9.4,0,18.9,0,28.3c0,0,0,0.1,0.1,0.1c0.5,0,1.1,0,1.6,0
						c1.3,0,2.7,0,4.1,0c3.7,0,7.4,0,11.2,0c6.2,0,12.5,0,18.7,0c0.2,0,0.5,0,0.8,0c0.2,0,0.4,0,0.6,0c0.8,0,1.7-0.1,2.4-0.5
						c1.5-0.7,2.4-2,3.1-3.4c0.4-0.9,0.6-2,0.7-3c0.2-1.9,0.1-3.7,0.1-5.5c0-8,0-15.9,0-23.8c0-2.9,0-5.9,0-8.8c0-0.8,0-1.7,0-2.5
						c-0.1-1.2-0.4-2.3-0.9-3.4c-0.9-1.8-2.3-3.2-4.1-4.1c-1.2-0.6-2.7-0.8-4-1.1c-1.3-0.3-2.6-0.6-4-0.9c-3.4-0.8-6.8-1.7-10.1-2.5
						c-2.6-0.7-5.2-1.3-7.8-2c-0.1,0-0.3-0.1-0.4-0.1c-0.2,0-0.2,0-0.4,0c-0.7,0.1-1.4,0.2-2.1,0.2c-2.2,0.3-4.5,0.8-6.4,1.9
						c-0.7,0.4-1.4,0.9-1.9,1.5c-0.3,0.4-0.6,0.8-0.8,1.3c-0.2,0.5-0.2,1-0.3,1.6c0,0.1,0.2,0.1,0.2,0c0-0.3,0.1-0.5,0.2-0.8
						c0-0.4,0.1-0.8,0.4-1.1c0.1-0.1,0.1-0.2,0.2-0.3c0.4-0.6,1.1-1.2,1.8-1.5c0.4-0.3,0.9-0.6,1.3-0.9c0.3-0.1,0.5-0.2,0.8-0.3
						c0.4-0.2,0.8-0.3,1.3-0.4c1.7-0.5,3.3-0.7,5-0.9c0.3,0,0.7-0.1,1,0c0.4,0.1,0.7,0.2,1.1,0.3c2.1,0.6,4.3,1.1,6.4,1.7
						c5.3,1.4,10.7,2.8,16.1,3.9c2,0.4,3.9,1.3,5.3,2.9c0.4,0.4,0.7,1,1,1.5c0.2,0.4,0.4,0.8,0.5,1.2c0.2,0.6,0.4,1.2,0.4,1.8
						c0.1,0.6,0.1,1.2,0.1,1.8c0,2.3,0,4.4,0,6.7c0,7,0,14,0,20.9c0,2.9,0,5.8,0,8.7c0,0.8,0,1.7-0.1,2.5c0,0.2,0,0.4,0,0.6
						c-0.1,0.7-0.3,1.4-0.4,2.1c-0.3,0.9-0.6,1.8-1.2,2.5c-0.7,1-1.7,1.7-2.9,2.1c-0.2,0-0.4,0.1-0.6,0.1c-0.3,0.1-0.6,0.1-0.9,0.1
						c-0.2,0-0.3,0-0.5,0c-0.2,0-0.3,0-0.4,0c-5.9,0-11.7,0-17.6,0c-3.6,0-7.3,0-10.9,0c-1.5,0-2.9,0-4.3,0c-0.7,0-1.3,0-2,0
						c-0.4,0-0.8,0-1.1-0.1c0,0,0,0.1,0,0.1c0-9.1,0-18.3,0-27.5c0-9.1-0.1-18.3,0-27.4C64.3,61.6,64.2,61.6,64.2,61.7z"/>
					<path class="st0" d="M64.3,61.8c-0.1,18.3,0,36.6,0,54.9c0,0,0,0.1,0.1,0.1c4.8,0.1,9.6,0,14.4,0c6.7,0,13.4,0,20.1,0
						c0.5,0,1,0,1.5,0c0.2,0,0.4,0.1,0.7,0.1c0.9,0,1.9-0.2,2.7-0.6c1.6-0.8,2.6-2.5,3.1-4.1c0.4-1.3,0.5-2.7,0.6-4
						c0-1.9,0-3.7,0-5.5c0-7.8,0-15.5,0-23.3c0-2.6,0-5.1,0-7.8c0-0.7,0-1.5,0-2.2c-0.2-3-2.1-6-5-7.2c-0.7-0.3-1.4-0.5-2.1-0.7
						c-1.2-0.3-2.3-0.5-3.5-0.8c-3.3-0.8-6.7-1.6-10-2.5c-3-0.8-5.9-1.5-8.9-2.3c-0.4-0.1-0.8-0.2-1.1-0.3c-0.2-0.1-0.4-0.2-0.6-0.2
						c-0.3,0-0.6,0-1,0.1C73.1,55.6,71,56,69,56.7c-1.1,0.4-2.1,0.9-3,1.6c-0.4,0.3-0.8,0.7-1.1,1.1c-0.1,0.2-0.2,0.4-0.4,0.7
						c-0.2,0.5-0.3,1-0.3,1.5c0,0.1,0.2,0.1,0.3,0c0-0.5,0.1-1,0.3-1.5c0.2-0.3,0.3-0.6,0.6-0.9c0.6-0.7,1.3-1.3,2.1-1.7
						c1.8-1,4-1.4,6-1.7c0.7-0.1,1.4-0.2,2.1-0.2c0.2,0,0.5-0.1,0.7,0c0.3,0.1,0.6,0.2,0.9,0.2c1,0.3,2,0.5,3,0.8
						c5.7,1.5,11.5,3,17.3,4.3c0.5,0.1,1,0.2,1.5,0.4c0.2,0,0.3,0.1,0.5,0.1c0.8,0.1,1.6,0.4,2.3,0.8c0.5,0.2,0.9,0.4,1.4,0.6
						c0.2,0.2,0.5,0.3,0.7,0.5c0.4,0.3,0.9,0.7,1.2,1.1c1,1.2,1.5,2.6,1.9,4c0.1,0.4,0.2,0.8,0.2,1.2c0,0.3,0,0.5,0,0.8
						c0,2.3,0,4.6,0,7c0,7.5,0,14.9,0,22.4c0,1.6,0,3.2,0,4.8c0,1.4,0.1,2.8,0,4.2c-0.2,2.1-0.6,4.3-2,6c-0.8,0.9-1.9,1.5-3.1,1.7
						c-0.6,0.1-1.2,0.1-1.8,0c-0.7-0.1-1.5,0-2.1,0c-1.4,0-2.8,0-4.1,0c-3.8,0-7.6,0-11.4,0c-3.8,0-7.7,0-11.5,0c-1.4,0-2.7,0-4.1,0
						c-0.8,0-1.6,0.1-2.4,0c0,0,0,0,0.1,0.1c0-9.1,0-18.3,0-27.4s0-18.3,0-27.4C64.5,61.5,64.3,61.7,64.3,61.8z"/>
					<path class="st0" d="M64.3,61.6c0,18.3,0,36.6,0,54.9c0,0,0,0.1,0,0.1c0.1,0,0.1,0,0.2-0.1c0,0-0.1,0-0.1,0
						c0.7,0.1,1.5,0,2.2,0c1.3,0,2.7,0,4,0c3.8,0,7.6,0,11.3,0c6,0,12.1,0,18.2,0c0.5,0,0.9,0.1,1.4,0.1c1.1,0,2.2-0.4,3.1-1
						c1.5-1.2,2.3-3,2.7-4.7c0.3-1.3,0.3-2.5,0.3-3.8c0-1.6,0-3.2,0-4.9c0-8.2,0-16.4,0-24.6c0-2.5,0-4.9,0-7.3c0-0.6,0-1.2-0.1-1.7
						c-0.2-1.5-0.7-2.9-1.6-4.1c-1.2-1.7-3-2.7-5-3.2c-1.1-0.3-2.3-0.5-3.5-0.8c-1.6-0.4-3.2-0.7-4.8-1.1c-3.3-0.8-6.7-1.7-10-2.5
						c-1.4-0.4-2.8-0.7-4.3-1.1c-0.4-0.1-0.9-0.2-1.3-0.3c-0.3-0.1-0.6-0.2-0.9-0.2c-0.3,0-0.7,0.1-1,0.1c-1,0.1-2,0.2-3,0.4
						c-1.6,0.3-3.1,0.7-4.6,1.4c-1.1,0.5-2.1,1.3-2.8,2.3c-0.1,0.2-0.3,0.5-0.4,0.7C64.3,60.5,64.3,61,64.3,61.6
						c0,0,0.1-0.1,0.1-0.2c0.2-0.5,0.4-0.9,0.6-1.4c0.1-0.7,0.4-1.2,0.9-1.6c0.3-0.3,0.6-0.5,0.9-0.7c0.2-0.1,0.5-0.3,0.7-0.4
						c1.1-0.4,2.1-0.8,3.2-1.2c0.4-0.1,0.8-0.2,1.3-0.3c1.4-0.3,2.8-0.4,4.1-0.5c0.2,0,0.2,0,0.4,0c0.5,0.2,1.1,0.3,1.6,0.4
						c2.3,0.6,4.7,1.2,7,1.8c2.8,0.7,5.5,1.4,8.3,2.1c1.2,0.3,2.4,0.6,3.6,0.9c1.3,0.3,2.7,0.6,4,1c0.2,0,0.4,0.1,0.5,0.2
						c0.9,0.4,1.7,0.9,2.5,1.3c0.3,0.3,0.6,0.5,0.9,0.8c0.6,0.6,1.1,1.4,1.5,2.1c0.2,0.6,0.4,1.1,0.6,1.7c0.1,0.5,0.3,1.1,0.3,1.7
						c-0.1,3.2,0,6.5,0,9.7c0,7,0,14.1,0,21.1c0,1.6,0,3.2,0,4.7c0,0.6,0,1.1,0,1.7c0,0.2,0,0.4,0,0.5c0,0.8-0.1,1.7-0.1,2.6
						c-0.2,1.9-0.8,3.9-2.3,5.3c-1,0.9-2.2,1.4-3.5,1.4c-0.3,0-0.5,0-0.8,0c-0.3,0-0.7,0-1,0c-6.1,0-12.3,0-18.5,0
						c-3.5,0-7,0-10.5,0c-1.3,0-2.6,0-3.9,0c-0.4,0-0.7,0-1.1,0c-0.4,0-0.9,0.1-1.3,0c0,0,0,0.1,0,0.1c0-18.3,0-36.6,0-54.9
						C64.3,61.7,64.3,61.6,64.3,61.6z"/>
					<path class="st0" d="M64,61.8c0,18.3,0,36.6,0,54.9c0,0,0,0.1,0.1,0.1c0.5,0,1.1,0,1.6,0c1.4,0,2.8,0,4.1,0c3.9,0,7.9,0,11.8,0
						c4.1,0,8.2,0,12.2,0c1.4,0,2.7,0,4.1,0c0.8,0,1.5,0,2.3,0c0.4,0,0.8,0.1,1.2,0.1c0.5,0,1-0.1,1.5-0.3c2.4-0.8,3.5-3.2,4.1-5.4
						c0.4-1.6,0.3-3.2,0.3-4.9c0-1.5,0-3,0-4.5c0-4.4,0-8.9,0-13.4c0-6.3,0-12.6,0-18.9c0-0.7-0.2-1.5-0.4-2.2
						c-0.6-1.9-1.7-3.6-3.4-4.7c-1.2-0.8-2.4-1.2-3.8-1.5c-1.4-0.3-2.8-0.6-4.2-1c-3.8-0.9-7.6-1.9-11.3-2.8c-2.6-0.7-5.3-1.4-8-2.1
						c-0.3-0.1-0.4-0.1-0.6-0.1c-0.6,0-1.2,0.1-1.8,0.2c-2,0.3-4.2,0.6-6,1.5c-1.2,0.6-2.5,1.3-3.2,2.4c-0.1,0.2-0.5,1-0.4,0.7
						c-0.2,0.6-0.2,0.9-0.3,1.6c0,0.1,0.5,0.1,0.5,0c0-0.3,0-0.5,0.1-0.8c0.3-0.6,0.7-1.3,1-1.9c0.3-0.4,0.8-0.7,1.2-1
						c1.1-0.7,2.3-1.2,3.5-1.5c1.6-0.5,3.3-0.7,5-0.9c0.3,0,0.7-0.1,1,0c0.2,0,0.4,0.1,0.6,0.2c0.4,0.1,0.8,0.2,1.1,0.3
						c1.4,0.4,2.7,0.7,4.1,1.1c3.5,0.9,7,1.8,10.6,2.7c1.6,0.4,3.2,0.8,4.7,1.1c1.5,0.4,3,0.6,4.5,1.1c1.4,0.5,2.6,1.4,3.5,2.5
						c0.6,0.8,1.1,1.7,1.4,2.7c0.3,0.9,0.4,1.9,0.4,2.8c0,2.6,0,5.2,0,7.8c0,8.7,0,17.3,0,26c0,3.1,0.4,6.5-0.9,9.5
						c-0.9,2.1-3.5,3.8-5.8,3.5c-0.4-0.1-0.9,0-1.3,0c-7.6,0-15.1,0-22.7,0c-3.2,0-6.4,0-9.7-0.1c-0.5,0-0.9,0-1.4-0.1
						c-0.3,0-0.6,0-0.9-0.1c0,0-0.1,0-0.2,0c0-0.2,0-0.3,0-0.4c0-0.6,0-1.2,0-1.9c0-17.5-0.1-35,0-52.5C64.3,61.6,64,61.7,64,61.8z"
						/>
					<path class="st0" d="M64.3,61.8c0,18.3,0,36.6,0,54.9c0,0,0,0,0,0c0.4,0.2,1.1,0.1,1.5,0c1.2,0,2.4,0,3.6,0c3.6,0,7.3,0,11,0
						c6.4,0,12.8,0,19.2,0c0.4,0,0.8,0,1.2,0c0.2,0,0.5,0,0.7,0c1,0,2-0.4,2.9-0.9c1.7-1.1,2.6-3,2.9-4.9c0.3-1.6,0.3-3.2,0.3-4.9
						c0-1.7,0-3.4,0-5.2c0-8.2,0-16.4,0-24.6c0-2.2,0-4.3,0-6.5c0-0.7-0.1-1.4-0.2-2.1c-0.2-0.9-0.6-1.8-1.1-2.6
						c-0.5-0.9-1.3-1.7-2.2-2.4c-1.3-0.9-2.7-1.4-4.2-1.7c-2.8-0.6-5.7-1.3-8.5-2c-3.3-0.8-6.6-1.7-9.8-2.5c-1.3-0.3-2.6-0.7-3.9-1
						c-0.3-0.1-0.7-0.2-1-0.3c-0.1,0-0.3-0.1-0.4-0.1c-0.3,0-0.6,0-0.9,0.1c-0.7,0.1-1.5,0.2-2.2,0.3c-2.1,0.4-4.3,0.9-6.2,2
						c-0.8,0.5-1.5,1.1-2.1,1.9c-0.5,0.7-0.6,1.5-0.6,2.3c0,0,0-0.1,0-0.1c0.1-0.4,0.2-0.7,0.3-1.1c0-0.6,0.2-1,0.6-1.4
						c0.1-0.1,0.2-0.2,0.2-0.3c0.9-0.9,1.9-1.5,3.1-1.9c0.7-0.3,1.3-0.5,2-0.7c0.4-0.1,0.8-0.2,1.3-0.3c1.4-0.3,2.8-0.5,4.1-0.5
						c0.3,0,0.5,0.1,0.9,0.2c0.6,0.2,1.3,0.3,1.9,0.5c2.5,0.6,5,1.3,7.5,1.9c2.8,0.7,5.5,1.4,8.3,2.1c1.3,0.3,2.6,0.6,4,1
						c1.1,0.3,2.3,0.5,3.4,0.9c1,0.4,1.9,1,2.7,1.7c0.6,0.6,0.8,1,1.3,1.8c0.4,0.7,0.7,1.1,0.9,1.8c0.2,0.7,0.5,1.6,0.4,2.4
						c0,0.1,0,0.2,0,0.3c0,0.2,0,0.5,0,0.7c0,0.7,0,1.5,0,2.2c0,2.9,0,5.8,0,8.7c0,7,0,14.1,0,21.1c0,1.4,0,2.9,0,4.3
						c0,1.3,0,2.5-0.2,3.7c-0.3,1.8-1,3.7-2.5,4.9c-1,0.8-2.2,1.2-3.5,1.2c-0.2,0-0.3,0-0.5,0c-0.4-0.1-0.9,0-1.4,0
						c-6.6,0-13.1,0-19.7,0c-3.4,0-6.8,0-10.1,0c-1.7,0-3.4,0-5.1,0.1c0,0,0.1,0,0.1,0c0-18.3,0-36.6,0-54.9
						C64.5,61.8,64.3,61.8,64.3,61.8z"/>
				</g>
			</g>
		</g>
	</g>
	<g>
		<g>
			<path d="M64.5,22.6c-17.9,0-16.2,8.8-16.2,19.6s7.3,19.6,16.2,19.6S80.7,53,80.7,42.2S85.4,22.6,64.5,22.6z"/>
			<g>
				<g>
					<path class="st0" d="M64.3,22.4c-4.9,0.1-11.2,0.4-14.2,4.8c-1.1,1.6-1.6,3.4-1.9,5.3C47.9,35,48,37.6,48,40.1
						c0,1.3,0,2.7,0.1,4c0.1,2.1,0.6,4.1,1.3,6.1c0.8,2.3,2,4.5,3.6,6.3c1.9,2.3,4.3,4,7.1,5c2.6,0.9,5.3,1,8,0.3
						c6.4-1.7,10.6-7.4,12.2-13.4c0.6-2.1,0.8-4.1,0.8-6.3c0-1,0-2.1,0.1-3.1c0.1-2.2,0.4-4.3,0.3-6.6c0-1.6-0.2-3.2-0.9-4.7
						c-0.5-1-1.1-1.8-2-2.5c-1.3-1-2.9-1.6-4.5-2.1c-3.1-0.8-6.4-0.9-9.6-1C64.4,22.4,64.3,22.5,64.3,22.4c1.8,0.1,3.6,0.1,5.4,0.2
						c0.5,0.1,1,0.1,1.5,0.2c1.3,0.1,2.5,0.4,3.6,0.9c1,0.1,1.8,0.5,2.6,1c0.4,0.2,0.8,0.5,1.1,0.8c0.7,1,1.4,2.1,2.1,3.1
						c0.1,0.4,0.2,0.7,0.3,1.1c0.3,1.5,0.3,3,0.3,4.6c-0.1,1.6-0.2,3.2-0.3,4.8c-0.1,2.1-0.1,4.2-0.3,6.3c-0.4,2.7-1.3,5.4-2.6,7.8
						c-1.1,2-2.6,3.8-4.4,5.3c-2.5,2.1-5.8,3.4-9.1,3.3c-2.2-0.1-4.3-0.6-6.3-1.5c-2-1-3.7-2.5-5.2-4.2c-2.4-2.8-3.8-6.3-4.4-9.8
						c-0.4-2.3-0.3-4.6-0.4-6.9c0-2-0.1-4,0.1-6c0.2-1.9,0.5-3.7,1.4-5.3c0.7-1.4,1.9-2.5,3.2-3.3c1-0.6,2.1-1,3.2-1.3
						c2.6-0.7,5.3-0.8,8.1-0.9C64.3,22.6,64.3,22.4,64.3,22.4z"/>
					<path class="st0" d="M64.2,22.4c-4.9,0.1-11.2,0.4-14.3,4.7c-1.2,1.7-1.7,3.7-1.9,5.8c-0.3,2.4-0.2,4.7-0.2,7.1
						c0,1.3,0,2.7,0.1,4c0.1,1.6,0.4,3.1,0.8,4.6c0.4,1.7,1.1,3.2,2,4.8c0.8,1.4,1.8,2.8,3,3.9c1.6,1.6,3.4,2.9,5.6,3.7
						c2.7,1.1,5.7,1.3,8.6,0.5c5.3-1.4,9.2-5.6,11.3-10.4c0.9-2.1,1.5-4.4,1.7-6.7c0.2-1.5,0.1-3,0.2-4.5c0-1,0.1-2,0.2-3
						c0.1-1.8,0.3-3.6,0.2-5.4c-0.1-1.8-0.5-3.7-1.7-5.1c-1.2-1.4-2.8-2.3-4.6-2.9C71.6,22.5,67.9,22.4,64.2,22.4
						c-0.1,0,0.1,0.2,0.2,0.2c3.2,0,6.4,0.1,9.5,0.9c1.7,0.5,3.4,1.1,4.8,2.3c2.3,2.1,2.5,5.1,2.5,8c0,1.7-0.2,3.4-0.3,5.2
						c-0.2,2.6,0,5.2-0.6,7.8c-0.4,1.5-0.9,2.9-1.3,4.3c-0.3,0.7-0.6,1.3-1,2c-0.6,1-1.2,2-2,2.9c-1.1,1.4-2.5,2.6-4,3.5
						c-1.1,0.7-2.3,1.3-3.6,1.6c-0.4,0.1-0.9,0.2-1.3,0.3c-0.9,0.2-1.7,0.3-2.6,0.2c-0.9,0.1-1.8,0-2.6-0.2
						c-0.6-0.1-1.3-0.3-1.9-0.5c-3.2-1.1-5.9-3.3-7.8-6.1c-1.6-2.2-2.6-4.7-3.2-7.3c-0.4-1.5-0.6-3.1-0.6-4.6c0-1.1,0-2.1,0-3.2
						c0-2.2-0.1-4.4,0.1-6.6c0.2-1.6,0.4-3.1,1.1-4.5c2.4-5.5,9.6-6,15-6.1C64.6,22.6,64.3,22.4,64.2,22.4z"/>
					<path class="st0" d="M64.1,22c-5.2,0.1-11.9,0.5-14.7,5.6c-1.1,2-1.4,4.3-1.5,6.6c-0.1,2.6,0,5.3,0,8c0.1,3.6,0.8,7.2,2.5,10.4
						c0.9,1.7,2,3.3,3.4,4.7c2.2,2.2,4.9,3.8,8,4.4c2.7,0.5,5.4,0.2,8-0.8c3-1.2,5.5-3.4,7.4-6c1.7-2.5,2.8-5.3,3.4-8.2
						c0.6-2.9,0.4-5.9,0.6-8.9c0.1-2.1,0.4-4.3,0.2-6.4c-0.1-1.8-0.5-3.6-1.7-5.1c-1.1-1.4-2.5-2.2-4.1-2.8C71.9,22.1,68,22,64.1,22
						c-0.1,0,0.2,0.4,0.3,0.4c2.8,0,5.5,0.1,8.3,0.6c1.8,0.4,3.5,0.9,5,1.9c1.7,1,2.7,2.8,3.2,4.6c0.3,1.4,0.3,2.7,0.3,4.1
						c0,1.6-0.2,3.1-0.3,4.7c-0.1,2,0,4-0.2,6c-0.3,3.2-1.2,6.4-2.9,9.2c-1.2,1.9-2.6,3.8-4.5,5.1c-1.7,1.3-3.8,2.4-5.9,2.8
						c-0.4,0.1-0.9,0.2-1.3,0.2c-3.3,0.5-6-0.6-8.4-3.3c-3.4-0.9-5.8-2.9-7.1-5.8c-0.2-0.4-0.4-0.9-0.6-1.3c-1-2.4-1.6-4.9-1.8-7.4
						c-0.1-1.1,0-2.3-0.1-3.4c0-1,0-2,0-2.9c0-3.3,0.1-7.1,2-10c3-4.5,9.4-4.9,14.4-5C64.5,22.5,64.2,22,64.1,22z"/>
					<path class="st0" d="M64.4,22.4c-5.4,0.1-12.7,0.6-15.1,6.3c-0.9,2-1.1,4.1-1.2,6.2c-0.1,2.1,0,4.1,0,6.2
						c0,1.7,0.1,3.4,0.4,5.1c0.3,1.7,0.8,3.4,1.5,5.1c0.6,1.3,1.3,2.6,2.1,3.8c1.3,1.9,3,3.5,4.9,4.7c2.6,1.6,5.8,2.5,9,2.1
						c3.1-0.3,6.1-1.7,8.4-3.8c2.1-2,3.7-4.3,4.9-7c0.8-1.9,1.3-3.9,1.6-5.9c0.2-1.4,0.2-2.9,0.2-4.3c0-2.3,0.3-4.5,0.4-6.9
						c0.1-1.7,0-3.3-0.4-5c-0.4-1.5-1.3-2.9-2.5-3.9c-1-0.8-2.2-1.4-3.4-1.7C71.7,22.4,68,22.3,64.4,22.4c-0.1-0.1,0,0.2,0.1,0.2
						c3.1,0,6.4,0.1,9.5,1c0.4,0.1,0.7,0.2,1.1,0.3c0.8,0.2,1.5,0.6,2.2,1.1c0.7,0.3,1.3,0.7,1.7,1.2c0.3,0.3,0.5,0.6,0.7,0.9
						c1.7,2.5,1.5,5.8,1.3,8.7c-0.1,1.8-0.3,3.6-0.3,5.4c0,1.4,0,2.8-0.2,4.2c-0.2,1.5-0.5,3-1.1,4.4c-0.8,2.3-1.9,4.3-3.5,6.2
						c-0.9,1-1.8,2-2.9,2.8c-1,0.8-2.2,1.5-3.4,1.9c-1,0.4-2.1,0.7-3.1,0.8c-1.3,0.2-2.6,0.2-3.9,0c-2.4-0.4-4.7-1.4-6.6-2.8
						c-4-3-6.5-7.9-7.3-12.7c-0.4-2.5-0.3-5-0.4-7.5c0-2.4-0.1-4.9,0.4-7.3c0.3-1.5,0.8-2.9,1.7-4.1c1.1-1.6,3-2.7,4.8-3.3
						c3-1,6.1-1.2,9.2-1.2C64.6,22.6,64.5,22.4,64.4,22.4z"/>
					<path class="st0" d="M64.3,22.1c-4.9,0.1-11.2,0.5-14.3,4.8c-1.9,2.8-2.1,6.3-2.1,9.5c0,1.5,0,3,0,4.5c0,1,0,1.9,0.1,2.8
						c0.1,2.1,0.6,4.1,1.3,6c1.8,5.3,6.1,10.3,12,11.7c3.1,0.7,6.3,0.4,9.2-1c2.5-1.2,4.6-3,6.3-5.2c2.1-2.8,3.4-6.1,4-9.5
						c0.2-1.4,0.3-2.7,0.3-4.1c0.1-1.9,0.1-3.7,0.3-5.5c0.2-3.4,0.7-7.6-1.8-10.4c-1-1.2-2.4-1.9-3.9-2.4c-3.6-1.3-7.5-1.3-11.3-1.4
						c-0.1,0,0,0.4,0.1,0.4c2.8,0,5.5,0.2,8.3,0.7c2.3,0.4,4.7,1.3,6.3,2.9c2.1,2.2,2.2,5.3,2.1,8.1c-0.1,1.6-0.2,3.2-0.3,4.8
						c-0.1,2.1,0,4.2-0.3,6.3c-0.4,2.5-1,4.9-2.2,7.2c-1.1,2-2.4,4-4.2,5.5c-0.7,0.5-1.4,1.1-2.1,1.6c-0.4,0.2-0.8,0.4-1.1,0.7
						c-1.1,0.6-2.4,1.1-3.7,1.4c-2.2,0.4-4.5,0.4-6.6-0.2c-4.8-1.4-8.4-5-10.5-9.3c-2.2-4.6-2.3-10-2.3-15c0-1.9,0.1-3.9,0.4-5.7
						c0.1-0.5,0.2-0.9,0.4-1.4c0.2-0.7,0.6-1.4,1.1-2c0.3-0.9,0.9-1.6,1.6-2.2c0.2-0.2,0.5-0.4,0.8-0.6c0.7-0.5,1.5-0.9,2.4-1.3
						c3.1-1.2,6.4-1.4,9.8-1.4C64.5,22.4,64.4,22.1,64.3,22.1z"/>
					<path class="st0" d="M64,22.3c-5.2,0.1-12,0.5-14.8,5.6c-0.8,1.4-1.1,3-1.3,4.5c-0.3,2.5-0.2,5.1-0.2,7.6c0,1.3,0,2.7,0.1,4
						c0.1,1.6,0.4,3.1,0.8,4.6c0.7,2.4,1.7,4.6,3.2,6.6c1.8,2.5,4.4,4.7,7.4,5.9c2.1,0.8,4.4,1.2,6.7,0.9c5.1-0.5,9.5-4,11.9-8.2
						c1.6-2.7,2.6-5.5,3-8.6c0.3-2.1,0.2-4.2,0.3-6.3c0.1-2.5,0.5-4.9,0.3-7.4c-0.1-1.6-0.4-3.1-1.3-4.5c-0.9-1.5-2.4-2.5-4.1-3.2
						c-1.5-0.6-3.2-1-4.8-1.2c-2.3-0.3-4.6-0.4-7-0.4c-0.2,0,0.1,0.3,0.2,0.3c2.5,0,5.1,0.1,7.6,0.5c1.7,0.3,3.4,0.7,4.9,1.5
						c0.8,0.4,1.4,0.9,2,1.5c0.6,0.5,1,1.1,1.3,1.8c0.6,1.3,0.9,2.7,0.9,4.1c0.1,2.9-0.3,5.7-0.4,8.5c0,0.5,0,1,0,1.6
						c-0.2,2.1-0.5,4.2-0.8,6.2c-0.2,1-0.6,1.9-1,2.9c-1.2,3-3.3,6-5.9,7.9c-1.6,1.2-3.4,2.1-5.4,2.6c-0.9,0.3-1.7,0.4-2.7,0.3
						c-0.9,0.2-1.8,0.2-2.7,0c-2.4-0.4-4.7-1.4-6.6-2.9c-4.7-3.6-7.2-9.4-7.6-15.1c-0.1-1.1,0-2.3-0.1-3.4c0-1,0-1.9,0-2.9
						c0-0.4,0-0.7,0-1.1c0.6-2.9,1.1-5.7,1.7-8.6c0.4-0.6,0.8-1.3,1.4-1.8c1.1-1.1,2.5-1.9,4-2.4c2.9-1,6.1-1.2,9.2-1.2
						C64.5,22.5,64.1,22.2,64,22.3z"/>
					<path class="st0" d="M64.5,22.3c-3.7,0-7.6,0.2-11,2c-1.9,1-3.4,2.5-4.2,4.4c-0.7,1.8-1.1,3.7-1.1,5.6c-0.1,2.7-0.1,5.3,0,8
						c0,2.6,0.4,5.2,1.3,7.7c1.8,5.1,5.8,9.8,11.3,11.5c3,0.9,6.3,0.7,9.3-0.5c2.6-1,4.8-2.8,6.6-4.9c2.2-2.7,3.6-6,4.3-9.3
						c0.6-2.9,0.4-5.9,0.6-8.9c0.1-2.1,0.4-4.3,0.2-6.4c-0.1-1.3-0.3-2.6-0.9-3.8c-0.9-1.8-2.6-3-4.5-3.8c-1.5-0.6-3.2-1-4.8-1.2
						C69.2,22.3,66.9,22.3,64.5,22.3C64.4,22.2,64.4,22.3,64.5,22.3c2.8,0,5.6,0.1,8.4,0.7c1.7,0.4,3.6,0.9,5.1,1.9
						c1.5,1.1,2.6,2.5,3,4.3c0.3,1.3,0.4,2.7,0.4,4.1c0,1.4-0.1,2.8-0.2,4.2c-0.1,1.8-0.2,3.6-0.2,5.4c-0.2,4.9-1.8,9.8-5.2,13.6
						c-0.7,0.8-1.6,1.6-2.5,2.3c-0.4,0.3-0.7,0.5-1.1,0.8c-0.8,0.4-1.5,0.8-2.3,1.2c-2,0.9-4.3,1.2-6.5,1c-0.6,0-1.3-0.2-1.9-0.3
						c-0.6-0.1-1.3-0.3-1.8-0.6c-0.8-0.3-1.6-0.6-2.3-1.1c-0.4-0.2-0.7-0.5-1.1-0.7c-1.8-1.4-3.4-3.1-4.6-5
						c-1.4-2.3-2.4-4.9-2.9-7.6c-0.2-1.3-0.3-2.6-0.4-3.9c0-1.9-0.1-3.9-0.1-5.8c0-1.7,0.1-3.4,0.4-5.1c0.2-1.3,0.6-2.5,1.2-3.6
						c0.2-0.3,0.3-0.5,0.5-0.8C53.2,22.9,59.3,22.4,64.5,22.3C64.5,22.4,64.6,22.3,64.5,22.3z"/>
				</g>
			</g>
		</g>
	</g>
	<g>
		<g>
			<path d="M73,12.9c0.6-1.1,1-2.4,1-3.7c0-4.7-4.2-8.6-9.3-8.6c-5.1,0-9.3,3.8-9.3,8.6c0,1.3,0.3,2.5,0.9,3.6
				c-29.4,14-7.1,34.1-7.1,34.1V31.7h15.4h15.4v15.1C79.9,46.9,102,26.9,73,12.9z"/>
			<g>
				<g>
					<path class="st0" d="M73.3,13.1c0.3-0.6,0.5-1.2,0.7-1.8c0.2-0.6,0.2-1.4,0.2-2c0-1-0.2-2.1-0.6-3c-0.6-1.4-1.5-2.6-2.7-3.6
						c-1.3-1.1-3-1.8-4.7-2.1C63.2,0.2,60,1,57.8,3c-1.2,1.2-2.2,2.7-2.5,4.3C55.1,8.1,55,9,55.1,9.8c0.1,1.2,0.4,2.2,0.9,3.2
						c0-0.1,0.1-0.2,0.1-0.2c-1.8,0.9-3.6,1.9-5.3,2.9c-1.4,0.9-2.8,1.9-4.1,3c-1.7,1.5-3.1,3.3-4.2,5.3c-1.8,3.3-2.1,7.2-1.1,10.8
						c0.8,3,2.2,5.7,4,8.2c0.8,1.1,1.6,2.1,2.5,3.1c0.4,0.4,0.8,0.9,1.3,1.3c0,0,0.1,0,0.1-0.1c0.1-1,0.1-2.1,0.1-3
						c0-1.7,0-3.3,0-5.1c0-2.5,0-5.1,0-7.6c0,0,0,0-0.1,0c0.1,0.1,0.2,0.1,0.4,0.1c0.5,0.1,1,0.1,1.5,0.2c1.8,0.1,3.6,0.1,5.4,0.2
						c2.7,0,5.4,0,8.2,0.1c5.1,0.1,10.3,0,15.4,0c-0.1-0.1-0.2-0.2-0.3-0.4c-0.1,0.9-0.1,1.8-0.1,2.7c0,1.5-0.1,3.1-0.1,4.6
						c0,2.7,0,5.4,0,8c0,0.1,0.1,0,0.1,0c0.5-0.3,1-0.8,1.5-1.3c1.2-1.1,2.1-2.4,3-3.7c1.9-2.7,3.3-5.8,3.8-9c0.4-2.5,0.2-5-0.7-7.3
						c-0.6-1.6-1.4-3-2.4-4.3c-3-4-7.4-6.6-11.9-8.9c0,0-0.2,0-0.1,0c5.5,2.5,10.1,6.4,13.7,11.6c0.3,0.7,0.6,1.4,0.9,2.2
						c0.3,1,0.5,2.1,0.6,3.2c0.3,3.9-1.1,7.8-3.1,11.1c-0.9,1.5-2,3-3.2,4.3c-0.4,0.5-0.9,1-1.4,1.4c-0.2,0.2-0.4,0.4-0.6,0.5
						c0,0,0,0,0.1,0c0-2.1,0-4.1,0-6.1c0-1.4,0-2.9,0-4.3c0-0.9,0-1.9,0-2.8c0-0.2,0-0.4,0-0.5c0-0.4,0.1-0.7,0.3-1.1
						c0.1,0-0.2-0.4-0.3-0.4c-5.1,0-10.2,0-15.3,0c-2.2,0-4.5,0-6.7,0c-1.7,0-3.5,0-5.3,0c-0.7,0-1.4,0-2.1,0c-0.4,0-0.8,0-1.1-0.1
						c0,0-0.1,0-0.1,0c0,2.5,0,5.1,0,7.6c0,1.7,0,3.4-0.1,5.1c0,0.9,0,1.8-0.2,2.7c0,0,0,0,0.1-0.1c-0.9-0.9-1.8-1.8-2.6-2.8
						c-2.1-2.6-3.8-5.4-4.7-8.5c-0.4-1.4-0.7-2.9-0.8-4.3c0-0.8,0-1.7,0.1-2.5c0.1-0.5,0.2-1,0.3-1.5c0.4-1,0.8-2.1,1.2-3.1
						c0.5-0.9,1.1-1.8,1.7-2.7c0.4-0.6,0.9-1.1,1.4-1.5c0.7-0.8,1.4-1.4,2.2-2.1c0.9-0.7,1.8-1.4,2.8-2c1.7-1.1,3.5-1.9,5.3-2.8
						c0,0,0.1-0.2,0.1-0.2c-0.5-1.2-0.9-2.3-0.9-3.6c0-1.3,0.3-2.6,0.9-3.8c1.1-2.1,3-3.7,5.2-4.5c1-0.4,2.1-0.6,3.2-0.6
						c1.1,0.2,2.2,0.3,3.3,0.5c1.3,0.4,2.6,1.2,3.5,2.1c0.7,0.7,1.3,1.5,1.8,2.4c0.6,1.2,0.9,2.5,0.9,3.8s-0.3,2.5-1,3.7
						C73.1,13.1,73.3,13.1,73.3,13.1z"/>
					<path class="st0" d="M73.2,13c0.4-0.8,0.6-1.5,0.8-2.3c0.2-0.8,0.2-1.7,0.1-2.5c-0.2-1.7-0.9-3.2-2.1-4.5
						c-2.3-2.6-6.2-3.9-9.7-3c-2.6,0.6-4.8,2.1-6.2,4.3c-0.9,1.5-1.3,3.1-1.2,4.8c0.1,1.2,0.4,2.2,0.9,3.2c0.1-0.1,0.2-0.2,0.2-0.3
						c-3.4,1.7-6.8,3.4-9.6,6.1c-1.4,1.3-2.6,2.7-3.6,4.2c-2.3,3.5-2.8,7.8-1.7,11.8c0.8,3.2,2.5,6.1,4.5,8.7
						c0.7,0.9,1.4,1.8,2.2,2.6c0.3,0.4,0.7,0.7,1.1,1.1c0.1,0,0.1,0,0.1-0.1c0.2-0.7,0.1-1.5,0.1-2.2c0-1.7,0.1-3.4,0.1-5.2
						c0-2.7,0-5.4,0-8.1c0,0-0.1,0.1-0.1,0.1c0.2,0.1,0.5,0.1,0.7,0.1c0.6,0,1.3,0.1,1.9,0.1c1.7,0,3.4,0,5.1,0.1c2.6,0,5.1,0,7.7,0
						c5.1,0,10.3,0,15.4,0c0-0.1-0.1-0.1-0.1-0.2c0,0.3,0,0.6-0.1,0.8c0,0.6-0.1,1.3-0.1,1.9c0,1.7-0.1,3.4-0.1,5.1
						c0,2.5,0,5.1,0,7.6c0,0,0.1,0,0.1,0c0.5-0.3,0.9-0.8,1.3-1.2c0.6-0.6,1.2-1.3,1.8-1.9c2.1-2.5,3.8-5.3,4.7-8.4
						c1.1-3.7,1.1-7.8-0.8-11.4c-1.1-2.1-2.5-3.8-4.2-5.4c-2.7-2.6-6.1-4.5-9.5-6.2c-0.1-0.1-0.1,0.2,0,0.2c1.8,0.9,3.6,1.9,5.3,3
						c1,0.6,1.9,1.4,2.8,2.1c2,1.6,3.8,3.6,5,5.8c1.8,3.3,2.3,7.2,1.3,10.8c-0.8,3-2.2,5.7-4,8.1c-0.5,0.8-1.1,1.5-1.8,2.2
						c-0.3,0.3-0.6,0.6-0.9,1c-0.3,0.3-0.6,0.7-1,0.9c0,0,0.1,0,0.1,0c0-2.4,0-4.7,0-7.1c0-1.8,0-3.7,0-5.5c0-0.6,0-1.2,0-1.8
						c0-0.2,0-0.4,0.1-0.6c0-0.1-0.1-0.2-0.1-0.2c-5.1,0-10.2,0-15.3,0c-2.2,0-4.5,0-6.7,0c-1.7,0-3.5,0-5.3,0c-0.7,0-1.4,0-2.1,0
						c-0.2,0-0.3,0-0.5,0c-0.2,0-0.4,0-0.7-0.1c-0.1,0-0.1,0-0.1,0.1c0,2.4,0,4.7,0,7.1c0,1.6,0,3.2,0,4.7c0,0.7,0,1.4,0,2.1
						c0,0.5,0,1-0.1,1.4c0,0,0.1-0.1,0.1-0.2c-0.2-0.3-0.5-0.5-0.7-0.7c-0.7-0.7-1.4-1.5-2-2.3c-1.8-2.3-3.4-5-4.4-7.8
						c-0.5-1.5-0.8-3.1-0.9-4.7c-0.1-1.7,0.2-3.4,0.8-5.1c0.9-2.6,2.6-4.9,4.5-6.8c1-0.9,2-1.8,3.1-2.6c0.5-0.3,1-0.7,1.5-1
						c1.6-1,3.3-1.9,5.1-2.7c0,0,0.3-0.2,0.2-0.3C55.3,11,55,9.2,55.5,7.2c0.3-1.3,0.9-2.4,1.8-3.4c2.2-2.6,6-3.7,9.4-3
						c2.6,0.6,5,2.2,6.3,4.5c0.6,1.2,1,2.5,1,3.8c0,0.7-0.1,1.3-0.2,2c-0.2,0.6-0.4,1.2-0.7,1.8C73,13,73.1,13,73.2,13z"/>
					<path class="st0" d="M73.2,12.7c0.3-0.6,0.6-1.2,0.7-1.9c0.2-0.8,0.3-1.7,0.2-2.5c-0.1-1.5-0.6-3-1.5-4.2
						c-1.9-2.8-5.3-4.3-8.8-4.1c-3,0.2-5.9,1.7-7.5,4.2c-0.7,1.2-1.2,2.4-1.4,3.8c-0.1,0.6-0.1,1.4,0,2.1c0.2,1,0.5,1.9,0.9,2.8
						c0,0,0-0.1,0-0.1c-3.3,1.6-6.7,3.3-9.4,5.8c-1.7,1.5-3.1,3.2-4.2,5.2c-0.9,1.8-1.5,3.8-1.6,5.8c-0.1,2.2,0.2,4.3,0.9,6.4
						c1.4,4.2,4.1,7.9,7.4,11c0,0,0.1,0.1,0.1,0c0.1-0.3,0.1-0.6,0.1-0.9c0-0.7,0.1-1.4,0.1-2.1c0-1.7,0-3.4,0-5.1
						c0-2.5,0-5.1,0-7.6c0,0.1-0.1,0.2-0.1,0.2c0.9,0.1,1.8,0.1,2.7,0.2c1.7,0.1,3.4,0.1,5.1,0.1c2.6,0,5.1,0,7.7,0
						c5.1,0,10.3,0,15.4,0c0,0,0-0.1,0-0.1c-0.1,0-0.2,0.1-0.2,0.2c0,0.2,0,0.3-0.1,0.5c-0.1,0.6-0.2,1.2-0.2,1.9c0,1.7,0,3.3-0.1,5
						c0,2.5,0,5,0,7.6c0,0,0,0.1,0.1,0.1c0.1,0,0.1-0.1,0.2-0.2c0.2-0.1,0.4-0.2,0.6-0.4c0.1-0.1,0.2-0.2,0.3-0.3
						c0.9-0.8,1.7-1.8,2.5-2.8c2-2.7,3.7-5.6,4.5-8.9c0.9-3.5,0.6-7.2-1.1-10.5c-1-1.9-2.2-3.4-3.7-4.9c-1.2-1.2-2.5-2.2-3.9-3.2
						c-1.9-1.4-4-2.5-6.2-3.5c-0.1-0.1,0,0.4,0.1,0.5c2.9,1.5,5.7,3,8.2,5.1c1,0.8,1.9,1.7,2.7,2.7c0.4,0.5,0.9,1,1.2,1.6
						c0.5,0.6,1,1.4,1.3,2.1c0.7,1.5,1.3,3.1,1.5,4.8c0.3,2.3,0,4.6-0.8,6.9c-1,2.9-2.5,5.5-4.5,7.9c-0.6,0.8-1.3,1.5-2,2.2
						c-0.3,0.3-0.7,0.7-1.1,0.8c0,0,0.1,0.1,0.1,0.1c0-2.5,0-5,0-7.6c0-1.7,0-3.3,0-5c0-0.6,0.1-1.2,0.2-1.8c0-0.3,0.2-0.5,0.2-0.8
						v0c-5.1,0-10.2,0-15.3,0c-2.2,0-4.5,0-6.7,0c-1.8,0-3.5,0-5.3-0.1c-0.7,0-1.5,0-2.2-0.1c-0.3,0-0.9,0-1.2-0.3
						c-0.1-0.1-0.2,0.2-0.2,0.2c0,2.5,0,5.1,0,7.6c0,1.7,0,3.3,0,5c0,0.9,0,1.9-0.2,2.9c0,0,0.1,0,0.1,0c-0.2-0.2-0.4-0.3-0.5-0.5
						c-0.7-0.7-1.3-1.4-1.9-2.1c-0.7-0.9-1.4-1.8-2.1-2.8c-0.2-0.4-0.5-0.7-0.7-1.1c-0.5-0.8-0.9-1.6-1.2-2.5
						c-0.5-0.8-0.9-1.7-1.1-2.6c-0.1-0.3-0.2-0.6-0.2-0.9c-0.2-0.8-0.4-1.6-0.4-2.4c-0.1-1.4-0.1-2.7,0.2-4.1
						c0.1-0.7,0.3-1.4,0.6-2.1c0.1-0.4,0.3-0.7,0.4-1c0.4-0.7,0.7-1.4,1.1-2.1c1.1-1.8,2.6-3.3,4.2-4.7c0.6-0.6,1.3-1.1,2-1.5
						c0.7-0.5,1.4-1,2.2-1.5c1.4-0.9,2.9-1.6,4.5-2.3c0,0,0-0.1,0-0.1c-0.8-1.9-1.1-3.6-0.6-5.7c0.3-1.3,1-2.4,1.9-3.4
						c2-2.3,5.2-3.5,8.4-3.2c2.4,0.2,4.7,1.4,6.2,3.1c1.1,1.3,1.8,2.7,2,4.3c0.1,0.7,0.1,1.3,0,2c-0.1,1-0.4,1.9-0.9,2.7
						C73,12.8,73.2,12.8,73.2,12.7z"/>
					<path class="st0" d="M73.3,12.9c0.3-0.6,0.5-1.2,0.7-1.8c0.1-0.5,0.2-1,0.2-1.5c0-0.9,0-1.7-0.2-2.5c-0.3-1-0.7-1.9-1.3-2.7
						c-1.3-1.8-3.2-3.1-5.4-3.6c-2.6-0.7-5.5-0.3-7.8,1c-1.8,1-3.1,2.6-3.9,4.5c-0.4,0.9-0.5,2-0.6,3c0,1.3,0.4,2.5,0.9,3.7
						c0-0.1,0.1-0.2,0.1-0.2c-3.6,1.9-7.1,3.8-10,6.6c-1.6,1.5-3,3.2-3.9,5.3c-1.6,3.4-1.8,7.1-0.8,10.7c0.7,2.6,2,5,3.6,7.3
						c0.8,1.1,1.6,2.2,2.6,3.2c0.4,0.5,0.9,1,1.4,1.4c0,0,0.1,0,0.1,0c0-0.3,0-0.6,0-0.9c0-0.6,0-1.3,0-1.9c0.1-1.7,0.1-3.4,0.1-5.1
						c0-2.5,0-5.1,0-7.6c-0.1,0.1-0.2,0.2-0.3,0.3c0.9,0,1.9,0,2.8,0c1.7,0,3.4,0,5.1,0.1c2.6,0,5.1,0,7.7,0c5.1,0,10.3,0,15.4,0
						c-0.1-0.1-0.2-0.2-0.3-0.2c-0.1,5.1-0.1,10.1-0.1,15.2c0,0,0.1,0.1,0.1,0.1c0.4-0.2,0.8-0.7,1.2-1c0.9-0.8,1.7-1.7,2.3-2.6
						c1.9-2.5,3.5-5.3,4.4-8.4c1-3.6,0.8-7.5-0.9-10.9c-1.1-2.1-2.5-3.8-4.2-5.4c-2.7-2.6-6.1-4.4-9.5-6.1c-0.1-0.1-0.2,0.3-0.1,0.3
						c3.1,1.6,6.1,3.3,8.8,5.6c1.9,1.7,3.6,3.6,4.7,5.9c0.8,1.7,1.3,3.4,1.5,5.3c0.2,1.8-0.1,3.7-0.6,5.4c-0.9,3-2.4,5.8-4.3,8.3
						c-0.4,0.5-0.7,0.9-1.1,1.3c-0.3,0.3-0.7,0.6-1,1c-0.3,0.4-0.6,0.9-1.1,1.1c0,0,0.1,0,0.1,0.1c0-2.2,0-4.4,0-6.6
						c0-1.6,0-3.2,0-4.8c0-0.6,0-1.3,0-1.9c0-0.2,0-0.4,0-0.5c0-0.4,0.1-0.7,0.2-1.1c0.1-0.1-0.2-0.2-0.3-0.2c-5.1,0-10.2,0-15.3,0
						c-2.2,0-4.5,0-6.7,0c-1.8,0-3.5,0-5.3,0c-0.7,0-1.4,0-2,0c-0.3,0-0.8,0-1.1-0.2c-0.1-0.1-0.3,0.2-0.3,0.2c0,2.5,0,5.1,0,7.6
						c0,1.7,0,3.3-0.1,5c0,0.2,0,0.5,0,0.7c0,0.4,0.1,0.8,0.1,1.1c0,0.2,0,0.5,0,0.7c0,0,0.1,0,0.1,0c-0.7-0.8-1.5-1.5-2.1-2.3
						c-1.5-1.8-2.9-3.8-3.9-6c-0.6-1.8-1.2-3.6-1.7-5.4c0-0.3-0.1-0.6-0.1-1c-0.1-0.6-0.1-1.3-0.1-2c0-0.8,0.2-1.7,0.3-2.5
						c0.1-0.4,0.2-0.7,0.3-1c0.2-0.7,0.5-1.4,0.9-2.1c0.4-0.9,0.9-1.8,1.5-2.6c0.3-0.4,0.6-0.7,0.8-1c0.6-0.7,1.3-1.4,2-2.1
						c1-0.9,2.1-1.8,3.3-2.5c1.9-1.3,3.9-2.3,5.9-3.3c0,0,0.1-0.2,0.1-0.2c-0.4-0.8-0.7-1.7-0.8-2.7c-0.1-0.8,0-1.6,0.1-2.4
						c0.3-1.7,1.2-3.3,2.6-4.5c0.6-0.5,1.3-1,2-1.4c0.4-0.2,0.9-0.5,1.4-0.6c4,2.1,8.1,4.1,12.1,6.1c0.3,0.9,0.3,2.1,0.2,3
						c-0.2,1-0.5,1.8-0.9,2.7C72.9,13,73.3,13,73.3,12.9z"/>
					<path class="st0" d="M73.4,12.6c0.4-0.9,0.8-1.8,0.9-2.8c0.1-0.7,0.1-1.4,0-2.1c-0.3-1.7-1-3.2-2.1-4.5c-2.2-2.6-5.9-3.6-9.3-3
						c-3.2,0.6-5.9,2.6-7.2,5.4C55.3,6.7,55,7.9,55,9.1c0,1.4,0.4,2.6,1,3.8c0,0,0-0.1,0-0.1c-1.3,0.5-2.5,1.2-3.7,1.8
						c-0.8,0.5-1.6,0.9-2.3,1.5c-1.2,0.8-2.3,1.6-3.3,2.5c-1.7,1.5-3.1,3.3-4.2,5.3c-1.8,3.3-2.1,7.2-1.1,10.8
						c1.3,4.7,4.2,9,7.8,12.4c0,0,0.1,0,0.1,0c0-1,0.1-2,0.2-2.9c0-1.7,0-3.4,0.1-5.1c0-2.6,0-5.1,0-7.7c-0.1,0.1-0.2,0.3-0.2,0.4
						c0.9,0.1,1.8,0.1,2.7,0.1c1.7,0,3.4,0,5.1,0.1c2.6,0,5.1,0,7.7,0c5.1,0,10.3,0,15.4,0c0,0,0-0.1,0-0.1
						c-0.1,0.4-0.2,0.8-0.3,1.3c-0.1,0.6-0.1,1.1-0.1,1.7c0,1.7,0,3.4,0,5.1c0,2.4,0,4.7,0,7.1c0,0,0,0.1,0,0.1
						c0.2-0.1,0.3-0.2,0.5-0.3c0.4-0.3,0.7-0.6,1-0.9c0.6-0.6,1.1-1.3,1.7-1.9c2.1-2.7,3.9-5.7,4.8-9c1-3.5,0.8-7.1-0.7-10.5
						c-1-2.3-2.6-4.2-4.5-6c-2.8-2.6-6.1-4.4-9.5-6.1c-0.2-0.1-0.2,0.5-0.1,0.5c1.8,0.9,3.6,1.9,5.3,3c1,0.6,1.9,1.4,2.8,2.1
						c2,1.6,3.8,3.6,5,5.9c0.9,1.7,1.5,3.4,1.7,5.3c0.2,2.2,0,4.3-0.6,6.4c-0.9,2.8-2.4,5.4-4.2,7.8c-0.7,0.9-1.4,1.8-2.2,2.6
						c-0.4,0.4-0.8,0.8-1.3,1c0,0,0,0.1,0,0.1c0-2.4,0-4.7,0-7.1c0-1.6,0-3.1,0.1-4.7c0-0.7,0-1.5,0.1-2.2c0-0.2,0-0.4,0.1-0.5
						c0-0.2,0-0.4,0.1-0.6c0,0,0-0.1,0-0.1c-5.1,0-10.2,0-15.3,0c-2.2,0-4.5,0-6.7,0c-1.7,0-3.5,0-5.3-0.1c-0.7,0-1.5,0-2.2-0.1
						c-0.3,0-1,0-1.1-0.3c0-0.2-0.3,0.3-0.3,0.4c0,2.5,0,5.1,0,7.6c0,1.7,0,3.3,0,5.1c0,0.6,0,1.3,0,2c0,0.3,0,0.6-0.1,0.9
						c0,0,0.1,0,0.1,0c-0.4-0.3-0.7-0.7-1.1-1c-0.5-0.6-1.1-1.2-1.6-1.7c-0.6-0.8-1.3-1.6-1.8-2.5c-0.3-0.5-0.6-1-0.9-1.5
						c-0.2-0.3-0.3-0.5-0.4-0.8c-0.6-1.1-1.1-2.3-1.4-3.6c-0.5-1-0.9-2.2-1-3.2c0-0.3-0.1-0.7-0.1-1c0-0.7,0-1.4,0-2.1
						c0-0.7,0.2-1.4,0.4-2.1c0.1-0.7,0.3-1.4,0.6-2.1c0.1-0.4,0.3-0.7,0.5-1.1c0.2-0.6,0.6-1.1,0.9-1.6c0.3-0.6,0.7-1.1,1.1-1.6
						c0.3-0.4,0.6-0.7,0.9-1c0.5-0.6,1-1.1,1.6-1.5c0.6-0.6,1.1-1.1,1.8-1.5c0.9-0.7,1.9-1.4,2.9-2c1.5-0.9,3-1.6,4.5-2.3
						c0,0,0-0.1,0-0.1c-0.4-0.9-0.7-1.8-0.9-2.8c-0.1-1,0-2,0.2-3c0.5-1.9,1.7-3.5,3.4-4.7c2-1.4,4.5-2.1,7-1.8
						c3,0.3,5.9,2.1,7.4,4.7c0.4,0.9,0.8,1.8,0.9,2.8c0.1,1,0.1,2-0.2,2.9c-0.2,0.6-0.4,1.2-0.7,1.8C73,12.9,73.4,12.7,73.4,12.6z"
						/>
					<path class="st0" d="M73.2,12.8c0.3-0.6,0.5-1.2,0.7-1.8c0.2-0.6,0.2-1.4,0.2-2c0-1.7-0.6-3.3-1.6-4.7c-1.9-2.7-5.4-4.2-8.8-4
						c-3.2,0.2-6.2,1.8-7.9,4.5c-0.5,0.9-0.9,1.8-1.1,2.9c-0.1,0.8-0.2,1.7,0,2.5c0.2,1,0.5,1.9,0.9,2.8c0,0,0.1-0.1,0.1-0.1
						c-1.9,0.9-3.7,1.8-5.5,2.9c-1.5,0.9-2.8,1.9-4.1,3c-2,1.8-3.6,3.9-4.7,6.3c-1.3,3.1-1.4,6.6-0.5,9.7c0.8,2.9,2.2,5.6,4,8
						c1.1,1.5,2.3,3,3.8,4.3c0.1,0.1,0.1,0,0.1-0.1c0.2-0.7,0.1-1.5,0.2-2.2c0.1-1.8,0-3.5,0.1-5.3c0-2.7,0-5.4,0-8.1
						c0,0-0.1,0-0.1,0c0.1,0,0.2,0.1,0.4,0.2c0.1,0,0.2,0,0.4,0c0.4,0.1,0.8,0.1,1.2,0.2c0.6,0.1,1.3,0,1.9,0c0.6,0,1.2,0,1.9,0
						c2.6,0,5.2,0,7.8,0c3.3,0,6.7,0,10.1,0c2.1,0,4.3,0,6.4,0c0.1,0,0.6,0,0.6,0c0,0,0-0.1,0,0.1c-0.1,0.6-0.2,1.3-0.2,2
						c-0.2,4.3-0.1,8.7-0.2,13c0,0.1,0.1,0.1,0.1,0c0.5-0.2,0.9-0.6,1.2-0.9c0.5-0.5,1-1.1,1.5-1.6c0.5-0.6,1-1.2,1.4-1.8
						c2.1-2.9,3.8-6.2,4.3-9.7c0.5-3.5-0.1-7-2-10c-1.3-2.1-2.9-3.8-4.8-5.3c-2.5-2.1-5.4-3.6-8.3-5.1c-0.1-0.1-0.1,0.2,0,0.2
						c1.3,0.6,2.5,1.3,3.7,2c0.8,0.5,1.6,1,2.4,1.5c0.9,0.6,1.8,1.3,2.5,2.1c0.9,0.6,1.6,1.3,2.3,2.1c0.3,0.3,0.6,0.7,0.9,1.1
						c0.6,0.8,1.3,1.7,1.7,2.7c0.8,1.5,1.3,3.1,1.5,4.8c0.1,0.4,0.1,0.7,0.1,1c0.1,0.7,0,1.4-0.1,2.1c0,0.7-0.1,1.4-0.2,2
						c-0.1,0.5-0.2,1-0.4,1.4c-0.8,2.5-2,4.8-3.5,6.9c-0.9,1.3-1.8,2.4-2.9,3.4c-0.4,0.4-0.8,0.9-1.3,1.1c0,0,0.1,0,0.1,0
						c0-2.3,0-4.7,0-7c0-1.6,0-3.1,0-4.7c0-0.7,0-1.4,0.1-2.1c0-0.4,0-0.8,0.2-1.2c0,0,0,0,0,0c-5.1,0-10.2,0-15.3,0
						c-2.1,0-4.2,0-6.3,0c-1.9,0-3.8,0-5.8-0.1c-0.7,0-1.5,0-2.2-0.1c-0.2,0-0.3,0-0.5-0.1c-0.2-0.1-0.5-0.1-0.7-0.1
						c0,0-0.1,0-0.1,0c0,2.4,0,4.7,0,7.1c0,1.6,0,3.2,0,4.8c0,0.8,0,1.6,0,2.3c0,0.5,0,1-0.2,1.4c0,0,0.1,0,0.1-0.1
						c-0.8-0.7-1.5-1.5-2.2-2.3c-2.3-2.7-4.1-5.8-5.2-9.1c-0.4-1.4-0.7-2.9-0.7-4.3c0.2-1.7,0.5-3.4,0.8-5.1c0.1-0.4,0.3-0.7,0.4-1
						c0.4-0.9,0.9-1.8,1.5-2.7c1.2-1.8,2.7-3.3,4.4-4.7c2.4-2,5.2-3.4,8-4.8c0,0,0.2-0.1,0.1-0.1c-0.5-1.2-0.9-2.4-0.9-3.7
						c0-2,0.8-3.9,2.1-5.4C59.1,1.5,62,0.4,65,0.5C68,0.6,70.7,2,72.4,4.3c0.8,1.1,1.3,2.3,1.5,3.6c0.1,0.7,0.1,1.4,0,2
						c-0.1,1-0.4,1.9-0.9,2.8C73,12.8,73.2,12.8,73.2,12.8z"/>
					<path class="st0" d="M73.6,12.8c0.3-0.6,0.5-1.2,0.7-1.8c0.1-0.3,0.1-0.6,0.2-1c0.1-0.7,0-1.4,0-2.1c-0.2-1.8-1.2-3.5-2.6-4.8
						c-2.6-2.5-6.4-3.4-10-2.5C59.4,1.3,57.1,3,56,5.3c-0.4,0.9-0.7,1.9-0.8,2.9c0,0.3-0.1,0.6-0.1,1c0,0.3,0,0.7,0.1,1
						c0.1,0.6,0.2,1.3,0.5,1.9c-0.5,1.1-1.4,1.8-2.4,2.3c-0.9,0.4-1.7,0.9-2.5,1.4c-1.4,0.9-2.8,1.9-4,3c-2,1.8-3.6,3.9-4.7,6.3
						c-1.5,3.6-1.5,7.5-0.2,11.2c0.8,2.3,2,4.4,3.4,6.4c0.8,1.2,1.8,2.3,2.8,3.3c0.4,0.4,0.8,0.9,1.3,1.3c0,0,0.1,0,0.1-0.1
						c0.3-2.7,0.2-5.3,0.3-8c0-2.5,0-5.1,0-7.6c-0.1,0.1-0.2,0.2-0.4,0.3c0.6,0.1,1.3,0.1,2,0.1c1.8,0,3.6,0.1,5.4,0.1
						c2.7,0,5.4,0,8.2,0c5.1,0,10.3,0,15.4,0c-0.1,0-0.2-0.1-0.3-0.2c-0.1,0.9-0.1,1.8-0.1,2.7c0,1.7-0.1,3.3-0.1,5c0,2.5,0,5,0,7.6
						c0,0,0.1,0,0.1,0c0.1,0,0.4-0.2,0.4-0.3c0.4-0.3,0.7-0.6,1-0.9c0.8-0.8,1.5-1.6,2.2-2.5c2.2-2.8,3.9-5.9,4.6-9.3
						c0.7-3.2,0.4-6.4-1-9.4c-1.1-2.3-2.6-4.2-4.5-5.9c-2.8-2.6-6.1-4.4-9.5-6.1c-0.1,0-0.2,0.2-0.1,0.2c2.9,1.5,5.7,3,8.2,5.1
						c1.8,1.5,3.5,3.3,4.7,5.3c1.4,2.4,2.1,5.1,2.1,7.9c0,1.7-0.4,3.3-0.9,4.9c-0.9,2.7-2.3,5.1-4,7.4c-0.6,0.8-1.3,1.6-2,2.4
						c-0.4,0.4-0.8,1-1.4,1.3c0,0,0.1,0,0.1,0c0-2.2,0-4.4,0-6.6c0-1.6,0-3.2,0.1-4.8c0-0.6,0-1.3,0-2c0-0.4,0-0.8,0-1.2
						c0-0.3,0.1-0.5,0.2-0.6c0.1-0.1-0.2-0.2-0.3-0.2c-5.1,0-10.2,0-15.3,0c-2.1,0-4.2,0-6.3,0c-1.6,0-3.2,0-4.8,0
						c-0.8,0-1.6,0-2.3,0c-0.2,0-0.4,0-0.6,0c-0.4,0-0.7-0.1-1.1-0.2c0-0.1-0.4,0.2-0.4,0.3c0,2.4,0,4.7,0,7.1c0,1.6,0,3.2,0,4.7
						c0,0.7,0,1.5,0,2.2c0,0.5,0.1,1-0.1,1.4c0,0,0.1,0,0.1-0.1c-1.1-1-2.1-2.2-3-3.3c-2-2.5-3.7-5.3-4.5-8.5
						c-1.1-3.7-1-7.7,0.9-11.2c1.1-2,2.5-3.7,4.2-5.2c2.7-2.5,6.1-4.3,9.5-5.8l0,0c-0.4-0.9-0.8-1.8-0.9-2.7c-0.4-2,0.1-3.8,1.4-5.3
						C57,3.9,57.7,3,58.7,2.3c0.7-0.5,1.5-0.9,2.3-1.1c0.8-0.4,1.6-0.6,2.5-0.7c0.9-0.1,1.8,0,2.7,0.2c0.9,0,1.7,0.3,2.5,0.6
						c1.8,0.9,3.4,2.3,4.3,4c0.1,0.3,0.3,0.6,0.4,0.9c0.3,0.8,0.4,1.6,0.4,2.4c0.2,0.8,0.1,1.7-0.1,2.4c-0.2,0.6-0.4,1.2-0.7,1.8
						C73,13,73.6,12.9,73.6,12.8z"/>
				</g>
			</g>
		</g>
	</g>
</g>
<g id="sad">
	<g>
		<g>
			<path class="st1" d="M58.4,52.3c2.4,0,4.7,0,7.1,0c2.4,0,4.7,0,7.1,0c0-0.1-0.1-0.1-0.2-0.2c-0.2-0.2-0.4-0.4-0.7-0.6
				c-0.2-0.2-0.4-0.4-0.7-0.6c0-0.1-0.1-0.1-0.2-0.1c-0.2,0-0.4,0-0.6,0c-0.5,0-1,0-1.5,0c-1.6,0-3.2,0-4.9,0c-1.5,0-3.1,0.1-4.6,0
				c-0.8,0-1.6-0.1-2.3-0.1c0,0.1,0,0.1,0.1,0.2c0.2,0.2,0.4,0.4,0.6,0.6c0.2,0.2,0.4,0.4,0.6,0.6C58.3,52.2,58.4,52.3,58.4,52.3z"
				/>
			<path class="st1" d="M58.1,51.9c2.4,0,4.7,0,7.1,0c2.4,0,4.7,0,7.1,0c0-0.1,0-0.1-0.1-0.2c-0.2-0.2-0.4-0.4-0.6-0.5
				c-0.2-0.2-0.4-0.4-0.6-0.5c0-0.1-0.1-0.1-0.2-0.1c-0.2,0-0.4,0-0.6,0c-0.5,0-1,0-1.5,0c-1.6,0-3.2,0-4.9,0c-1.5,0-3.1,0-4.6,0
				c-0.8,0-1.6-0.1-2.3-0.1c0,0.1,0,0.1,0.1,0.2c0.2,0.2,0.3,0.4,0.5,0.6c0.2,0.2,0.3,0.4,0.5,0.6C58,51.8,58.1,51.9,58.1,51.9z"/>
			<path class="st1" d="M57.9,52.5c2.4,0,4.7,0,7.1,0c2.4,0,4.7,0,7.1,0c0-0.1-0.1-0.1-0.2-0.2c-0.2-0.1-0.3-0.2-0.5-0.3
				c-0.2-0.1-0.4-0.2-0.6-0.4c-0.2-0.1-0.3-0.2-0.5-0.2c-0.6-0.1-1.3,0-1.9,0c-1.6,0-3.2,0-4.8,0c-1,0-1.9,0-2.8,0
				c-0.7,0-1.5,0-2.2,0c-0.8,0-1.6-0.1-2.4-0.1c0,0.1,0.1,0.1,0.2,0.2c0.2,0.2,0.4,0.3,0.6,0.5c0.2,0.2,0.4,0.3,0.7,0.5
				C57.8,52.5,57.9,52.5,57.9,52.5z"/>
			<path class="st1" d="M58.1,53.2c2.4,0,4.7,0,7.2,0c2.4,0,4.7,0,7.1,0c0.1,0,0.1,0,0,0c-0.2-0.1-0.3-0.2-0.5-0.2
				c-0.3-0.1-0.7-0.2-1-0.4c-0.2-0.1-0.4-0.1-0.5-0.2c-0.7-0.1-1.5,0-2.2,0c-1.6,0-3.2,0-4.9,0c-1.5,0-3.1,0-4.6,0
				c-0.8,0-1.6-0.1-2.5-0.1c-0.1,0-0.1,0,0,0c0.2,0.1,0.3,0.2,0.5,0.2c0.3,0.1,0.6,0.3,1,0.4C57.8,53.1,58,53.2,58.1,53.2z"/>
			<path class="st1" d="M58.4,51.9c2.4,0,4.7,0,7.1,0c2.4,0,4.7,0,7.1,0c0-0.1,0-0.1-0.1-0.2c-0.2-0.2-0.3-0.4-0.5-0.6
				c-0.2-0.2-0.4-0.4-0.5-0.5c0-0.1-0.1-0.1-0.2-0.1c-0.2,0-0.4,0-0.6,0c-0.5,0-1,0-1.5,0c-1.6,0-3.2,0-4.9,0c-1.5,0-3.1,0-4.6,0
				c-0.8,0-1.6-0.1-2.3-0.1c0,0.1,0,0.1,0.1,0.2c0.1,0.2,0.3,0.4,0.4,0.6c0.1,0.2,0.3,0.4,0.4,0.6C58.3,51.9,58.4,51.9,58.4,51.9z"
				/>
			<path class="st1" d="M58.1,51.6c2.4,0.1,4.7,0.1,7.1,0.1c2.4,0,4.7,0,7.1,0c0-0.1,0-0.1-0.1-0.1c-0.1-0.2-0.3-0.3-0.4-0.4
				c-0.1-0.1-0.4-0.5-0.6-0.5c-0.2,0-0.4,0-0.6,0c-0.5,0-1,0-1.5,0c-1.6,0-3.2,0-4.9,0c-1.5,0-3.1,0-4.6,0c-0.8,0-1.6-0.1-2.4-0.2
				c0,0.1,0,0.1,0,0.2c0.1,0.2,0.2,0.3,0.4,0.5C57.6,51.1,57.9,51.6,58.1,51.6z"/>
			<path class="st1" d="M58.2,51.5c2.3-0.1,4.7,0,7.1,0s4.7,0,7.1,0c0,0,0-0.1,0-0.1c-0.1-0.1-0.1-0.2-0.2-0.2
				c-0.1-0.1-0.2-0.2-0.3-0.3c-0.1-0.1-0.1-0.1-0.2-0.2c-0.6-0.1-1.3,0-1.9,0c-1.6,0-3.2,0-4.8,0c-1.7,0-3.4,0-5.1,0
				c-0.8,0-1.6,0-2.4,0c0,0,0.3,0.5,0.3,0.5C57.9,51.2,58,51.6,58.2,51.5z"/>
			<path class="st1" d="M58.2,52.5c2.4,0,4.7,0,7.1,0c1.5,0,3,0,4.6,0c0.8,0,1.7,0,2.5,0c0-0.1-0.1-0.1-0.2-0.2
				c-0.2-0.2-0.5-0.4-0.8-0.6s-0.5-0.4-0.8-0.6c-0.1-0.1-0.2-0.1-0.2-0.1c-0.2,0-0.4,0-0.6,0c-0.5,0-1,0-1.5,0c-1.6,0-3.2,0-4.9,0
				c-1.5,0-3.1,0.1-4.6,0c-0.8,0-1.6-0.1-2.4-0.2c0,0.1,0.1,0.1,0.2,0.2c0.2,0.2,0.5,0.4,0.7,0.6c0.2,0.2,0.5,0.4,0.7,0.6
				C58,52.4,58.1,52.4,58.2,52.5z"/>
			<path class="st1" d="M57.9,51.8c4.7,0.1,9.5,0,14.2,0c0-0.1,0-0.1-0.1-0.1c-0.1-0.1-0.2-0.2-0.3-0.3c-0.1-0.1-0.3-0.2-0.4-0.4
				c-0.1-0.1-0.2-0.2-0.3-0.2c-0.6-0.1-1.3,0-1.9,0c-1.6,0-3.2,0-4.8,0c-1,0-1.9,0-2.8,0c-0.7,0-1.5,0-2.2,0c-0.8,0-1.6-0.1-2.4-0.1
				c0,0.1,0,0.1,0.1,0.2c0.1,0.2,0.3,0.3,0.4,0.5C57.4,51.4,57.8,51.8,57.9,51.8z"/>
			<path class="st1" d="M58.4,51.4c2.3-0.1,4.7,0,7.1,0c2.4,0,4.7,0,7.1,0c0,0-0.3-0.5-0.3-0.5c-0.1-0.1-0.2-0.4-0.4-0.4
				c-0.2,0-0.4,0-0.6,0c-0.5,0-1,0-1.5,0c-1.6,0-3.2,0-4.9,0c-1.5,0-3.1,0-4.6,0c-0.8,0-1.6,0-2.4,0c-0.1,0,0.2,0.5,0.2,0.5
				C58.1,51.1,58.3,51.5,58.4,51.4z"/>
			<path class="st1" d="M58.1,52.9c2.4,0,4.7,0,7.1,0c2.4,0,4.7,0,7.1,0c0-0.1-0.1-0.1-0.2-0.2c-0.2-0.1-0.4-0.2-0.6-0.3
				c-0.2-0.1-0.5-0.2-0.8-0.4c-0.2-0.1-0.4-0.2-0.5-0.2c-0.6-0.1-1.3,0-1.9,0c-1.6,0-3.2,0-4.8,0c-1,0-1.9,0-2.8,0
				c-0.7,0-1.5,0-2.2,0c-0.8,0-1.6-0.1-2.4-0.1c0,0.1,0.1,0.1,0.2,0.2c0.3,0.2,0.5,0.3,0.8,0.5c0.3,0.2,0.5,0.3,0.8,0.5
				C57.9,52.9,58,52.9,58.1,52.9z"/>
			<path class="st1" d="M58.1,52.2c2.4,0,4.7,0,7.1,0c2.4,0,4.7,0,7.1,0c0-0.1-0.1-0.1-0.2-0.2c-0.2-0.2-0.4-0.4-0.7-0.5
				c-0.2-0.2-0.5-0.4-0.7-0.5c-0.1-0.1-0.1-0.1-0.2-0.1c-0.2,0-0.4,0-0.6,0c-0.5,0-1,0-1.5,0c-1.6,0-3.2,0-4.9,0
				c-1.5,0-3.1,0.1-4.6,0c-0.8,0-1.6-0.1-2.4-0.1c0,0.1,0,0.1,0.1,0.2c0.2,0.2,0.4,0.4,0.6,0.6c0.2,0.2,0.4,0.4,0.6,0.6
				C57.9,52.1,58,52.1,58.1,52.2z"/>
		</g>
	</g>
</g>
<g id="happy">
	<g>
		<g>
			<g>
				<path class="st1" d="M55.8,51.2c0.2,0.3,0.4,0.5,0.6,0.7c0.2,0.2,0.5,0.5,0.8,0.6c0.4,0.3,0.8,0.5,1.3,0.7
					c0.8,0.4,1.7,0.9,2.5,1.2c0.8,0.3,1.6,0.6,2.5,0.7c1.8,0.2,3.6,0,5.2-0.6c0.8-0.3,1.6-0.7,2.4-1.2c0.3-0.2,0.6-0.4,0.8-0.6
					c0.5-0.5,1-1,1.4-1.5c0,0-1.1-0.4-1-0.4c-0.3-0.1-0.6-0.2-0.8-0.2c-0.1,0-0.2,0-0.2,0c-0.6,0.6-1.2,1.2-1.9,1.6
					c-0.5,0.3-1,0.5-1.5,0.7c-1.5,0.6-3.2,0.7-4.8,0.4c-0.3,0-0.6-0.1-0.9-0.2c-0.4-0.1-0.8-0.2-1.2-0.5c-0.7-0.3-1.4-0.7-2-1
					c-0.4-0.2-0.9-0.5-1.2-0.8c-0.4-0.4-0.7-0.8-1-1.2c-0.1,0-0.1,0.1-0.1,0.2c-0.1,0.2-0.2,0.4-0.3,0.7c-0.1,0.2-0.2,0.5-0.3,0.7
					C55.8,51,55.7,51.1,55.8,51.2z"/>
				<path class="st1" d="M55.5,50.8c0.2,0.3,0.4,0.5,0.6,0.7c0.2,0.2,0.5,0.5,0.8,0.6c0.4,0.3,0.8,0.5,1.3,0.7
					c0.8,0.4,1.7,0.9,2.5,1.3c0.3,0.1,0.6,0.2,0.9,0.4c0.5,0.2,1,0.2,1.5,0.3c1.8,0.2,3.6,0,5.2-0.6c0.8-0.3,1.6-0.7,2.4-1.2
					c0.3-0.2,0.6-0.4,0.8-0.6c0.5-0.5,1-1,1.4-1.5c0,0-0.9-0.4-0.9-0.4c0,0-0.9-0.4-1-0.3c-0.6,0.7-1.2,1.3-1.9,1.8
					c-0.5,0.3-1,0.6-1.6,0.8c-1.6,0.6-3.3,0.8-5,0.5c-0.3,0-0.6-0.1-0.9-0.2c-0.4-0.1-0.9-0.3-1.2-0.5c-0.7-0.4-1.4-0.7-2.1-1.1
					c-0.4-0.3-0.9-0.5-1.3-0.9c-0.1-0.1-0.3-0.3-0.4-0.4c-0.2-0.3-0.5-0.6-0.6-0.9c0,0-0.1,0.1-0.1,0.2c-0.1,0.2-0.2,0.4-0.2,0.7
					c-0.1,0.2-0.1,0.5-0.2,0.7C55.4,50.6,55.4,50.7,55.5,50.8z"/>
				<path class="st1" d="M55.2,51.3c0.2,0.3,0.4,0.5,0.6,0.7c0.2,0.2,0.5,0.5,0.8,0.6c0.4,0.2,0.8,0.5,1.3,0.7
					c0.8,0.4,1.7,0.9,2.5,1.2c0.3,0.1,0.6,0.2,1,0.4c0.5,0.2,1,0.2,1.5,0.3c1.8,0.2,3.6,0,5.2-0.6c0.8-0.3,1.6-0.7,2.4-1.2
					c0.3-0.2,0.6-0.4,0.8-0.6c0.5-0.5,1-1,1.4-1.5c0,0-1-0.2-1-0.2c-0.2,0-0.5-0.1-0.8-0.1c-0.1,0-0.2,0-0.2,0
					c-0.7,0.6-1.3,1.2-2.2,1.6c-0.5,0.3-1.1,0.5-1.7,0.7c-1.6,0.5-3.4,0.4-5,0.1c-0.3,0-0.6-0.1-0.9-0.2c-0.4-0.1-0.8-0.3-1.2-0.6
					c-0.6-0.4-1.3-0.7-1.9-1.1c-0.4-0.3-0.8-0.6-1.1-0.9c-0.4-0.4-0.7-0.8-1-1.3c-0.1,0.1-0.1,0.1-0.1,0.2c-0.1,0.3-0.2,0.6-0.2,0.8
					c-0.1,0.3-0.2,0.6-0.2,0.9C55.2,51.2,55.2,51.3,55.2,51.3z"/>
				<path class="st1" d="M55.4,52.1c0.2,0.3,0.4,0.5,0.6,0.7c0.2,0.2,0.5,0.5,0.8,0.6c0.4,0.3,0.9,0.5,1.3,0.7
					c0.8,0.4,1.7,0.9,2.5,1.2c0.8,0.3,1.6,0.6,2.5,0.7c1.8,0.2,3.6,0,5.2-0.6c0.8-0.3,1.6-0.7,2.3-1.2c0.3-0.2,0.6-0.4,0.8-0.6
					c0.5-0.5,1-1,1.4-1.5c-0.1,0-0.1,0-0.2,0c-0.2,0-0.3,0-0.5,0.1c-0.2,0-0.4,0.1-0.6,0.1c-0.2,0-0.3,0-0.4,0.1
					c-0.3,0.2-0.5,0.4-0.8,0.6c0,0,0,0,0,0c-0.4,0.3-0.9,0.6-1.3,0.8c-0.3,0.1-0.6,0.3-0.9,0.4c-0.7,0.2-1.5,0.4-2.3,0.5
					c-0.7,0.1-1.5,0-2.2-0.1c-0.7-0.1-1.5-0.2-2.1-0.5c-0.3-0.1-0.6-0.2-0.8-0.3c-0.2-0.1-0.4-0.3-0.7-0.4c-0.6-0.4-1.2-0.7-1.8-1.1
					c-0.3-0.2-0.7-0.5-1-0.8c-0.1-0.1-0.2-0.2-0.3-0.4c-0.2-0.2-0.4-0.5-0.6-0.8c-0.1,0-0.1,0.1-0.2,0.2c-0.2,0.3-0.3,0.5-0.4,0.8
					c-0.2,0.3-0.3,0.5-0.4,0.8C55.4,51.9,55.4,52,55.4,52.1z"/>
				<path class="st1" d="M55.8,50.8c0.2,0.3,0.3,0.5,0.6,0.8c0.2,0.2,0.5,0.5,0.8,0.6c0.4,0.3,0.8,0.5,1.3,0.7
					c0.8,0.4,1.7,0.9,2.6,1.2c0.3,0.1,0.6,0.2,0.9,0.4c0.5,0.2,1,0.2,1.5,0.3c1.8,0.2,3.6,0,5.2-0.6c0.8-0.3,1.6-0.7,2.4-1.2
					c0.3-0.2,0.6-0.4,0.8-0.6c0.5-0.5,1-1,1.4-1.5c0-0.1-0.9-0.5-0.9-0.5c0,0-0.9-0.5-0.9-0.4c-0.6,0.7-1.1,1.3-1.9,1.8
					c-0.5,0.3-1,0.6-1.6,0.9c-1.5,0.7-3.3,0.9-5,0.6c-0.3,0-0.6-0.1-1-0.2c-0.4-0.1-0.9-0.2-1.3-0.5c-0.7-0.3-1.4-0.7-2.1-1
					c-0.5-0.2-0.9-0.5-1.3-0.8c-0.2-0.1-0.3-0.2-0.4-0.4c-0.3-0.3-0.5-0.6-0.6-0.9c0,0-0.1,0.1-0.1,0.1c-0.1,0.2-0.2,0.4-0.2,0.6
					C55.9,50.1,55.7,50.7,55.8,50.8z"/>
				<path class="st1" d="M55.3,50.6c0.2,0.3,0.4,0.5,0.6,0.7c0.2,0.2,0.5,0.4,0.8,0.6c0.4,0.3,0.8,0.5,1.3,0.7
					c0.8,0.4,1.7,0.9,2.6,1.3c0.3,0.1,0.6,0.2,0.9,0.4c0.5,0.2,1,0.2,1.5,0.3c1.8,0.2,3.6,0,5.3-0.7c0.8-0.3,1.6-0.7,2.4-1.3
					c0.3-0.2,0.6-0.4,0.8-0.6c0.5-0.5,1-1,1.4-1.6c0-0.1-0.7-0.4-0.7-0.4c0,0-0.7-0.4-0.8-0.3c-0.6,0.8-1.2,1.4-1.9,2
					c-0.5,0.4-1.1,0.7-1.7,0.9c-1.6,0.7-3.5,0.9-5.3,0.7c-0.3,0-0.7-0.1-1-0.2c-0.5-0.1-0.9-0.2-1.3-0.5c-0.7-0.4-1.5-0.7-2.2-1.1
					c-0.5-0.3-1-0.6-1.4-0.9c-0.2-0.1-0.3-0.3-0.5-0.4c-0.3-0.3-0.5-0.6-0.7-0.9c0,0-0.1,0.1-0.1,0.1c0,0.2-0.1,0.4-0.1,0.6
					C55.4,50,55.2,50.5,55.3,50.6z"/>
				<path class="st1" d="M55.2,50.4c0.4,0.5,0.4,0.6,0.9,1c0.5,0.4,1,0.7,1.5,1c0.6,0.3,1.3,0.6,1.9,1c0.9,0.4,1.9,0.9,3,1
					c1.8,0.3,3.6,0.1,5.3-0.4c0.5-0.2,1-0.4,1.5-0.6c0.5-0.2,1-0.5,1.4-0.8c0.3-0.2,0.6-0.4,0.9-0.7c0.5-0.5,1-1,1.4-1.6
					c0-0.1-1-0.8-1.1-0.6c-0.2,0.3-0.4,0.5-0.6,0.8c-0.3,0.4-0.6,0.7-1,1c-0.5,0.4-1.1,0.8-1.7,1.1c-1.5,0.8-3.2,1.2-4.9,1.1
					c-0.7,0-1.4-0.1-2.1-0.3c-0.5-0.1-0.9-0.2-1.4-0.5c-0.3-0.1-0.6-0.3-1-0.4c-0.5-0.2-1.1-0.5-1.6-0.8c-1-0.5-1.8-1.1-2.4-2.1
					c-0.1-0.1-0.1,0.2-0.1,0.2c0,0.2,0,0.3-0.1,0.5C55.2,50.3,55.2,50.3,55.2,50.4z"/>
				<path class="st1" d="M55.5,51.3c0.2,0.3,0.4,0.5,0.6,0.7c0.2,0.2,0.5,0.5,0.8,0.6c0.4,0.3,0.8,0.5,1.3,0.7
					c0.8,0.4,1.7,0.9,2.5,1.2c0.8,0.3,1.6,0.6,2.5,0.7c1.8,0.2,3.6,0,5.2-0.6c0.8-0.3,1.6-0.7,2.3-1.2c0.3-0.2,0.6-0.4,0.8-0.6
					c0.5-0.5,1-1,1.4-1.5c-0.1,0-0.1-0.1-0.2-0.1c-0.3-0.1-0.6-0.1-0.9-0.2c-0.3-0.1-0.6-0.1-0.9-0.2c-0.1,0-0.2,0-0.2,0
					c-0.6,0.6-1.3,1.1-2,1.5c-0.5,0.2-1,0.5-1.6,0.6c-1.5,0.5-3.2,0.5-4.7,0.2c-0.3,0-0.6-0.1-0.9-0.2c-0.4-0.1-0.8-0.3-1.2-0.5
					c-0.6-0.4-1.3-0.7-1.9-1.1c-0.4-0.2-0.8-0.5-1.1-0.8c-0.4-0.4-0.7-0.8-1-1.3c-0.1,0-0.1,0.1-0.1,0.2c-0.1,0.3-0.2,0.6-0.4,0.8
					c-0.1,0.3-0.2,0.6-0.3,0.9C55.5,51.1,55.5,51.2,55.5,51.3z"/>
				<path class="st1" d="M55.2,50.7c0.2,0.3,0.4,0.5,0.6,0.7c0.2,0.2,0.5,0.5,0.8,0.6c0.4,0.3,0.8,0.5,1.3,0.7
					c0.8,0.4,1.7,0.9,2.6,1.3c0.3,0.1,0.6,0.2,0.9,0.4c0.5,0.2,1,0.2,1.5,0.3c1.8,0.2,3.6,0,5.3-0.6c0.8-0.3,1.6-0.7,2.4-1.2
					c0.3-0.2,0.6-0.4,0.9-0.6c0.5-0.5,1-1,1.4-1.6c0,0-0.7-0.4-0.7-0.4c0,0-0.7-0.3-0.8-0.2c-0.6,0.7-1.2,1.4-2,1.9
					c-0.5,0.3-1.1,0.6-1.7,0.9c-1.6,0.7-3.5,0.8-5.3,0.5c-0.3,0-0.6-0.1-1-0.2c-0.5-0.1-0.9-0.3-1.3-0.5c-0.7-0.4-1.4-0.7-2.1-1.1
					c-0.5-0.3-0.9-0.6-1.3-0.9c-0.2-0.1-0.3-0.3-0.4-0.4c-0.3-0.3-0.5-0.6-0.6-1c0,0-0.1,0.1-0.1,0.2c0,0.2-0.1,0.4-0.1,0.6
					S55.2,50.4,55.2,50.7C55.1,50.6,55.2,50.7,55.2,50.7z"/>
				<path class="st1" d="M55.4,50.3c0.3,0.4,0.4,0.7,0.8,1.1c0.4,0.3,0.8,0.6,1.2,0.8c0.6,0.3,1.2,0.6,1.8,0.9
					c0.9,0.5,1.9,0.9,2.9,1.1c1.9,0.4,4,0.3,5.9-0.4c1-0.4,2-0.8,2.9-1.5c0.3-0.2,0.6-0.4,0.8-0.7c0.5-0.5,1-1,1.4-1.6
					c0.1-0.1-1-0.8-1-0.8c-0.5,0.7-0.9,1.3-1.6,1.9c-0.6,0.6-1.3,1-2.1,1.4c-1.5,0.7-3.3,1.1-4.9,1c-0.7-0.1-1.4-0.2-2.1-0.4
					c-0.4-0.2-0.9-0.4-1.3-0.6c-0.3-0.1-0.6-0.3-1-0.4c-0.6-0.3-1.2-0.6-1.7-0.9c-0.2-0.1-0.4-0.2-0.6-0.4c-0.6-0.4-1-0.9-1.2-1.5
					c-0.1-0.1-0.1,0.2-0.1,0.2c0,0.1-0.1,0.3-0.1,0.4C55.4,50.1,55.4,50.2,55.4,50.3z"/>
				<path class="st1" d="M55.4,51.8c0.2,0.3,0.4,0.5,0.6,0.7c0.2,0.2,0.5,0.5,0.8,0.6c0.4,0.3,0.8,0.5,1.3,0.7
					c0.8,0.4,1.7,0.9,2.5,1.2c0.8,0.3,1.6,0.6,2.5,0.7c1.8,0.2,3.6,0,5.2-0.6c0.8-0.3,1.6-0.7,2.3-1.2c0.3-0.2,0.6-0.4,0.8-0.6
					c0.5-0.5,1-1,1.4-1.5c-0.1,0-0.1-0.1-0.2,0c-0.3,0-0.6,0-0.8,0c-0.3,0-0.6,0-0.8,0c-0.1,0-0.2,0-0.2,0c-0.7,0.6-1.4,1.1-2.3,1.5
					c-0.6,0.2-1.1,0.4-1.7,0.5c-1.6,0.4-3.2,0.2-4.8-0.2c-0.3-0.1-0.6-0.1-0.9-0.3c-0.4-0.1-0.8-0.3-1.1-0.6
					c-0.6-0.4-1.3-0.7-1.8-1.1c-0.4-0.3-0.7-0.5-1-0.9c-0.4-0.4-0.6-0.8-0.9-1.3c-0.1,0.1-0.1,0.1-0.2,0.2c-0.1,0.3-0.3,0.6-0.4,0.9
					c-0.1,0.3-0.2,0.6-0.4,0.9C55.4,51.6,55.4,51.7,55.4,51.8z"/>
				<path class="st1" d="M55.4,51c0.2,0.3,0.4,0.5,0.6,0.7c0.2,0.2,0.5,0.5,0.8,0.6c0.4,0.3,0.8,0.5,1.3,0.7
					c0.8,0.4,1.7,0.9,2.5,1.2c0.3,0.1,0.6,0.2,1,0.4c0.5,0.2,1,0.3,1.5,0.3c1.8,0.2,3.6,0,5.2-0.6c0.8-0.3,1.6-0.7,2.3-1.2
					c0.3-0.2,0.6-0.4,0.8-0.6c0.5-0.5,1-1,1.4-1.5c0,0-1-0.4-1-0.4c-0.3-0.1-0.6-0.2-0.8-0.2c-0.1,0-0.2,0-0.2,0
					c-0.6,0.6-1.2,1.2-2,1.7c-0.5,0.3-1.1,0.5-1.6,0.7c-1.5,0.6-3.3,0.6-4.9,0.3c-0.3,0-0.6-0.1-0.9-0.2c-0.4-0.1-0.8-0.3-1.2-0.5
					c-0.7-0.4-1.4-0.7-2-1.1c-0.4-0.3-0.8-0.6-1.2-0.9c-0.4-0.4-0.7-0.8-1-1.3c-0.1,0-0.1,0.1-0.1,0.2c-0.1,0.3-0.2,0.5-0.2,0.8
					c-0.1,0.3-0.2,0.5-0.2,0.8C55.4,50.8,55.4,50.9,55.4,51z"/>
			</g>
		</g>
	</g>
	<g>
		<g>
			<g>
				<path class="st1" d="M56.8,36.6c1,0.1,1.9,0.2,2.9,0.2c1,0,2,0,3-0.1c0-0.1,0-0.1-0.1-0.2c-0.2-0.2-0.4-0.4-0.6-0.6
					c-0.2-0.2-0.4-0.4-0.6-0.6c0-0.1-0.1-0.1-0.2-0.1c-1,0.1-1.9,0.1-2.9,0c-0.9,0-1.9-0.1-2.8-0.2c0,0.1,0,0.1,0.1,0.2
					c0.2,0.2,0.3,0.5,0.5,0.7c0.2,0.2,0.3,0.5,0.5,0.7C56.6,36.5,56.7,36.5,56.8,36.6z"/>
				<path class="st1" d="M56.5,36.2c1,0.1,1.9,0.2,2.9,0.2c1,0,2,0,3-0.1c0-0.1,0-0.1-0.1-0.2c-0.2-0.2-0.3-0.4-0.5-0.6
					c-0.2-0.2-0.3-0.4-0.5-0.6c0-0.1-0.1-0.1-0.2-0.1c-1,0.1-1.9,0.1-2.9,0c-0.9,0-1.9-0.1-2.8-0.2c0,0.1,0,0.1,0.1,0.2
					c0.1,0.2,0.3,0.4,0.4,0.6c0.1,0.2,0.3,0.4,0.4,0.6C56.4,36.1,56.4,36.1,56.5,36.2z"/>
				<path class="st1" d="M56.3,36.8c1,0.1,1.9,0.2,2.9,0.2c1,0,2,0,3-0.1c0-0.1-0.1-0.1-0.2-0.2c-0.2-0.2-0.4-0.4-0.6-0.5
					c-0.2-0.2-0.4-0.3-0.7-0.5c0-0.1-0.1-0.1-0.2-0.1c-1,0.1-1.9,0.1-2.9,0c-1,0-1.9-0.1-2.8-0.2c0,0.1,0,0.1,0.1,0.2
					c0.2,0.2,0.4,0.4,0.6,0.6c0.2,0.2,0.4,0.4,0.6,0.6C56.1,36.7,56.2,36.7,56.3,36.8z"/>
				<path class="st1" d="M56.5,37.5c1,0.1,2,0.2,3,0.2c1,0,2,0,3-0.1c0-0.1-0.1-0.1-0.2-0.1c-0.3-0.1-0.5-0.3-0.8-0.4
					c-0.3-0.1-0.5-0.2-0.8-0.4c-0.1,0-0.2-0.1-0.2-0.1c-1.3,0.1-2.6,0-3.9-0.1c0,0,0,0,0.1,0c-0.6-0.1-1.3-0.2-2-0.2
					c0,0.1,0.1,0.1,0.2,0.2c0.2,0.2,0.5,0.3,0.8,0.5c0.2,0.2,0.5,0.3,0.8,0.5C56.4,37.4,56.4,37.5,56.5,37.5z"/>
				<path class="st1" d="M56.8,36.2c1,0.1,1.9,0.2,2.9,0.2c1,0,2,0,3-0.1c0,0-0.5-0.8-0.5-0.8c-0.1-0.2-0.3-0.4-0.4-0.6
					c0-0.1-0.1-0.1-0.2-0.1c-1,0.1-1.9,0.1-2.9,0c-0.9,0-1.9-0.1-2.8-0.2c0,0.1,0,0.1,0,0.2c0.1,0.2,0.2,0.4,0.3,0.6
					c0.1,0.2,0.2,0.4,0.4,0.6C56.7,36.1,56.7,36.2,56.8,36.2z"/>
				<path class="st1" d="M56.5,36c1,0.1,1.9,0.1,2.9,0.1c1,0,2,0,3-0.1c0,0-0.4-0.6-0.4-0.6c0-0.1-0.4-0.6-0.5-0.6
					c-1,0.1-2,0.1-2.9,0.1c-0.9,0-1.9-0.1-2.8-0.2c0,0,0.4,0.7,0.3,0.7C56.1,35.4,56.3,36,56.5,36z"/>
				<path class="st1" d="M56.5,35.8c1,0.1,1.9,0.1,2.9,0.1c1,0,2,0,3-0.1c0.1,0-0.3-0.5-0.3-0.5c0-0.1-0.2-0.4-0.4-0.4
					c-1,0.1-2,0.1-3,0.1c-1,0-1.9,0-2.8-0.2c-0.1,0,0.2,0.5,0.2,0.5C56.2,35.5,56.4,35.8,56.5,35.8z"/>
				<path class="st1" d="M56.5,36.7c1,0.1,1.9,0.2,2.9,0.2c1,0,2,0,3-0.1c0-0.1-0.1-0.1-0.2-0.2c-0.2-0.2-0.4-0.4-0.7-0.6
					c-0.2-0.2-0.5-0.4-0.7-0.6c-0.1-0.1-0.1-0.1-0.2-0.1c-1,0.1-1.9,0.1-2.9,0c-0.9,0-1.9-0.1-2.8-0.3c0,0.1,0,0.2,0.1,0.2
					c0.2,0.2,0.4,0.5,0.6,0.7c0.2,0.2,0.4,0.5,0.6,0.7C56.4,36.6,56.4,36.7,56.5,36.7z"/>
				<path class="st1" d="M56.2,36.1c1,0.1,1.9,0.2,2.9,0.2c1,0,2,0,3-0.1c0-0.1,0-0.1-0.1-0.1c-0.1-0.2-0.3-0.3-0.4-0.5
					c-0.1-0.1-0.4-0.5-0.6-0.5c-1,0.1-2,0.1-2.9,0c-1,0-1.9-0.1-2.9-0.3c0,0.1,0,0.1,0,0.2c0.1,0.2,0.2,0.3,0.4,0.5
					C55.8,35.6,56.1,36.1,56.2,36.1z"/>
				<path class="st1" d="M56.8,35.7c1,0.1,1.9,0.1,2.9,0.1c1,0,2,0,3-0.1c0.1,0-0.2-0.5-0.2-0.5c0-0.1-0.2-0.4-0.3-0.4
					c-1,0.1-2,0.1-3,0.1c-1,0-1.9,0-2.8-0.2c-0.1,0,0.2,0.5,0.2,0.5C56.5,35.4,56.6,35.7,56.8,35.7z"/>
				<path class="st1" d="M56.4,37.1c1,0.1,2,0.2,2.9,0.2c1,0,2,0,3-0.1c0-0.1-0.1-0.1-0.2-0.2c-0.3-0.2-0.5-0.4-0.8-0.5
					s-0.5-0.3-0.8-0.5c-0.1-0.1-0.2-0.1-0.2-0.1c-1,0.1-1.9,0-2.9,0c-1,0-1.9-0.1-2.8-0.3c0,0.1,0.1,0.1,0.2,0.2
					c0.2,0.2,0.5,0.4,0.7,0.6c0.2,0.2,0.5,0.4,0.8,0.6C56.3,37.1,56.4,37.1,56.4,37.1z"/>
				<path class="st1" d="M56.4,36.4c1,0.1,1.9,0.2,2.9,0.2c1,0,2,0,3-0.1c0-0.1,0-0.1-0.1-0.2c-0.2-0.2-0.4-0.4-0.6-0.6
					c-0.2-0.2-0.4-0.4-0.6-0.6c0-0.1-0.1-0.1-0.2-0.1c-1,0.1-1.9,0.1-2.9,0c-0.9,0-1.9-0.1-2.8-0.2c0,0.1,0,0.1,0.1,0.2
					c0.2,0.2,0.3,0.4,0.5,0.7s0.4,0.4,0.5,0.6C56.3,36.3,56.3,36.4,56.4,36.4z"/>
			</g>
		</g>
	</g>
	<g>
		<g>
			<g>
				<path class="st1" d="M69.9,36.8c1.8-0.2,3.6-0.4,5.3-0.6c0-0.1-0.1-0.1-0.2-0.2c-0.2-0.2-0.5-0.4-0.7-0.5
					c-0.2-0.2-0.5-0.4-0.7-0.5c-0.1-0.1-0.1-0.1-0.2-0.1c-1.7,0.2-3.5,0.4-5.2,0.5c0,0.1,0.1,0.1,0.2,0.2c0.2,0.2,0.4,0.4,0.6,0.6
					c0.2,0.2,0.4,0.4,0.7,0.6C69.7,36.8,69.8,36.8,69.9,36.8z"/>
				<path class="st1" d="M69.6,36.4c1.8-0.2,3.6-0.4,5.3-0.6c0-0.1-0.1-0.1-0.1-0.2c-0.2-0.2-0.4-0.4-0.6-0.5
					c-0.2-0.2-0.4-0.3-0.6-0.5c0-0.1-0.1-0.1-0.2-0.1c-1.7,0.2-3.5,0.4-5.2,0.5c0,0.1,0,0.1,0.1,0.2c0.2,0.2,0.4,0.4,0.6,0.5
					c0.2,0.2,0.4,0.4,0.6,0.5C69.4,36.4,69.5,36.4,69.6,36.4z"/>
				<path class="st1" d="M69.4,37c1.8-0.2,3.6-0.4,5.3-0.6c0-0.1-0.1-0.1-0.2-0.1c-0.2-0.1-0.5-0.2-0.7-0.4
					c-0.2-0.1-0.5-0.2-0.8-0.4c-0.1,0-0.1-0.1-0.2-0.1c-1.7,0.2-3.5,0.4-5.3,0.5c0,0.1,0.1,0.1,0.2,0.1c0.2,0.1,0.5,0.3,0.7,0.4
					c0.2,0.1,0.5,0.3,0.7,0.4C69.2,37,69.3,37,69.4,37z"/>
				<path class="st1" d="M69.6,37.8c1.8-0.2,3.6-0.4,5.3-0.6c0.2,0-0.6-0.2-0.5-0.2c-0.3-0.1-0.6-0.2-1-0.2c-0.2,0-0.4-0.1-0.5-0.1
					c-1.8,0.2-3.5,0.4-5.3,0.5c-0.1,0-0.1,0,0,0c0.2,0.1,0.3,0.1,0.5,0.2c0.3,0.1,0.6,0.2,1,0.3C69.2,37.7,69.4,37.7,69.6,37.8z"/>
				<path class="st1" d="M69.9,36.5c1.8-0.2,3.6-0.4,5.3-0.6c0-0.1,0-0.1-0.1-0.2c-0.2-0.2-0.4-0.4-0.6-0.5
					c-0.2-0.2-0.4-0.4-0.6-0.5c0-0.1-0.1-0.1-0.2-0.1c-1.7,0.2-3.4,0.4-5.2,0.5c0,0.1,0,0.1,0.1,0.2c0.2,0.2,0.3,0.4,0.5,0.6
					c0.2,0.2,0.3,0.4,0.5,0.6C69.8,36.4,69.8,36.4,69.9,36.5z"/>
				<path class="st1" d="M69.6,36.1c1.8-0.2,3.6-0.4,5.3-0.6c0-0.1,0-0.1-0.1-0.1c-0.2-0.1-0.3-0.3-0.4-0.4
					c-0.1-0.1-0.4-0.5-0.6-0.5c-1.7,0.2-3.5,0.4-5.3,0.5c0,0.1,0,0.1,0.1,0.2c0.1,0.2,0.3,0.3,0.4,0.5C69,35.7,69.4,36.2,69.6,36.1z
					"/>
				<path class="st1" d="M69.7,36c1.7-0.2,3.5-0.5,5.3-0.7c0,0-0.4-0.5-0.4-0.4c-0.1-0.1-0.3-0.4-0.4-0.4c-1.7,0.2-3.5,0.4-5.2,0.6
					c-0.1,0,0.3,0.5,0.3,0.5C69.3,35.7,69.5,36.1,69.7,36z"/>
				<path class="st1" d="M69.6,37c1.8-0.2,3.6-0.4,5.3-0.6c0-0.1-0.1-0.1-0.2-0.2c-0.3-0.2-0.5-0.3-0.8-0.5
					c-0.3-0.2-0.6-0.3-0.8-0.5c-0.1,0-0.2-0.1-0.2-0.1c-1.7,0.2-3.5,0.4-5.2,0.5c0,0.1,0.1,0.1,0.2,0.2c0.2,0.2,0.5,0.4,0.8,0.5
					s0.5,0.4,0.8,0.5C69.5,37,69.6,37,69.6,37z"/>
				<path class="st1" d="M69.3,36.4c1.8-0.2,3.6-0.4,5.3-0.6c0-0.1,0-0.1-0.1-0.1c-0.2-0.1-0.3-0.3-0.5-0.4
					c-0.1-0.1-0.5-0.5-0.7-0.4c-1.7,0.2-3.5,0.4-5.3,0.5c0,0.1,0,0.1,0.1,0.1c0.2,0.1,0.3,0.3,0.4,0.4C68.8,36,69.2,36.4,69.3,36.4z
					"/>
				<path class="st1" d="M69.9,36c1.8-0.2,3.5-0.5,5.3-0.7c0.1,0-0.3-0.5-0.3-0.5c0-0.1-0.3-0.4-0.4-0.4c-1.7,0.2-3.5,0.4-5.2,0.6
					c-0.1,0,0.3,0.5,0.3,0.5C69.6,35.6,69.8,36,69.9,36z"/>
				<path class="st1" d="M69.6,37.4c1.8-0.2,3.6-0.4,5.3-0.6c0-0.1-0.1-0.1-0.2-0.1c-0.3-0.1-0.6-0.2-0.9-0.3
					c-0.3-0.1-0.6-0.2-0.9-0.3c-0.1,0-0.2,0-0.2,0c-1.8,0.2-3.5,0.4-5.3,0.5c0,0.1,0.1,0.1,0.2,0.1c0.3,0.1,0.6,0.2,0.8,0.4
					c0.3,0.1,0.6,0.2,0.9,0.4C69.4,37.4,69.5,37.4,69.6,37.4z"/>
				<path class="st1" d="M69.5,36.7c1.8-0.2,3.6-0.4,5.3-0.6c0-0.1-0.1-0.1-0.2-0.2c-0.2-0.2-0.5-0.3-0.7-0.5
					c-0.2-0.2-0.5-0.3-0.7-0.5c-0.1,0-0.1-0.1-0.2-0.1c-1.7,0.2-3.5,0.4-5.2,0.5c0,0.1,0.1,0.1,0.2,0.2c0.2,0.2,0.4,0.4,0.7,0.5
					c0.2,0.2,0.4,0.4,0.7,0.5C69.3,36.6,69.4,36.7,69.5,36.7z"/>
			</g>
		</g>
	</g>
	<g>
		<g>
			<g>
				<path class="st1" d="M59.1,38.9c0.2,0.2,0.3,0.3,0.5,0.5c0-0.1,0.1-0.1,0.1-0.2c0-0.2,0-0.5,0.1-0.8c0-0.2,0-0.5,0-0.8
					c0-0.1,0-0.1,0-0.2c-0.1-0.1-0.2-0.3-0.4-0.4c0,0-0.1,0.1-0.1,0.2c0,0.2-0.1,0.5-0.1,0.8c0,0.2-0.1,0.5-0.1,0.8
					C59.1,38.8,59.1,38.8,59.1,38.9z"/>
				<path class="st1" d="M58.8,38.5c0.2,0.2,0.3,0.3,0.5,0.5c0-0.1,0-0.1,0-0.2c0-0.2,0-0.5,0-0.7c0-0.2,0-0.5,0-0.7
					c0-0.1,0-0.1,0-0.2c-0.1-0.1-0.2-0.3-0.4-0.4c0,0-0.1,0.1,0,0.2c0,0.2,0,0.5,0,0.7s0,0.5,0,0.7C58.8,38.4,58.8,38.4,58.8,38.5z"
					/>
				<path class="st1" d="M58.6,39.1c0.2,0.2,0.3,0.3,0.5,0.5c0-0.1,0-0.2,0-0.2c0-0.3,0-0.6-0.1-0.9c0-0.3-0.1-0.6-0.1-0.9
					c0-0.1,0-0.2-0.1-0.2c-0.1-0.1-0.2-0.3-0.4-0.4c0,0.1,0,0.1,0,0.2c0,0.3,0,0.6,0,0.9c0,0.3,0,0.6,0.1,0.9
					C58.6,38.9,58.6,39,58.6,39.1z"/>
				<path class="st1" d="M58.8,39.8c0.2,0.2,0.3,0.3,0.5,0.5c0-0.1,0-0.2,0-0.2c0-0.3,0-0.6,0-0.9c0-0.3,0-0.6,0-0.9
					c0-0.1,0-0.2-0.1-0.2c-0.1-0.2-0.2-0.3-0.4-0.5c0,0.1-0.1,0.2,0,0.2c0,0.3,0,0.6,0,0.9s0,0.6,0,0.9
					C58.8,39.7,58.8,39.7,58.8,39.8z"/>
				<path class="st1" d="M59.1,38.5c0.2,0.2,0.3,0.3,0.5,0.5c0,0,0.1-0.1,0.1-0.2c0-0.2,0-0.4,0-0.6c0-0.2,0.1-0.6,0-0.8
					c-0.1-0.2-0.2-0.3-0.4-0.4c0,0-0.1,0.1-0.1,0.2c0,0.2-0.1,0.4-0.1,0.6C59.2,37.8,59,38.4,59.1,38.5z"/>
				<path class="st1" d="M58.7,38.3c0.2,0.1,0.3,0.3,0.5,0.4c0,0,0-0.1,0-0.1c0-0.1,0-0.2,0-0.4c0-0.2,0-0.3,0-0.5
					c0-0.1,0-0.2,0-0.3c-0.1-0.2-0.3-0.3-0.4-0.5c0,0,0,0.1,0,0.1c0,0.2,0,0.4,0,0.6C58.7,37.7,58.6,38.2,58.7,38.3z"/>
				<path class="st1" d="M58.6,38.2c0.2,0.1,0.3,0.3,0.5,0.4c0.1,0.1,0.1-0.3,0.1-0.2c0-0.2,0-0.3,0-0.5c0-0.1,0-0.2,0-0.2
					c-0.1-0.2-0.3-0.3-0.4-0.5c-0.1-0.1-0.1,0.3-0.1,0.2c0,0.2,0,0.3,0,0.5C58.6,38,58.6,38.1,58.6,38.2z"/>
				<path class="st1" d="M58.9,39c0.2,0.2,0.3,0.3,0.5,0.5c0-0.1,0.1-0.2,0-0.2c0-0.3,0-0.6,0-0.9c0-0.3,0-0.6,0-0.9
					c0-0.1,0-0.2,0-0.2c-0.1-0.1-0.2-0.3-0.4-0.4C59,36.9,59,37,59,37c0,0.3,0,0.6,0,0.9c0,0.3,0,0.6,0,0.9
					C58.8,38.9,58.9,38.9,58.9,39z"/>
				<path class="st1" d="M58.6,38.4c0.2,0.2,0.3,0.3,0.4,0.5c0.1,0.1,0-0.4,0-0.4c0-0.2,0-0.5-0.1-0.7c0-0.1,0-0.2-0.1-0.4
					c-0.1-0.2-0.3-0.3-0.4-0.5c0,0,0,0,0,0c0,0,0,0.1,0,0.1c0,0.1,0,0.3,0,0.4c0,0.2,0,0.4,0.1,0.6C58.5,38.2,58.5,38.3,58.6,38.4z"
					/>
				<path class="st1" d="M58.9,38c0.2,0.2,0.3,0.4,0.5,0.6c0.1,0.1,0.1-0.2,0.1-0.2c0-0.2,0-0.5,0-0.6c-0.2-0.2-0.3-0.4-0.4-0.6
					c-0.1-0.1-0.1,0.2-0.1,0.2c0,0.1,0,0.3,0,0.4C58.8,37.9,58.8,37.9,58.9,38z"/>
				<path class="st1" d="M58.8,39.5c0.2,0.2,0.3,0.3,0.5,0.5c0-0.1,0-0.2,0-0.3c0-0.3,0-0.6,0-1c0-0.3,0-0.6-0.1-1
					c0-0.1,0-0.2-0.1-0.2c-0.1-0.2-0.2-0.3-0.4-0.5c0,0.1,0,0.2,0,0.2c0,0.3,0,0.6,0,1c0,0.3,0,0.6,0,1
					C58.7,39.3,58.7,39.4,58.8,39.5z"/>
				<path class="st1" d="M58.8,38.7c0.2,0.2,0.3,0.3,0.5,0.5c0-0.1,0-0.1,0-0.2c0-0.3,0-0.6,0-0.8c0-0.3,0-0.6-0.1-0.8
					c0-0.1,0-0.2-0.1-0.2c-0.1-0.1-0.2-0.3-0.4-0.4c0,0.1,0,0.1,0,0.2c0,0.3,0,0.6,0,0.8c0,0.3,0,0.6,0,0.8
					C58.7,38.6,58.7,38.6,58.8,38.7z"/>
			</g>
		</g>
	</g>
	<g>
		<g>
			<g>
				<path class="st1" d="M71.6,38.5c0.1,0.2,0.2,0.4,0.3,0.6c0.1,0,0.1-0.1,0.1-0.2c0.1-0.2,0.2-0.5,0.3-0.7
					c0.1-0.2,0.2-0.5,0.3-0.7c0-0.1,0-0.1,0-0.2c-0.1-0.2-0.2-0.4-0.2-0.6c-0.1,0-0.1,0.1-0.1,0.2c-0.1,0.2-0.2,0.4-0.4,0.7
					c-0.1,0.2-0.2,0.4-0.3,0.7C71.6,38.3,71.6,38.4,71.6,38.5z"/>
				<path class="st1" d="M71.4,38.1c0.1,0.2,0.2,0.4,0.3,0.6c0,0,0.1-0.1,0.1-0.2c0.1-0.2,0.1-0.5,0.2-0.7c0.1-0.2,0.1-0.5,0.2-0.7
					c0-0.1,0-0.1,0-0.2c-0.1-0.2-0.2-0.4-0.2-0.6c0,0-0.1,0.1-0.1,0.2c-0.1,0.2-0.2,0.4-0.2,0.7c-0.1,0.2-0.1,0.5-0.2,0.7
					C71.3,37.9,71.3,38,71.4,38.1z"/>
				<path class="st1" d="M71.1,38.7c0.1,0.2,0.2,0.4,0.3,0.6c0.1-0.1,0.1-0.1,0.1-0.2c0.1-0.3,0.2-0.6,0.2-0.9
					c0.1-0.3,0.2-0.6,0.2-0.9c0-0.1,0-0.2,0-0.2c-0.1-0.2-0.2-0.4-0.2-0.6c-0.1,0.1-0.1,0.1-0.1,0.2c-0.1,0.3-0.2,0.6-0.3,0.8
					c-0.1,0.3-0.2,0.6-0.2,0.8C71.1,38.5,71.1,38.6,71.1,38.7z"/>
				<path class="st1" d="M71.3,39.4c0.1,0.2,0.2,0.4,0.3,0.6c0.1,0,0.1-0.1,0.2-0.2c0.2-0.3,0.3-0.5,0.4-0.8
					c0.2-0.3,0.3-0.6,0.4-0.8c0-0.1,0.1-0.2,0.1-0.2c-0.1-0.2-0.1-0.4-0.2-0.6c-0.1,0-0.1,0.1-0.2,0.2c-0.2,0.2-0.3,0.5-0.5,0.8
					c-0.2,0.3-0.3,0.5-0.5,0.8C71.3,39.2,71.3,39.3,71.3,39.4z"/>
				<path class="st1" d="M71.6,38.1c0.1,0.2,0.2,0.4,0.3,0.6c0,0,0.1-0.1,0.1-0.1c0.1-0.2,0.2-0.4,0.2-0.6c0.1-0.2,0.3-0.6,0.2-0.8
					c-0.1-0.2-0.2-0.4-0.2-0.6c0,0-0.1,0.1-0.1,0.1C72,37,72,37.2,71.9,37.4C71.8,37.5,71.6,37.9,71.6,38.1z"/>
				<path class="st1" d="M71.2,37.9c0.1,0.2,0.2,0.4,0.3,0.5c0,0,0.1-0.1,0.1-0.1c0-0.1,0.1-0.2,0.1-0.4c0-0.2,0.1-0.3,0.1-0.5
					c0-0.1,0-0.2,0-0.4c-0.1-0.2-0.2-0.4-0.3-0.6c0,0-0.1,0.1-0.1,0.1c0,0.2-0.1,0.4-0.2,0.6C71.3,37.3,71.1,37.7,71.2,37.9z"/>
				<path class="st1" d="M71,37.8c0.1,0.2,0.2,0.4,0.3,0.6c0.1,0.1,0.1-0.3,0.1-0.2c0-0.2,0-0.3,0.1-0.5c0-0.1,0-0.2,0-0.2
					c-0.1-0.2-0.2-0.4-0.2-0.6c-0.1-0.1-0.2,0.3-0.1,0.2c0,0.2-0.1,0.3-0.1,0.5C71,37.6,71,37.7,71,37.8z"/>
				<path class="st1" d="M71.4,38.6c0.1,0.2,0.2,0.4,0.3,0.6c0.1,0,0.1-0.1,0.1-0.2c0.1-0.3,0.2-0.6,0.3-0.9s0.2-0.6,0.3-0.9
					c0-0.1,0-0.2,0-0.2c-0.1-0.2-0.2-0.4-0.2-0.6c-0.1,0-0.1,0.1-0.1,0.2c-0.1,0.3-0.2,0.6-0.4,0.8c-0.1,0.3-0.2,0.6-0.4,0.8
					C71.4,38.5,71.4,38.5,71.4,38.6z"/>
				<path class="st1" d="M71.1,38c0.1,0.2,0.2,0.4,0.3,0.6c0,0,0.1-0.1,0.1-0.2c0-0.1,0-0.3,0.1-0.4c0-0.2,0.1-0.4,0.1-0.6
					c0-0.1,0-0.2,0-0.4c-0.1-0.2-0.2-0.4-0.2-0.6c0,0,0,0,0,0c0,0,0,0.1,0,0.1c0,0.1-0.1,0.3-0.1,0.4c0,0.2-0.1,0.4-0.1,0.7
					C71.1,37.8,71,37.9,71.1,38z"/>
				<path class="st1" d="M71.3,37.6c0.1,0.2,0.2,0.5,0.3,0.7c0,0.1,0.1-0.2,0.1-0.2c0-0.2,0.2-0.4,0.1-0.6c-0.1-0.2-0.2-0.5-0.2-0.8
					c0-0.1-0.2,0.2-0.1,0.2c0,0.1-0.1,0.3-0.1,0.4C71.3,37.4,71.3,37.5,71.3,37.6z"/>
				<path class="st1" d="M71.3,39.1c0.1,0.2,0.2,0.4,0.3,0.6c0.1-0.1,0.1-0.1,0.2-0.2c0.1-0.3,0.2-0.6,0.4-0.9
					c0.1-0.3,0.2-0.6,0.4-0.9c0-0.1,0.1-0.2,0-0.2c-0.1-0.2-0.2-0.4-0.2-0.6c-0.1,0.1-0.1,0.1-0.2,0.2c-0.2,0.3-0.3,0.6-0.4,0.9
					s-0.3,0.6-0.4,0.9C71.3,38.9,71.3,39,71.3,39.1z"/>
				<path class="st1" d="M71.3,38.3c0.1,0.2,0.2,0.4,0.3,0.6c0.1,0,0.1-0.1,0.1-0.2c0.1-0.3,0.2-0.5,0.2-0.8
					c0.1-0.3,0.2-0.5,0.2-0.8c0-0.1,0-0.2,0-0.2c-0.1-0.2-0.2-0.4-0.2-0.6c-0.1,0-0.1,0.1-0.1,0.2c-0.1,0.2-0.2,0.5-0.3,0.8
					c-0.1,0.3-0.2,0.5-0.2,0.8C71.3,38.2,71.3,38.2,71.3,38.3z"/>
			</g>
		</g>
	</g>
</g>
</svg>
