<?xml version="1.0" encoding="utf-8"?>
<!-- Generator: Adobe Illustrator 21.0.0, SVG Export Plug-In . SVG Version: 6.00 Build 0)  -->
<svg version="1.1" id="Layer_1" xmlns="http://www.w3.org/2000/svg" xmlns:xlink="http://www.w3.org/1999/xlink" x="0px" y="0px"
	 viewBox="0 0 275.6 342.6" style="enable-background:new 0 0 275.6 342.6;" xml:space="preserve">
<style type="text/css">
	.st0{opacity:0.1797;fill:#FFFFFF;enable-background:new    ;}
	.st1{opacity:0.1091;fill:#FFFFFF;enable-background:new    ;}
</style>
<g>
	<g>
		<g>
			<path d="M275.4,311.8c0,16.8-14.1,30.6-31.5,30.6H31.6c-17.4,0-31.5-13.6-31.5-30.6v-19.7c0-16.8,14.1-30.6,31.5-30.6H244
				c17.4,0,31.5,13.6,31.5,30.6L275.4,311.8L275.4,311.8z"/>
			<g>
				<g>
					<path class="st0" d="M274.9,312.7c-0.2,1.8-0.4,3.6-0.5,5.4c-1.2,6.1-4.1,11.4-8.7,15.6c-1.6,1.6-3.4,2.8-5.3,4
						c-5.2,3.1-11.4,4.9-17.5,4.6c-2-0.1-3.9-0.1-5.9-0.1c-4.8,0-9.6-0.1-14.4-0.1c-29.2-0.1-58.4,0-87.7,0c-29,0-58.1,0-87.2,0
						c-5.5,0-11,0.1-16.5,0c-9.1-0.1-17.8-3.9-23.8-11c-3.3-3.9-5.7-8.9-6.5-14c-0.4-2.2-0.4-4.5-0.4-6.9c0.1-5.2,0.1-10.4,0.1-15.6
						c0-2.2,0.1-4.4,0.4-6.6c0.6-4.8,2.6-9.5,5.5-13.3c6-7.8,15.8-13.3,26.3-12.2c2.6,0.2,5.2,0.1,7.8,0.1c25.5,0.1,51,0.1,76.6,0.1
						c31.7,0,63.4,0,95.1,0c9.8,0,19.7,0,29.5,0c2.3,0,4.7,0,7,0.4c7,1,13.6,4.3,18.5,9.7c4.7,5.2,7.6,11.8,7.8,18.9
						c0.1,1.9-0.1,3.9-0.1,5.8C274.9,302.5,275,307.5,274.9,312.7c0,0.1,0.1,0.1,0.2,0.1c0.1-0.1,0.1-0.4,0.1-0.6
						c0.1-6.4-0.1-12.9,0.1-19.3c-0.1,0.2-0.1,0.4-0.1,0.5c0.1-0.2,0.1-0.4,0.1-0.5c0.2-1.6-0.2-4.2-0.4-5.7
						c-0.6-3.6-1.9-7-3.8-10.1c-5.1-8.6-14.4-14.3-24.3-15.1c-2-0.1-4.2-0.1-6.2-0.1c-4,0-7.9,0-11.9,0c-14.2,0.1-28.4,0-42.6,0
						c-36.3,0-72.7,0-109,0c-11.7,0-23.3,0-34.9,0c-3.1,0-6.1,0-9.2,0c-3.2-0.1-6.4,0.2-9.5,1c-6,1.6-11.5,4.9-15.6,9.6
						c-3.5,3.9-5.9,8.9-6.9,14c-0.6,3.1-0.5,6.1-0.5,9.2c0,2.6,0,5.2,0,7.7s0.1,5-0.1,7.5c-0.6,9.3,3.8,18.1,10.5,24.1
						c4.1,3.6,9.3,5.9,14.4,6.9c2.6,0.5,5.2,0.5,7.8,0.5c9.5,0,18.9,0,28.4,0c35.4,0,70.7,0,106.1,0c17.2,0,34.5,0,51.7,0
						c5.8,0,11.7,0,17.5,0.1c2.1,0,4.3,0.1,6.5,0.2c3.2,0.2,6.6-0.4,9.7-1.3c5.6-1.6,10.6-4.8,14.5-9.2c2.3-2.6,4.3-5.7,5.6-9
						c0.4-0.9,0.6-1.7,0.9-2.7c0.8-2.8,1.1-5.4,1.2-8.3c0-0.1-0.1-0.1-0.2-0.1C275,312.1,274.9,312.5,274.9,312.7z"/>
					<path class="st0" d="M274.6,312.4c-0.2,3.7-0.6,7-2,10.5c-0.6,1.6-1.4,3.2-2.3,4.7c-2.3,3.7-5.5,6.9-9,9.3
						c-0.8,0.4-1.5,1-2.3,1.3c-2.7,1.6-5.7,2.5-9,2.5c-8,1.6-4.3,1.4-7.1,1.3c-2-0.1-4-0.1-6-0.1c-23.1-0.1-46.1-0.1-69.1-0.1
						c-31.7,0-63.4,0-95.1,0c-9.6,0-19.1,0-28.8,0c-3.1,0-6.3,0-9.4,0c-2.1,0-4.1,0.1-6.2-0.1c-12.1-1-23.4-9.6-26.8-22.1
						c-1.2-4.5-1-6.7-0.9-10.5c0.1-5.1,0.1-10.1,0.1-15.2c0-0.6,0-1.1,0-1.7c0-0.1,11-23.1,11.2-23.3c3.3-3,7.6-4.8,11.8-5.9
						c2.8-0.8,5.9-1,8.8-1c2.6,0.1,5.2,0.1,7.8,0.1c55.4,0.1,110.8,0.1,166.2,0.1c10.4,0,20.9,0,31.3,0c2.1,0,4.3-0.1,6.3,0.1
						c2,0.1,3.8,0.1,5.8,0.5c10.2,1.6,19.9,9.6,23.3,19.4c1.2,3.4,2,7.2,1.7,10.8c-0.1,1.6-0.1,3.3-0.1,5
						C274.6,302.7,274.6,307.5,274.6,312.4c0,0.3,0.7-0.4,0.7-0.7c0.1-1.9,0.1-3.9,0.1-5.8c0-3.6,0-7.2,0-10.7
						c0-2.8,0.1-5.7-0.5-8.5c-0.8-4.4-2.6-8.6-5.2-12.1c-3.1-4.4-7.5-7.8-12.2-10.1c-2.1-1-4.3-1.6-6.5-2.2
						c-1.4-0.3-2.8-0.5-4.1-0.7c-0.9-0.1-2.1-0.1-3-0.1c-2.4-0.1-4.8-0.1-7.3-0.1c-66.7-0.1-133.4,0.1-200.1,0c-2.1,0-4.1-0.1-6.1,0
						c-6.4,0.2-12.6,2.4-17.8,6.3c-5.3,4-9.4,9.7-11.2,16.2c-1.6,5.5-1.1,11.5-1.1,17.1c0,3.1,0,6.1-0.1,9.2c-0.1,2.3,0,4.7,0.4,7
						c1.4,7.1,5.1,13.3,10.5,17.9c3.1,2.6,6.8,4.6,10.7,5.8c2.3,0.7,4.6,1.2,6.9,1.3c1.2,0.1,2.6,0.1,3.8,0.1c3.1,0.1,6.3,0,9.5,0
						c6.7,0,13.4,0,20.1,0c18.9,0,37.8,0,56.7,0c39.2,0,78.4,0,117.7,0c2.4,0,4.8-0.1,7.3,0.1c1.9,0.1,3.9-0.1,5.8-0.5
						c2.3-0.4,4.4-1,6.6-1.9c6.1-2.5,11.5-6.9,14.9-12.7c1.4-2.2,2.5-4.8,3.2-7.3c0.1-0.5,0.2-0.8,0.4-1.4c0.5-2.2,0.7-4.5,0.9-6.8
						C275.4,311.5,274.6,312.1,274.6,312.4z"/>
					<path class="st0" d="M274.7,311.8c-0.2,3.7-0.6,7.1-2,10.5c-0.6,1.6-1.4,3.1-2.3,4.7c-5.4,9-17.2,15.6-27.5,14.4
						c-1.7-0.2-3.6-0.1-5.3-0.1c-4.6-0.1-9.2-0.1-13.8-0.1c-28.9-0.1-57.8,0-86.8,0c-29.4,0-58.8,0-88.2,0c-5.8,0-11.6,0-17.4,0
						c-3,0-6-0.4-8.9-1.1c-6.8-1.9-12.8-6.1-16.9-11.8C2.2,323.2,0,317,0.4,310.9c0.1-1.6,0.1-3.4,0.1-5.1c0.1-4.8,0-9.6,0.1-14.5
						c0.1-1,0.1-1.9,0.1-2.8c0.1-1.8,0.5-3.5,1.1-5.2c0.2-0.8,0.5-1.6,0.7-2.5c1.6-4.2,4.1-7.8,7.3-10.7c3.3-3.1,7.2-5.4,11.3-6.9
						c6.4-2.2,9.1-1.6,14.2-1.5c4,0.1,7.9,0.1,11.9,0.1c57.7,0.1,115.4,0,173.1,0c7.8,0,15.6,0,23.3,0c3.9,0,7.8,0.6,11.5,1.9
						c4.8,1.8,9.3,4.9,12.7,9c0.5,0.7,1.1,1.3,1.6,2c0.9,1.5,1.8,3,2.6,4.5c1.6,3.1,2.4,6.7,2.7,10.2c0.2,2.6-0.1,5.2-0.1,7.7
						C274.8,302.2,274.9,307,274.7,311.8c0.1,0.1,0.4,0.4,0.4,0.1c0-5.4-0.1-11,0.1-16.4c0-0.9,0-1.7,0.1-2.6c0.1-1,0.1-2.1-0.1-3.1
						c-0.1-1.3-0.3-2.7-0.6-4c-1-4.8-3.1-9.3-6.2-13c-3.4-4.1-7.9-7.3-12.9-9.2c-3.8-1.4-7.8-2-11.9-2c-8.8,0-17.5,0-26.3,0
						c-36.5,0-73,0-109.5,0c-16.7,0-33.4,0-50.1,0c-5.4,0-10.7,0-16.2-0.1c-2.9,0-5.9,0.1-8.8-0.1c-7-0.4-14.2,1.9-19.9,6
						c-6.1,4.5-10.6,11.2-12,18.7c-0.6,3.3-0.5,6.7-0.5,10c0,3.8,0,7.6-0.1,11.4c0,2.1-0.1,4.2,0,6.3c0.3,4.2,1.5,8.3,3.5,11.8
						c4.6,8.4,12.9,14.3,22.1,15.9c2.6,0.4,5.3,0.5,7.8,0.5c4,0,7.9,0,11.9,0c33.9-0.1,67.8,0,101.6,0c20.3,0,40.5,0,60.8,0
						c11.4,0,22.8-0.1,34.2,0c2.9,0.1,5.8-0.1,8.7-0.7c3.9-0.9,7.7-2.5,11-4.8c3.3-2.2,6-5.1,8.2-8.3c1.7-2.5,3.1-5.4,3.9-8.3
						c0.8-2.7,1-5.3,1.1-8.1C274.9,311.8,274.7,311.6,274.7,311.8z"/>
					<path class="st0" d="M275,312.1c-0.1,2.8-0.4,5.4-1.1,8.1c-0.7,2.5-1.9,5-3.2,7.2c-2.3,3.7-5.4,6.9-9,9.4
						c-3.8,2.5-8,4.1-12.4,4.9c-3.4,0.7-6.9,0.4-10.3,0.4c-25.2-0.1-50.3-0.1-75.5-0.1c-32.7,0-65.3,0-97.9,0c-9.7,0-19.5,0-29.3,0
						c-1.5,0-3.1,0-4.6-0.1c-1.6-0.1-2.9-0.1-4.4-0.3c-3.2-0.4-6.3-1.3-9.2-2.6C9.3,334.9,2.7,326.7,1,317c-0.4-2.3-0.4-4.6-0.3-6.9
						c0.1-2.8,0.1-5.6,0.1-8.4c0.1-7.7-0.5-15.6,3.1-22.7c4.7-9.3,14-15.5,24.1-16.7c2.5-0.3,5-0.1,7.5-0.1c3.1,0,6.3,0,9.4,0
						c13.6,0,27.3,0,40.8,0c33.6,0,67.2,0,100.8,0c14.2,0,28.4,0,42.6,0c4.6,0,9,0,13.6,0c3.4,0,6.8,0.1,10,1.1
						c5.1,1.4,9.8,4.1,13.7,7.9c5.6,5.5,9.1,13.7,8.8,21.8c-0.1,1-0.1,2.2-0.1,3.3C275,301.4,275.1,306.8,275,312.1
						c-0.1,0.4,0.4-0.1,0.4-0.4c0.1-4.8,0.1-9.7,0.1-14.5c0-2.6,0.1-5.2-0.1-7.8c-0.2-2.8-0.9-5.4-1.9-8c-2.9-7.5-8.8-13.6-16.1-17
						c-2.5-1.1-5.2-1.9-7.8-2.5c-2.3-0.4-3.5-0.3-5.9-0.4c-2.7-0.1-5.5-0.1-8.2-0.1c-62-0.1-124-0.1-186,0c-6,0-12,0-18,0
						c-11.7-0.1-23.2,6.7-28.5,17.6c-1.2,2.5-2.1,5.1-2.6,7.7s-0.5,5.4-0.5,8c0,5.7,0,11.4,0,17.1c0,10.1,5.2,19.4,13.3,25
						c4.6,3.1,9.9,5.1,15.4,5.4c2.6,0.2,5.1,0.1,7.6,0.1c28.3,0.1,56.6,0,84.8,0c36.7,0,73.3,0.1,109.9,0c3.8,0,7.7,0,11.5,0
						c4.2,0.1,8.3-0.5,12.3-1.9c5.8-2.2,11-6,14.7-11.1c1.6-2.2,2.8-4.5,3.8-7c0.6-1.6,1.1-3.4,1.5-5.2c0.4-1.8,0.5-3.6,0.5-5.4
						C275.5,311.5,275,311.8,275,312.1z"/>
					<path class="st0" d="M274.9,311.8c-0.4,2.7-0.8,5.4-1.1,8c-1.3,4.3-3.4,8.1-6.3,11.4c-1.7,1.9-3.7,3.7-5.9,5.1
						c-3.8,2.5-7.9,4.2-12.4,4.9c-2.3,0.4-4.6,0.4-6.8,0.3c-3.1-0.1-6.1-0.1-9.2-0.1c-28-0.1-55.9-0.1-83.8-0.1
						c-31.3,0-62.8,0-94.1,0c-7.5,0-15.2,0.1-22.7,0c-2.3,0-4.6-0.1-6.9-0.5c-5.3-1-10.3-3.4-14.4-6.9c-5.9-5.1-10-12.7-10.5-20.6
						c-0.1-1.7,0.1-3.4,0.1-5.1c0.1-5.2,0.1-10.4,0.1-15.6c0-3.2,0.2-6.4,1.1-9.5c2.6-8.1,7.2-14.5,16.5-18.6
						c2.5-1.1,5.1-1.9,7.8-2.3c2.3-0.4,4.6-0.4,6.9-0.4c3.1,0.1,6.2,0.1,9.3,0.1c59.3,0.2,118.6,0.1,177.9,0.1
						c7.9,0,15.9-0.1,23.8,0c10,0.1,19.6,4.7,25.5,13.1c3,4.3,4.8,9.5,5.2,14.7c0.1,2.2,0,4.2-0.1,6.3
						C274.9,301.2,274.9,306.5,274.9,311.8c0,0.1,0.1,0.4,0.1,0.2c0.1-4.8,0-9.6,0.1-14.5c0-1.2,0.1-2.4,0.1-3.6
						c0-0.2,0.1-0.5,0.1-0.8c0.2-1.1,0.3-2.3,0.1-3.5c-0.4-6.3-2.9-12.3-6.9-17.1c-3.4-4.2-7.9-7.3-13-9.2
						c-3.7-1.3-7.6-1.9-11.5-1.9c-8.9,0-17.7,0-26.6,0c-36.5,0-73,0-109.5,0c-16.2,0-32.4,0-48.5,0c-5.6,0-11.1,0-16.7,0
						c-3.4,0-6.8,0-10.2-0.1c-14.6-0.7-28.8,10.2-31.6,25c-0.4,2.3-0.5,4.6-0.5,7c-0.1,2.8,0,5.5,0,8.4c0,2.8,0,5.5-0.1,8.3
						c0,1.4-0.1,2.8,0.1,4.2c0.2,2.8,0.9,5.4,1.9,8c3.6,9.3,11.5,16.2,21,18.8c3.1,0.8,6.3,1,9.6,1c3.8,0.1,7.7,0,11.5,0
						c33.5-0.1,67,0,100.6,0c32.2,0,64.5-0.1,96.8,0c2.6,0,5.1,0,7.6-0.4c6.1-1,11.9-3.9,16.4-8.3c3.1-3,5.7-6.6,7.3-10.7
						c0.6-1.6,1.1-3.4,1.5-5.1c0.5-2.4,0.4-3.1,0.5-5.5C275,311.9,274.9,311.7,274.9,311.8z"/>
					<path class="st0" d="M274.3,312.1c-0.1,2.8-0.4,5.4-1.2,8.1c-0.8,2.5-1.9,5-3.3,7.2c-0.5,0.7-1,1.4-1.5,2.2
						c-1.5,2.2-3.5,3.9-5.8,5.2c-1.4,1-2.7,2.2-4.1,3.2c-1.6,0.9-3.2,1.6-4.8,2.2c-3.6,1.2-7.5,1.9-11.3,1.6
						c-2.6-0.2-5.2-0.1-7.8-0.1c-27.8-0.1-55.7-0.1-83.5-0.1c-32.2,0-64.3,0-96.5,0c-7.5,0-15.2,0.1-22.7,0c-2.3,0-4.6-0.1-6.9-0.5
						c-12-2-22.2-12.1-24.3-24.4c-0.4-2.3-0.4-4.6-0.4-7c0.1-2.5,0.1-5.1,0.1-7.5c0-2.8,0-5.4,0.1-8.1c0-2.7,0-5.3,0.5-7.9
						c1.9-9.6,8.9-17.7,17.6-21.5c4.2-1.9,8.8-2.8,13.3-2.7c2.1,0,4.2,0.1,6.3,0.1c59.6,0.2,119.1,0.1,178.6,0.1
						c8.9,0,17.7,0,26.6,0c3.9,0,7.8,0.6,11.5,1.9c4.9,1.8,9.4,4.9,12.8,9c3.7,4.3,6,9.7,6.8,15.5c0.2,1.4,0.4,2.8,0.2,4.2
						c-0.1,1.1-0.1,2.4-0.1,3.6C274.3,301.5,274.4,306.8,274.3,312.1c0,0.4,0.7-0.1,0.7-0.4c0.1-4.8,0.1-9.6,0.1-14.5
						c0-2.5,0.1-5.2-0.1-7.7c-0.5-6.2-3.1-12.1-7-16.8c-6-7-14.8-10.9-23.9-11c-7.9-0.1-15.9,0-23.8,0c-34.5,0-69,0-103.5,0
						c-15.7,0-31.5,0-47.2,0c-11.4,0-22.9,0.1-34.3-0.1c-0.9,0-1.9,0-2.8-0.1c-2-0.2-4.2-0.1-6.2,0.2c-5.3,0.8-10.5,3-14.7,6.4
						c-3.4,2.8-6.3,6.1-8.3,10.1c-2.2,4.3-3.1,8.9-3.1,13.7c0,5.5,0.1,11-0.1,16.5C0,310.4,0,312.1,0,313.9
						c0.4,5.4,2.3,10.7,5.5,15.1c3.7,5.2,9,9.2,14.9,11.3c2.6,1,5.3,1.6,8.1,1.8c1,0.1,2.3,0.1,3.4,0.1c2.6,0.1,5.2,0.1,7.8,0.1
						c30.2,0.1,60.4,0,90.7,0c34.9,0,70,0,104.9,0c2.8,0,5.6,0,8.3,0.1c5.5,0.2,11.2-1.4,15.9-4.2c3.8-2.2,7.2-5.1,9.8-8.7
						c1.6-2.2,2.8-4.5,3.8-6.9c0.6-1.6,1.1-3.4,1.5-5.2c0.4-1.8,0.5-3.6,0.5-5.4C275.1,311.6,274.3,311.9,274.3,312.1z"/>
					<path class="st0" d="M275.1,312.1c-0.1,2.8-0.4,5.4-1.1,8c-0.7,2.5-1.9,5-3.2,7.2c-2.4,3.7-5.4,6.9-9,9.2
						c-0.8,0.4-1.5,1-2.3,1.3c-1.6,0.7-3.3,1.4-4.8,2.2c-2.6,1-5.3,1.4-8,1.6c-2.1,0.1-4,0-6-0.1c-3.1-0.1-6.3,0-9.4,0
						c-5.3,0-10.7,0-16.1,0c-15.7,0-31.2,0-46.8,0c-32.4,0-64.7,0-97.1,0c-10.4,0-20.9,0-31.3,0c-5.6,0-11.2,0.4-16.7-1
						C10.2,337,0.4,324.9,1.2,310.1c0.3-5.4,0.2-10.7,0.2-16.1c0-1.7,0-3.5,0.1-5.2c0.6-6.1,3.3-12,7.3-16.5
						c3.3-3.6,7.3-6.4,11.8-8.1c4.2-1.6,8.7-2.2,13.1-2c6.5,0.2,13.1,0.1,19.6,0.1c13.7,0,27.5,0,41.3,0c33.5,0,67.1,0,100.6,0
						c13,0,26,0,39.1,0c3.1,0,6.2,0,9.3,0c0.4,0,0.8,0,1.2,0c5.6-0.4,10.6,1.3,14.9,5c3.5,1.1,6.3,3.1,8.5,5.8c3.4,4,5.8,9,6.7,14.3
						c0.5,3.1,0.3,6,0.2,9.2C275,301.6,275.2,306.8,275.1,312.1c0,0.1,0.4,0.1,0.4,0.1c0.1-5.7-0.1-11.5,0.1-17.1
						c0.1-0.8,0.1-1.5,0.1-2.3c0.1-1.8-0.1-3.9-0.4-5.7c-1-6.1-4-12-8.4-16.2c-4.7-4.5-10.5-7.6-16.8-8.7c-2.6-0.4-5.2-0.5-7.8-0.5
						c-4.3,0-8.8,0-13.1,0c-37.4,0.1-74.8,0-112.2,0c-19.3,0-38.5,0-57.8,0c-6.3,0-12.5,0-18.9,0c-2.7,0-5.4,0.1-8-0.1
						c0.2,0.1,0.4,0.1,0.5,0.1c-0.2-0.1-0.4-0.1-0.6-0.1c-1.7-0.2-4,0.1-5.8,0.4c-6.2,1-12.2,3.9-16.8,8.4c-3.2,3.1-5.7,6.9-7.3,11
						c-1.6,4.2-2,8.7-2,13.2c0,3.5,0,7,0,10.5c0,3.1-0.1,6.1,0.1,9.2c0.5,7.1,4,13.9,8.9,18.7c4.6,4.5,10.2,7.3,16.4,8.4
						c3.4,0.7,7,0.5,10.5,0.5c14.9,0,29.8,0,44.7,0c44.1,0,88.2,0,132.3,0c7.7,0,15.4,0,23.1,0c1.9,0,3.8,0,5.6,0.1
						c2.4,0.1,4.8,0.1,7.2-0.2c6.3-1,12-3.7,16.7-8c2.9-2.6,5.3-6,6.9-9.6c0.6-1.2,1-2.5,1.4-3.7c0.8-2.6,1.1-5.3,1.1-8.1
						C275.4,312.1,275.1,312.1,275.1,312.1z"/>
				</g>
			</g>
		</g>
	</g>
	<g>
		<g>
			<path d="M112.3,125c0,0-36.7,10.2-51.3,13.6c-14.6,3.4-14.6,18.1-14.6,18.1s0,61.2,0,84.9C46.4,265.2,61,262,61,262h76.4V138.7
				C137.3,125.8,112.3,125,112.3,125z"/>
			<g>
				<g>
					<path class="st0" d="M111.8,124.9c-7.2,2-14.3,3.9-21.5,5.8c-5.8,1.6-11.7,3.1-17.6,4.6c-2.4,0.7-4.8,1.2-7.2,1.8
						c-2.4,0.6-5,1-7.3,1.9c-3.4,1.3-6.4,3.4-8.5,6.4c-1.5,2.1-2.6,4.5-3.1,7c-1,4-0.6,8.1-0.6,12.1c0,13.6,0,27.3,0,40.9
						c0,7.6,0,15.2,0,22.8c0,3,0,6,0,9c0,3.6-0.1,7.3,0.4,10.9c0.9,6.3,3.7,13.3,10.5,14.9c1.4,0.3,3,0.4,4.4,0.1
						c1.5-0.3,3.1-0.1,4.7-0.1c14,0,28.1,0,42.1,0c10,0,20.1-0.1,30,0c0.1,0,0.1-0.1,0.1-0.1c-0.3-1.4-0.2-3.1-0.2-4.5
						c0.1-3.3,0-6.6,0-9.8c0-10.6,0-21.2,0-31.7c0-22.5,0-45.1,0-67.7c0-3.6,0.1-7.2,0-10.7c-0.1-2.8-1.3-5.1-3.3-7
						c-3.1-3.1-7.5-4.4-11.7-5.4c-3.6-0.9-7.3-1.4-11.1-1.6C111.9,124.6,111.8,124.8,111.8,124.9c0.9-0.1,2,0,3,0.1
						c2.9,0.2,6,0.6,8.8,1.3c0.9,0.3,1.9,0.7,2.8,1c1.6,0.4,3.1,1,4.6,1.8c1.1,0.6,2.1,1.3,3.1,2c3.8,3.1,3.6,6.2,3.6,10.2
						c0,19.6,0,39.2,0,58.8c0,11.3,0,22.7,0,34c0,4.8,0,9.6,0,14.5c0,3.6,0,7.2-0.2,10.7c-0.1,0.8-0.1,1.5-0.1,2.3
						c-0.1,0.4,0.1,0.6-0.2,0.7c-0.1,0-0.3-0.1-0.4-0.1c-0.3,0-0.6,0-0.9,0c-1.1,0-2.3,0-3.5,0c-8.3,0-16.7,0-25,0
						c-15.2,0-30.5-0.1-45.7,0.1c-1.1,0-2.3,0.2-3.4,0.1c-1.4-0.1-2.9-0.5-4.2-1.1c-0.9-0.4-1.8-1-2.5-1.7c-0.4-0.4-0.6-0.7-0.9-1
						c-0.7-0.8-1.3-1.7-1.6-2.7c-0.9-1.8-1.6-3.6-2-5.5c-0.4-1.7-0.6-3.4-0.6-5.2c-0.2-3.6-0.1-7.3-0.1-11c0-10.9,0-21.8,0-32.6
						c0-9.5,0-19.1,0-28.6c0-5.2,0.1-10.5-0.1-15.7c-0.1-4,1.4-8.3,3.6-11.4c0.6-1,1.4-1.9,2.3-2.7c0.6-0.7,1.4-1.3,2.3-1.8
						c1.2-0.8,2.6-1.4,4-1.8c3.8-1.3,7.9-2.2,11.9-3.1c13.9-3.6,27.8-7.3,41.6-11.2C111.9,125.2,111.9,124.8,111.8,124.9z"/>
					<path class="st0" d="M111.6,124.8c-7.6,2.1-15.2,4.2-22.9,6.3c-5.8,1.6-11.7,3.1-17.5,4.6c-2.3,0.6-4.7,1.1-7,1.7
						c-2.4,0.6-4.9,1-7.2,2c-2.8,1.1-5.2,3-7.1,5.3c-2.1,2.7-3.5,6-4.1,9.5c-0.2,1.1-0.3,2.3-0.2,3.6c0.1,3.8,0.1,7.6,0.1,11.4
						c0,14.5,0,29.1,0,43.6c0,7.2,0,14.5,0,21.7c0,6.1-0.5,12.4,1.4,18.3c1.5,4.9,4.8,9.2,10,10c1.2,0.2,2.4,0.2,3.6,0.1
						c1.4-0.2,2.8-0.1,4.1-0.1c13.7,0,27.5,0,41.2,0c7.2,0,14.4,0,21.6,0c2.4,0,4.9,0,7.3,0c0.9,0,1.8,0,2.7,0.1
						c0.1,0,0.2-0.1,0.2-0.2c-0.1-1.6,0-3.2,0-4.8c0.1-3.1,0.1-6,0.1-9.1c0-9.3,0.1-18.5,0.1-27.8c0-21,0-42.1,0-63.1
						c0-5.9,0-11.7,0-17.7c0-1.1,0.1-2.3-0.2-3.4c-0.5-2.3-1.9-4.2-3.6-5.7c-3.8-3.2-9-4.6-13.7-5.5c-2.7-0.5-5.6-0.8-8.3-1
						c-0.1,0-0.1,0.1-0.1,0.2c0.1,0.1,0.4,0.2,0.5,0.2c0.8,0.1,1.5,0.1,2.3,0.2c1.9,0.1,3.8,0.4,5.8,0.8c4.6,0.9,9.7,2.2,13.4,5.3
						c1.6,1.4,3,3.3,3.5,5.4c0.2,1.1,0.2,2.2,0.2,3.4c0,5.9,0,11.7,0,17.7c0,21,0,42.1,0,63.1c0,9.2,0,18.5,0,27.7c0,3,0,6-0.1,9
						c0,1.6,0.1,3.1-0.2,4.7c0.1-0.1,0.1-0.1,0.2-0.1c-0.9-0.1-1.8-0.1-2.7-0.1c-2.4,0-4.9,0-7.3,0c-7.8,0-15.4,0-23.2,0
						c-13.9,0-27.7-0.1-41.6,0c-1.2,0-2.4,0.1-3.6,0.1c-3.7-0.1-7-2-9.1-5.2c-3.4-5.1-3.5-11.8-3.5-17.7c0.1-7.8,0-15.7,0-23.5
						c0-16.9,0-33.8,0-50.7c0-2.8-0.1-5.6,0-8.4c0.1-2.6,0.8-5.3,1.9-7.6c0.9-2,2.1-3.9,3.7-5.4c1.9-1.9,4.1-3.3,6.7-4.2
						c1.4-0.4,2.7-0.8,4.1-1c6.6-1.6,13.2-3.3,19.7-5.1c9.9-2.6,19.8-5.4,29.7-8C112.6,125,111.8,124.7,111.6,124.8z"/>
					<path class="st0" d="M111.5,124.1c-8,2.3-16.2,4.5-24.2,6.6c-5.8,1.6-11.6,3.1-17.4,4.6c-2.6,0.7-5.2,1.3-7.8,1.9
						c-2.1,0.5-4.3,1-6.2,2c-6,2.9-9.5,9.5-10.1,15.9c-0.1,1-0.1,2.2-0.1,3.2c0.1,5.2,0,10.5,0,15.7c0,15.6,0,31.4,0,47
						c0,6.9-0.1,13.7,0,20.6c0.1,4.2,0.4,8.6,2,12.4c0.8,1.9,1.9,3.6,3.2,5.1c1.9,1.9,4.2,3.1,6.8,3.3c0.8,0.1,1.6,0.1,2.4,0.1
						c1.1-0.1,2.2-0.1,3.3-0.1c24.8,0.1,49.5,0,74.2,0c0.1,0,0.1-0.1,0.1-0.1c0.3-0.7,0.1-1.3,0.1-2c-0.1-2.8-0.1-5.6-0.1-8.4
						c0-8.6,0-17.2,0-25.8c0-22.4,0-44.9,0-67.4c0-6.2,0-12.4,0-18.6c0-1,0-2.1-0.1-3.1c-0.2-2.1-1.1-3.9-2.5-5.4
						c-1.6-1.8-3.8-3.1-6-4.1c-2.3-1-4.8-1.7-7.3-2.3c-3.3-0.7-6.8-1.3-10.2-1.3c-0.4,0,0.5,0.8,0.6,0.9c0.8,0.1,1.5,0.2,2.3,0.2
						c1.9,0.2,3.8,0.4,5.8,0.8c4.6,0.9,9.7,2.2,13.5,5.3c2.2,1.9,3.6,4.3,3.6,7.2c0.1,1,0,1.9,0,2.9c0,6.6,0,13.1,0,19.7
						c0,21.2,0,42.6,0,63.8c0,8.8,0,17.6,0.1,26.3c0,3.8-0.1,7.6,0.2,11.5c0.1-0.1,0.1-0.2,0.1-0.3c-24.1,0-48.1,0.1-72.2,0
						c-1.4,0-2.7-0.1-4.1,0c-0.8,0.1-1.5,0.4-2.3,0.4c-4.1,0.2-7.6-2-10-5.3c-3-4.3-3.4-10.3-3.5-15.4c-0.1-3.1,0-6.2,0-9.3
						c0-8.6,0-17.1,0-25.7c0-15.2-0.1-30.4,0-45.6c0-2.2-0.1-4.3,0.2-6.5c0.6-3.7,2-7.3,4.3-10.1c0.8-1,1.6-1.8,2.6-2.5
						c1.1-0.7,2.2-1.4,3.3-2.1c2.6-1.3,5.5-1.7,8.2-2.5c6.8-1.6,13.7-3.4,20.4-5.2c9-2.4,17.9-4.9,26.9-7.3
						C112.3,124.8,111.7,124.1,111.5,124.1z"/>
					<path class="st0" d="M112,124.7c-7.1,2-14.3,3.9-21.4,5.8c-5.8,1.6-11.7,3.1-17.6,4.6c-2.4,0.7-4.8,1.2-7.2,1.8
						c-2.4,0.6-4.9,1-7.3,1.9c-3.4,1.2-6.5,3.4-8.6,6.4c-1.9,2.5-3,5.5-3.6,8.7c-0.2,1-0.3,2-0.3,3.1c0,2.8,0,5.4,0,8.3
						c0,13.9,0,27.8,0,41.7c0,7.5,0,15.1,0,22.6c0,2.9,0,5.8,0,8.7c0,3.1-0.1,6.4,0.4,9.5c0.7,5.7,3.1,12,8.8,14.3
						c1.6,0.7,3.4,0.9,5.2,0.7c0.4-0.1,0.8-0.1,1.1-0.1c1.1-0.1,2.3,0,3.4,0c14.3-0.1,28.5,0,42.8,0c6.6,0,13.3,0,19.9,0
						c3.4,0,6.8-0.1,10.1,0.1c0.1,0,0.1-0.1,0.1-0.1c-0.1-1.3-0.1-2.8-0.1-4.1c0.1-3.3,0.1-6.6,0.1-9.9c0-9.9,0-19.9,0-29.8
						c0-22.7,0.1-45.5,0-68.3c0-2.8,0-5.6,0-8.4c0-1.2,0.1-2.5,0-3.7c-0.1-3.7-2.3-6.5-5.3-8.4c-2.9-1.9-6.3-3.1-9.7-3.8
						c-3.6-0.8-7.2-1.3-10.8-1.5c-0.4-0.1,0,0.5,0.2,0.5c2.1,0.4,4.3,0.4,6.4,0.8c6.5,1,16.8,3.6,18.3,11.1c0.2,1.1,0.2,2.2,0.1,3.4
						c0,2.2,0,4.5,0,6.7c0,7.1,0,14.1,0,21.2c0,20.2,0,40.5,0,60.7c0,7.5-0.1,15.1-0.1,22.4c0,2.6-0.1,5.2-0.1,7.9
						c0,1,0.1,1.9-0.1,3c0.1-0.1,0.1-0.1,0.1-0.1c-1.9-0.2-3.9-0.1-5.9-0.1c-5.5,0-10.9,0-16.4,0c-12.1,0-24.2,0-36.3,0
						c-4.6,0-9.1,0-13.6,0c-1.4,0-2.9-0.1-4.3,0.1c-2.9,0.2-5.8-0.3-8.2-2.1c-1.1-0.8-2.1-1.9-2.8-3.1c-0.4-1.1-0.9-2.3-1.4-3.5
						c-0.9-1.5-1.4-3.1-1.5-4.8c-0.2-1.3-0.4-2.6-0.5-4c-0.2-2.7-0.1-5.4-0.1-8.1c0-3.5,0-7.1,0-10.6c0-15.4,0-30.6,0-45.9
						c0-7.8-0.1-15.6,0-23.4c0.1-1.7,0.4-3.5,0.9-5.2c1-3.3,2.8-6.3,5.3-8.6c0.7-0.7,1.4-1.2,2.3-1.7c0.6-0.4,1.2-0.7,1.9-1
						c1.4-0.5,2.8-1,4.3-1.5c2.4-0.7,4.8-1.1,7.3-1.7c6.2-1.6,12.3-3.1,18.4-4.8c8.5-2.3,17.1-4.6,25.6-6.9
						C112.6,125.1,112.2,124.6,112,124.7z"/>
					<path class="st0" d="M111.9,124.2c-8,2.3-16.2,4.5-24.2,6.6c-5.8,1.6-11.6,3.1-17.4,4.6c-2.6,0.7-5.2,1.3-7.8,1.9
						c-2.1,0.5-4.2,1-6.2,1.9c-4.8,2.3-8.1,6.9-9.5,12c-0.5,1.7-0.9,3.5-0.9,5.2c0,3.2,0.1,6.4,0.1,9.6c0,15.4,0,30.6,0,46.1
						c0,7.7,0,15.4,0,23c0,5.2-0.2,10.7,1.1,15.8c0.9,3.8,2.8,7.5,6,9.6c1.9,1.3,4.1,1.9,6.3,1.9c0.6,0,1.2-0.1,1.9-0.2
						c0.8-0.1,1.6-0.1,2.4-0.1c24.8-0.1,49.5-0.1,74.2,0c0.1,0,0.1,0,0.1-0.1c0.3-1.3,0.1-2.9,0.1-4.2c0-3,0.1-5.8,0.1-8.8
						c0.1-10.4,0.1-20.8,0.1-31.2c0-22.4,0-44.8,0-67.1c0-4.4,0.1-8.8,0-13.2c-0.1-1.7-0.5-3.6-1.5-5.1c-0.6-1-1.5-1.9-2.4-2.6
						c-3.8-3.1-9.1-4.5-13.9-5.2c-2.7-0.4-5.5-0.9-8.3-0.8c-0.4,0,0.1,0.7,0.4,0.8c0.7,0.1,1.5,0.1,2.2,0.2c2.6,0.2,5.1,0.7,7.6,1.1
						c5,1.1,10.8,3.1,13.9,7.5c1.1,1.6,1.4,3.5,1.4,5.4c0,1.9,0,3.7,0,5.6c0,7.2,0,14.2,0,21.4c0,20.2,0,40.3,0,60.5
						c0,8.1,0,16.2,0,24.4c0,3.7,0,7.5,0.2,11.3c0.1-0.1,0.1-0.1,0.1-0.2c-24.1-0.1-48.1,0-72.2,0c-1.4,0-3-0.1-4.4,0.1
						c-0.6,0.1-1.2,0.2-1.9,0.2c-1.2,0.1-2.4-0.1-3.6-0.4c-5.6-1.6-8.8-6.3-9.5-14.2c-0.1-1-0.2-1.9-0.3-2.8
						c-0.3-3.6-0.1-7.3-0.1-11c0-8.4,0-16.8,0-25.3c0-15.2,0.1-30.4-0.1-45.6c0-2.3-0.1-4.8,0-7.1c0.3-4.2,1.9-8.4,4.6-11.6
						c2.1-2.6,4.8-4.4,8-5.5c2-0.7,4.1-1,6.2-1.6c6.8-1.6,13.7-3.4,20.4-5.3c9-2.4,17.9-4.8,26.9-7.3
						C112.3,124.6,112,124.1,111.9,124.2z"/>
					<path class="st0" d="M111,124.5c-8,2.3-16.2,4.5-24.2,6.6c-6.2,1.6-12.5,3.3-18.6,4.9c-2.2,0.5-4.4,1.1-6.6,1.6
						c-2.8,0.7-5.6,1.4-8,3c-4.6,3-7.3,8-8.2,13.4c-0.1,1-0.2,1.9-0.2,2.8c0.1,2.2,0.1,4.3,0.1,6.4c0.1,14.6,0,29.2,0,43.7
						c0,8,0,16.1,0,24.1c0,2.8,0,5.6,0,8.4c0,3.6,0.1,7.2,0.8,10.7c0.9,4.8,3.6,9.6,8.2,11.6c1.5,0.7,3.2,1,4.8,1
						c0.6,0,1.2-0.1,1.8-0.2c0.6-0.1,1.1-0.1,1.8-0.1c24.9,0.1,49.9,0,74.8,0c0.1,0,0.3-0.1,0.3-0.1c0-0.3,0-0.6,0.1-0.9
						c0-0.4,0-0.7,0-1c0-1-0.1-2-0.1-3.1c-0.1-3.6,0.1-7.2,0.1-10.7c0-9.5,0-18.9,0-28.3c0-21.8,0-43.7,0-65.6c0-4.8,0-9.5,0-14.3
						c0-1-0.1-2-0.4-3.1c-0.6-1.9-1.9-3.5-3.4-4.8c-3.4-2.8-7.9-4.2-12.2-5.1c-3.3-0.7-6.8-1.2-10.2-1.3c-0.2,0-0.1,0.1-0.1,0.2
						c0.1,0.1,0.5,0.3,0.6,0.3c2.7,0.4,5.4,0.5,8,1c4.6,0.8,9.7,2.1,13.5,5.2c2.3,1.9,3.7,4.2,3.7,7.3c0,0.9,0,1.8,0,2.7
						c0,6.6,0,13.1,0,19.7c0,20,0,39.9,0,59.8c0,9.3,0,18.5,0,27.7c0,3.1,0.1,6,0.1,9c-0.1,1-0.1,2.2-0.1,3.2c0,0.7,0,1.4-0.1,2.1
						c0.1-0.1,0.2-0.1,0.3-0.1c-24.6,0-49.1,0.1-73.7,0c-1.3,0-2.6,0-3.8,0.1c-3.7,0.4-7.3-1.3-9.7-4.2c-4.9-5.8-4.4-14.3-4.4-21.5
						c0-8.1,0-16.3,0-24.4c0-16.4,0-32.8,0-49.2c0-2.2-0.1-4.5,0-6.8c0.2-3.9,1.6-7.8,3.8-10.9c1.3-1.7,2.8-3.2,4.6-4.4
						c2.5-1.6,5.2-2.3,8-3c6.6-1.6,13.2-3.3,19.7-5.1c9.9-2.6,19.8-5.4,29.7-8c0.2-0.1-0.2-0.3-0.2-0.3
						C111.6,124.6,111.3,124.4,111,124.5z"/>
					<path class="st0" d="M112.2,124.5c-8,2.2-16.2,4.5-24.2,6.6c-6.2,1.6-12.5,3.3-18.6,4.9c-2.2,0.5-4.4,1.1-6.6,1.6
						c-1.4,0.4-2.8,0.7-4.3,1.1c-4.8,1.7-8.6,5.4-10.6,10.1c-1.3,3.1-1.9,6.4-1.8,9.8c0.1,12.4,0.1,24.9,0.1,37.4
						c0,8.4,0,16.8,0,25.3c0,6.9-0.1,13.7,0,20.6c0.1,7.2,1.4,16.7,8.8,19.9c1.7,0.7,3.6,1,5.5,0.9c0.5-0.1,0.9-0.1,1.4-0.2
						c0.6-0.1,1.2-0.1,1.8-0.1c13.9,0,27.7,0,41.5,0c7.3,0,14.6,0,21.9,0c3.8,0,7.5-0.1,11.3,0c0.1,0,0.1-0.1,0.1-0.1
						c0.2-4.3,0.1-8.6,0.1-12.9c0.1-9.7,0.1-19.4,0.1-29.1c0-22.1,0-44.1,0-66.1c0-5.2,0-10.4,0-15.5c0-1.1-0.1-2.2-0.5-3.4
						c-0.6-1.6-1.6-3.1-2.8-4.2c-4-3.5-9.5-5.1-14.6-5.9c-2.7-0.5-5.5-0.7-8.2-1c-0.2,0-0.4,0.3-0.1,0.3c0.8,0,1.6,0.1,2.4,0.1
						c2.6,0.2,5.1,0.7,7.6,1.2c4.6,1,9.7,2.8,13,6.4c1.6,1.9,2.4,4.3,2.4,6.9c0,1.2,0,2.5,0,3.7c0,7.2,0,14.3,0,21.5
						c0,20.1,0,40.2,0,60.4c0,8.8,0,17.6,0,26.4c0,2.6,0,5.3,0.1,7.9c0,1,0.1,2.1-0.1,3.1c0.1-0.1,0.1-0.1,0.2-0.1
						c-1.4-0.1-2.8-0.1-4.3-0.1c-2.8,0-5.6,0-8.3,0c-6.9,0-13.9,0-20.7,0c-13.5,0-26.9-0.1-40.4,0c-0.9,0-1.9-0.1-2.8,0
						c-0.4,0.1-0.8,0.1-1.3,0.2c-2.5,0.2-5-0.4-7.1-1.9c-4.4-3.1-5.9-8.8-6.4-13.9c-0.3-3.1-0.2-6.3-0.2-9.5c0-4.1,0-8.1,0-12.2
						c0-17.3,0-34.6,0-51.8c0-4.8,0-9.5-0.1-14.2c0-1.2-0.1-2.4-0.1-3.6c0.1-1.1,0.4-2.3,0.6-3.4c0.9-1.9,1.7-3.9,2.6-5.8
						c3.2-5.2,9.4-7.2,15-8.6c6.8-1.6,13.7-3.4,20.4-5.2c9-2.4,18-4.8,27-7.3C112,124.6,112.3,124.5,112.2,124.5z"/>
				</g>
			</g>
		</g>
	</g>
	<g>
		<g>
			<path d="M137.3,138.6V262h76.4c0,0,14.6,3.2,14.6-20.4s0-84.9,0-84.9s0-14.8-14.6-18.1c-14.6-3.4-51.3-13.6-51.3-13.6
				S137.3,125.8,137.3,138.6z"/>
			<g>
				<g>
					<path class="st0" d="M136.9,139.5c-0.1,41.1,0,82.3,0,123.4c0,0.1,0.1,0.1,0.1,0.1c1.1,0.1,2.1,0,3.3,0.1
						c2.6,0.1,5.1,0.1,7.7,0.1c7.8,0.1,15.6,0.1,23.3,0.1c13.7,0,27.3,0,40.9,0c0.7,0,1.5-0.1,2.2,0.1c0.4,0.1,0.8,0.1,1.2,0.1
						c2,0.1,4-0.5,5.7-1.4c3.5-2,5.5-5.7,6.5-9.5c0.9-3.4,1.2-7.2,1.2-10.7c0-3.6-0.1-7.3-0.1-10.9c0-18.5,0-36.9,0-55.4
						c0-5.5,0-11,0-16.5c0-0.7,0.1-1.5,0.1-2.2c0-1-0.2-1.9-0.4-2.8c-1.1-5.8-4.4-11-9.5-13.6c-3.6-1.9-7.6-2.5-11.5-3.4
						c-7-1.7-14.1-3.6-21.1-5.5c-6.8-1.8-13.5-3.7-20.3-5.5c-0.8-0.2-1.6-0.4-2.4-0.7c-0.4-0.1-0.9-0.4-1.4-0.4
						c-0.8-0.1-1.9,0.1-2.6,0.2c-4.7,0.6-9.5,1.3-13.9,3.2c-2.5,1-4.8,2.5-6.7,4.5c-0.8,0.8-1.4,1.9-1.8,2.9
						c-0.6,1.3-0.5,2.2-0.6,3.6c0,0.2,0.4,0.2,0.4-0.1c0-0.3,0.1-0.6,0.1-0.9c-0.1-1.1,0.4-2.2,1.1-3.1c0.4-0.7,0.7-1.4,1.1-2.2
						c0.6-0.7,1.2-1.2,1.9-1.7c1.4-1.1,3-1.9,4.7-2.7c3.8-1.6,7.8-2.5,11.8-3c1.2-0.1,2.5-0.3,3.7-0.4c0.3-0.1,0.5-0.1,0.8-0.1
						c0.4,0.1,0.9,0.2,1.3,0.4c0.6,0.1,1.2,0.4,1.8,0.5c2.4,0.7,4.8,1.3,7.2,1.9c11.5,3.1,23.2,6.4,34.8,9.2
						c1.1,0.2,2.2,0.5,3.3,0.7c0.4,0.1,0.7,0.1,1.1,0.2c4.8,3.1,9.7,6.3,14.4,9.5c0.8,1.4,1.4,3.1,1.9,4.7c0.4,1.6,0.6,3.2,0.7,4.8
						c0.1,2.7,0,5.4,0,8c0,6.7,0,13.5,0,20.1c0,16.2,0.1,32.6,0,48.8c0,5.7,0.4,11.7-1.1,17.3c-0.5,1.9-1.1,3.7-2.1,5.4
						c-0.4,0.7-0.9,1.3-1.4,1.9c-0.4,0.5-0.9,1-1.5,1.4c-0.6,0.5-1.2,1-2,1.1c-0.9,0.5-1.5,0.8-2.4,1c-0.4,0.1-0.9,0.2-1.4,0.2
						c-0.8,0.1-1.6,0.1-2.4,0.1c-0.2,0-0.5-0.1-0.8-0.1c-0.9-0.1-1.7-0.1-2.6-0.1c-13.5,0-26.9,0-40.4,0c-7.8,0-15.4,0-23.2,0
						c-2.3,0-4.4-0.1-6.7,0c-1.2,0.1-2.6,0.1-3.8,0c0.1,0.1,0.1,0.1,0.2,0.1c0.1-41.1-0.1-82.3,0.1-123.3c0-0.1-0.1-0.1-0.2-0.1
						C137,139,136.9,139.3,136.9,139.5z"/>
					<path class="st0" d="M136.5,139.2c-0.1,41.1,0,82.3,0,123.4c0,0.1,0.1,0.1,0.1,0.1c3.2-0.3,6.5-0.1,9.7-0.1
						c7.6,0,15.2,0,22.8,0c14,0,28,0,42,0c1.2,0,2.3,0.1,3.4,0.1c2.3,0.2,4.8-0.4,6.7-1.6c5.9-3.7,7.2-11.6,7.4-18
						c0.2-7.4,0.1-14.9,0.1-22.3c0-9.6,0-19.3,0-28.9c0-7.8,0-15.7,0-23.5c0-3.9-0.1-7.8,0.1-11.6c0.1-1.4-0.3-2.8-0.6-4.2
						c-1.1-4.2-3.2-7.9-6.5-10.7c-2.3-1.9-5.2-3.1-7.9-3.7c-2.5-0.6-5-1.1-7.5-1.7c-7.1-1.7-14.2-3.7-21.3-5.5
						c-6.5-1.7-13.1-3.6-19.6-5.4c-0.6-0.1-1.2-0.4-1.8-0.5c-0.4-0.1-1-0.4-1.5-0.4c-0.1,0-0.4,0.1-0.5,0.1
						c-0.6,0.1-1.4,0.1-2.1,0.2c-5,0.5-10.2,1.4-14.7,3.6c-1.6,0.8-3.3,1.7-4.7,2.9c-0.8,0.7-1.6,1.6-2.3,2.6
						c-0.2,0.5-0.5,1-0.8,1.5c-0.4,1.1-0.6,2.3-0.6,3.5c-0.1,0.4,0.9,0.1,0.9-0.1c0.1-0.6,0.1-1.1,0.1-1.7c0.1-0.8,0.4-1.6,0.9-2.3
						c0.5-1,1.1-1.8,2-2.6c2.8-2.7,6.7-4.2,10.4-5.1c2.2-0.6,4.4-1,6.7-1.3c0.9-0.1,1.7-0.2,2.6-0.3c0.7-0.1,1.5-0.2,2.3-0.2
						c0.4,0,0.8,0.2,1.2,0.3c0.7,0.2,1.4,0.4,2.2,0.6c2.8,0.8,5.5,1.5,8.3,2.3c7.9,2.2,15.7,4.3,23.6,6.3c3.7,1,7.5,1.9,11.2,2.8
						c3.1,0.8,6.5,1.2,9.4,2.7c2.3,1.1,4.3,2.7,6,4.6c1.6,1.9,2.7,4.3,3.5,6.7c0.4,1.4,0.7,3,0.9,4.5c0.1,0.8,0,1.6,0,2.3
						c0,6.7,0,13.5,0,20.2c0,20.2-0.1,40.5,0,60.7c0,4-0.1,7.9-1,11.8c-1.1,4.5-3.8,9.3-8.3,10.7c-1.9,0.6-3.7,0.7-5.6,0.5
						c-1.6-0.2-3.3-0.1-4.8-0.1c-3.3,0-6.7,0-10,0c-9.3,0.1-18.6,0-28,0c-8.5,0-16.9,0-25.4-0.1c-2.1,0-4.3,0-6.5,0
						c0.2,0-1.3,0.1-1.4-0.1c-0.2-0.2-0.1-1.3-0.1-1.6c0.1-21.4,0-42.8,0-64.2c0-19.2-0.1-38.3,0.1-57.5
						C137.4,138.4,136.5,139,136.5,139.2z"/>
					<path class="st0" d="M136.7,138.7c-0.1,19.9-0.1,39.7-0.1,59.6c0,21.2,0.1,42.6,0,63.7c0,0.1,0.1,0.2,0.1,0.2
						c1.1,0.1,2.3-0.1,3.4,0c2.8,0.1,5.8,0.1,8.7,0.1c7.9,0,15.8,0,23.8,0c13.3,0,26.6,0,39.9,0c0.5,0,1.1-0.1,1.6,0
						c0.4,0.1,0.8,0.1,1.2,0.1c1.8,0.1,3.6-0.2,5.2-1c3.2-1.6,5.2-4.5,6.5-7.7c0.9-2.1,1.3-4.5,1.6-6.8c0.5-4.2,0.3-8.3,0.3-12.4
						c-0.1-17.9-0.1-35.8-0.1-53.6c0-6.6,0-13.2,0-19.7c0-1.9,0.1-3.7,0-5.6c-0.1-2.6-0.9-5.2-1.9-7.6c-1.9-4-4.9-7.2-8.8-9.2
						c-2.6-1.3-5.7-1.7-8.5-2.5c-2.8-0.7-5.6-1.3-8.5-2.1c-7.2-1.9-14.4-3.7-21.6-5.7c-5.5-1.5-11-3-16.5-4.5
						c-0.3-0.1-0.6-0.2-0.9-0.2c-0.4-0.1-0.5,0-0.9,0.1c-1.5,0.1-3,0.4-4.4,0.5c-4.7,0.7-9.6,1.8-13.7,4.2c-1.5,0.9-3,1.9-4.1,3.3
						c-0.7,0.8-1.4,1.9-1.7,3c-0.4,1.2-0.5,2.3-0.6,3.6c0,0.1,0.5,0.3,0.5,0.1c0.1-0.6,0.2-1.1,0.4-1.7c0.1-0.9,0.3-1.7,0.8-2.4
						c0.1-0.2,0.2-0.5,0.4-0.7c0.9-1.4,2.3-2.6,3.8-3.3c0.9-0.7,1.9-1.3,2.8-1.9c0.6-0.2,1.1-0.5,1.7-0.7c0.9-0.4,1.8-0.6,2.7-0.9
						c3.6-1,7.1-1.6,10.7-1.9c0.6-0.1,1.5-0.3,2.1-0.1c0.8,0.2,1.5,0.5,2.3,0.7c4.6,1.3,9.1,2.5,13.7,3.7
						c11.4,3.1,22.7,6.3,34.2,8.9c4.3,1,8.4,2.9,11.2,6.4c0.8,1,1.6,2.2,2.1,3.4c0.4,0.9,0.8,1.7,1.1,2.7c0.4,1.3,0.8,2.6,0.9,3.9
						c0.2,1.3,0.1,2.8,0.1,4.1c0,5.1,0,10,0,15.1c0.1,15.6,0,31.4,0,47c0,6.5,0,13,0.1,19.4c0,1.9,0,3.7-0.1,5.7
						c-0.1,0.4-0.1,1-0.1,1.3c-0.3,1.5-0.6,3.1-0.9,4.6c-0.6,2-1.4,3.9-2.6,5.7c-1.5,2.2-3.7,3.9-6.3,4.6c-0.4,0.1-0.8,0.1-1.2,0.2
						c-0.6,0.1-1.2,0.2-1.9,0.2c-0.4,0-0.7-0.1-1.1-0.1c-0.4-0.1-0.6-0.1-0.9-0.1c-12.5,0-25,0-37.5,0c-7.7,0-15.4,0-23.1,0
						c-3.1,0-6.2,0.1-9.3,0.1c-1.4,0-2.8,0.1-4.3,0.1c-0.8,0-1.6,0-2.4-0.2c0.1,0.1,0.1,0.1,0.1,0.2c0-20.6,0-41.1,0-61.8
						c0-20.5-0.1-41.1,0.1-61.7C136.9,138.6,136.7,138.4,136.7,138.7z"/>
					<path class="st0" d="M137,138.9c-0.1,41.1,0.1,82.3,0,123.4c0,0.1,0.1,0.1,0.1,0.1c10.2,0.1,20.4,0.1,30.7,0.1
						c14.3,0,28.5,0,42.8,0c1.1,0,2.2-0.1,3.3,0c0.5,0.1,0.9,0.1,1.4,0.1c2,0.1,4-0.4,5.8-1.3c3.5-1.9,5.6-5.5,6.6-9.3
						c0.9-3,1.1-6,1.2-9.1c0.1-4.2,0-8.3,0-12.4c0-17.4,0-34.9,0-52.4c0-5.8,0-11.6,0-17.4c0-1.6,0.1-3.3,0-4.9
						c-0.5-6.9-4.4-13.6-10.7-16.2c-1.4-0.7-2.9-1.1-4.4-1.5c-2.5-0.7-5-1.1-7.5-1.7c-7.1-1.7-14.2-3.7-21.3-5.5
						c-6.3-1.7-12.6-3.4-18.9-5.2c-0.8-0.2-1.6-0.4-2.4-0.7c-0.4-0.1-0.9-0.4-1.4-0.4c-0.6-0.1-1.4,0.1-2.1,0.2
						c-4.6,0.4-9.2,1.2-13.5,2.9c-2.3,0.9-4.4,2-6.3,3.6c-0.8,0.7-1.6,1.6-2.3,2.5c-0.2,0.5-0.5,1-0.8,1.5c-0.4,1.1-0.6,2.3-0.6,3.4
						c-0.1,0.3,0.5,0.1,0.6-0.1c0.1-1.1,0.1-2.2,0.6-3.3c0.4-0.7,0.7-1.4,1.2-2c1.2-1.6,2.8-2.8,4.6-3.7c3.9-2.2,8.5-3.1,12.9-3.8
						c1.5-0.2,2.9-0.4,4.4-0.5c0.5-0.1,1.1-0.1,1.5-0.1c0.6,0.1,1.2,0.4,1.9,0.5c2.1,0.6,4.2,1.1,6.3,1.7
						c12.2,3.4,24.5,6.7,36.9,9.8c1.1,0.3,2.1,0.5,3.3,0.8c0.4,0.1,0.6,0.1,1.1,0.2c1.7,0.3,3.3,0.9,4.9,1.7c1,0.4,2,0.8,3,1.3
						c0.5,0.4,1.1,0.7,1.6,1.1c0.9,0.7,1.9,1.6,2.6,2.5c2.1,2.7,3.3,5.7,4,9.1c0.2,0.8,0.4,1.7,0.4,2.6c0,0.6-0.1,1.2-0.1,1.8
						c0,5.2,0,10.4,0,15.6c0.1,16.8,0,33.6,0,50.4c0,3.6-0.1,7.2-0.1,10.8c0,3.1,0.1,6.3-0.1,9.5c-0.4,4.8-1.2,9.7-4.3,13.5
						c-1.6,2.1-4.1,3.4-6.7,3.8c-1.4,0.2-2.6,0.1-3.9,0c-1.5-0.1-3.1-0.1-4.6-0.1c-2.9,0-5.9,0-8.8,0c-8.1,0.1-16.2,0-24.3,0
						c-8.1,0-16.3-0.1-24.4-0.1c-2.9,0-5.8,0-8.8-0.1c-1.6-0.1-3.4,0.2-5.1,0c0.1,0.1,0.1,0.1,0.1,0.1c0.1-20.6,0-41.1,0-61.7
						s-0.1-41.1,0.1-61.7C137.5,138.3,137,138.7,137,138.9z"/>
					<path class="st0" d="M136.9,138.6c0.1,41.1,0,82.3,0,123.4c0,0.1,0.1,0.3,0.1,0.3c0.1-0.1,0.2-0.1,0.4-0.2
						c-0.1,0.1-0.2,0.1-0.2,0.1c1.6,0.2,3.1,0.1,4.7,0.1c2.8,0,5.7,0,8.5,0c8,0,16.1,0,24.1,0c12.9,0,25.8,0,38.7,0
						c1,0,2,0.2,3.1,0.1c2.3-0.1,4.7-0.9,6.6-2.3c3.3-2.6,4.9-6.6,5.8-10.7c0.6-2.8,0.7-5.7,0.7-8.6c0-3.7,0-7.3,0-11
						c0-18.5,0-37,0-55.4c0-5.5,0-11,0-16.5c0-1.3,0.1-2.6-0.1-3.9c-0.4-3.3-1.6-6.5-3.4-9.3c-2.5-3.7-6.4-6.1-10.6-7.3
						c-2.4-0.7-4.9-1.1-7.4-1.7c-3.4-0.8-6.8-1.6-10.2-2.5c-7.1-1.9-14.2-3.7-21.3-5.7c-3.1-0.8-6-1.6-9.1-2.5
						c-0.9-0.2-1.9-0.5-2.7-0.7c-0.6-0.1-1.2-0.4-1.9-0.5c-0.6-0.1-1.5,0.1-2.1,0.2c-2.1,0.2-4.3,0.5-6.3,1
						c-3.3,0.7-6.7,1.6-9.7,3.1c-2.3,1.1-4.6,2.8-6,5.1c-0.2,0.4-0.6,1.1-0.8,1.6c-0.5,1.2-0.5,2.3-0.6,3.6c0,0.1,0.2,0,0.2-0.1
						c0.4-1,0.9-2,1.3-3.1c0.2-1.6,0.8-2.8,1.9-3.6c0.6-0.6,1.3-1.1,2-1.6c0.5-0.3,1.1-0.7,1.5-1c2.3-0.9,4.6-1.7,6.9-2.6
						c0.9-0.2,1.8-0.4,2.7-0.7c2.9-0.6,5.9-1,8.8-1.1c0.4,0,0.4,0,0.8,0.1c1.1,0.4,2.3,0.7,3.4,1c5,1.3,10,2.8,14.9,4.1
						c5.9,1.6,11.7,3.1,17.6,4.7c2.6,0.7,5.1,1.3,7.6,1.9c2.8,0.7,5.8,1.3,8.6,2.2c0.4,0.1,0.8,0.2,1.1,0.4c1.9,1,3.6,2,5.4,3
						c0.7,0.6,1.4,1.2,2,1.9c1.3,1.4,2.3,3.1,3.1,4.8c0.5,1.3,0.9,2.5,1.3,3.9c0.3,1.1,0.6,2.5,0.6,3.8c-0.1,7.3-0.1,14.6-0.1,21.8
						c0,15.8,0,31.7,0,47.5c0,3.6,0,7.2,0,10.7c0,1.3,0,2.5,0,3.8c0,0.4,0,0.8,0,1.2c-0.1,1.9-0.2,3.9-0.3,5.7
						c-0.5,4.2-1.7,8.9-4.8,11.8c-2.1,2-4.6,3.1-7.5,3.1c-0.6,0-1.1-0.1-1.6-0.1c-0.7-0.1-1.5,0-2.1,0c-13.1,0-26.2,0-39.4,0
						c-7.5,0-14.9,0-22.4,0c-2.8,0-5.6,0.1-8.3,0.1c-0.8,0-1.6,0-2.4,0s-1.9,0.1-2.7-0.1c0.1,0.1,0.1,0.2,0.1,0.3
						c0-41.1,0.1-82.3,0-123.4C137,138.8,136.9,138.5,136.9,138.6z"/>
					<path class="st0" d="M136.3,139c-0.1,41.1,0,82.3,0,123.4c0,0.1,0.1,0.1,0.1,0.1c1.1-0.1,2.3-0.1,3.5-0.1
						c3,0.1,5.9,0.1,8.8,0.1c8.3-0.1,16.7,0,25.1,0c8.7,0,17.4,0,26,0c2.9,0,5.8,0,8.8,0c1.6,0,3.3-0.1,4.9,0
						c0.9,0.1,1.6,0.2,2.6,0.1c1.1-0.1,2.2-0.3,3.2-0.7c5.1-1.9,7.5-7.2,8.7-12.1c0.8-3.6,0.7-7.3,0.7-11c0-3.4-0.1-6.7-0.1-10.1
						c-0.1-10-0.1-20-0.1-30c0-14.2,0.1-28.3,0-42.4c0-1.6-0.4-3.3-0.8-4.8c-1.2-4.3-3.7-8.1-7.3-10.7c-2.5-1.7-5.2-2.7-8.2-3.3
						c-3-0.7-6-1.4-9-2.2c-8-2-16.1-4.2-24.1-6.3c-5.6-1.5-11.3-3.1-16.9-4.6c-0.6-0.1-0.8-0.2-1.4-0.1c-1.3,0.1-2.6,0.2-3.8,0.4
						c-4.3,0.6-8.9,1.4-12.9,3.3c-2.6,1.3-5.3,2.9-6.9,5.4c-0.3,0.4-1,2.2-0.8,1.5c-0.5,1.4-0.5,2.1-0.6,3.6c0,0.2,1,0.1,1-0.1
						c0.1-0.6,0.1-1.1,0.2-1.7c0.7-1.4,1.5-2.9,2.2-4.3c0.6-0.9,1.6-1.6,2.6-2.2c2.3-1.6,5-2.6,7.5-3.3c3.5-1,7-1.6,10.6-1.9
						c0.6-0.1,1.4-0.2,2.1-0.1c0.4,0.1,0.9,0.3,1.2,0.4c0.8,0.2,1.6,0.4,2.4,0.7c2.9,0.8,5.8,1.6,8.8,2.4c7.5,2,14.9,4,22.5,6
						c3.3,0.9,6.8,1.7,10.1,2.5c3.1,0.8,6.5,1.3,9.5,2.5c3,1.1,5.6,3.1,7.5,5.7c1.4,1.8,2.4,3.9,3.1,6c0.6,2,0.9,4.2,0.9,6.3
						c0,5.8,0,11.7,0,17.6c0,19.4-0.1,38.9,0.1,58.3c0.1,7.1,0.8,14.6-2,21.4c-1.9,4.7-7.5,8.6-12.5,7.8c-0.9-0.1-1.9,0-2.8,0
						c-16.2,0-32.2,0-48.4,0c-6.9,0-13.7,0.1-20.6-0.1c-1-0.1-2-0.1-3-0.1c-0.6-0.1-1.2-0.1-1.9-0.2c-0.1-0.1-0.2-0.1-0.4-0.1
						c0-0.4,0-0.7,0-1c0-1.3,0-2.8,0-4.2c0.1-39.3-0.2-78.7,0-118C137,138.4,136.3,138.8,136.3,139z"/>
					<path class="st0" d="M137,139c0.1,41.1,0,82.3,0,123.4c0,0,0,0.1,0.1,0.1c0.9,0.4,2.3,0.1,3.3,0.1c2.6-0.1,5.2-0.1,7.8-0.1
						c7.8,0,15.6,0,23.3,0c13.7,0,27.3,0,40.9,0c0.9,0,1.6,0,2.6,0.1c0.5,0.1,1,0.1,1.5,0.1c2.2-0.1,4.3-0.8,6.2-2
						c3.6-2.5,5.5-6.8,6.3-11c0.7-3.6,0.7-7.3,0.6-11c-0.1-3.9-0.1-7.8-0.1-11.7c-0.1-18.3-0.1-36.8-0.1-55.2c0-4.9,0-9.8,0-14.6
						c0-1.6-0.1-3.1-0.5-4.6c-0.5-2.1-1.2-4-2.3-5.9c-1.1-2-2.8-3.9-4.6-5.3c-2.7-2-5.8-3.1-9-3.8c-6-1.3-12.1-3-18.1-4.5
						c-7-1.9-13.9-3.7-20.9-5.6c-2.8-0.7-5.5-1.5-8.3-2.3c-0.7-0.2-1.4-0.4-2.2-0.6c-0.3-0.1-0.6-0.3-0.9-0.3
						c-0.6-0.1-1.4,0.1-2,0.1c-1.6,0.1-3.2,0.4-4.8,0.6c-4.6,0.8-9.3,1.9-13.2,4.4c-1.8,1-3.3,2.5-4.4,4.2c-1,1.6-1.2,3.3-1.3,5.1
						c0,0.1,0.1-0.2,0.1-0.2c0.2-0.8,0.5-1.6,0.7-2.5c0.1-1.3,0.4-2.3,1.2-3.1c0.2-0.2,0.4-0.4,0.5-0.7c1.9-2,4.1-3.4,6.7-4.2
						c1.5-0.7,2.8-1.1,4.3-1.6c0.9-0.2,1.8-0.4,2.7-0.7c2.9-0.6,5.9-1,8.8-1c0.6,0,1.1,0.2,1.9,0.4c1.4,0.4,2.7,0.7,4.1,1.1
						c5.3,1.4,10.7,3,15.9,4.3c5.9,1.6,11.7,3.1,17.6,4.7c2.8,0.7,5.6,1.4,8.5,2.2c2.4,0.7,5,1.1,7.3,2.1c2.1,1,4.1,2.2,5.8,3.9
						c1.2,1.3,1.7,2.3,2.7,4c0.9,1.6,1.5,2.5,1.9,4c0.5,1.6,1,3.6,0.9,5.4c0,0.2-0.1,0.4-0.1,0.6c-0.1,0.5,0,1,0,1.5
						c0,1.6,0,3.3,0,4.9c0,6.5,0,13,0,19.5c0,15.8,0,31.6,0,47.4c0,3.2,0,6.4,0,9.6c0,2.8-0.1,5.5-0.5,8.3
						c-0.6,4.1-2.1,8.3-5.3,11.1c-2.1,1.8-4.8,2.7-7.5,2.6c-0.4,0-0.7-0.1-1.1-0.1c-0.9-0.1-2-0.1-2.9-0.1c-14,0-28,0-41.9,0
						c-7.2,0-14.4,0-21.6,0.1c-3.6,0-7.2-0.1-10.8,0.3c0.1,0.1,0.2,0.1,0.3,0.1c0-41.1,0-82.3,0-123.4C137.4,139,137,139,137,139z"
						/>
				</g>
			</g>
		</g>
	</g>
	<g>
		<g>
			<path d="M137.3,50.7c-38.1,0-34.6,19.7-34.6,44s15.5,44,34.6,44s34.6-19.7,34.6-44S181.9,50.7,137.3,50.7z"/>
			<g>
				<g>
					<path class="st0" d="M137,50.4c-10.5,0.2-23.8,1-30.3,10.7c-2.3,3.5-3.4,7.7-4,11.8c-0.7,5.7-0.5,11.5-0.4,17.1
						c0.1,3,0,6,0.2,9c0.2,4.6,1.2,9.3,2.7,13.6c1.7,5.1,4.3,10.1,7.6,14.2c4.1,5.1,9.1,9.1,15.2,11.3c5.5,2,11.4,2.2,17,0.7
						c13.6-3.7,22.6-16.7,26-30c1.2-4.6,1.6-9.3,1.7-14.1c0.1-2.3,0.1-4.6,0.2-6.9c0.3-4.9,0.8-9.8,0.7-14.8
						c-0.1-3.6-0.5-7.2-2-10.5c-1-2.2-2.4-4.1-4.3-5.6c-2.8-2.3-6.2-3.7-9.7-4.6c-6.7-1.8-13.6-2-20.5-2.2
						C137.2,50.3,137,50.5,137,50.4c3.8,0.1,7.7,0.1,11.5,0.5c1.1,0.1,2.1,0.2,3.3,0.4c2.7,0.3,5.3,1,7.7,2.1c2.1,0.3,3.9,1,5.6,2.2
						c0.9,0.5,1.6,1,2.3,1.7c1.5,2.3,3.1,4.6,4.6,7c0.3,0.8,0.5,1.6,0.6,2.5c0.6,3.4,0.7,6.9,0.6,10.3c-0.1,3.6-0.5,7.2-0.6,10.8
						c-0.3,4.8-0.1,9.5-0.7,14.2c-0.8,6.1-2.7,12.1-5.6,17.6c-2.4,4.5-5.6,8.6-9.4,11.8c-5.3,4.6-12.3,7.8-19.4,7.5
						c-4.8-0.1-9.3-1.3-13.5-3.4c-4.3-2.2-8-5.7-11.1-9.5c-5.1-6.3-8.1-14.2-9.4-22.1c-0.8-5.1-0.7-10.3-0.8-15.5
						c-0.1-4.5-0.2-9,0.2-13.4c0.4-4.2,1.1-8.3,3-12c1.5-3.1,4.1-5.5,6.9-7.4c2.1-1.3,4.6-2.3,6.9-3c5.6-1.6,11.4-1.9,17.2-2
						C137,50.7,137,50.4,137,50.4z"/>
					<path class="st0" d="M136.8,50.4c-10.5,0.2-23.8,1-30.5,10.7c-2.6,3.8-3.6,8.4-4.1,13c-0.6,5.3-0.4,10.7-0.4,16
						c0.1,3-0.1,6,0.2,9c0.2,3.5,0.8,7,1.7,10.4c0.9,3.7,2.4,7.3,4.3,10.7c1.7,3.2,3.8,6.3,6.3,8.9c3.4,3.6,7.3,6.6,11.9,8.4
						c5.8,2.4,12.2,2.8,18.2,1.1c11.2-3.1,19.6-12.6,24-23.3c1.9-4.8,3.1-9.8,3.6-15c0.4-3.4,0.2-6.7,0.4-10.1
						c0.1-2.2,0.2-4.5,0.4-6.7c0.3-4,0.6-8.1,0.4-12.1c-0.2-3.9-1.1-8.3-3.6-11.5c-2.5-3.2-6-5.2-9.7-6.6
						C152.5,50.7,144.6,50.4,136.8,50.4c-0.3,0,0.1,0.5,0.4,0.5c6.8,0.1,13.7,0.2,20.2,2.1c3.7,1,7.3,2.5,10.2,5.2
						c4.8,4.6,5.4,11.6,5.3,18c-0.1,3.9-0.5,7.8-0.6,11.7c-0.4,5.8,0.1,11.7-1.2,17.6c-0.9,3.3-1.9,6.5-2.8,9.8
						c-0.6,1.5-1.3,3-2.1,4.4c-1.2,2.3-2.6,4.5-4.2,6.6c-2.4,3.1-5.3,5.8-8.6,8c-2.3,1.5-5,2.9-7.6,3.6c-0.9,0.2-1.9,0.5-2.7,0.7
						c-1.9,0.4-3.7,0.6-5.6,0.4c-1.9,0.1-3.8,0-5.6-0.4c-1.4-0.2-2.7-0.7-4-1.1c-6.9-2.5-12.5-7.5-16.7-13.6
						c-3.3-4.9-5.6-10.6-6.9-16.4c-0.8-3.4-1.2-6.9-1.3-10.4c-0.1-2.4-0.1-4.8-0.1-7.2c-0.1-4.9-0.2-9.8,0.3-14.8
						c0.4-3.5,0.9-7,2.3-10.2c5.2-12.4,20.5-13.6,31.9-13.7C137.6,50.8,137,50.3,136.8,50.4z"/>
					<path class="st0" d="M136.6,49.5c-11.1,0.2-25.4,1.2-31.3,12.6c-2.3,4.5-3,9.7-3.3,14.8c-0.3,5.9-0.1,11.8,0,17.9
						c0.1,8.1,1.6,16.1,5.3,23.3c1.9,3.9,4.3,7.4,7.2,10.5c4.6,4.9,10.5,8.6,17.1,9.9c5.7,1.1,11.6,0.5,16.9-1.7
						c6.4-2.8,11.7-7.7,15.7-13.6c3.7-5.5,6-11.8,7.3-18.4c1.2-6.6,0.9-13.3,1.3-20c0.3-4.8,0.8-9.6,0.5-14.4
						c-0.3-4.1-1.1-8.1-3.6-11.6c-2.3-3.1-5.4-5-8.8-6.3c-7.6-3-16-3.1-24.1-3.2c-0.4,0,0.2,1,0.4,1c5.9,0.1,11.7,0.3,17.6,1.4
						c3.8,0.8,7.5,2,10.7,4.2c3.6,2.3,5.8,6.2,6.8,10.4c0.6,3.1,0.7,6.1,0.6,9.3c-0.1,3.6-0.4,7.1-0.6,10.7c-0.2,4.5-0.1,9-0.5,13.4
						c-0.6,7.2-2.6,14.5-6.2,20.6c-2.6,4.3-5.6,8.5-9.6,11.6c-3.7,3-8,5.4-12.7,6.3c-0.9,0.1-1.9,0.4-2.8,0.5
						c-7,1.2-12.9-1.3-17.8-7.5c-7.3-2-12.5-6.4-15.2-13.1c-0.4-1-0.9-2-1.4-3c-2.1-5.3-3.3-11-3.8-16.7c-0.2-2.5-0.1-5.1-0.1-7.6
						c0-2.2-0.1-4.4-0.1-6.6c0-7.5,0.1-15.9,4.3-22.6c6.3-10.2,20-11,30.6-11.2C137.5,50.5,136.8,49.5,136.6,49.5z"/>
					<path class="st0" d="M137.1,50.3c-11.6,0.2-27,1.4-32.2,14.1c-1.9,4.5-2.4,9.2-2.6,13.9c-0.2,4.6-0.1,9.3,0,13.9
						c0.1,3.9,0.1,7.8,0.8,11.6c0.6,3.9,1.6,7.8,3.1,11.5c1.2,3,2.7,5.8,4.6,8.6c2.8,4.2,6.4,7.8,10.5,10.6
						c5.6,3.7,12.4,5.5,19.1,4.8c6.7-0.7,13-3.9,17.9-8.6c4.6-4.4,8-9.7,10.4-15.6c1.7-4.2,2.8-8.8,3.4-13.3
						c0.4-3.1,0.4-6.4,0.4-9.6c0.1-5.1,0.6-10.2,0.8-15.4c0.1-3.7,0.1-7.5-0.8-11.2c-0.8-3.4-2.7-6.4-5.3-8.7
						c-2.1-1.8-4.7-3.1-7.3-3.9c-7.3-2.5-15.2-2.8-22.8-2.8c-0.4,0-0.1,0.6,0.1,0.6c6.7,0.1,13.6,0.2,20.1,2.2
						c0.8,0.2,1.6,0.5,2.4,0.7c1.6,0.5,3.2,1.3,4.6,2.4c1.4,0.7,2.7,1.6,3.7,2.8c0.6,0.6,1.1,1.3,1.5,2c3.7,5.7,3.2,13,2.8,19.4
						c-0.2,4-0.6,8.1-0.6,12.1c-0.1,3.1-0.1,6.3-0.5,9.5c-0.5,3.4-1.1,6.7-2.3,10c-1.8,5.1-4.1,9.8-7.4,13.9
						c-1.9,2.3-3.9,4.4-6.2,6.3c-2.1,1.7-4.7,3.3-7.3,4.3c-2.1,0.9-4.4,1.5-6.7,1.9c-2.8,0.4-5.6,0.4-8.4,0c-5.1-0.8-10-3.1-14-6.3
						c-8.6-6.8-13.8-17.7-15.5-28.5c-0.9-5.5-0.7-11.2-0.8-16.8c-0.1-5.4-0.2-11.1,0.9-16.5c0.6-3.3,1.8-6.4,3.6-9.3
						c2.4-3.6,6.3-6.1,10.3-7.5c6.3-2.2,13-2.6,19.6-2.7C137.6,50.9,137.3,50.3,137.1,50.3z"/>
					<path class="st0" d="M137,49.7c-10.5,0.1-23.8,1-30.4,10.8c-4.1,6.2-4.5,14.1-4.6,21.3c0,3.4,0.1,6.9,0.1,10.2
						c0,2.2,0,4.2,0.1,6.3c0.3,4.6,1.2,9.2,2.7,13.6c3.9,12,13,23.2,25.5,26.2c6.6,1.6,13.5,0.9,19.6-2.2c5.4-2.6,9.8-6.7,13.4-11.6
						c4.6-6.3,7.3-13.7,8.5-21.5c0.5-3.1,0.6-6,0.7-9.2c0.1-4.2,0.3-8.3,0.6-12.4c0.5-7.7,1.5-17.1-3.9-23.4
						c-2.2-2.6-5.1-4.2-8.3-5.4c-7.6-2.8-16-3-24-3.1c-0.2,0-0.1,0.8,0.2,0.8c5.9,0.1,11.8,0.4,17.6,1.5c4.8,1,10,2.8,13.5,6.6
						c4.6,4.9,4.8,11.9,4.6,18.3c-0.1,3.6-0.5,7.2-0.6,10.7c-0.2,4.7,0,9.5-0.6,14.1c-0.8,5.5-2.2,11.1-4.6,16.1
						c-2.3,4.5-5.2,9-8.9,12.4c-1.5,1.2-3,2.4-4.4,3.6c-0.8,0.5-1.6,1-2.4,1.5c-2.3,1.3-5.2,2.5-7.9,3.1c-4.6,1-9.5,1-14-0.5
						c-10.2-3.1-17.9-11.3-22.3-20.9c-4.8-10.4-4.8-22.5-4.8-33.8c0-4.3,0.1-8.7,0.9-12.9c0.2-1,0.5-2,0.8-3.1
						c0.4-1.6,1.2-3.1,2.3-4.5c0.7-1.9,1.9-3.6,3.4-4.9c0.5-0.4,1.1-0.9,1.6-1.3c1.6-1.1,3.3-2,5.1-2.8c6.6-2.8,13.7-3.1,20.8-3.1
						C137.5,50.4,137.2,49.7,137,49.7z"/>
					<path class="st0" d="M136.3,50.1c-11.1,0.2-25.6,1.1-31.6,12.5c-1.6,3.1-2.4,6.6-2.8,10.1c-0.6,5.7-0.4,11.4-0.4,17.1
						c0.1,3,0,6,0.2,9c0.2,3.5,0.8,7,1.7,10.4c1.4,5.3,3.7,10.4,6.8,14.9c3.9,5.7,9.3,10.7,15.7,13.2c4.6,1.8,9.3,2.6,14.2,2.1
						c10.8-1.1,20.1-8.9,25.4-18.3c3.3-6,5.5-12.4,6.3-19.2c0.6-4.8,0.4-9.5,0.6-14.2c0.3-5.5,1-11.1,0.6-16.6
						c-0.2-3.5-0.9-7-2.7-10.1c-2-3.3-5.2-5.6-8.7-7.2c-3.3-1.4-6.8-2.2-10.3-2.8c-4.9-0.7-9.9-0.9-14.9-1c-0.4,0,0.2,0.6,0.4,0.6
						c5.4,0.1,10.8,0.2,16.2,1.1c3.6,0.7,7.2,1.6,10.5,3.3c1.7,0.9,3,1.9,4.3,3.3c1.2,1.2,2.1,2.5,2.8,4c1.3,3,1.9,6.1,1.9,9.3
						c0.2,6.4-0.6,12.7-0.8,19.1c-0.1,1.1-0.1,2.3-0.1,3.6c-0.5,4.7-1.1,9.4-1.6,14c-0.5,2.2-1.2,4.3-2.1,6.4
						c-2.6,6.7-7,13.6-12.7,17.8c-3.5,2.6-7.2,4.7-11.5,5.8c-1.9,0.6-3.7,0.8-5.7,0.6c-1.9,0.4-3.8,0.4-5.7-0.1
						c-5.1-0.8-10-3.1-14-6.4c-10.1-8-15.3-21.1-16.2-33.9c-0.2-2.5-0.1-5.1-0.1-7.6c0-2.2-0.1-4.3-0.1-6.5c0-0.8,0-1.6,0-2.5
						c1.2-6.4,2.3-12.8,3.6-19.2c0.8-1.4,1.8-2.8,2.9-4c2.3-2.5,5.3-4.2,8.5-5.4c6.3-2.3,13-2.6,19.6-2.8
						C137.4,50.7,136.5,50,136.3,50.1z"/>
					<path class="st0" d="M137.3,50.1c-7.9,0.1-16.2,0.5-23.3,4.4c-4.1,2.2-7.3,5.6-9,10c-1.6,4-2.3,8.3-2.4,12.6
						c-0.3,6-0.1,12-0.1,17.9c0.1,5.9,0.9,11.7,2.8,17.3c3.9,11.6,12.3,22.1,24.1,25.8c6.5,1.9,13.5,1.5,19.7-1.1
						c5.5-2.3,10.2-6.3,13.9-11c4.7-6,7.8-13.4,9.3-20.9c1.2-6.6,0.9-13.3,1.2-20c0.3-4.8,0.8-9.6,0.5-14.4c-0.2-3-0.7-5.9-2-8.6
						c-2-4.1-5.5-6.7-9.5-8.5c-3.3-1.4-6.8-2.2-10.2-2.7c-4.9-0.7-9.8-0.8-14.8-1c-0.2,0-0.2,0.2,0,0.2c5.9,0.1,11.9,0.3,17.6,1.6
						c3.7,0.8,7.6,2,10.8,4.3c3.3,2.4,5.6,5.6,6.5,9.7c0.6,3,0.9,6,0.8,9.2c-0.1,3.1-0.3,6.3-0.5,9.5c-0.3,4-0.4,8-0.5,12.1
						c-0.4,11.1-3.9,22.1-11,30.6c-1.6,1.9-3.3,3.7-5.3,5.2c-0.8,0.6-1.5,1.1-2.3,1.7c-1.6,0.9-3.3,1.8-4.8,2.7
						c-4.3,1.9-9.2,2.6-13.8,2.2c-1.4-0.1-2.8-0.4-4.1-0.7c-1.4-0.3-2.7-0.7-3.9-1.3c-1.8-0.6-3.5-1.4-5-2.5
						c-0.8-0.5-1.6-1.1-2.3-1.6c-3.9-3.1-7.3-7-9.8-11.3c-3-5.2-5.1-11.1-6.1-17.1c-0.5-3-0.7-5.9-0.8-8.9c-0.1-4.3-0.2-8.7-0.1-13
						c0-3.9,0.1-7.8,0.8-11.6c0.4-2.9,1.2-5.6,2.6-8.2c0.4-0.6,0.7-1.1,1.1-1.7c6.3-9.3,19.3-10.4,30.2-10.5
						C137.3,50.3,137.5,50.1,137.3,50.1z"/>
				</g>
			</g>
		</g>
	</g>
	<g>
		<g>
			<path d="M155.4,29c1.3-2.5,2.1-5.4,2.1-8.4c0-10.7-9-19.3-19.9-19.3s-19.9,8.6-19.9,19.3c0,3,0.7,5.7,1.9,8.2
				c-62.6,31.4-15.2,76.6-15.2,76.6V71.4h32.7H170v34.1C170,105.5,217.2,60.4,155.4,29z"/>
			<g>
				<g>
					<path class="st0" d="M156.2,29.3c0.6-1.3,1.1-2.6,1.5-4s0.5-3.1,0.5-4.5c0-2.3-0.4-4.6-1.3-6.7c-1.3-3.1-3.2-5.9-5.8-8.1
						c-2.8-2.5-6.4-4-10.1-4.6c-6.5-1-13.2,0.9-17.9,5.5c-2.6,2.6-4.6,6-5.4,9.6c-0.4,1.9-0.6,3.8-0.4,5.7c0.2,2.6,0.9,5,2,7.3
						c0.1-0.2,0.1-0.4,0.2-0.5c-3.8,2-7.8,4.2-11.4,6.6c-3.1,2-6,4.3-8.7,6.9c-3.6,3.4-6.7,7.4-9,11.8C86.6,61.6,86,70.4,88,78.4
						c1.6,6.6,4.7,12.7,8.5,18.3c1.6,2.5,3.4,4.8,5.4,6.9c0.9,1,1.7,2,2.7,2.8c0.1,0.1,0.2-0.1,0.2-0.1c0.2-2.2,0.2-4.6,0.2-6.9
						c0.1-3.8,0.1-7.5,0.1-11.4c0.1-5.7,0.1-11.4,0.1-17.1c-0.1,0-0.1,0.1-0.2,0.1c0.2,0.1,0.5,0.1,0.8,0.2c1.1,0.2,2.2,0.3,3.3,0.4
						c3.8,0.3,7.6,0.2,11.5,0.4c5.8,0.1,11.5,0.1,17.4,0.1c11,0.1,21.8,0,32.8,0c-0.2-0.3-0.4-0.5-0.6-0.8c-0.2,1.9-0.2,4-0.2,6
						c-0.1,3.4-0.1,7-0.1,10.4c-0.1,6-0.1,12.1-0.1,18c0,0.1,0.1,0.1,0.2,0.1c1.1-0.7,2.1-1.9,3.1-2.8c2.5-2.5,4.6-5.4,6.5-8.3
						c4-6.1,7.1-13,8.2-20.3c0.8-5.5,0.4-11.2-1.4-16.5c-1.2-3.6-3-6.8-5.2-9.8c-6.5-8.9-15.8-14.8-25.3-19.9c-0.1,0-0.4-0.1-0.2,0
						c11.7,5.7,21.5,14.4,29.2,26.1c0.7,1.6,1.4,3.2,1.9,4.9c0.6,2.3,1.1,4.8,1.2,7.2c0.6,8.7-2.3,17.4-6.6,24.9
						c-2,3.4-4.3,6.7-6.8,9.7c-0.9,1-1.9,2.2-3,3.2c-0.4,0.4-0.9,0.9-1.4,1.1c0.1,0.1,0.1,0.1,0.2,0.1c0-4.6,0-9.2,0.1-13.7
						c0-3.2,0-6.5,0.1-9.7c0-2.1,0.1-4.2,0.1-6.3c0-0.4,0.1-0.8,0.1-1.2c0-0.8,0.1-1.6,0.6-2.4c0.2-0.1-0.5-0.9-0.6-0.9
						c-10.9,0-21.7,0-32.7,0c-4.8,0-9.5,0-14.3-0.1c-3.7,0-7.5,0-11.2,0c-1.5,0-3,0-4.4-0.1c-0.8-0.1-1.7,0.1-2.4-0.3
						c-0.1,0-0.2,0-0.2,0.1c0,5.7,0,11.4-0.1,17.1c0,3.9,0,7.6-0.1,11.6c-0.1,1.9,0.1,4-0.4,6c0.1-0.1,0.1-0.1,0.2-0.1
						c-1.9-2-3.8-4-5.5-6.3c-4.4-5.7-8-12.1-10.1-19.2c-0.9-3.1-1.5-6.4-1.6-9.6c-0.1-1.9,0-3.8,0.2-5.7c0.1-1.1,0.4-2.3,0.6-3.4
						c0.9-2.3,1.7-4.7,2.6-7c1.1-2.1,2.3-4,3.7-6c0.9-1.3,1.9-2.5,3-3.4c1.4-1.7,3-3.2,4.7-4.6c1.9-1.6,3.9-3.1,6-4.5
						c3.6-2.5,7.5-4.3,11.3-6.3c0.1-0.1,0.2-0.4,0.2-0.5c-1.1-2.7-2-5.2-2-8.2c-0.1-3,0.6-5.9,1.9-8.6c2.3-4.6,6.3-8.3,11.1-10.1
						c2.2-0.8,4.5-1.3,6.8-1.3c2.4,0.4,4.7,0.7,7.1,1.1c2.8,0.9,5.5,2.6,7.5,4.7c1.5,1.6,2.8,3.3,3.8,5.3c1.4,2.8,2,5.6,2,8.6
						s-0.7,5.7-2.1,8.3C155.7,29.3,156.1,29.5,156.2,29.3z"/>
					<path class="st0" d="M155.8,29.1c0.8-1.7,1.4-3.3,1.7-5.1c0.4-1.9,0.4-3.7,0.2-5.7c-0.4-3.7-2-7.2-4.4-10.1
						c-4.9-5.9-13.2-8.7-20.6-6.9c-5.5,1.3-10.3,4.8-13.2,9.8c-1.9,3.3-2.8,7.1-2.6,10.9c0.2,2.7,0.9,4.9,2,7.3
						c0.2-0.2,0.4-0.4,0.5-0.6c-7.2,3.9-14.4,7.8-20.4,13.6c-3,2.9-5.6,6-7.7,9.5c-4.8,8-5.9,17.6-3.7,26.6
						c1.8,7.2,5.3,13.7,9.5,19.6c1.5,2,3.1,4,4.8,5.8c0.7,0.8,1.5,1.6,2.3,2.4c0.1,0.1,0.2-0.1,0.2-0.1c0.4-1.6,0.2-3.3,0.2-4.9
						c-0.1-3.9,0.1-7.8,0.1-11.7c0.1-6.1,0.1-12.1,0.1-18.2c-0.1,0.1-0.1,0.1-0.2,0.2c0.5,0.1,1,0.1,1.5,0.2c1.4,0.1,2.7,0.1,4,0.1
						c3.6,0.1,7.3,0.1,10.9,0.1c5.5,0.1,10.9,0.1,16.4,0.1c10.9,0.1,21.8,0,32.7,0c-0.1-0.1-0.2-0.2-0.3-0.4
						c-0.1,0.6-0.1,1.3-0.1,1.8c-0.1,1.4-0.2,2.8-0.2,4.2c-0.1,3.8-0.1,7.6-0.2,11.4c-0.1,5.7-0.1,11.4-0.1,17
						c0,0.1,0.1,0.1,0.2,0.1c1.1-0.7,1.9-1.7,2.8-2.6c1.3-1.4,2.6-2.8,3.8-4.3c4.4-5.5,8-12,10-18.9c2.4-8.4,2.3-17.6-1.6-25.6
						c-2.3-4.6-5.3-8.6-8.9-12.1c-5.8-5.8-13-10.1-20.1-13.9c-0.3-0.1-0.2,0.4-0.1,0.5c3.9,2.1,7.8,4.2,11.4,6.7
						c2.1,1.4,4.1,3.1,6,4.6c4.3,3.7,8,8.1,10.7,13.1c3.9,7.5,4.8,16.1,2.8,24.3c-1.6,6.6-4.7,12.7-8.5,18.3
						c-1.1,1.7-2.4,3.4-3.8,4.9c-0.6,0.7-1.4,1.4-2,2.2c-0.6,0.7-1.3,1.6-2.1,2.1c0.1,0.1,0.1,0.1,0.2,0.1c0-5.3,0-10.6,0.1-15.9
						c0-4.1,0-8.3,0-12.3c0-1.3-0.1-2.7,0-4c0.1-0.4,0-0.9,0.2-1.3c0.1-0.1-0.1-0.4-0.3-0.4c-10.9,0-21.7,0-32.7,0
						c-4.8,0-9.5,0-14.3-0.1c-3.7,0-7.5-0.1-11.2-0.1c-1.5,0-3.1,0-4.6-0.1c-0.4,0-0.6-0.1-1.1-0.1c-0.5,0-0.9-0.1-1.4-0.2
						c-0.1-0.1-0.3,0.1-0.3,0.2c0,5.3,0,10.7-0.1,15.9c0,3.6-0.1,7.2-0.1,10.7c0,1.6,0,3.1-0.1,4.8c0,1,0,2.2-0.1,3.1
						c0.1-0.1,0.2-0.2,0.3-0.4c-0.5-0.6-1.1-1-1.6-1.6c-1.5-1.6-3-3.4-4.3-5.2c-3.9-5.2-7.3-11.2-9.3-17.6
						c-1.1-3.4-1.8-7.1-1.9-10.7c-0.1-3.9,0.4-7.8,1.6-11.6c1.9-5.8,5.5-11,9.7-15.2c2.1-2.1,4.3-4,6.5-5.7c1.1-0.7,2.1-1.5,3.1-2.2
						c3.4-2.3,7-4.3,10.8-6.1c0.1-0.1,0.6-0.4,0.5-0.6c-1.8-4.2-2.4-8.3-1.4-12.6c0.6-2.8,2-5.4,3.8-7.6c4.8-5.8,12.7-8.3,20-6.7
						c5.6,1.3,10.7,5,13.4,10.2c1.4,2.6,2.1,5.5,2.1,8.5c0,1.5-0.2,3-0.5,4.4c-0.4,1.3-0.9,2.8-1.5,4
						C155.4,29.1,155.7,29.3,155.8,29.1z"/>
					<path class="st0" d="M156,28.6c0.6-1.3,1.2-2.7,1.5-4.2c0.4-1.9,0.6-3.7,0.4-5.7c-0.2-3.4-1.4-6.7-3.3-9.5
						c-4.1-6.3-11.4-9.7-18.7-9.2c-6.3,0.4-12.6,3.9-16,9.5c-1.6,2.6-2.6,5.4-3,8.6c-0.1,1.4-0.1,3.1,0.1,4.6c0.4,2.2,1,4.2,1.9,6.2
						c0-0.1,0-0.1,0-0.2c-7,3.6-14.2,7.5-20,13.1c-3.6,3.4-6.7,7.3-9,11.8c-2,4.1-3.2,8.6-3.5,13.1c-0.3,4.9,0.5,9.7,2,14.3
						c3,9.5,8.8,17.8,15.7,24.7c0,0,0.2,0.1,0.2,0.1c0.1-0.7,0.2-1.3,0.2-2c0.1-1.6,0.1-3.1,0.1-4.6c0.1-3.9,0.1-7.7,0.1-11.6
						c0-5.7,0-11.4,0.1-17.1c-0.1,0.2-0.2,0.4-0.3,0.5c1.9,0.2,3.8,0.3,5.8,0.4c3.6,0.1,7.2,0.2,10.8,0.2c5.5,0.1,10.9,0.1,16.4,0.1
						c10.9,0.1,21.8,0,32.7,0c0.1-0.1,0.1-0.2,0.1-0.3c-0.2,0.1-0.4,0.3-0.4,0.5c-0.1,0.4-0.1,0.7-0.2,1.1c-0.2,1.4-0.4,2.7-0.4,4.2
						c-0.1,3.7-0.1,7.5-0.1,11.3c-0.1,5.7-0.1,11.3-0.1,17c0,0.1,0.1,0.3,0.2,0.2c0.2-0.1,0.2-0.1,0.4-0.4c0.5-0.2,0.9-0.5,1.3-1
						c0.2-0.2,0.5-0.4,0.7-0.7c2-1.9,3.7-4.1,5.3-6.3c4.3-6,7.8-12.6,9.5-19.9c1.9-7.8,1.3-16.2-2.3-23.6c-2.1-4.2-4.7-7.8-7.8-11.1
						c-2.6-2.6-5.3-5-8.3-7.2c-4.1-3.1-8.6-5.5-13.2-7.9c-0.3-0.1-0.1,1,0.1,1c6.2,3.3,12.2,6.8,17.4,11.4c2.1,1.8,4.1,3.8,5.8,6
						c0.9,1.1,1.9,2.3,2.6,3.6c1.1,1.4,2.1,3.1,2.8,4.8c1.6,3.4,2.7,7,3.1,10.7c0.6,5.2-0.1,10.4-1.6,15.5
						c-2.1,6.5-5.4,12.4-9.5,17.8c-1.4,1.7-2.7,3.4-4.3,5c-0.7,0.7-1.4,1.5-2.3,1.9c0.1,0.1,0.1,0.1,0.2,0.2c0-5.7,0-11.3,0-17
						c0-3.7,0-7.5,0.1-11.3c0.1-1.3,0.1-2.8,0.4-4.1c0.1-0.7,0.4-1.2,0.4-1.9v-0.1c-10.9,0-21.7,0.1-32.7,0
						c-4.8-0.1-9.5-0.1-14.3-0.1c-3.8-0.1-7.5-0.1-11.3-0.1c-1.6-0.1-3.1-0.1-4.7-0.1c-0.7-0.1-2,0.1-2.5-0.6
						c-0.2-0.3-0.4,0.4-0.4,0.5c0,5.7,0,11.4,0,17c0,3.7,0,7.5,0,11.3c0,2.1,0.1,4.3-0.4,6.4c0.1,0.1,0.2,0.1,0.2,0.1
						c-0.4-0.4-0.8-0.7-1.1-1c-1.5-1.5-2.8-3.1-4.1-4.8c-1.6-2-3.1-4.1-4.4-6.3c-0.5-0.8-1-1.6-1.5-2.5c-1.1-1.7-1.9-3.6-2.6-5.6
						c-1.1-1.9-1.9-3.8-2.3-5.8c-0.2-0.7-0.4-1.4-0.5-2.1c-0.4-1.8-0.8-3.6-0.9-5.4c-0.2-3.1-0.1-6.1,0.4-9.2
						c0.3-1.6,0.6-3.1,1.2-4.7c0.3-0.8,0.6-1.6,0.9-2.3c0.8-1.6,1.6-3.1,2.4-4.7c2.4-4,5.5-7.5,8.9-10.5c1.3-1.3,2.7-2.4,4.3-3.4
						c1.5-1.2,3-2.3,4.7-3.3c3.1-1.9,6.3-3.6,9.5-5.2c0.1-0.1,0-0.2,0-0.2c-1.6-4.2-2.4-8-1.2-12.7c0.7-2.8,2.1-5.4,4-7.7
						c4.3-5.2,11.2-7.9,17.9-7.2c5.1,0.5,10,3.1,13.3,7.1c2.3,2.8,3.8,6.1,4.3,9.8c0.2,1.5,0.2,3,0.1,4.5c-0.3,2.2-0.9,4.2-1.9,6.1
						C155.5,28.7,155.8,28.8,156,28.6z"/>
					<path class="st0" d="M156.1,29c0.6-1.3,1.1-2.6,1.5-4c0.3-1,0.4-2.2,0.4-3.3c0.1-1.9-0.1-3.8-0.5-5.7c-0.6-2.2-1.5-4.2-2.7-6
						c-2.7-4-6.9-6.9-11.5-8.2c-5.6-1.6-11.7-0.7-16.6,2.3c-3.8,2.3-6.6,5.8-8.3,10.1c-0.8,2.1-1.1,4.5-1.2,6.7
						c-0.1,3,0.9,5.7,2,8.4c0.1-0.1,0.1-0.4,0.2-0.5c-7.6,4.2-15,8.5-21.2,14.8c-3.4,3.4-6.3,7.3-8.3,11.8c-3.4,7.6-3.8,16-1.6,24.1
						c1.6,5.8,4.3,11.3,7.6,16.3c1.6,2.5,3.5,4.9,5.5,7.2c0.9,1.1,2,2.2,3.1,3.2c0.1,0.1,0.2,0.1,0.2-0.1c0.1-0.7,0.1-1.3,0.1-2
						c0-1.4,0.1-2.8,0.1-4.2c0.1-3.9,0.1-7.6,0.2-11.6c0.1-5.7,0.1-11.4,0.1-17.1c-0.2,0.2-0.4,0.4-0.6,0.6c2,0.1,4,0.1,5.9,0.1
						c3.6,0.1,7.2,0.1,10.8,0.1c5.5,0.1,10.9,0.1,16.4,0.1c10.9,0.1,21.8,0,32.7,0c-0.2-0.1-0.4-0.4-0.6-0.5
						c-0.1,11.4-0.1,22.8-0.2,34.3c0,0.1,0.1,0.2,0.2,0.1c0.9-0.5,1.6-1.6,2.5-2.3c1.9-1.7,3.6-3.7,5-5.8c4.1-5.7,7.5-11.9,9.3-18.8
						c2.1-8.1,1.7-16.8-2-24.4c-2.3-4.6-5.3-8.6-8.9-12.1c-5.8-5.8-13-10-20.1-13.8c-0.3-0.1-0.4,0.6-0.1,0.7
						c6.6,3.6,13.1,7.4,18.6,12.6c4,3.7,7.6,8.1,10,13.2c1.7,3.7,2.8,7.7,3.1,11.8c0.4,4.1-0.2,8.3-1.3,12.2
						c-1.9,6.7-5.1,13-9.3,18.6c-0.8,1-1.5,2-2.4,3c-0.6,0.7-1.4,1.4-2.1,2.2c-0.7,0.8-1.2,1.9-2.3,2.5c0.1,0.1,0.1,0.1,0.2,0.1
						c0-4.9,0.1-9.9,0.1-14.8c0-3.6,0-7.2,0-10.8c0-1.4-0.1-2.8,0-4.2c0-0.4,0-0.8,0.1-1.2c0-0.9,0.1-1.6,0.4-2.5
						c0.1-0.1-0.5-0.5-0.6-0.5c-10.9,0-21.7,0-32.7,0c-4.8,0-9.5-0.1-14.3-0.1c-3.8,0-7.5-0.1-11.2,0c-1.4,0-2.9,0.1-4.3,0.1
						c-0.6,0-1.7,0.1-2.3-0.4c-0.2-0.1-0.6,0.4-0.6,0.5c0,5.7-0.1,11.4-0.1,17c0,3.7,0.1,7.5-0.1,11.3c-0.1,0.5-0.1,1-0.1,1.6
						c0.1,0.8,0.1,1.7,0.1,2.5c0,0.5,0,1,0,1.6c0.1,0,0.1-0.1,0.2-0.1c-1.6-1.7-3.1-3.4-4.6-5.2c-3.3-4.1-6.3-8.6-8.4-13.5
						c-1.2-4-2.5-8.1-3.7-12.1c-0.1-0.7-0.2-1.4-0.3-2.2c-0.1-1.4-0.2-3-0.1-4.5c0.1-1.9,0.4-3.9,0.7-5.7c0.1-0.8,0.4-1.6,0.6-2.3
						c0.4-1.6,1.1-3.2,2-4.7c0.8-2.1,1.9-4.1,3.1-5.9c0.6-0.8,1.2-1.6,1.8-2.3c1.4-1.6,2.8-3.2,4.3-4.7c2.2-2.1,4.6-3.9,7-5.7
						c4-2.9,8.3-5.2,12.6-7.5c0.1-0.1,0.3-0.4,0.2-0.5c-0.8-1.9-1.5-3.9-1.7-6c-0.2-1.9-0.1-3.7,0.2-5.4c0.7-3.9,2.6-7.5,5.5-10.2
						c1.4-1.2,2.8-2.3,4.3-3.1c0.9-0.5,1.9-1,3-1.3c8.6,4.6,17.2,9.2,25.8,13.7c0.6,2,0.6,4.6,0.4,6.6c-0.4,2.2-1,4.1-1.9,6.1
						C155.2,29.3,156.1,29.1,156.1,29z"/>
					<path class="st0" d="M156.2,28.4c0.9-2,1.6-4,1.9-6.3c0.1-1.6,0.2-3.1,0-4.7c-0.6-3.8-2.1-7.2-4.4-10.1
						c-4.7-5.8-12.6-8.2-19.7-6.9c-6.8,1.3-12.5,5.8-15.3,12.2c-1.1,2.5-1.6,5.1-1.6,7.8c0,3.1,0.9,5.7,2.1,8.6c0-0.1,0-0.2,0-0.3
						c-2.7,1.2-5.3,2.6-7.9,4.1c-1.7,1-3.4,2.1-5,3.3c-2.5,1.7-4.8,3.6-7,5.7c-3.6,3.4-6.7,7.4-9,11.8C86.5,61.1,85.9,69.9,88,78
						c2.7,10.6,8.9,20.2,16.5,27.8c0.1,0.1,0.3-0.1,0.3-0.1c0.1-2.2,0.3-4.4,0.4-6.6c0.1-3.9,0.1-7.8,0.1-11.6
						c0.1-5.7,0.1-11.5,0.1-17.2c-0.2,0.3-0.4,0.6-0.5,0.8c1.9,0.1,3.8,0.2,5.7,0.2c3.6,0.1,7.3,0.1,11,0.1
						c5.5,0.1,10.9,0.1,16.4,0.1c10.9,0.1,21.8,0,32.7,0c-0.1-0.1-0.1-0.1-0.1-0.2c-0.2,1-0.5,1.9-0.6,3c-0.1,1.3-0.2,2.5-0.2,3.8
						c0,3.8-0.1,7.6-0.1,11.4c-0.1,5.3-0.1,10.7-0.1,15.9c0,0.1,0.1,0.3,0.1,0.3c0.4-0.2,0.7-0.5,1.1-0.7c0.8-0.7,1.5-1.3,2.2-2.1
						c1.2-1.3,2.4-2.8,3.6-4.3c4.6-6,8.3-12.8,10.3-20.2c2.1-7.8,1.8-16-1.4-23.5c-2.2-5.1-5.6-9.5-9.5-13.4
						c-5.9-5.8-13-10-20.2-13.8c-0.4-0.1-0.4,1-0.2,1c3.9,2.1,7.8,4.2,11.4,6.8c2.1,1.4,4.1,3.1,6,4.7c4.3,3.7,8,8.1,10.7,13.2
						c2,3.7,3.2,7.8,3.7,11.9c0.5,4.8,0,9.8-1.4,14.5c-1.9,6.3-5.1,12.2-8.9,17.6c-1.4,2-3,4-4.7,5.7c-0.8,0.8-1.6,1.8-2.7,2.3
						c0.1,0.1,0.1,0.2,0.1,0.3c0.1-5.3,0-10.6,0.1-15.9c0.1-3.5,0.1-7.1,0.2-10.6c0.1-1.6,0.1-3.3,0.3-5c0.1-0.4,0.1-0.8,0.1-1.1
						c-0.1-0.5,0.1-1,0.3-1.4c0.1-0.1,0.1-0.3-0.1-0.3c-10.9,0-21.7,0.1-32.7,0c-4.8,0-9.5-0.1-14.3-0.1c-3.7,0-7.5-0.1-11.2-0.1
						c-1.5-0.1-3.1,0-4.6-0.1c-0.6-0.1-2.1,0.1-2.3-0.7c-0.1-0.4-0.6,0.7-0.6,0.8c0,5.7,0,11.4,0,17c0,3.8,0,7.5,0,11.4
						c0,1.4,0,3-0.1,4.4c0,0.7,0,1.3-0.1,2c0.1-0.1,0.2-0.1,0.3-0.1c-0.9-0.7-1.6-1.6-2.3-2.3c-1.1-1.3-2.3-2.6-3.3-3.9
						c-1.4-1.7-2.7-3.6-3.9-5.5c-0.6-1-1.4-2.2-2-3.3c-0.4-0.6-0.6-1.1-0.9-1.7C91,86.7,90,84,89.4,81.1c-1.1-2.3-1.9-4.8-2.1-7.3
						c-0.1-0.7-0.2-1.5-0.2-2.2c-0.1-1.5-0.1-3.1,0-4.6c0.1-1.6,0.4-3.1,0.8-4.6c0.2-1.6,0.6-3.1,1.2-4.7c0.3-0.8,0.6-1.6,1-2.4
						c0.5-1.3,1.2-2.5,2-3.6c0.6-1.3,1.4-2.5,2.3-3.5c0.6-0.8,1.2-1.6,1.9-2.3c1-1.3,2.1-2.5,3.4-3.4c1.2-1.3,2.4-2.4,3.8-3.4
						c2-1.6,4.1-3.1,6.3-4.5c3.1-1.9,6.3-3.6,9.7-5.2c0.1-0.1,0-0.3,0-0.3c-0.9-1.9-1.6-4-1.9-6.2c-0.3-2.2-0.1-4.5,0.5-6.7
						c1.1-4.2,3.7-8,7.2-10.7c4.2-3.2,9.7-4.7,14.9-4c6.4,0.7,12.7,4.8,15.7,10.7c0.9,1.9,1.6,4,1.9,6.3c0.3,2.2,0.1,4.4-0.4,6.6
						c-0.4,1.4-0.9,2.8-1.5,4C155.5,29,156.2,28.6,156.2,28.4z"/>
					<path class="st0" d="M155.8,28.8c0.6-1.3,1.1-2.6,1.5-4.1c0.4-1.4,0.5-3.1,0.5-4.5c0.1-3.8-1.3-7.5-3.3-10.7
						c-4-6.1-11.5-9.4-18.6-9c-6.9,0.4-13.3,4.1-16.8,10.2c-1.1,2-1.9,4.1-2.3,6.4c-0.3,1.9-0.4,3.8-0.1,5.7c0.4,2.2,1.1,4.2,2,6.2
						c0.1-0.1,0.2-0.2,0.2-0.3c-4,2-7.9,4-11.7,6.5c-3.1,2-6,4.3-8.8,6.9c-4.3,3.9-7.8,8.8-10,14.2c-2.8,6.9-3,14.8-1.1,21.9
						c1.6,6.6,4.8,12.6,8.5,18c2.3,3.4,5,6.9,8,9.6c0.1,0.1,0.3,0.1,0.3-0.1c0.4-1.6,0.2-3.3,0.4-4.8c0.2-4,0.1-8,0.1-11.9
						c0-6,0-12.1,0.1-18.2c-0.1,0-0.1,0-0.2,0.1c0.2,0.1,0.5,0.2,0.8,0.4c0.2,0.1,0.5,0.1,0.8,0.1c0.9,0.1,1.7,0.3,2.6,0.4
						c1.4,0.1,2.7,0,4.1,0.1c1.4,0,2.6,0.1,4,0.1c5.6,0.1,11.1,0.1,16.7,0.1c7.1,0,14.3,0,21.4,0c4.6,0,9.2,0,13.7,0
						c0.1,0,1.4-0.1,1.4,0c0.1,0.1,0.1-0.1-0.1,0.3c-0.3,1.4-0.5,3-0.5,4.4c-0.4,9.7-0.2,19.4-0.4,29.1c0,0.2,0.2,0.1,0.3,0.1
						c1-0.4,1.9-1.3,2.6-2c1.1-1.1,2.2-2.5,3.1-3.7c1.1-1.3,2.1-2.6,3-3.9c4.5-6.6,8-13.9,9.3-21.8c1.1-7.8-0.3-15.8-4.3-22.6
						c-2.7-4.6-6.3-8.6-10.2-12c-5.3-4.6-11.5-8.2-17.6-11.6c-0.3-0.1-0.1,0.4,0.1,0.5c2.7,1.4,5.3,2.8,8,4.5c1.8,1,3.4,2.2,5.1,3.4
						c2,1.3,3.8,2.9,5.4,4.6c1.9,1.3,3.4,3,4.8,4.7c0.6,0.7,1.3,1.6,1.9,2.4c1.4,1.9,2.7,3.9,3.7,6c1.6,3.4,2.7,7,3.1,10.7
						c0.1,0.8,0.2,1.6,0.2,2.3c0.1,1.5,0.1,3.1-0.2,4.6c0,1.5-0.1,3.1-0.5,4.5c-0.2,1-0.5,2.2-0.8,3.2c-1.6,5.5-4.2,10.8-7.4,15.6
						c-1.9,2.8-3.8,5.4-6.1,7.8c-0.8,0.8-1.8,2-2.8,2.5c0.1,0.1,0.2,0.1,0.3,0.1c0-5.2,0-10.6,0-15.8c0-3.5,0-7,0-10.6
						c0-1.6,0-3.1,0.1-4.6c0.1-0.9,0.1-1.9,0.4-2.7c0-0.1,0-0.1-0.1-0.1c-10.8,0-21.7,0.1-32.5,0c-4.4,0-8.9,0-13.4-0.1
						c-4.1-0.1-8.2-0.1-12.3-0.2c-1.5-0.1-3.1-0.1-4.6-0.3c-0.4-0.1-0.7-0.1-1.1-0.1c-0.5-0.1-1.1-0.2-1.6-0.3
						c-0.1-0.1-0.3-0.1-0.3,0c0,5.3,0,10.7,0,15.9c0,3.6-0.1,7.2-0.1,10.8c0,1.7,0.1,3.5-0.1,5.2c-0.1,1-0.1,2.2-0.4,3.1
						c0.1-0.1,0.2-0.1,0.3-0.1c-1.6-1.6-3.2-3.4-4.6-5.2c-4.8-6-8.8-13-11-20.5c-0.9-3.1-1.6-6.5-1.6-9.8c0.5-3.8,1.1-7.6,1.6-11.5
						c0.3-0.8,0.6-1.6,0.9-2.3c0.9-2.1,1.9-4,3.1-6c2.6-4,5.8-7.5,9.4-10.5c5.2-4.4,11-7.7,17-10.8c0.1-0.1,0.4-0.1,0.2-0.3
						c-1.1-2.7-1.9-5.3-1.9-8.3c0-4.4,1.6-8.7,4.4-12.1c4.1-5,10.2-7.6,16.7-7.3c6.3,0.3,12.2,3.4,15.8,8.6c1.6,2.4,2.8,5.2,3.1,8.1
						c0.2,1.5,0.2,3.1,0.1,4.5c-0.2,2.2-0.9,4.3-1.9,6.3C155.5,28.7,155.8,28.8,155.8,28.8z"/>
					<path class="st0" d="M156.8,28.7c0.6-1.3,1.1-2.6,1.5-4.1c0.1-0.7,0.2-1.4,0.4-2.2c0.2-1.5,0.1-3.1-0.1-4.6
						c-0.5-4.1-2.6-7.9-5.5-10.9c-5.6-5.7-13.7-7.7-21.3-5.5C126.6,3,121.7,6.8,119.3,12c-0.9,2-1.5,4.2-1.8,6.4
						c-0.1,0.7-0.1,1.4-0.1,2.2c0.1,0.7,0.1,1.5,0.1,2.2c0.1,1.4,0.5,3,1,4.3c-1.1,2.4-2.9,4-5.2,5.1c-1.9,1-3.6,2-5.3,3.1
						c-3,2-5.9,4.3-8.5,6.8c-4.2,4-7.8,8.8-10,14.2c-3.3,8-3.1,16.9-0.5,25.1c1.6,5.1,4.2,9.9,7.2,14.3c1.8,2.6,3.8,5.2,5.9,7.5
						c0.9,1,1.7,1.9,2.7,2.8c0.1,0.1,0.2-0.1,0.2-0.1c0.6-6,0.5-12,0.6-18c0.1-5.7,0.1-11.4,0.1-17.1c-0.3,0.2-0.5,0.4-0.8,0.7
						c1.4,0.2,2.8,0.2,4.3,0.2c3.8,0.1,7.8,0.2,11.6,0.2c5.8,0.1,11.5,0.1,17.4,0.1c11,0.1,21.8,0,32.8,0c-0.2-0.1-0.4-0.2-0.6-0.4
						c-0.2,2-0.2,4-0.3,6c-0.1,3.7-0.1,7.5-0.2,11.3c-0.1,5.7-0.1,11.3-0.1,17c0,0.1,0.2,0.1,0.3,0.1c0.3-0.1,0.8-0.5,0.9-0.7
						c0.8-0.7,1.5-1.3,2.2-2c1.7-1.7,3.3-3.7,4.7-5.6c4.7-6.2,8.3-13.3,9.9-21c1.5-7.2,0.8-14.5-2.1-21.2c-2.3-5.1-5.6-9.5-9.5-13.3
						c-5.9-5.7-13-9.9-20.3-13.7c-0.2-0.1-0.4,0.4-0.2,0.5c6.2,3.3,12.2,6.9,17.4,11.6c3.8,3.4,7.5,7.5,10,12
						c3,5.4,4.6,11.6,4.4,17.8c-0.1,3.7-0.8,7.4-2,11c-1.9,6-5,11.6-8.6,16.5c-1.4,1.9-2.8,3.7-4.3,5.4c-0.9,1-1.8,2.2-3,2.9
						c0.1,0.1,0.2,0.1,0.3,0.1c0.1-4.9,0.1-9.9,0.1-14.8c0.1-3.6,0.1-7.2,0.1-10.8c0.1-1.4,0.1-3,0.1-4.5c0.1-0.9,0.1-1.7,0.1-2.6
						c-0.1-0.6,0.1-1,0.5-1.4c0.3-0.2-0.5-0.4-0.6-0.4c-10.8,0-21.7,0-32.5,0c-4.4,0-8.9,0-13.4-0.1c-3.4,0-6.9,0-10.3-0.1
						c-1.6,0-3.3-0.1-5-0.1c-0.4,0-0.8-0.1-1.2-0.1c-0.8,0-1.6-0.1-2.3-0.5c-0.1-0.2-0.9,0.4-0.9,0.6c0,5.3,0,10.6,0,15.9
						c0,3.6,0,7.2,0,10.7c0,1.6,0,3.3,0,4.9c0,1,0.2,2.2-0.1,3.1c0.1-0.1,0.1-0.1,0.2-0.1c-2.4-2.2-4.6-4.9-6.5-7.5
						c-4.2-5.7-7.8-12-9.7-19c-2.3-8.3-2.1-17.4,1.9-25.2c2.3-4.5,5.3-8.3,8.9-11.8c5.8-5.7,13-9.6,20.2-13.1l0,0
						c-0.9-2-1.6-3.9-2-6.1c-0.9-4.5,0.1-8.5,3.1-11.8c0.8-2.6,2.3-4.7,4.4-6.2c1.5-1.2,3.1-2,5-2.5c1.6-1,3.5-1.4,5.4-1.6
						c1.9-0.2,3.8-0.1,5.7,0.5c1.9,0.1,3.7,0.6,5.4,1.4c3.8,1.9,7.3,5.1,9.2,9c0.3,0.7,0.6,1.3,0.9,2c0.7,1.7,0.9,3.5,0.8,5.4
						c0.4,1.9,0.3,3.7-0.2,5.4c-0.4,1.3-0.9,2.8-1.5,4C155.5,29.1,156.7,28.9,156.8,28.7z"/>
				</g>
			</g>
		</g>
	</g>
</g>
<g id="sad">
	<g>
		<g>
			<path class="st1" d="M124.4,117.6c5.1,0.1,10.1,0.1,15.2,0.1c5.1,0,10.1,0.1,15.2,0c-0.1-0.2-0.1-0.3-0.4-0.4
				c-0.5-0.4-0.9-0.9-1.4-1.3c-0.5-0.4-0.9-0.8-1.5-1.3c-0.1-0.1-0.3-0.2-0.5-0.2c-0.5-0.1-0.9-0.1-1.4-0.1c-1.1,0-2.1-0.1-3.2-0.1
				c-3.5-0.1-6.9-0.1-10.4-0.1c-3.3,0-6.6,0.1-9.9,0.1c-1.6-0.1-3.3-0.2-5-0.3c0.1,0.2,0.1,0.3,0.2,0.4c0.4,0.5,0.8,1,1.2,1.4
				c0.4,0.5,0.8,1,1.2,1.4C124.1,117.4,124.3,117.6,124.4,117.6z"/>
			<path class="st1" d="M123.8,116.7c5.1,0.1,10.1,0.1,15.2,0.1s10.1,0.1,15.2,0c-0.1-0.1-0.1-0.3-0.2-0.4c-0.4-0.4-0.8-0.8-1.2-1.2
				c-0.4-0.4-0.8-0.8-1.2-1.2c-0.1-0.1-0.2-0.2-0.4-0.2c-0.4-0.1-0.9-0.1-1.4-0.1c-1.1,0-2.1-0.1-3.2-0.1c-3.5-0.1-6.9-0.1-10.4-0.1
				c-3.3,0-6.6,0.1-9.9,0.1c-1.6-0.1-3.3-0.2-5-0.3c0,0.1,0.1,0.3,0.2,0.4c0.4,0.4,0.6,0.9,1.1,1.3c0.4,0.4,0.7,0.8,1.1,1.3
				C123.6,116.5,123.6,116.7,123.8,116.7z"/>
			<path class="st1" d="M123.4,118c5.1,0.1,10.1,0.1,15.2,0.1s10.1,0.1,15.2,0c-0.1-0.1-0.2-0.3-0.4-0.4c-0.4-0.2-0.7-0.5-1.1-0.7
				c-0.5-0.3-0.9-0.5-1.4-0.8c-0.4-0.2-0.6-0.4-1-0.5c-1.4-0.2-2.8-0.1-4.1-0.1c-3.4-0.1-6.8-0.1-10.2-0.1c-2.1,0-4.1,0-6,0.1
				c-1.5,0-3.1,0.1-4.6,0.1c-1.7-0.1-3.4-0.2-5.1-0.3c0.1,0.1,0.1,0.3,0.4,0.4c0.5,0.4,0.9,0.7,1.4,1.1c0.5,0.4,0.9,0.7,1.4,1.1
				C123.1,117.9,123.2,118,123.4,118z"/>
			<path class="st1" d="M123.8,119.7c5.1,0.1,10.1,0.1,15.2,0.1c5.1,0,10.1,0.1,15.2,0c0.2,0.1,0.2-0.1,0.1-0.1
				c-0.4-0.2-0.7-0.4-1.1-0.4c-0.7-0.3-1.4-0.5-2.1-0.8c-0.4-0.1-0.8-0.2-1.1-0.4c-1.5-0.2-3.1-0.1-4.6-0.1
				c-3.5-0.1-6.9-0.1-10.4-0.1c-3.3,0-6.5,0.1-9.8,0.1c-1.8-0.1-3.5-0.2-5.3-0.2c-0.2-0.1-0.2,0-0.1,0.1c0.4,0.2,0.6,0.4,1.1,0.5
				c0.6,0.3,1.4,0.7,2.1,1C123.1,119.4,123.4,119.5,123.8,119.7z"/>
			<path class="st1" d="M124.4,116.7c5.1,0.1,10.1,0.1,15.2,0.1c5.1,0,10.1,0.1,15.2,0c-0.1-0.1-0.1-0.3-0.2-0.4
				c-0.4-0.4-0.7-0.8-1.1-1.3c-0.4-0.4-0.8-0.8-1.1-1.2c-0.1-0.1-0.2-0.2-0.4-0.2c-0.4-0.1-0.9-0.1-1.4-0.1c-1.1,0-2.1-0.1-3.2-0.1
				c-3.5-0.1-6.9-0.1-10.4-0.1c-3.3,0-6.6,0.1-9.9,0.1c-1.6-0.1-3.3-0.2-5-0.2c0,0.1,0.1,0.3,0.1,0.4c0.3,0.4,0.6,0.9,0.9,1.3
				c0.3,0.4,0.6,0.9,0.9,1.3C124.2,116.6,124.3,116.7,124.4,116.7z"/>
			<path class="st1" d="M123.7,116c5.1,0.2,10.1,0.1,15.2,0.1s10.1,0,15.2,0.1c0-0.1-0.1-0.2-0.2-0.3c-0.3-0.4-0.6-0.7-0.9-1
				c-0.3-0.3-0.8-1-1.3-1.1c-0.4-0.1-0.9-0.1-1.4-0.1c-1.1,0-2.1,0-3.2-0.1c-3.5-0.1-6.9-0.1-10.4-0.1c-3.3,0-6.6,0.1-9.9,0.1
				c-1.7,0-3.4-0.2-5.2-0.4c0,0.1,0.1,0.2,0.1,0.4c0.2,0.4,0.5,0.7,0.8,1.1C122.7,114.9,123.4,115.9,123.7,116z"/>
			<path class="st1" d="M123.9,115.9c5-0.1,10-0.1,15.1-0.1c5.1,0,10.1,0,15.2,0.1c0.1-0.1,0-0.2-0.1-0.2c-0.1-0.2-0.3-0.4-0.5-0.5
				c-0.2-0.2-0.4-0.4-0.6-0.7c-0.1-0.2-0.3-0.3-0.5-0.4c-1.3-0.1-2.7-0.1-4-0.1c-3.4-0.1-6.8-0.1-10.2-0.1c-3.6,0-7.2,0.1-10.8,0.1
				c-1.6,0-3.3-0.1-5.1-0.1c-0.1,0,0.6,1.1,0.6,1.1C123.2,115,123.6,115.9,123.9,115.9z"/>
			<path class="st1" d="M123.9,117.9c5.1,0.1,10.1,0.1,15.2,0.1c3.3,0,6.5,0,9.8,0c1.8,0,3.6,0.1,5.4,0c-0.1-0.2-0.2-0.3-0.4-0.4
				c-0.5-0.4-1.1-0.8-1.6-1.3c-0.6-0.4-1.1-0.8-1.7-1.3c-0.1-0.1-0.4-0.2-0.5-0.2c-0.5-0.1-0.9-0.1-1.4-0.1c-1.1,0-2.1-0.1-3.2-0.1
				c-3.5-0.1-6.9-0.1-10.4-0.1c-3.3,0-6.6,0.1-9.8,0.1c-1.6-0.1-3.3-0.2-5.1-0.4c0.1,0.2,0.2,0.3,0.4,0.4c0.5,0.5,1,1,1.5,1.4
				c0.5,0.4,1,1,1.5,1.4C123.6,117.8,123.7,117.9,123.9,117.9z"/>
			<path class="st1" d="M123.4,116.5c10.1,0.1,20.2,0.1,30.3,0.1c0-0.1-0.1-0.2-0.2-0.3c-0.2-0.2-0.5-0.4-0.7-0.7
				c-0.3-0.3-0.6-0.5-0.9-0.8c-0.2-0.2-0.4-0.4-0.6-0.5c-1.3-0.2-2.7-0.1-4-0.1c-3.4-0.1-6.8-0.1-10.2-0.1c-2.1,0-4.1,0-6,0.1
				c-1.6,0-3.1,0.1-4.7,0.1c-1.7-0.1-3.4-0.2-5.1-0.3c0,0.1,0.1,0.2,0.1,0.4c0.3,0.4,0.6,0.7,0.9,1
				C122.3,115.6,123,116.5,123.4,116.5z"/>
			<path class="st1" d="M124.4,115.6c5-0.2,10-0.1,15.1-0.1c5.1,0,10.1,0,15.2,0c0.1,0-0.6-1-0.6-1c-0.2-0.2-0.5-0.8-0.9-0.9
				c-0.4-0.1-0.9-0.1-1.4-0.1c-1.1,0-2.1,0-3.2-0.1c-3.5-0.1-6.9-0.1-10.4-0.1c-3.3,0-6.6,0.1-9.9,0.1c-1.6,0-3.3-0.1-5.1-0.1
				c-0.1,0,0.5,1.2,0.5,1.1C123.8,114.8,124.1,115.7,124.4,115.6z"/>
			<path class="st1" d="M123.7,118.9c5.1,0.1,10.1,0.1,15.2,0.1s10.1,0.1,15.2,0c-0.1-0.1-0.2-0.3-0.4-0.4c-0.4-0.2-0.9-0.4-1.3-0.7
				c-0.5-0.3-1.1-0.5-1.6-0.8c-0.4-0.2-0.8-0.4-1.1-0.5c-1.4-0.2-2.8-0.1-4.1-0.1c-3.4-0.1-6.8-0.1-10.2-0.1c-2.1,0-4.1,0-6,0.1
				c-1.5,0-3.1,0.1-4.6,0.1c-1.7-0.1-3.5-0.2-5.2-0.3c0.1,0.2,0.2,0.3,0.4,0.4c0.6,0.4,1.1,0.7,1.7,1.1c0.6,0.4,1.1,0.7,1.8,1
				C123.4,118.9,123.6,118.9,123.7,118.9z"/>
			<path class="st1" d="M123.6,117.3c5.1,0.1,10.1,0.1,15.2,0.1c5.1,0,10.1,0.1,15.2,0c-0.1-0.2-0.2-0.3-0.4-0.4
				c-0.5-0.4-0.9-0.8-1.5-1.2c-0.5-0.4-1-0.8-1.5-1.2c-0.1-0.1-0.3-0.2-0.5-0.2c-0.5-0.1-0.9-0.1-1.4-0.1c-1.1,0-2.1-0.1-3.2-0.1
				c-3.5-0.1-6.9-0.1-10.4-0.1c-3.3,0-6.6,0.1-9.9,0.1c-1.6-0.1-3.3-0.2-5.1-0.3c0.1,0.2,0.1,0.3,0.2,0.4c0.4,0.4,0.8,1,1.2,1.3
				c0.4,0.4,0.9,0.9,1.4,1.3C123.4,117.1,123.4,117.2,123.6,117.3z"/>
		</g>
	</g>
</g>
<g id="happy">
	<g>
		<g>
			<g>
				<path class="st1" d="M118.7,115c0.4,0.6,0.8,1.2,1.2,1.6c0.5,0.5,1.1,1,1.6,1.4c0.9,0.6,1.8,1.1,2.7,1.6c1.8,1,3.6,1.9,5.3,2.8
					c1.7,0.7,3.4,1.3,5.3,1.5c3.8,0.5,7.6-0.1,11.1-1.4c1.8-0.7,3.5-1.6,5.1-2.8c0.6-0.5,1.2-1,1.8-1.4c1.1-1,2.2-2.2,3.1-3.4
					c0.1-0.1-2.3-0.8-2.2-0.8c-0.6-0.2-1.2-0.4-1.8-0.5c-0.2-0.1-0.4-0.1-0.5-0.1c-1.2,1.3-2.5,2.6-4.1,3.6
					c-1.1,0.6-2.1,1.2-3.3,1.6c-3.2,1.3-6.8,1.6-10.2,1c-0.6-0.1-1.4-0.2-1.9-0.4c-0.9-0.2-1.8-0.5-2.6-1.1
					c-1.5-0.7-2.9-1.5-4.3-2.3c-0.9-0.5-1.9-1.1-2.6-1.8c-0.9-0.8-1.6-1.7-2.2-2.8c-0.1,0.1-0.2,0.2-0.3,0.4c-0.2,0.5-0.5,1-0.7,1.6
					c-0.2,0.5-0.4,1-0.6,1.6C118.7,114.7,118.7,114.9,118.7,115z"/>
				<path class="st1" d="M118.1,114.1c0.4,0.6,0.8,1.2,1.2,1.6c0.5,0.5,1.1,1,1.6,1.4c0.9,0.6,1.8,1.1,2.7,1.6
					c1.8,1,3.6,1.9,5.4,2.8c0.6,0.3,1.4,0.5,2,0.8c1.1,0.4,2.1,0.5,3.3,0.7c3.8,0.5,7.6,0,11.1-1.4c1.8-0.7,3.5-1.6,5.1-2.8
					c0.6-0.5,1.2-1,1.8-1.4c1.1-1,2.1-2.2,3.1-3.4c0.1-0.1-2-1-2-1c-0.1-0.1-1.9-1-2.1-0.7c-1.2,1.5-2.5,2.9-4.1,3.9
					c-1.1,0.7-2.2,1.3-3.4,1.8c-3.3,1.4-7.1,1.7-10.7,1.1c-0.6-0.1-1.4-0.2-2-0.4c-0.9-0.2-1.9-0.6-2.6-1.1c-1.5-0.8-3-1.6-4.4-2.5
					c-0.9-0.6-1.9-1.2-2.7-2c-0.3-0.3-0.6-0.6-0.9-1c-0.5-0.6-1-1.3-1.4-2c-0.1,0.1-0.2,0.2-0.2,0.4c-0.2,0.5-0.4,1-0.5,1.6
					c-0.1,0.5-0.3,1-0.4,1.6C118,113.8,118,114,118.1,114.1z"/>
				<path class="st1" d="M117.6,115.4c0.4,0.7,0.8,1.2,1.3,1.6c0.5,0.5,1.1,1,1.7,1.4c0.9,0.5,1.8,1.1,2.7,1.6
					c1.8,1,3.6,1.9,5.3,2.8c0.6,0.3,1.4,0.5,2.1,0.8c1.1,0.4,2.1,0.5,3.2,0.7c3.8,0.5,7.6-0.1,11.1-1.4c1.8-0.7,3.5-1.6,5.1-2.7
					c0.6-0.4,1.2-1,1.8-1.4c1.1-1,2.2-2.2,3.1-3.4c0.1-0.1-2.1-0.4-2.1-0.4c-0.5-0.1-1.1-0.1-1.6-0.2c-0.1-0.1-0.4-0.1-0.4,0.1
					c-1.4,1.4-2.8,2.7-4.6,3.6c-1.1,0.6-2.3,1.1-3.6,1.5c-3.4,1.1-7.2,1-10.6,0.2c-0.6-0.1-1.4-0.3-1.9-0.5
					c-0.9-0.3-1.8-0.7-2.6-1.3c-1.4-0.8-2.8-1.6-4.1-2.5c-0.9-0.7-1.6-1.3-2.4-2c-0.8-0.9-1.5-1.9-2.1-3c-0.1,0.1-0.2,0.3-0.2,0.4
					c-0.2,0.7-0.4,1.3-0.5,1.9c-0.2,0.7-0.4,1.3-0.5,1.9C117.6,115.1,117.6,115.3,117.6,115.4z"/>
				<path class="st1" d="M118,117.1c0.4,0.7,0.8,1.2,1.4,1.6c0.5,0.5,1.1,1,1.8,1.4c0.9,0.6,1.9,1.1,2.8,1.6c1.8,1,3.6,1.9,5.3,2.8
					c1.7,0.7,3.5,1.3,5.3,1.5c3.8,0.5,7.6-0.1,11.2-1.4c1.8-0.7,3.5-1.6,5-2.7c0.6-0.4,1.2-1,1.8-1.4c1.1-1,2.2-2.2,3.1-3.4
					c-0.1-0.1-0.3-0.1-0.4-0.1c-0.4,0.1-0.7,0.1-1.1,0.1c-0.5,0.1-0.9,0.1-1.4,0.2c-0.4,0.1-0.6,0.1-0.9,0.2c-0.6,0.4-1.1,1-1.8,1.4
					c0.1-0.1,0.1-0.1,0.1-0.1c-0.9,0.7-1.9,1.3-2.8,1.7c-0.6,0.3-1.2,0.6-1.9,0.8c-1.6,0.5-3.2,1-4.9,1c-1.6,0.1-3.1,0.1-4.7-0.2
					c-1.5-0.2-3.1-0.5-4.5-1.1c-0.6-0.2-1.2-0.5-1.8-0.7c-0.5-0.3-0.9-0.7-1.5-1c-1.2-0.8-2.6-1.6-3.8-2.5c-0.7-0.5-1.4-1.2-2.1-1.8
					c-0.2-0.2-0.5-0.5-0.6-0.8c-0.5-0.5-0.9-1.2-1.2-1.9c-0.1,0.1-0.3,0.2-0.4,0.4c-0.4,0.6-0.6,1.2-0.9,1.8
					c-0.4,0.6-0.6,1.2-0.9,1.9C118,116.7,118,116.9,118,117.1z"/>
				<path class="st1" d="M118.7,114.1c0.4,0.7,0.7,1.2,1.2,1.7c0.5,0.5,1.1,1,1.6,1.4c0.9,0.6,1.8,1.1,2.7,1.6
					c1.8,1,3.6,1.9,5.5,2.8c0.6,0.3,1.4,0.5,2,0.8c1.1,0.4,2.1,0.5,3.3,0.7c3.8,0.5,7.6-0.1,11.2-1.4c1.8-0.7,3.5-1.6,5.1-2.8
					c0.6-0.5,1.2-1,1.8-1.4c1.1-1,2.2-2.2,3.1-3.4c0.1-0.1-1.9-1-1.9-1c-0.1-0.1-1.9-1-2-0.8c-1.2,1.5-2.3,3-4,4
					c-1.1,0.7-2.2,1.4-3.3,1.9c-3.3,1.6-7,2-10.7,1.4c-0.7-0.1-1.4-0.2-2.1-0.4c-0.9-0.2-1.9-0.5-2.7-1c-1.5-0.7-3.1-1.5-4.5-2.3
					c-1-0.5-2-1.1-2.8-1.9c-0.4-0.3-0.6-0.5-0.9-0.8c-0.6-0.6-1.1-1.3-1.4-2c-0.1,0.1-0.2,0.2-0.2,0.3c-0.2,0.4-0.4,0.8-0.5,1.3
					C119.1,112.7,118.5,113.9,118.7,114.1z"/>
				<path class="st1" d="M117.7,113.7c0.4,0.6,0.8,1.1,1.3,1.6c0.5,0.5,1.1,1,1.7,1.4c0.9,0.6,1.8,1.1,2.7,1.6
					c1.8,1,3.6,1.9,5.5,2.8c0.6,0.3,1.4,0.5,2,0.8c1.1,0.4,2.2,0.5,3.3,0.7c3.8,0.5,7.6-0.1,11.2-1.5c1.8-0.7,3.5-1.6,5.1-2.8
					c0.6-0.5,1.2-1,1.8-1.4c1.1-1,2.1-2.2,3.1-3.5c0.1-0.1-1.5-1-1.5-1c-0.1-0.1-1.5-1-1.6-0.7c-1.2,1.7-2.5,3.2-4.1,4.5
					c-1.1,0.8-2.3,1.5-3.6,2.1c-3.4,1.6-7.5,2.1-11.2,1.5c-0.7-0.1-1.4-0.2-2.1-0.4c-1-0.2-1.9-0.5-2.8-1.1
					c-1.6-0.8-3.1-1.6-4.6-2.5c-1.1-0.6-2.1-1.3-3-2c-0.4-0.3-0.6-0.7-1-1c-0.6-0.6-1.1-1.3-1.4-2c-0.1,0.1-0.1,0.2-0.2,0.3
					c-0.1,0.4-0.2,0.8-0.3,1.3C117.9,112.4,117.6,113.5,117.7,113.7z"/>
				<path class="st1" d="M117.5,113.4c0.8,1,0.8,1.3,1.9,2.2c1,0.8,2.1,1.6,3.3,2.2c1.4,0.7,2.8,1.4,4.1,2.2c2,1,4.1,1.9,6.3,2.3
					c3.8,0.7,7.7,0.2,11.4-1c1.1-0.4,2.2-0.8,3.2-1.4c1.1-0.5,2.1-1.1,3-1.9c0.6-0.5,1.2-1,1.9-1.5c1.1-1,2.1-2.3,3.1-3.6
					c0.1-0.1-2.1-1.7-2.3-1.4c-0.4,0.6-0.8,1.2-1.2,1.8c-0.6,0.8-1.4,1.6-2.2,2.3c-1.1,1-2.3,1.8-3.6,2.5c-3.2,1.8-6.8,2.6-10.5,2.5
					c-1.5-0.1-3-0.2-4.4-0.7c-1.1-0.2-2-0.5-2.9-1.1c-0.6-0.3-1.4-0.7-2.1-1c-1.1-0.5-2.3-1.2-3.3-1.8c-2.1-1.2-3.8-2.5-5.1-4.8
					c-0.2-0.3-0.3,0.5-0.3,0.5c-0.1,0.4-0.1,0.7-0.2,1C117.5,113,117.5,113.2,117.5,113.4z"/>
				<path class="st1" d="M118.2,115.3c0.4,0.6,0.8,1.2,1.3,1.6c0.5,0.5,1.1,1,1.7,1.4c0.9,0.6,1.8,1.1,2.7,1.6
					c1.8,1,3.6,1.9,5.3,2.8c1.7,0.7,3.4,1.3,5.3,1.5c3.8,0.5,7.6-0.1,11.1-1.4c1.8-0.7,3.5-1.6,5-2.7c0.6-0.4,1.2-1,1.8-1.4
					c1.1-1,2.1-2.2,3.1-3.4c-0.1-0.1-0.3-0.2-0.5-0.2c-0.6-0.1-1.2-0.3-1.9-0.4c-0.6-0.1-1.3-0.2-1.9-0.4c-0.2-0.1-0.4-0.1-0.5,0
					c-1.4,1.3-2.7,2.5-4.3,3.4c-1.1,0.5-2.2,1-3.3,1.4c-3.2,1-6.8,1-10.1,0.4c-0.6-0.1-1.3-0.3-1.9-0.5c-0.9-0.2-1.7-0.7-2.5-1.2
					c-1.4-0.8-2.8-1.5-4.1-2.5c-0.8-0.5-1.6-1.2-2.4-1.9c-0.9-0.8-1.5-1.7-2.1-2.8c-0.1,0.1-0.2,0.3-0.3,0.4
					c-0.2,0.7-0.5,1.3-0.8,1.9c-0.2,0.7-0.5,1.3-0.6,1.9C118.2,115,118.2,115.1,118.2,115.3z"/>
				<path class="st1" d="M117.5,114c0.4,0.7,0.8,1.2,1.2,1.6c0.5,0.5,1.1,1,1.7,1.4c0.9,0.6,1.8,1.1,2.7,1.6c1.8,1,3.6,1.9,5.5,2.8
					c0.6,0.3,1.4,0.5,2,0.8c1.1,0.4,2.2,0.5,3.3,0.7c3.8,0.5,7.6-0.1,11.2-1.4c1.8-0.7,3.5-1.6,5.1-2.8c0.6-0.5,1.2-1,1.9-1.4
					c1.1-1,2.2-2.2,3.1-3.5c0.1-0.1-1.6-0.8-1.5-0.8c-0.1-0.1-1.5-0.7-1.6-0.5c-1.3,1.6-2.6,3.1-4.3,4.3c-1.1,0.7-2.3,1.4-3.6,1.9
					c-3.5,1.6-7.5,1.8-11.2,1.1c-0.7-0.1-1.4-0.2-2.1-0.5c-1-0.2-1.9-0.6-2.8-1.2c-1.5-0.8-3.1-1.6-4.6-2.5c-1-0.7-2-1.3-2.8-2.1
					c-0.4-0.3-0.6-0.7-0.9-1c-0.6-0.7-1.1-1.3-1.4-2.2c-0.1,0.1-0.1,0.2-0.2,0.4c-0.1,0.4-0.2,1-0.2,1.4c0,0.4-0.1,1-0.2,1.4
					C117.4,113.8,117.5,113.9,117.5,114z"/>
				<path class="st1" d="M118,113c0.6,1,0.9,1.6,1.8,2.4c0.8,0.7,1.8,1.3,2.6,1.8c1.2,0.7,2.6,1.3,3.9,2c2,1,4,2,6.2,2.5
					c4.1,1,8.5,0.7,12.5-0.8c2.2-0.8,4.3-1.9,6.2-3.3c0.6-0.5,1.2-1,1.8-1.5c1.1-1,2.1-2.3,3.1-3.6c0.1-0.2-2.1-1.9-2.2-1.7
					c-1.1,1.6-2,3-3.3,4.2c-1.4,1.3-2.8,2.3-4.4,3.1c-3.1,1.6-7,2.5-10.5,2.2c-1.5-0.1-3.1-0.4-4.5-0.8c-0.9-0.4-1.9-0.8-2.8-1.3
					c-0.6-0.3-1.4-0.7-2.1-1c-1.2-0.7-2.6-1.3-3.7-2c-0.4-0.3-0.8-0.5-1.2-0.8c-1.2-0.9-2.1-2-2.6-3.4c-0.1-0.3-0.3,0.4-0.3,0.4
					c-0.1,0.3-0.1,0.6-0.2,1C118,112.7,118,112.9,118,113z"/>
				<path class="st1" d="M117.9,116.4c0.4,0.7,0.8,1.2,1.3,1.6c0.5,0.5,1.1,1,1.8,1.4c0.9,0.6,1.8,1.1,2.7,1.6
					c1.8,1,3.6,1.9,5.3,2.8c1.7,0.7,3.4,1.3,5.3,1.5c3.8,0.5,7.6-0.1,11.1-1.4c1.8-0.7,3.5-1.6,5-2.7c0.6-0.4,1.2-1,1.8-1.4
					c1.1-1,2.1-2.2,3.1-3.4c-0.1-0.1-0.3-0.1-0.5-0.1c-0.6-0.1-1.2-0.1-1.8-0.1s-1.2,0-1.8,0.1c-0.2-0.1-0.4,0-0.5,0.1
					c-1.5,1.3-3.1,2.5-4.9,3.3c-1.2,0.5-2.4,1-3.6,1.2c-3.3,0.8-6.9,0.5-10.2-0.4c-0.6-0.1-1.2-0.3-1.9-0.6
					c-0.9-0.3-1.6-0.7-2.4-1.3c-1.4-0.8-2.7-1.6-3.9-2.5c-0.8-0.6-1.5-1.2-2.1-1.9c-0.8-0.8-1.4-1.8-1.9-2.8
					c-0.1,0.1-0.2,0.3-0.4,0.5c-0.3,0.7-0.6,1.3-0.8,2c-0.3,0.7-0.5,1.3-0.8,2C118,116,117.9,116.2,117.9,116.4z"/>
				<path class="st1" d="M118,114.7c0.4,0.7,0.8,1.2,1.3,1.6c0.5,0.5,1.1,1,1.6,1.4c0.9,0.6,1.8,1.1,2.7,1.6c1.8,1,3.6,1.9,5.3,2.8
					c0.6,0.3,1.4,0.5,2.1,0.8c1.1,0.4,2.1,0.6,3.3,0.7c3.8,0.5,7.6,0,11.1-1.4c1.8-0.7,3.5-1.6,5-2.7c0.6-0.4,1.2-1,1.8-1.4
					c1.1-1,2.1-2.2,3.1-3.4c0.1-0.1-2.2-0.8-2.2-0.8c-0.6-0.2-1.2-0.4-1.8-0.5c-0.2-0.1-0.4-0.1-0.5-0.1c-1.3,1.4-2.6,2.7-4.3,3.7
					c-1.1,0.7-2.3,1.2-3.4,1.6c-3.3,1.3-7,1.3-10.5,0.7c-0.6-0.1-1.4-0.3-2-0.5c-0.9-0.2-1.8-0.7-2.6-1.2c-1.5-0.8-2.9-1.6-4.3-2.5
					c-0.9-0.6-1.8-1.3-2.6-2c-0.9-0.8-1.5-1.9-2.1-3c-0.1,0.1-0.2,0.2-0.2,0.4c-0.2,0.6-0.4,1.2-0.5,1.8c-0.2,0.6-0.4,1.2-0.5,1.8
					C118,114.3,117.9,114.5,118,114.7z"/>
			</g>
		</g>
	</g>
	<g>
		<g>
			<g>
				<path class="st1" d="M120.9,82.2c2.1,0.3,4.1,0.4,6.2,0.4c2.1,0.1,4.3,0,6.3-0.2c-0.1-0.2-0.1-0.3-0.2-0.4
					c-0.4-0.5-0.8-1-1.2-1.4c-0.4-0.5-0.8-1-1.2-1.4c-0.1-0.1-0.2-0.2-0.4-0.3c-2.1,0.2-4.1,0.2-6.2,0.1c-2-0.1-4-0.2-5.9-0.5
					c0,0.2,0.1,0.3,0.2,0.4c0.4,0.5,0.6,1,1,1.6c0.4,0.5,0.6,1,1.1,1.6C120.6,82,120.7,82.1,120.9,82.2z"/>
				<path class="st1" d="M120.3,81.3c2.1,0.2,4.1,0.4,6.2,0.4c2.1,0.1,4.3,0,6.3-0.2c0-0.1-0.1-0.3-0.2-0.4
					c-0.4-0.4-0.6-0.9-1.1-1.3c-0.4-0.4-0.7-0.8-1.1-1.3c-0.1-0.1-0.2-0.2-0.4-0.3c-2.1,0.2-4.1,0.2-6.2,0.1c-2,0-4-0.2-6-0.5
					c0,0.1,0.1,0.3,0.1,0.4c0.3,0.4,0.6,1,0.9,1.4c0.3,0.4,0.6,1,0.9,1.4C120,81.1,120.2,81.2,120.3,81.3z"/>
				<path class="st1" d="M119.8,82.6c2.1,0.3,4.1,0.4,6.3,0.4c2.1,0.1,4.3,0,6.3-0.2c-0.1-0.2-0.1-0.3-0.4-0.4
					c-0.5-0.4-0.9-0.8-1.4-1.2c-0.5-0.4-0.9-0.7-1.4-1.1c-0.1-0.1-0.3-0.2-0.4-0.2c-2.1,0.1-4.1,0.2-6.2,0.1c-2.1-0.1-4.1-0.2-6-0.5
					c0.1,0.2,0.1,0.3,0.2,0.4c0.4,0.4,0.8,0.9,1.2,1.3c0.4,0.4,0.9,0.8,1.4,1.3C119.4,82.5,119.6,82.5,119.8,82.6z"/>
				<path class="st1" d="M120.4,84.3c2.1,0.3,4.2,0.4,6.3,0.4c2.1,0.1,4.3,0,6.3-0.2c-0.1-0.1-0.2-0.2-0.4-0.3
					c-0.6-0.3-1.1-0.6-1.7-0.9c-0.6-0.3-1.1-0.5-1.8-0.8c-0.1-0.1-0.4-0.1-0.5-0.1c-2.8,0.1-5.6,0.1-8.3-0.2c0.1,0,0.1,0,0.1,0
					c-1.4-0.2-2.8-0.4-4.2-0.5c0.1,0.2,0.2,0.3,0.4,0.4c0.5,0.4,1.1,0.7,1.6,1.1c0.5,0.4,1.1,0.7,1.6,1
					C120,84.2,120.2,84.3,120.4,84.3z"/>
				<path class="st1" d="M120.9,81.3c2.1,0.3,4.1,0.4,6.2,0.4c2.1,0.1,4.3,0,6.3-0.2c0.1,0-1.1-1.8-1.1-1.7
					c-0.3-0.4-0.6-0.9-0.9-1.3c-0.1-0.1-0.2-0.2-0.4-0.3c-2.1,0.2-4.1,0.2-6.2,0.1c-2,0-4-0.2-6-0.5c-0.1,0.1,0,0.3,0.1,0.4
					c0.2,0.4,0.5,1,0.7,1.4s0.5,1,0.8,1.4C120.7,81.1,120.8,81.3,120.9,81.3z"/>
				<path class="st1" d="M120.3,80.8c2.1,0.2,4.1,0.2,6.2,0.2c2.1,0.1,4.3,0,6.3-0.2c0.1,0-0.9-1.4-0.9-1.4
					c-0.1-0.2-0.8-1.3-1.1-1.3c-2.1,0.2-4.2,0.2-6.3,0.1c-2,0-4-0.1-6-0.4c-0.1,0,0.8,1.6,0.7,1.5C119.4,79.6,119.9,80.8,120.3,80.8
					z"/>
				<path class="st1" d="M120.3,80.5c2.1,0.2,4.1,0.3,6.2,0.3c2.1,0.1,4.3,0,6.3-0.2c0.1,0-0.6-1.1-0.6-1c-0.1-0.1-0.5-1-0.8-0.9
					c-2.1,0.2-4.2,0.3-6.3,0.2c-2.1,0.1-4.1-0.1-6-0.4c-0.1,0,0.5,1.1,0.5,1.1C119.7,79.7,120,80.5,120.3,80.5z"/>
				<path class="st1" d="M120.4,82.5c2.1,0.3,4.1,0.4,6.3,0.4c2.1,0.1,4.3,0,6.3-0.2c-0.1-0.2-0.2-0.3-0.4-0.4
					c-0.5-0.5-0.9-1-1.5-1.4c-0.5-0.5-1-1-1.5-1.4c-0.1-0.1-0.3-0.2-0.5-0.3c-2.1,0.1-4.1,0.2-6.2,0c-2-0.1-4-0.2-6-0.6
					c0.1,0.2,0.1,0.4,0.3,0.5c0.4,0.5,0.9,1.1,1.3,1.6c0.4,0.5,0.9,1,1.4,1.6C120,82.3,120.2,82.5,120.4,82.5z"/>
				<path class="st1" d="M119.7,81.1c2.1,0.3,4.1,0.4,6.3,0.4c2.1,0.1,4.3,0,6.3-0.2c0-0.1-0.1-0.2-0.1-0.3c-0.3-0.4-0.6-0.7-0.9-1
					c-0.2-0.2-0.9-1.2-1.2-1.2c-2.1,0.2-4.2,0.2-6.3,0.1c-2.1,0-4.1-0.2-6.1-0.6c0,0.1,0.1,0.2,0.1,0.4c0.2,0.4,0.5,0.7,0.8,1.1
					C118.9,80.1,119.4,81.1,119.7,81.1z"/>
				<path class="st1" d="M120.9,80.3c2.1,0.2,4.1,0.3,6.2,0.3c2.1,0.1,4.3,0,6.3-0.2c0.1,0-0.5-1.1-0.5-1c-0.1-0.1-0.4-1-0.6-1
					c-2.1,0.2-4.2,0.3-6.3,0.2c-2.1,0.1-4.1-0.1-6-0.4c-0.1,0,0.4,1.1,0.4,1.1C120.3,79.5,120.6,80.3,120.9,80.3z"/>
				<path class="st1" d="M120.2,83.5c2.1,0.3,4.2,0.4,6.3,0.4c2.1,0.1,4.3,0,6.3-0.2c-0.1-0.2-0.2-0.3-0.4-0.4
					c-0.6-0.4-1.1-0.8-1.6-1.2c-0.6-0.4-1.1-0.7-1.7-1.1c-0.1-0.1-0.4-0.2-0.5-0.2c-2.1,0.1-4.1,0.1-6.2-0.1c-2.1-0.1-4.1-0.3-6-0.7
					c0.1,0.2,0.2,0.3,0.4,0.4c0.5,0.4,1.1,1,1.6,1.3c0.5,0.4,1.1,0.9,1.6,1.3C119.9,83.4,120,83.4,120.2,83.5z"/>
				<path class="st1" d="M120.1,81.8c2.1,0.3,4.1,0.4,6.2,0.4c2.1,0.1,4.3,0.1,6.3-0.2c-0.1-0.2-0.1-0.3-0.2-0.4
					c-0.4-0.4-0.8-1-1.2-1.4c-0.4-0.4-0.9-0.9-1.4-1.3c-0.1-0.1-0.2-0.2-0.4-0.3c-2.1,0.2-4.1,0.2-6.2,0.1c-2-0.1-4-0.2-6-0.5
					c0,0.2,0.1,0.3,0.2,0.4c0.4,0.5,0.7,1,1.1,1.5c0.4,0.5,0.8,1,1.1,1.4C119.8,81.7,119.9,81.7,120.1,81.8z"/>
			</g>
		</g>
	</g>
	<g>
		<g>
			<g>
				<path class="st1" d="M148.8,82.8c3.8-0.4,7.6-1,11.4-1.4c-0.1-0.2-0.2-0.3-0.4-0.4c-0.5-0.4-1-0.8-1.5-1.2
					c-0.5-0.4-1.1-0.8-1.5-1.1c-0.1-0.1-0.3-0.2-0.5-0.2c-3.7,0.4-7.4,0.8-11.1,1.1c0.1,0.2,0.1,0.3,0.4,0.4
					c0.5,0.4,0.9,0.9,1.4,1.3c0.5,0.4,0.9,0.8,1.5,1.3C148.5,82.7,148.6,82.8,148.8,82.8z"/>
				<path class="st1" d="M148.2,81.9c3.8-0.4,7.6-0.9,11.4-1.3c-0.1-0.1-0.1-0.3-0.3-0.4c-0.4-0.4-0.9-0.8-1.3-1.1
					c-0.4-0.4-0.9-0.7-1.4-1.1c-0.1-0.1-0.2-0.2-0.4-0.2c-3.7,0.4-7.4,0.8-11.1,1.1c0.1,0.1,0.1,0.3,0.2,0.4
					c0.4,0.4,0.8,0.8,1.2,1.2c0.4,0.4,0.8,0.8,1.2,1.2C147.8,81.7,148,81.9,148.2,81.9z"/>
				<path class="st1" d="M147.7,83.2c3.8-0.4,7.6-0.9,11.4-1.3c-0.1-0.1-0.2-0.2-0.4-0.3c-0.5-0.3-1.1-0.5-1.6-0.8
					c-0.5-0.3-1.1-0.5-1.6-0.8c-0.1-0.1-0.3-0.1-0.5-0.1c-3.7,0.4-7.5,0.8-11.2,1.1c0.1,0.1,0.2,0.2,0.4,0.3c0.5,0.3,1,0.7,1.5,1
					c0.5,0.3,1,0.6,1.5,0.9C147.3,83.2,147.5,83.2,147.7,83.2z"/>
				<path class="st1" d="M148.2,84.9c3.8-0.4,7.6-1,11.4-1.4c0.5-0.1-1.4-0.5-1.1-0.4c-0.7-0.2-1.4-0.4-2.1-0.5
					c-0.4-0.1-0.8-0.2-1.1-0.2c-3.8,0.4-7.5,0.8-11.4,1.2c-0.2,0-0.2,0.1-0.1,0.1c0.4,0.1,0.7,0.3,1.1,0.4c0.6,0.2,1.4,0.4,2.1,0.6
					C147.4,84.8,147.8,84.9,148.2,84.9z"/>
				<path class="st1" d="M148.8,81.9c3.8-0.4,7.6-0.9,11.4-1.3c-0.1-0.1-0.1-0.3-0.2-0.4c-0.4-0.4-0.8-0.8-1.2-1.2
					c-0.4-0.4-0.8-0.8-1.2-1.1c-0.1-0.1-0.2-0.2-0.4-0.2c-3.7,0.4-7.3,0.8-11.1,1.1c0,0.1,0.1,0.3,0.2,0.4c0.4,0.4,0.7,0.8,1.1,1.3
					c0.4,0.4,0.7,0.8,1.1,1.3C148.6,81.8,148.7,81.9,148.8,81.9z"/>
				<path class="st1" d="M148.1,81.2c3.8-0.4,7.6-0.8,11.4-1.3c0-0.1-0.1-0.2-0.2-0.3c-0.4-0.3-0.6-0.7-0.9-1
					c-0.2-0.2-0.9-1.1-1.4-1.1c-3.7,0.5-7.5,0.9-11.2,1.1c0,0.1,0.1,0.2,0.2,0.4c0.3,0.4,0.6,0.7,0.9,1
					C147,80.2,147.8,81.3,148.1,81.2z"/>
				<path class="st1" d="M148.3,81c3.7-0.5,7.5-1,11.2-1.5c0.1,0-0.8-1-0.8-1c-0.1-0.1-0.6-0.8-0.9-0.8c-3.7,0.4-7.4,0.9-11.1,1.3
					c-0.1,0,0.7,1.1,0.7,1C147.5,80.2,148,81.1,148.3,81z"/>
				<path class="st1" d="M148.3,83.1c3.8-0.4,7.6-0.9,11.4-1.3c-0.1-0.2-0.2-0.3-0.4-0.4c-0.6-0.4-1.1-0.7-1.8-1.1
					c-0.6-0.4-1.2-0.7-1.8-1c-0.1-0.1-0.4-0.2-0.5-0.2c-3.7,0.4-7.5,0.8-11.2,1c0.1,0.2,0.2,0.3,0.4,0.4c0.5,0.4,1.1,0.8,1.6,1.2
					c0.6,0.4,1.1,0.8,1.7,1.2C148,83.1,148.1,83.1,148.3,83.1z"/>
				<path class="st1" d="M147.6,81.7c3.8-0.4,7.6-0.8,11.4-1.3c-0.1-0.1-0.1-0.2-0.2-0.3c-0.4-0.3-0.6-0.6-1.1-0.9
					c-0.2-0.2-1.1-1-1.4-1c-3.7,0.5-7.5,0.9-11.2,1.1c0,0.1,0.1,0.2,0.2,0.3c0.4,0.3,0.6,0.7,0.9,1
					C146.5,80.8,147.3,81.7,147.6,81.7z"/>
				<path class="st1" d="M148.8,80.8c3.8-0.5,7.5-1,11.2-1.5c0.1,0-0.7-1.1-0.6-1c-0.1-0.1-0.6-1-0.9-0.9c-3.7,0.4-7.4,0.9-11.1,1.3
					c-0.1,0,0.6,1.2,0.6,1.1C148.1,79.9,148.6,80.8,148.8,80.8z"/>
				<path class="st1" d="M148.1,84.2c3.8-0.4,7.6-1,11.4-1.4c-0.1-0.1-0.2-0.2-0.5-0.3c-0.6-0.2-1.2-0.5-1.9-0.7
					c-0.6-0.2-1.2-0.4-1.9-0.7c-0.2-0.1-0.4-0.1-0.5-0.1c-3.8,0.4-7.5,0.8-11.2,1.1c0.1,0.1,0.2,0.2,0.4,0.3
					c0.6,0.3,1.2,0.5,1.8,0.8c0.6,0.3,1.2,0.5,1.9,0.8C147.8,84.1,147.9,84.2,148.1,84.2z"/>
				<path class="st1" d="M148,82.5c3.8-0.4,7.6-0.9,11.4-1.3c-0.1-0.2-0.2-0.3-0.4-0.4c-0.5-0.4-1-0.7-1.5-1.1
					c-0.5-0.4-1.1-0.7-1.5-1c-0.1-0.1-0.3-0.2-0.5-0.2c-3.7,0.4-7.5,0.8-11.2,1.1c0.1,0.2,0.1,0.3,0.4,0.4c0.5,0.4,0.9,0.8,1.4,1.2
					c0.5,0.4,0.9,0.8,1.5,1.2C147.6,82.3,147.8,82.5,148,82.5z"/>
			</g>
		</g>
	</g>
	<g>
		<g>
			<g>
				<path class="st1" d="M125.9,87.4c0.4,0.4,0.6,0.7,1.1,1c0.1-0.1,0.1-0.3,0.1-0.4c0.1-0.5,0.1-1.2,0.1-1.7
					c0.1-0.5,0.1-1.2,0.1-1.7c0.1-0.2,0-0.3-0.1-0.4c-0.2-0.3-0.5-0.7-0.8-1c-0.1,0.1-0.2,0.3-0.2,0.4c-0.1,0.5-0.2,1.1-0.2,1.7
					c-0.1,0.5-0.1,1.1-0.2,1.7C125.9,87.2,125.9,87.3,125.9,87.4z"/>
				<path class="st1" d="M125.3,86.6c0.4,0.4,0.6,0.7,1,1c0.1-0.1,0.1-0.3,0.1-0.4c0-0.5,0-1-0.1-1.6c0-0.5-0.1-1-0.1-1.6
					c0-0.2-0.1-0.3-0.1-0.4c-0.3-0.3-0.5-0.7-0.8-1c-0.1,0.1-0.1,0.2-0.1,0.4c-0.1,0.5-0.1,1-0.1,1.6c0,0.5,0,1,0,1.6
					C125.1,86.3,125.2,86.4,125.3,86.6z"/>
				<path class="st1" d="M124.9,87.9c0.4,0.4,0.6,0.7,1.1,1c0.1-0.2,0.1-0.4,0.1-0.5c-0.1-0.7-0.1-1.3-0.2-1.9
					c-0.1-0.7-0.1-1.3-0.2-1.9c0-0.2-0.1-0.4-0.2-0.5c-0.3-0.3-0.5-0.7-0.8-1c-0.1,0.2-0.1,0.3-0.1,0.5c0.1,0.7,0.1,1.3,0.1,1.9
					c0.1,0.7,0.1,1.3,0.2,1.9C124.7,87.5,124.7,87.7,124.9,87.9z"/>
				<path class="st1" d="M125.3,89.5c0.4,0.4,0.7,0.7,1.1,1c0.1-0.2,0.1-0.4,0.1-0.5c0-0.7,0-1.4-0.1-2.1c-0.1-0.7-0.1-1.4-0.1-2.1
					c0-0.2-0.1-0.4-0.1-0.5c-0.2-0.4-0.5-0.7-0.8-1c-0.1,0.2-0.1,0.4-0.1,0.5c-0.1,0.7-0.1,1.4-0.1,2.1s0,1.4,0,2.1
					C125.1,89.2,125.1,89.3,125.3,89.5z"/>
				<path class="st1" d="M125.9,86.6c0.4,0.4,0.6,0.7,1,1c0.1-0.1,0.1-0.2,0.1-0.4c0.1-0.4,0.1-1,0.1-1.4c0.1-0.4,0.2-1.4-0.1-1.8
					c-0.3-0.4-0.5-0.7-0.8-1c-0.1,0.1-0.1,0.2-0.1,0.4c-0.1,0.4-0.1,1-0.2,1.4C126,85.1,125.6,86.3,125.9,86.6z"/>
				<path class="st1" d="M125.1,86.1c0.4,0.3,0.6,0.6,1,0.9c0.1-0.1,0.1-0.2,0.1-0.3c0-0.3,0-0.5-0.1-0.8c-0.1-0.4-0.1-0.7-0.1-1
					c0-0.2-0.1-0.5-0.1-0.7c-0.3-0.4-0.6-0.7-0.9-1c-0.1,0.1-0.1,0.2-0.1,0.3c0,0.4,0,0.8,0,1.3C124.9,84.9,124.8,85.9,125.1,86.1z"
					/>
				<path class="st1" d="M124.9,85.8c0.4,0.3,0.6,0.7,1,1c0.2,0.2,0.1-0.6,0.1-0.5c-0.1-0.4-0.1-0.7-0.1-1c0-0.2-0.1-0.4-0.1-0.5
					c-0.3-0.4-0.6-0.7-0.9-1c-0.2-0.2-0.2,0.6-0.2,0.5c0,0.4,0.1,0.7,0.1,1C124.7,85.5,124.7,85.7,124.9,85.8z"/>
				<path class="st1" d="M125.4,87.8c0.4,0.4,0.6,0.7,1.1,1c0.1-0.2,0.1-0.4,0.1-0.5c0.1-0.7,0.1-1.4,0.1-2c0-0.7,0-1.4-0.1-2
					c0.1-0.2,0-0.4-0.1-0.5c-0.2-0.3-0.5-0.7-0.8-1c-0.1,0.2-0.1,0.4-0.1,0.5c-0.1,0.7-0.1,1.4-0.1,2c-0.1,0.7-0.1,1.4-0.1,2
					C125.3,87.4,125.4,87.5,125.4,87.8z"/>
				<path class="st1" d="M124.7,86.3c0.4,0.4,0.6,0.7,0.9,1c0.3,0.3,0.1-1,0.1-0.8c-0.1-0.5-0.1-1-0.2-1.6c-0.1-0.3-0.1-0.5-0.2-0.8
					c-0.3-0.4-0.6-0.7-0.9-1.1c-0.1-0.1-0.1-0.1-0.1,0c0,0.1,0,0.2-0.1,0.3c0,0.3,0.1,0.7,0.1,1c0.1,0.5,0.1,1,0.1,1.4
					C124.6,86,124.6,86.2,124.7,86.3z"/>
				<path class="st1" d="M125.4,85.5c0.4,0.4,0.6,0.9,1.1,1.3c0.2,0.2,0.2-0.5,0.2-0.4c0-0.4,0.1-1-0.1-1.3c-0.4-0.5-0.6-1-0.9-1.4
					c-0.2-0.3-0.2,0.5-0.2,0.5c-0.1,0.3-0.1,0.7-0.1,1C125.3,85.2,125.3,85.3,125.4,85.5z"/>
				<path class="st1" d="M125.1,88.8c0.4,0.4,0.7,0.7,1.1,1c0.1-0.2,0.1-0.4,0.1-0.6c-0.1-0.7-0.1-1.4-0.1-2.2
					c-0.1-0.7-0.1-1.4-0.1-2.2c0-0.2-0.1-0.4-0.1-0.5c-0.3-0.4-0.5-0.7-0.8-1c-0.1,0.2-0.1,0.4-0.1,0.5c0,0.7,0,1.4,0,2.2
					s0.1,1.4,0.1,2.2C125,88.4,125.1,88.7,125.1,88.8z"/>
				<path class="st1" d="M125.1,87c0.4,0.4,0.6,0.7,1.1,1c0.1-0.1,0.1-0.3,0.1-0.5c0-0.6-0.1-1.3-0.1-1.9c-0.1-0.6-0.1-1.3-0.1-1.9
					c0-0.2-0.1-0.4-0.1-0.5c-0.3-0.3-0.5-0.7-0.8-1c-0.1,0.1-0.1,0.3-0.1,0.5c0,0.6-0.1,1.3,0,1.9c0,0.6,0,1.3,0.1,1.9
					C125,86.7,125.1,86.9,125.1,87z"/>
			</g>
		</g>
	</g>
	<g>
		<g>
			<g>
				<path class="st1" d="M152.5,86.6c0.2,0.4,0.4,1,0.6,1.4c0.1-0.1,0.2-0.2,0.3-0.4c0.2-0.5,0.5-1,0.6-1.6c0.2-0.5,0.4-1,0.6-1.6
					c0.1-0.1,0.1-0.3,0.1-0.4c-0.1-0.4-0.4-0.8-0.5-1.3c-0.1,0.1-0.2,0.2-0.3,0.4c-0.2,0.5-0.5,1-0.8,1.5c-0.2,0.5-0.5,1-0.6,1.6
					C152.5,86.2,152.5,86.4,152.5,86.6z"/>
				<path class="st1" d="M152,85.7c0.2,0.4,0.4,1,0.6,1.4c0.1-0.1,0.2-0.2,0.2-0.4c0.1-0.5,0.3-1,0.4-1.6c0.1-0.5,0.2-1,0.4-1.6
					c0.1-0.1,0.1-0.3,0-0.4c-0.2-0.4-0.4-0.8-0.5-1.3c-0.1,0.1-0.2,0.2-0.2,0.4c-0.2,0.5-0.4,1-0.5,1.6c-0.1,0.5-0.3,1-0.4,1.6
					C151.9,85.3,151.9,85.5,152,85.7z"/>
				<path class="st1" d="M151.5,86.9c0.2,0.4,0.5,1,0.6,1.4c0.1-0.1,0.2-0.3,0.2-0.5c0.2-0.7,0.4-1.3,0.5-1.9
					c0.2-0.7,0.4-1.3,0.5-1.9c0.1-0.2,0.1-0.4,0.1-0.5c-0.2-0.4-0.4-0.8-0.5-1.3c-0.1,0.1-0.2,0.3-0.2,0.4c-0.2,0.7-0.4,1.3-0.6,1.9
					c-0.2,0.6-0.4,1.3-0.5,1.9C151.5,86.6,151.5,86.8,151.5,86.9z"/>
				<path class="st1" d="M151.8,88.7c0.2,0.4,0.5,1,0.7,1.4c0.1-0.1,0.3-0.2,0.4-0.4c0.4-0.6,0.6-1.2,0.9-1.9
					c0.4-0.6,0.6-1.3,0.9-1.9c0.1-0.2,0.1-0.4,0.1-0.5c-0.1-0.4-0.3-0.8-0.5-1.3c-0.2,0.1-0.3,0.2-0.4,0.4c-0.4,0.5-0.7,1.2-1.1,1.8
					c-0.4,0.6-0.6,1.2-1,1.8C151.9,88.2,151.8,88.4,151.8,88.7z"/>
				<path class="st1" d="M152.5,85.7c0.2,0.5,0.4,1,0.6,1.4c0.1-0.1,0.2-0.2,0.2-0.3c0.2-0.4,0.4-0.8,0.5-1.3
					c0.1-0.4,0.6-1.3,0.4-1.7c-0.1-0.4-0.4-0.9-0.5-1.3c-0.1,0.1-0.2,0.1-0.2,0.3c-0.2,0.4-0.4,0.8-0.5,1.3
					C153,84.3,152.4,85.3,152.5,85.7z"/>
				<path class="st1" d="M151.6,85.2c0.2,0.4,0.5,0.8,0.6,1.2c0.1-0.1,0.1-0.2,0.2-0.3c0.1-0.3,0.1-0.5,0.2-0.8
					c0.1-0.4,0.1-0.7,0.2-1.1c0.1-0.2,0.1-0.5,0.1-0.8c-0.2-0.4-0.4-0.9-0.6-1.3c-0.1,0.1-0.2,0.2-0.2,0.3c-0.1,0.4-0.2,0.8-0.4,1.3
					C151.8,84,151.4,84.9,151.6,85.2z"/>
				<path class="st1" d="M151.3,84.9c0.2,0.4,0.4,0.8,0.6,1.3c0.1,0.3,0.3-0.6,0.2-0.5c0.1-0.4,0.1-0.7,0.1-1c0.1-0.2,0.1-0.4,0-0.5
					c-0.2-0.4-0.4-0.8-0.5-1.3c-0.1-0.3-0.4,0.6-0.3,0.5c-0.1,0.4-0.1,0.7-0.2,1.1C151.3,84.5,151.3,84.7,151.3,84.9z"/>
				<path class="st1" d="M152.1,86.9c0.2,0.4,0.5,1,0.6,1.3c0.1-0.1,0.2-0.3,0.3-0.4c0.2-0.7,0.5-1.3,0.7-1.9s0.5-1.3,0.6-1.9
					c0.1-0.2,0.1-0.4,0.1-0.5c-0.1-0.4-0.4-0.8-0.5-1.3c-0.1,0.1-0.2,0.3-0.3,0.4c-0.3,0.6-0.5,1.3-0.8,1.9
					c-0.2,0.7-0.5,1.3-0.8,1.9C152.1,86.5,152,86.6,152.1,86.9z"/>
				<path class="st1" d="M151.3,85.5c0.2,0.4,0.4,1,0.6,1.4c0.1-0.1,0.1-0.2,0.1-0.4c0.1-0.3,0.1-0.7,0.2-1c0.1-0.4,0.1-0.8,0.2-1.3
					c0.1-0.3,0.1-0.5,0.1-0.8c-0.2-0.4-0.4-0.9-0.5-1.3c-0.1-0.1-0.1-0.1-0.1-0.1c-0.1,0.1-0.1,0.2-0.1,0.2c-0.1,0.3-0.1,0.7-0.2,1
					c-0.1,0.5-0.2,1-0.3,1.5C151.3,85.1,151.3,85.3,151.3,85.5z"/>
				<path class="st1" d="M151.8,84.6c0.2,0.5,0.4,1.1,0.6,1.6c0.1,0.3,0.3-0.5,0.3-0.4c0.1-0.4,0.4-1,0.2-1.4
					c-0.2-0.5-0.4-1.1-0.5-1.7c-0.1-0.3-0.4,0.5-0.3,0.4c-0.1,0.3-0.1,0.6-0.2,1C151.8,84.2,151.8,84.3,151.8,84.6z"/>
				<path class="st1" d="M151.8,87.9c0.2,0.4,0.5,1,0.7,1.4c0.1-0.1,0.2-0.3,0.4-0.5c0.3-0.7,0.5-1.3,0.8-2c0.2-0.7,0.5-1.3,0.8-2
					c0.1-0.2,0.1-0.4,0.1-0.5c-0.1-0.4-0.4-0.8-0.5-1.3c-0.1,0.1-0.2,0.3-0.4,0.5c-0.4,0.7-0.6,1.3-0.9,2c-0.3,0.7-0.6,1.3-0.9,2
					C151.8,87.5,151.8,87.7,151.8,87.9z"/>
				<path class="st1" d="M151.8,86.1c0.2,0.4,0.5,1,0.6,1.4c0.1-0.1,0.2-0.3,0.2-0.4c0.2-0.6,0.4-1.2,0.5-1.8
					c0.2-0.6,0.4-1.2,0.5-1.8c0.1-0.2,0.1-0.4,0.1-0.5c-0.2-0.4-0.4-0.8-0.5-1.3c-0.1,0.1-0.2,0.2-0.2,0.4c-0.2,0.5-0.4,1.2-0.6,1.8
					c-0.2,0.6-0.4,1.2-0.5,1.8C151.8,85.8,151.8,86,151.8,86.1z"/>
			</g>
		</g>
	</g>
</g>
</svg>
