<?xml version="1.0" encoding="utf-8"?>
<!-- Generator: Adobe Illustrator 21.0.0, SVG Export Plug-In . SVG Version: 6.00 Build 0)  -->
<svg version="1.1" id="Layer_1" xmlns="http://www.w3.org/2000/svg" xmlns:xlink="http://www.w3.org/1999/xlink" x="0px" y="0px"
	 viewBox="0 0 387.5 459.7" style="enable-background:new 0 0 387.5 459.7;" xml:space="preserve">
<style type="text/css">
	.st0{opacity:0.1797;fill:#FFFFFF;enable-background:new    ;}
	.st1{opacity:0.1091;fill:#FFFFFF;enable-background:new    ;}
</style>
<g>
	<g>
		<g>
			<path d="M387.1,418.3c0,22.6-19.8,41-44.2,41H44.6c-24.4,0-44.2-18.3-44.2-41v-26.4c0-22.6,19.8-41,44.2-41h298.4
				c24.4,0,44.2,18.3,44.2,41V418.3L387.1,418.3z"/>
			<g>
				<g>
					<path class="st0" d="M386.5,419.5c-0.3,2.4-0.5,4.8-0.7,7.2c-1.7,8.2-5.8,15.3-12.2,21c-2.3,2.1-4.8,3.8-7.4,5.4
						c-7.3,4.2-16,6.6-24.6,6.2c-2.8-0.2-5.5-0.1-8.3-0.2c-6.7,0-13.5-0.1-20.2-0.1c-41.1-0.1-82.1,0-123.2,0
						c-40.8,0-81.6,0-122.5,0c-7.7,0-15.4,0.1-23.2,0c-12.8-0.1-25-5.2-33.4-14.7c-4.7-5.3-8-11.9-9.2-18.8c-0.5-3-0.6-6.1-0.5-9.2
						c0.2-7,0.1-14,0.1-21c0-2.9,0.1-5.9,0.5-8.8c0.9-6.4,3.6-12.7,7.7-17.9c8.5-10.5,22.2-17.8,36.9-16.4c3.6,0.3,7.3,0.2,10.9,0.2
						c35.9,0.2,71.7,0.1,107.6,0.1c44.6,0,89.1,0,133.7,0c13.8,0,27.7,0,41.5,0c3.3,0,6.6,0,9.9,0.5c9.9,1.3,19.1,5.8,26,13
						c6.6,7,10.7,15.8,10.9,25.4c0.1,2.6-0.1,5.2-0.1,7.8C386.5,405.9,386.6,412.6,386.5,419.5c0,0.2,0.2,0.1,0.3,0.1
						c0.2-0.1,0.2-0.6,0.2-0.8c0.2-8.6-0.2-17.3,0.2-25.9c-0.1,0.3-0.1,0.5-0.1,0.7c0.1-0.3,0.1-0.5,0.1-0.7
						c0.3-2.1-0.3-5.6-0.6-7.6c-0.9-4.8-2.7-9.4-5.3-13.6c-7.2-11.6-20.3-19.2-34.2-20.3c-2.8-0.2-5.9-0.2-8.7-0.2
						c-5.6,0-11.1,0-16.7,0c-19.9,0.1-39.9,0-59.8,0c-51,0-102.1,0-153.1,0c-16.4,0-32.8,0-49.1,0c-4.3,0-8.6,0-12.9,0
						c-4.5-0.1-9,0.3-13.4,1.4c-8.4,2.1-16.1,6.6-21.9,12.9c-4.9,5.3-8.3,11.9-9.7,18.8c-0.8,4.2-0.7,8.2-0.7,12.4c0,3.5,0,7,0,10.3
						c0,3.3,0.1,6.7-0.1,10c-0.8,12.5,5.3,24.3,14.8,32.3c5.7,4.8,13,7.9,20.3,9.2c3.6,0.7,7.3,0.7,11,0.7c13.3,0,26.6,0,39.9,0
						c49.7,0,99.4,0,149.1,0c24.2,0,48.5,0,72.6,0c8.2,0,16.4,0,24.6,0.1c3,0,6,0.1,9.1,0.3c4.5,0.3,9.3-0.6,13.6-1.8
						c7.8-2.2,14.9-6.4,20.4-12.3c3.3-3.5,6-7.6,7.9-12.1c0.5-1.2,0.9-2.3,1.3-3.6c1.1-3.7,1.5-7.2,1.7-11.1c0-0.2-0.2-0.2-0.3-0.1
						C386.6,418.8,386.5,419.3,386.5,419.5z"/>
					<path class="st0" d="M386,419.1c-0.3,4.9-0.8,9.4-2.8,14.1c-0.9,2.1-2,4.3-3.3,6.3c-3.2,5-7.7,9.3-12.7,12.5
						c-1.1,0.6-2.1,1.3-3.2,1.8c-3.8,2.1-8,3.3-12.6,3.4c-11.3,2.2-6,1.9-10,1.7c-2.8-0.1-5.6-0.1-8.4-0.1
						c-32.4-0.1-64.8-0.1-97.1-0.1c-44.6,0-89.1,0-133.7,0c-13.5,0-26.9,0-40.4,0c-4.4,0-8.8,0-13.2,0c-2.9,0-5.8,0.1-8.7-0.2
						c-17-1.4-32.9-12.9-37.7-29.7c-1.7-6.1-1.4-9-1.3-14.1c0.1-6.8,0.1-13.6,0.1-20.4c0-0.8,0-1.5,0-2.3c0-0.1,15.5-31,15.7-31.2
						c4.7-4,10.7-6.4,16.6-7.9c4-1.1,8.3-1.4,12.4-1.3c3.6,0.2,7.3,0.1,10.9,0.1c77.9,0.2,155.7,0.1,233.6,0.1c14.6,0,29.3,0,44,0
						c3,0,6-0.1,8.9,0.1c2.8,0.1,5.4,0.2,8.1,0.7c14.4,2.1,28,12.9,32.8,26.1c1.7,4.6,2.8,9.6,2.4,14.5c-0.2,2.2-0.1,4.4-0.2,6.7
						C386,406.1,386,412.6,386,419.1c0,0.4,1-0.6,1-0.9c0.1-2.6,0.1-5.2,0.1-7.8c0-4.8,0-9.6,0-14.3c0-3.8,0.1-7.6-0.7-11.4
						c-1.1-5.9-3.7-11.5-7.3-16.3c-4.4-5.9-10.5-10.4-17.2-13.5c-2.9-1.3-6-2.2-9.1-2.9c-1.9-0.4-3.9-0.7-5.8-0.9
						c-1.3-0.1-2.9-0.1-4.2-0.1c-3.4-0.1-6.8-0.1-10.2-0.1c-93.7-0.1-187.4,0.2-281.2,0c-2.9,0-5.8-0.1-8.6,0
						c-9,0.3-17.7,3.2-25,8.4C10.3,364.7,4.6,372.3,2,381c-2.2,7.4-1.5,15.4-1.6,23c0,4.1,0,8.2-0.1,12.3c-0.1,3.1,0,6.3,0.6,9.4
						c1.9,9.5,7.1,17.9,14.8,24c4.4,3.5,9.6,6.2,15.1,7.8c3.2,0.9,6.4,1.6,9.7,1.8c1.7,0.1,3.6,0.1,5.3,0.1c4.4,0.1,8.9,0,13.4,0
						c9.4,0,18.8,0,28.2,0c26.6,0,53.1,0,79.7,0c55.1,0,110.2,0,165.4,0c3.4,0,6.8-0.1,10.3,0.1c2.6,0.1,5.5-0.2,8.1-0.7
						c3.2-0.5,6.2-1.4,9.3-2.6c8.6-3.3,16.1-9.3,21-17.1c1.9-3,3.5-6.4,4.5-9.8c0.2-0.7,0.3-1.1,0.5-1.9c0.7-3,1-6,1.2-9.1
						C387.2,418,386,418.8,386,419.1z"/>
					<path class="st0" d="M386.2,418.3c-0.3,5-0.9,9.5-2.8,14.1c-0.9,2.1-2,4.2-3.3,6.3c-7.6,12.1-24.2,21-38.7,19.3
						c-2.4-0.3-5-0.2-7.4-0.2c-6.4-0.1-12.9-0.1-19.4-0.1c-40.6-0.1-81.2,0-121.9,0c-41.3,0-82.6,0-123.9,0c-8.2,0-16.3,0-24.5,0
						c-4.2,0-8.4-0.5-12.5-1.5c-9.5-2.5-18-8.2-23.7-15.9c-4.8-6.6-7.9-15-7.4-23.1c0.1-2.2,0.1-4.5,0.2-6.8
						c0.1-6.5,0-12.9,0.1-19.4c0.1-1.3,0.1-2.5,0.2-3.8c0.2-2.4,0.7-4.7,1.5-7c0.3-1.1,0.7-2.2,1-3.3c2.3-5.6,5.8-10.4,10.2-14.4
						c4.6-4.2,10.1-7.2,15.9-9.2c9-2.9,12.8-2.2,20-2c5.6,0.1,11.1,0.1,16.7,0.1c81.1,0.1,162.1,0,243.2,0c10.9,0,21.9,0,32.8,0
						c5.5,0,10.9,0.8,16.1,2.6c6.8,2.4,13.1,6.6,17.9,12.1c0.7,0.9,1.5,1.8,2.2,2.7c1.2,2,2.5,4,3.7,6c2.2,4.2,3.4,9,3.8,13.7
						c0.3,3.5-0.1,7-0.1,10.3C386.3,405.4,386.4,411.9,386.2,418.3c0.1,0.2,0.5,0.5,0.5,0.1c0-7.3-0.1-14.7,0.1-22
						c0-1.2,0-2.3,0.1-3.5c0.1-1.3,0.1-2.8-0.1-4.2c-0.1-1.8-0.4-3.6-0.8-5.4c-1.4-6.4-4.4-12.5-8.7-17.4
						c-4.8-5.5-11.1-9.8-18.1-12.3c-5.4-1.9-10.9-2.7-16.7-2.7c-12.3,0-24.6,0-36.9,0c-51.3,0-102.6,0-153.9,0
						c-23.5,0-46.9,0-70.4,0c-7.6,0-15.1,0-22.7-0.1c-4.1,0-8.3,0.1-12.4-0.2c-9.8-0.6-19.9,2.5-27.9,8c-8.6,6-14.9,15-16.9,25.1
						c-0.9,4.4-0.7,9-0.7,13.4c0,5.1,0,10.2-0.1,15.3c0,2.8-0.2,5.6,0,8.4c0.4,5.6,2.1,11.1,4.9,15.9c6.4,11.3,18.1,19.2,31.1,21.3
						c3.6,0.6,7.4,0.7,11,0.7c5.6,0,11.1,0,16.7,0c47.6-0.2,95.2,0,142.8,0c28.5,0,56.9,0,85.4,0c16,0,32-0.1,48,0
						c4.1,0.1,8.1-0.1,12.2-1c5.5-1.2,10.8-3.3,15.5-6.4c4.6-2.9,8.5-6.8,11.5-11.2c2.4-3.4,4.3-7.2,5.5-11.2
						c1.1-3.6,1.4-7.1,1.6-10.9C386.5,418.3,386.2,418.1,386.2,418.3z"/>
					<path class="st0" d="M386.6,418.7c-0.2,3.8-0.5,7.2-1.6,10.9c-1,3.4-2.6,6.7-4.5,9.7c-3.2,5-7.6,9.3-12.6,12.6
						c-5.3,3.4-11.2,5.5-17.4,6.6c-4.8,0.9-9.7,0.5-14.5,0.5c-35.4-0.2-70.7-0.1-106.1-0.1c-45.9,0-91.7,0-137.6,0
						c-13.7,0-27.4,0-41.2,0c-2.1,0-4.4,0-6.5-0.1c-2.2-0.1-4.1-0.1-6.2-0.4c-4.5-0.6-8.8-1.7-12.9-3.5c-12.3-5.5-21.6-16.6-24-29.6
						C1,422.2,1,419.1,1.1,416c0.1-3.8,0.1-7.5,0.1-11.3c0.1-10.3-0.7-20.9,4.4-30.5c6.6-12.5,19.7-20.8,33.9-22.4
						c3.5-0.4,7-0.2,10.5-0.2c4.4,0,8.8,0,13.2,0c19.1,0,38.3,0,57.4,0c47.2,0,94.4,0,141.7,0c19.9,0,39.9,0,59.8,0
						c6.4,0,12.7,0,19.1,0c4.8,0,9.5,0.2,14.1,1.5c7.2,1.9,13.8,5.5,19.2,10.6c7.8,7.4,12.8,18.4,12.3,29.3
						c-0.1,1.4-0.1,2.9-0.1,4.4C386.6,404.4,386.7,411.6,386.6,418.7c-0.1,0.5,0.6-0.2,0.6-0.5c0.2-6.5,0.1-13,0.1-19.5
						c0-3.5,0.2-7-0.1-10.4c-0.3-3.7-1.2-7.3-2.6-10.8c-4.1-10.1-12.4-18.3-22.6-22.8c-3.5-1.5-7.3-2.6-11-3.3
						c-3.3-0.5-4.9-0.4-8.3-0.6c-3.8-0.2-7.7-0.1-11.5-0.1c-87.1-0.1-174.2-0.1-261.3,0c-8.5,0-16.9,0-25.3,0
						c-16.5-0.1-32.6,9-40,23.6c-1.7,3.3-2.9,6.8-3.6,10.3c-0.7,3.5-0.7,7.2-0.7,10.7c0,7.6,0,15.3,0,23c0,13.5,7.3,26.1,18.7,33.6
						c6.4,4.2,13.9,6.8,21.6,7.3c3.6,0.3,7.2,0.2,10.7,0.2c39.7,0.1,79.5,0,119.2,0c51.5,0,103,0.1,154.4,0c5.4,0,10.8,0,16.2,0
						c5.9,0.1,11.6-0.7,17.3-2.5c8.2-2.9,15.5-8,20.7-14.9c2.2-2.9,4-6,5.3-9.4c0.9-2.2,1.6-4.6,2.1-7c0.5-2.4,0.7-4.8,0.7-7.3
						C387.3,417.9,386.6,418.4,386.6,418.7z"/>
					<path class="st0" d="M386.4,418.3c-0.5,3.6-1.1,7.2-1.6,10.8c-1.8,5.8-4.8,10.9-8.9,15.3c-2.4,2.6-5.2,5-8.3,6.9
						c-5.3,3.3-11.1,5.6-17.4,6.6c-3.2,0.5-6.4,0.5-9.6,0.4c-4.3-0.2-8.6-0.1-12.9-0.1c-39.3-0.1-78.6-0.1-117.8-0.1
						c-44,0-88.2,0-132.2,0c-10.6,0-21.3,0.1-31.9,0c-3.2,0-6.4-0.1-9.7-0.7c-7.4-1.3-14.5-4.5-20.3-9.2c-8.3-6.8-14.1-17-14.7-27.6
						c-0.1-2.3,0.1-4.6,0.1-6.9c0.1-7,0.1-14,0.1-21c0-4.3,0.3-8.6,1.6-12.7c3.6-10.9,10.1-19.4,23.2-25c3.5-1.5,7.2-2.5,11-3.1
						c3.2-0.5,6.4-0.6,9.7-0.5c4.3,0.1,8.7,0.1,13,0.1c83.3,0.3,166.6,0.1,250,0.1c11.1,0,22.3-0.1,33.4,0
						c14,0.1,27.6,6.3,35.8,17.6c4.2,5.8,6.8,12.7,7.3,19.7c0.2,2.9,0,5.6-0.1,8.4C386.4,404.1,386.5,411.2,386.4,418.3
						c0,0.1,0.2,0.5,0.2,0.3c0.1-6.5,0-12.9,0.1-19.5c0-1.6,0.1-3.2,0.1-4.8c0-0.3,0.1-0.7,0.1-1.1c0.3-1.5,0.4-3.1,0.1-4.7
						c-0.6-8.4-4.1-16.5-9.7-22.9c-4.8-5.6-11.1-9.8-18.2-12.3c-5.2-1.8-10.7-2.6-16.2-2.6c-12.5,0-24.9,0-37.4,0
						c-51.3,0-102.6,0-153.9,0c-22.7,0-45.5,0-68.1,0c-7.8,0-15.6,0-23.4,0c-4.8,0-9.6,0-14.4-0.2C25.2,349.6,5.2,364.2,1.3,384
						c-0.6,3.1-0.7,6.2-0.7,9.4c-0.1,3.8,0,7.4,0,11.3c0,3.8,0,7.4-0.1,11.2c0,1.9-0.1,3.8,0.1,5.7c0.3,3.7,1.2,7.2,2.6,10.7
						c5,12.5,16.2,21.8,29.5,25.2c4.4,1.1,8.9,1.3,13.5,1.4c5.4,0.1,10.8,0,16.2,0c47.1-0.1,94.2,0,141.3,0c45.3,0,90.7-0.1,136,0
						c3.6,0,7.2,0,10.7-0.6c8.6-1.4,16.7-5.3,23.1-11.1c4.4-4,8-8.9,10.2-14.3c0.9-2.2,1.6-4.5,2.1-6.9c0.7-3.2,0.6-4.2,0.7-7.4
						C386.6,418.5,386.4,418.2,386.4,418.3z"/>
					<path class="st0" d="M385.6,418.8c-0.2,3.8-0.5,7.2-1.7,10.9c-1.1,3.4-2.6,6.7-4.6,9.7c-0.7,1-1.4,1.9-2.1,2.9
						c-2.1,2.9-4.9,5.2-8.1,7c-1.9,1.4-3.8,2.9-5.8,4.3c-2.2,1.2-4.5,2.1-6.8,2.9c-5.1,1.6-10.6,2.5-15.9,2.1
						c-3.6-0.3-7.3-0.1-10.9-0.1c-39.1-0.1-78.3-0.1-117.4-0.1c-45.2,0-90.4,0-135.6,0c-10.6,0-21.3,0.1-31.9,0
						c-3.2,0-6.4-0.2-9.7-0.7C18.3,455,3.9,441.4,0.9,425c-0.5-3.1-0.6-6.2-0.5-9.4c0.1-3.4,0.1-6.8,0.1-10.1c0-3.7,0-7.2,0.1-10.9
						c0-3.6,0-7.1,0.7-10.6C4,371.1,13.8,360.3,26,355.1c5.9-2.5,12.3-3.7,18.7-3.6c3,0,5.9,0.1,8.9,0.2c83.7,0.3,167.4,0.1,251,0.1
						c12.5,0,24.9,0,37.4,0c5.5,0,10.9,0.8,16.1,2.6c6.9,2.4,13.2,6.6,18,12.1c5.2,5.8,8.5,13,9.5,20.8c0.3,1.9,0.5,3.8,0.3,5.7
						c-0.1,1.5-0.2,3.2-0.2,4.8C385.6,404.5,385.7,411.7,385.6,418.8c0,0.5,1-0.2,1-0.5c0.2-6.4,0.1-12.9,0.1-19.4
						c0-3.4,0.2-7-0.1-10.3c-0.7-8.3-4.3-16.2-9.9-22.5c-8.4-9.4-20.8-14.6-33.6-14.7c-11.1-0.1-22.3,0-33.4,0
						c-48.5,0-96.9,0-145.4,0c-22.1,0-44.2,0-66.3,0c-16,0-32.2,0.2-48.2-0.1c-1.3,0-2.6,0-3.9-0.1c-2.8-0.3-5.9-0.1-8.7,0.3
						c-7.5,1.1-14.8,4-20.7,8.6c-4.8,3.8-8.9,8.2-11.7,13.5c-3.1,5.8-4.4,12-4.4,18.4c0,7.4,0.1,14.8-0.1,22.2
						c-0.1,2.3-0.2,4.6-0.1,7c0.5,7.2,3.3,14.3,7.7,20.2c5.2,7,12.6,12.3,20.9,15.2c3.7,1.3,7.5,2.1,11.4,2.4
						c1.4,0.1,3.2,0.1,4.8,0.1c3.6,0.1,7.3,0.1,10.9,0.1c42.5,0.1,84.9,0,127.4,0c49.1,0,98.3,0,147.4,0c3.9,0,7.8,0,11.7,0.1
						c7.7,0.3,15.7-1.9,22.4-5.6c5.4-2.9,10.1-6.9,13.8-11.7c2.2-2.9,4-6,5.3-9.3c0.9-2.2,1.6-4.5,2.1-7c0.5-2.4,0.7-4.8,0.7-7.2
						C386.7,418.1,385.6,418.5,385.6,418.8z"/>
					<path class="st0" d="M386.7,418.8c-0.2,3.8-0.5,7.2-1.6,10.8c-1,3.3-2.6,6.7-4.5,9.6c-3.4,4.9-7.6,9.2-12.6,12.4
						c-1.1,0.6-2.1,1.3-3.2,1.8c-2.3,1-4.6,1.9-6.8,2.9c-3.6,1.3-7.5,1.9-11.2,2.2c-2.9,0.2-5.6,0-8.5-0.1c-4.4-0.1-8.8,0-13.2,0
						c-7.5,0-15,0-22.6,0c-22,0-43.8,0-65.8,0c-45.5,0-90.9,0-136.4,0c-14.6,0-29.3,0-44,0c-7.8,0-15.8,0.5-23.4-1.4
						C14.5,452.2,0.7,435.9,1.8,416c0.4-7.2,0.3-14.4,0.3-21.6c0-2.3,0-4.7,0.2-7c0.9-8.2,4.6-16.1,10.3-22.2
						c4.6-4.8,10.3-8.6,16.6-10.9c5.9-2.2,12.2-2.9,18.4-2.7c9.2,0.3,18.4,0.1,27.6,0.1c19.3,0,38.7,0,58.1,0c47.1,0,94.3,0,141.4,0
						c18.3,0,36.6,0,54.9,0c4.3,0,8.7,0,13,0c0.6,0,1.1,0,1.7,0c7.9-0.5,14.9,1.7,20.9,6.7c4.9,1.5,8.9,4.2,12,7.8
						c4.8,5.4,8.1,12.1,9.4,19.2c0.7,4.2,0.4,8.1,0.3,12.3C386.6,404.6,386.8,411.7,386.7,418.8c0,0.1,0.5,0.1,0.5,0.1
						c0.1-7.6-0.1-15.4,0.1-23c0.1-1.1,0.1-2,0.1-3.1c0.2-2.4-0.1-5.2-0.5-7.6c-1.4-8.2-5.6-16.1-11.8-21.8
						c-6.6-6.1-14.7-10.2-23.6-11.7c-3.6-0.6-7.3-0.7-11-0.7c-6.1,0-12.3,0-18.4,0c-52.5,0.1-105.1,0-157.6,0c-27.1,0-54.1,0-81.2,0
						c-8.8,0-17.6,0-26.5,0c-3.8,0-7.6,0.1-11.3-0.1c0.3,0.1,0.5,0.1,0.7,0.1c-0.3-0.1-0.5-0.1-0.8-0.1c-2.4-0.3-5.6,0.2-8.1,0.6
						c-8.7,1.4-17.1,5.3-23.6,11.3c-4.5,4.2-8,9.2-10.3,14.7c-2.3,5.6-2.8,11.7-2.8,17.7c0,4.7,0,9.4,0,14.1c0,4.2-0.2,8.2,0.1,12.4
						c0.7,9.5,5.6,18.6,12.5,25.1c6.4,6,14.4,9.8,23.1,11.3c4.8,0.9,9.8,0.7,14.7,0.7c20.9,0,41.9,0,62.8,0c62,0,123.9,0,185.9,0
						c10.8,0,21.6,0,32.5,0c2.6,0,5.3,0,7.9,0.1c3.4,0.1,6.7,0.2,10.1-0.3c8.8-1.4,16.8-5,23.5-10.8c4.1-3.5,7.4-8,9.7-12.9
						c0.8-1.6,1.4-3.3,2-5c1.1-3.5,1.5-7.1,1.6-10.9C387.2,418.8,386.7,418.7,386.7,418.8z"/>
				</g>
			</g>
		</g>
	</g>
	<g>
		<g>
			<path d="M158,167.7c0,0-51.6,13.7-72.1,18.2c-20.5,4.5-20.5,24.3-20.5,24.3s0,82.1,0,113.9c0,31.7,20.5,27.4,20.5,27.4h107.4V186
				C193.1,168.8,158,167.7,158,167.7z"/>
			<g>
				<g>
					<path class="st0" d="M157.3,167.5c-10.1,2.7-20.1,5.3-30.2,7.8c-8.2,2.1-16.4,4.2-24.7,6.2c-3.4,0.9-6.8,1.6-10.1,2.4
						c-3.4,0.8-7,1.3-10.3,2.5c-4.8,1.7-9,4.6-12,8.6c-2.1,2.8-3.6,6-4.4,9.4c-1.4,5.4-0.9,10.9-0.8,16.3c0,18.3,0,36.6,0,54.9
						c0,10.2,0,20.4,0,30.6c0,4,0,8,0,12.1c0,4.8-0.2,9.8,0.5,14.6c1.2,8.5,5.2,17.9,14.8,20c2,0.4,4.2,0.5,6.2,0.1
						c2.1-0.4,4.4-0.1,6.6-0.1c19.7,0,39.5,0,59.1,0c14.1,0,28.2-0.1,42.2,0c0.1,0,0.1-0.1,0.1-0.1c-0.4-1.9-0.3-4.1-0.3-6.1
						c0.1-4.4,0-8.8,0-13.2c0-14.2,0-28.4,0-42.6c0-30.2,0-60.5,0-90.8c0-4.8,0.1-9.6,0-14.4c-0.1-3.8-1.8-6.9-4.6-9.4
						c-4.4-4.1-10.5-5.9-16.4-7.2c-5.1-1.2-10.3-1.9-15.6-2.1C157.4,167.1,157.2,167.4,157.3,167.5c1.3-0.1,2.8,0,4.2,0.1
						c4.1,0.3,8.5,0.8,12.4,1.8c1.3,0.4,2.7,0.9,4,1.3c2.2,0.5,4.4,1.3,6.4,2.4c1.5,0.8,3,1.7,4.3,2.7c5.3,4.2,5,8.3,5,13.7
						c0,26.3,0,52.6,0,78.9c0,15.2,0,30.4,0,45.6c0,6.5,0,12.9,0,19.4c0,4.8,0,9.6-0.3,14.3c-0.1,1.1-0.1,2-0.2,3.1
						c-0.1,0.5,0.1,0.8-0.3,0.9c-0.2,0-0.4-0.1-0.6-0.1c-0.4,0-0.8,0-1.2,0c-1.6,0-3.3,0-4.9,0c-11.7,0-23.4,0-35.1,0
						c-21.4,0-42.8-0.2-64.2,0.1c-1.6,0-3.2,0.3-4.8,0.1c-2-0.1-4.1-0.7-5.9-1.5c-1.3-0.6-2.5-1.4-3.5-2.3c-0.5-0.5-0.9-0.9-1.3-1.4
						c-1-1.1-1.8-2.3-2.3-3.6c-1.3-2.4-2.2-4.8-2.8-7.4c-0.5-2.3-0.8-4.6-0.9-7c-0.3-4.8-0.1-9.8-0.1-14.7c0-14.6,0-29.2,0-43.7
						c0-12.8,0-25.6,0-38.4c0-7,0.1-14.1-0.1-21.1c-0.1-5.4,1.9-11.1,5-15.3c0.9-1.3,2-2.5,3.2-3.6c0.9-0.9,2-1.7,3.2-2.4
						c1.7-1.1,3.6-1.9,5.6-2.4c5.4-1.8,11.1-2.9,16.7-4.2c19.5-4.8,39.1-9.8,58.5-15C157.4,167.9,157.4,167.4,157.3,167.5z"/>
					<path class="st0" d="M157,167.4c-10.7,2.8-21.4,5.6-32.2,8.4c-8.2,2.1-16.4,4.2-24.6,6.2c-3.3,0.8-6.6,1.5-9.9,2.3
						c-3.4,0.8-6.9,1.4-10.1,2.7c-3.9,1.5-7.3,4-10,7.1c-3,3.6-4.9,8.1-5.7,12.7c-0.3,1.5-0.4,3.1-0.3,4.8
						c0.1,5.1,0.1,10.2,0.1,15.3c0,19.5,0,39,0,58.5c0,9.7,0,19.4,0,29.1c0,8.2-0.7,16.7,1.9,24.5c2.1,6.6,6.7,12.3,14.1,13.4
						c1.7,0.3,3.4,0.3,5,0.1c1.9-0.3,3.9-0.2,5.8-0.2c19.3,0,38.6,0,57.9,0c10.1,0,20.2,0,30.3,0c3.4,0,6.9,0,10.3,0
						c1.3,0,2.5,0,3.8,0.1c0.1,0,0.3-0.1,0.3-0.3c-0.1-2.1,0-4.3,0-6.5c0.1-4.1,0.1-8.1,0.1-12.2c0-12.5,0.1-24.8,0.1-37.3
						c0-28.2,0-56.5,0-84.7c0-7.9,0-15.7,0-23.7c0-1.5,0.1-3.1-0.3-4.6c-0.7-3.1-2.6-5.6-5-7.6c-5.4-4.3-12.7-6.2-19.3-7.4
						c-3.8-0.7-7.8-1.1-11.7-1.3c-0.2,0-0.2,0.2-0.1,0.3c0.1,0.2,0.5,0.3,0.7,0.3c1.1,0.1,2.1,0.2,3.2,0.3c2.7,0.2,5.4,0.6,8.1,1.1
						c6.5,1.2,13.6,2.9,18.8,7.1c2.3,1.9,4.2,4.4,4.9,7.3c0.3,1.5,0.3,3,0.3,4.6c0,7.9,0,15.7,0,23.7c0,28.2,0,56.5,0,84.7
						c0,12.4,0,24.8,0,37.2c0,4,0,8-0.1,12.1c0,2.1,0.1,4.2-0.3,6.3c0.1-0.1,0.1-0.1,0.3-0.1c-1.3-0.1-2.5-0.1-3.8-0.1
						c-3.4,0-6.9,0-10.3,0c-10.9,0-21.7,0-32.6,0c-19.5,0-38.9-0.1-58.4,0c-1.7,0-3.4,0.2-5,0.1c-5.2-0.2-9.8-2.7-12.8-7
						c-4.8-6.9-4.9-15.9-4.9-23.8c0.1-10.5,0-21.1,0-31.6c0-22.7,0-45.4,0-68.1c0-3.8-0.1-7.5,0-11.3c0.1-3.5,1.1-7.1,2.6-10.2
						c1.3-2.7,3-5.2,5.2-7.2c2.7-2.5,5.8-4.4,9.4-5.6c1.9-0.6,3.8-1.1,5.8-1.4c9.3-2.1,18.5-4.4,27.7-6.8
						c13.9-3.5,27.8-7.2,41.7-10.8C158.4,167.7,157.3,167.3,157,167.4z"/>
					<path class="st0" d="M156.8,166.4c-11.3,3.1-22.7,6-34,8.8c-8.1,2.1-16.3,4.2-24.4,6.2c-3.7,0.9-7.3,1.7-11,2.6
						c-3,0.7-6,1.4-8.7,2.7c-8.4,3.9-13.3,12.7-14.2,21.3c-0.1,1.4-0.1,2.9-0.1,4.3c0.1,7,0,14.1,0,21.1c0,21,0,42.1,0,63.1
						c0,9.2-0.1,18.4,0,27.6c0.1,5.6,0.6,11.5,2.8,16.7c1.1,2.5,2.6,4.8,4.5,6.8c2.6,2.5,5.9,4.1,9.5,4.4c1.1,0.1,2.3,0.1,3.4,0.1
						c1.6-0.1,3.1-0.1,4.7-0.1c34.8,0.2,69.6,0,104.3,0c0.1,0,0.1-0.1,0.1-0.1c0.4-0.9,0.2-1.8,0.2-2.7c-0.1-3.8-0.1-7.5-0.1-11.3
						c0-11.5,0-23.1,0-34.6c0-30.1,0-60.3,0-90.4c0-8.3,0-16.7,0-25c0-1.4,0-2.8-0.1-4.2c-0.3-2.8-1.5-5.2-3.5-7.3
						c-2.3-2.4-5.4-4.2-8.5-5.5c-3.3-1.4-6.8-2.3-10.3-3.1c-4.6-1-9.5-1.7-14.3-1.7c-0.5,0,0.7,1.1,0.9,1.2c1.1,0.2,2.1,0.3,3.2,0.3
						c2.7,0.3,5.4,0.6,8.1,1.1c6.5,1.2,13.7,2.9,18.9,7.1c3.1,2.5,5,5.8,5.1,9.6c0.1,1.3,0,2.5,0,3.9c0,8.8,0,17.6,0,26.4
						c0,28.5,0,57.1,0,85.6c0,11.8,0,23.6,0.1,35.3c0,5.1-0.1,10.2,0.3,15.4c0.1-0.1,0.1-0.3,0.2-0.4c-33.8,0-67.6,0.1-101.4,0
						c-1.9,0-3.8-0.1-5.7,0c-1.1,0.1-2.1,0.5-3.2,0.5c-5.7,0.3-10.7-2.7-14-7.1c-4.2-5.8-4.8-13.8-4.9-20.7c-0.1-4.2,0-8.3,0-12.5
						c0-11.5,0-23,0-34.5c0-20.4-0.1-40.8,0-61.2c0-2.9-0.1-5.8,0.3-8.7c0.8-4.9,2.8-9.8,6.1-13.6c1.1-1.3,2.3-2.4,3.6-3.4
						c1.5-0.9,3.1-1.9,4.7-2.8c3.6-1.7,7.7-2.3,11.5-3.3c9.6-2.2,19.2-4.6,28.7-7c12.6-3.2,25.2-6.6,37.8-9.8
						C158,167.4,157.1,166.4,156.8,166.4z"/>
					<path class="st0" d="M157.5,167.3c-10,2.7-20.1,5.2-30.1,7.8c-8.2,2.1-16.4,4.2-24.7,6.2c-3.4,0.9-6.8,1.6-10.1,2.4
						c-3.4,0.8-6.9,1.4-10.3,2.5c-4.8,1.6-9.1,4.6-12.1,8.6c-2.6,3.4-4.2,7.4-5,11.7c-0.3,1.4-0.4,2.7-0.4,4.1c0,3.7,0,7.3,0,11.1
						c0,18.6,0,37.3,0,55.9c0,10,0,20.2,0,30.3c0,3.9,0,7.8,0,11.7c0,4.2-0.1,8.6,0.5,12.8c1,7.7,4.4,16.1,12.4,19.2
						c2.3,0.9,4.8,1.2,7.3,1c0.5-0.1,1.1-0.1,1.6-0.2c1.6-0.1,3.3,0,4.8,0c20.1-0.1,40.1,0,60.2,0c9.3,0,18.7,0,28,0
						c4.8,0,9.5-0.1,14.2,0.1c0.1,0,0.2-0.1,0.2-0.2c-0.1-1.8-0.1-3.7-0.1-5.5c0.1-4.4,0.1-8.9,0.1-13.3c0-13.3,0-26.7,0-40
						c0-30.5,0.1-61.1,0-91.6c0-3.8,0-7.5,0-11.3c0-1.6,0.1-3.3,0-4.9c-0.2-5-3.2-8.7-7.4-11.3c-4.1-2.5-8.9-4.1-13.6-5.1
						c-5-1.1-10.1-1.7-15.2-2c-0.5-0.1,0,0.7,0.3,0.7c3,0.5,6,0.6,9,1.1c9.1,1.4,23.6,4.8,25.7,14.9c0.3,1.5,0.3,3,0.2,4.6
						c0,3,0,6,0,9c0,9.5,0,18.9,0,28.4c0,27.1,0,54.3,0,81.4c0,10-0.1,20.2-0.1,30.1c0,3.5-0.1,7-0.1,10.6c0,1.3,0.1,2.6-0.1,4
						c0.1-0.1,0.1-0.1,0.2-0.2c-2.7-0.3-5.5-0.1-8.3-0.1c-7.7,0-15.3,0-23,0c-17,0-34,0-51,0c-6.4,0-12.8,0-19.1,0
						c-2,0-4.1-0.1-6.1,0.1c-4.1,0.3-8.1-0.4-11.5-2.8c-1.5-1.1-2.9-2.5-4-4.1c-0.6-1.5-1.3-3.1-1.9-4.7c-1.2-2-1.9-4.2-2.1-6.4
						c-0.3-1.7-0.5-3.5-0.7-5.4c-0.3-3.6-0.1-7.2-0.1-10.9c0-4.7,0-9.5,0-14.2c0-20.6,0-41,0-61.6c0-10.4-0.1-21,0-31.4
						c0.1-2.3,0.6-4.7,1.3-7c1.4-4.4,3.9-8.5,7.5-11.6c1-0.9,2-1.6,3.2-2.3c0.9-0.5,1.7-0.9,2.6-1.3c2-0.7,4-1.3,6-2
						c3.4-0.9,6.8-1.5,10.2-2.3c8.7-2.1,17.3-4.2,25.9-6.5c12-3.1,24-6.2,36-9.3C158.4,167.8,157.8,167.2,157.5,167.3z"/>
					<path class="st0" d="M157.4,166.6c-11.3,3.1-22.7,6-34,8.8c-8.1,2.1-16.3,4.2-24.4,6.2c-3.7,0.9-7.3,1.7-11,2.6
						c-3,0.7-5.9,1.4-8.7,2.6c-6.7,3.1-11.4,9.2-13.4,16.1c-0.7,2.3-1.2,4.7-1.2,7c0,4.3,0.1,8.6,0.1,12.9c0,20.6,0,41.1,0,61.8
						c0,10.3,0,20.7,0,30.9c0,7-0.3,14.3,1.5,21.2c1.3,5.1,3.9,10,8.5,12.9c2.7,1.7,5.8,2.5,8.9,2.5c0.9,0,1.7-0.1,2.6-0.3
						c1.1-0.2,2.3-0.1,3.4-0.1c34.8-0.1,69.6-0.1,104.3,0c0.1,0,0.1,0,0.1-0.1c0.4-1.8,0.1-3.9,0.1-5.7c0-4,0.1-7.8,0.1-11.8
						c0.1-13.9,0.1-27.9,0.1-41.9c0-30,0-60.1,0-90.1c0-5.9,0.1-11.8,0-17.7c-0.1-2.3-0.7-4.8-2.1-6.8c-0.9-1.3-2.1-2.5-3.4-3.5
						c-5.4-4.2-12.8-6-19.5-7c-3.8-0.6-7.7-1.2-11.6-1.1c-0.5,0,0.2,1,0.5,1.1c1,0.2,2.1,0.2,3.1,0.3c3.6,0.3,7.2,0.9,10.7,1.5
						c7,1.5,15.2,4.1,19.5,10c1.5,2.1,2,4.7,2,7.2c0,2.5,0,5,0,7.5c0,9.6,0,19.1,0,28.7c0,27.1,0,54.1,0,81.2c0,10.9,0,21.8,0,32.8
						c0,5,0,10,0.3,15.1c0.1-0.1,0.1-0.2,0.2-0.3c-33.8-0.1-67.6,0-101.4,0c-2,0-4.2-0.2-6.2,0.1c-0.9,0.1-1.7,0.3-2.6,0.3
						c-1.7,0.1-3.4-0.1-5-0.6c-7.9-2.1-12.3-8.5-13.4-19c-0.1-1.3-0.3-2.5-0.4-3.8c-0.4-4.8-0.1-9.8-0.1-14.7c0-11.3,0-22.6,0-34
						c0-20.4,0.1-40.8-0.1-61.2c0-3.1-0.2-6.4,0-9.5c0.4-5.6,2.6-11.3,6.4-15.5c3-3.5,6.8-5.9,11.2-7.4c2.8-0.9,5.8-1.4,8.7-2.1
						c9.6-2.2,19.2-4.6,28.7-7.1c12.6-3.2,25.2-6.5,37.8-9.8C158,167.2,157.6,166.5,157.4,166.6z"/>
					<path class="st0" d="M156.2,167c-11.3,3.1-22.7,6-34,8.8c-8.7,2.2-17.5,4.4-26.2,6.6c-3.1,0.7-6.2,1.5-9.3,2.1
						c-4,0.9-7.9,1.9-11.3,4c-6.4,4-10.3,10.8-11.5,18c-0.2,1.3-0.3,2.5-0.3,3.8c0.1,2.9,0.1,5.8,0.1,8.6c0.1,19.6,0,39.2,0,58.7
						c0,10.8,0,21.6,0,32.4c0,3.8,0,7.5,0,11.3c0,4.8,0.1,9.6,1.1,14.3c1.3,6.4,5,12.9,11.5,15.5c2.1,0.9,4.5,1.4,6.8,1.3
						c0.8,0,1.7-0.1,2.5-0.3c0.8-0.2,1.6-0.1,2.5-0.1c35,0.2,70.1,0,105.1,0c0.1,0,0.4-0.1,0.4-0.1c0-0.4,0-0.8,0.1-1.2
						c0-0.5,0-1,0-1.4c0-1.4-0.1-2.7-0.1-4.2c-0.1-4.8,0.1-9.6,0.1-14.3c0-12.7,0-25.3,0-38c0-29.3,0-58.7,0-88c0-6.4,0-12.8,0-19.2
						c0-1.4-0.2-2.7-0.6-4.2c-0.9-2.6-2.6-4.7-4.8-6.5c-4.8-3.8-11.1-5.6-17.1-6.9c-4.7-1-9.5-1.6-14.3-1.7c-0.3,0-0.2,0.2-0.1,0.3
						c0.1,0.2,0.7,0.4,0.9,0.4c3.8,0.5,7.6,0.7,11.3,1.3c6.5,1.1,13.7,2.8,19,7c3.2,2.5,5.2,5.6,5.2,9.8c0,1.2,0,2.4,0,3.6
						c0,8.8,0,17.6,0,26.4c0,26.8,0,53.5,0,80.3c0,12.5,0,24.8,0,37.2c0,4.1,0.1,8.1,0.1,12.1c-0.1,1.4-0.1,2.9-0.1,4.3
						c0,0.9,0,1.9-0.1,2.8c0.1-0.1,0.3-0.1,0.4-0.1c-34.5,0-69,0.1-103.5,0c-1.8,0-3.6,0-5.4,0.1c-5.2,0.5-10.3-1.7-13.7-5.6
						c-6.9-7.8-6.2-19.2-6.2-28.9c0-10.9,0-21.9,0-32.8c0-22,0-44,0-66c0-3-0.2-6.1,0-9.1c0.3-5.2,2.2-10.4,5.4-14.6
						c1.8-2.3,4-4.3,6.5-5.9c3.5-2.1,7.3-3.1,11.2-4c9.3-2.1,18.5-4.4,27.7-6.8c13.9-3.5,27.8-7.2,41.7-10.8
						c0.3-0.1-0.3-0.4-0.3-0.4C157,167.1,156.5,166.9,156.2,167z"/>
					<path class="st0" d="M157.8,167c-11.3,3-22.7,6-34,8.8c-8.7,2.2-17.5,4.4-26.2,6.6c-3.1,0.7-6.2,1.5-9.3,2.1
						c-2,0.5-4,0.9-6,1.5c-6.8,2.3-12.1,7.2-14.9,13.6c-1.8,4.2-2.6,8.6-2.5,13.1c0.1,16.7,0.1,33.4,0.1,50.2c0,11.3,0,22.6,0,34
						c0,9.2-0.1,18.4,0,27.7c0.1,9.6,1.9,22.4,12.4,26.7c2.4,1,5,1.4,7.7,1.2c0.7-0.1,1.3-0.1,1.9-0.3c0.8-0.1,1.7-0.1,2.5-0.1
						c19.5,0,38.9,0,58.3,0c10.3,0,20.5,0,30.8,0c5.3,0,10.6-0.1,15.9,0c0.1,0,0.1-0.1,0.1-0.1c0.3-5.8,0.2-11.6,0.2-17.3
						c0.1-13,0.1-26.1,0.1-39c0-29.6,0-59.2,0-88.7c0-7,0-13.9,0-20.8c0-1.5-0.1-3-0.7-4.5c-0.8-2.2-2.2-4.1-4-5.6
						c-5.6-4.7-13.4-6.8-20.5-7.9c-3.8-0.7-7.7-1-11.5-1.3c-0.3,0-0.5,0.4-0.2,0.4c1.1,0,2.2,0.1,3.4,0.2c3.6,0.3,7.2,0.9,10.7,1.6
						c6.4,1.4,13.6,3.7,18.2,8.6c2.3,2.5,3.4,5.8,3.4,9.2c0,1.6,0,3.3,0,4.9c0,9.6,0,19.2,0,28.9c0,27,0,54,0,81
						c0,11.8,0,23.6,0,35.4c0,3.5,0,7.1,0.1,10.6c0,1.4,0.1,2.8-0.1,4.2c0.1-0.1,0.2-0.1,0.3-0.1c-2-0.1-4-0.1-6-0.1
						c-3.9,0-7.8,0-11.7,0c-9.7,0-19.5,0-29.1,0c-18.9,0-37.8-0.1-56.7,0c-1.3,0-2.7-0.1-3.9,0c-0.6,0.1-1.1,0.2-1.8,0.3
						c-3.5,0.3-7-0.6-10-2.5c-6.2-4.2-8.3-11.8-9-18.6c-0.4-4.2-0.3-8.4-0.3-12.7c0-5.5,0-10.9,0-16.4c0-23.2,0-46.4,0-69.5
						c0-6.4,0-12.7-0.1-19c0-1.6-0.2-3.2-0.1-4.8c0.1-1.5,0.5-3.1,0.9-4.6c1.2-2.6,2.4-5.2,3.6-7.8c4.5-7,13.2-9.7,21.1-11.5
						c9.6-2.2,19.2-4.6,28.7-7c12.6-3.2,25.3-6.4,37.9-9.8C157.6,167.2,158,167,157.8,167z"/>
				</g>
			</g>
		</g>
	</g>
	<g>
		<g>
			<path d="M193.1,185.9v165.6h107.4c0,0,20.5,4.3,20.5-27.4s0-113.9,0-113.9s0-19.8-20.5-24.3c-20.5-4.5-72.1-18.2-72.1-18.2
				S193.1,168.8,193.1,185.9z"/>
			<g>
				<g>
					<path class="st0" d="M192.5,187.1c-0.1,55.2,0,110.4,0,165.6c0,0.1,0.1,0.1,0.1,0.1c1.5,0.1,3,0,4.6,0.1
						c3.6,0.1,7.2,0.1,10.8,0.1c10.9,0.1,21.9,0.1,32.8,0.1c19.2,0,38.4,0,57.5,0c1,0,2.1-0.1,3.1,0.1c0.6,0.1,1.1,0.2,1.7,0.2
						c2.8,0.1,5.6-0.7,8-1.9c4.9-2.7,7.7-7.6,9.1-12.7c1.3-4.6,1.7-9.6,1.7-14.3c0-4.8-0.1-9.8-0.1-14.6c0-24.8,0-49.5,0-74.3
						c0-7.4,0-14.8,0-22.2c0-1,0.1-2,0.1-3c0-1.3-0.3-2.5-0.5-3.8c-1.5-7.8-6.2-14.7-13.4-18.3c-5-2.5-10.7-3.3-16.1-4.6
						c-9.9-2.3-19.8-4.8-29.7-7.4c-9.5-2.4-19-4.9-28.5-7.4c-1.1-0.3-2.3-0.6-3.4-0.9c-0.6-0.2-1.3-0.5-1.9-0.5
						c-1.1-0.1-2.6,0.1-3.7,0.3c-6.6,0.8-13.3,1.8-19.5,4.3c-3.5,1.4-6.8,3.3-9.4,6c-1.1,1.1-1.9,2.5-2.5,3.9
						c-0.8,1.7-0.7,2.9-0.9,4.8c0,0.3,0.5,0.3,0.5-0.1c0-0.4,0.1-0.8,0.1-1.2c-0.1-1.5,0.5-2.9,1.5-4.2c0.5-1,1-1.9,1.5-2.9
						c0.8-0.9,1.7-1.6,2.6-2.3c2-1.5,4.2-2.6,6.6-3.6c5.3-2.1,10.9-3.3,16.6-4c1.7-0.2,3.5-0.4,5.2-0.6c0.4-0.1,0.7-0.1,1.1-0.1
						c0.6,0.1,1.3,0.3,1.8,0.5c0.8,0.2,1.7,0.5,2.5,0.7c3.4,0.9,6.7,1.7,10.1,2.6c16.2,4.2,32.6,8.6,48.9,12.3
						c1.5,0.3,3.1,0.7,4.6,1c0.5,0.1,1,0.2,1.5,0.3c6.8,4.2,13.6,8.4,20.3,12.7c1.1,1.9,1.9,4.2,2.6,6.3c0.6,2.1,0.9,4.3,1,6.5
						c0.1,3.6,0,7.2,0,10.7c0,9,0,18.1,0,27c0,21.8,0.1,43.7,0,65.5c0,7.7,0.5,15.7-1.6,23.2c-0.7,2.5-1.6,5-3,7.2
						c-0.5,0.9-1.2,1.7-1.9,2.6c-0.6,0.7-1.3,1.4-2.1,1.9c-0.8,0.7-1.7,1.3-2.8,1.5c-1.3,0.7-2.1,1.1-3.4,1.4
						c-0.6,0.1-1.3,0.3-1.9,0.3c-1.1,0.1-2.3,0.2-3.4,0.1c-0.3,0-0.7-0.1-1.1-0.1c-1.2-0.2-2.4-0.1-3.7-0.1c-18.9,0-37.8,0-56.7,0
						c-10.9,0-21.7,0-32.6,0c-3.2,0-6.2-0.1-9.4,0c-1.7,0.1-3.6,0.1-5.3,0c0.1,0.1,0.1,0.1,0.3,0.1c0.1-55.1-0.2-110.4,0.1-165.5
						c0-0.2-0.2-0.2-0.3-0.1C192.6,186.5,192.5,186.9,192.5,187.1z"/>
					<path class="st0" d="M192,186.7c-0.1,55.2,0,110.4,0,165.6c0,0.1,0.1,0.1,0.1,0.1c4.5-0.4,9.1-0.2,13.6-0.2c10.7,0,21.3,0,32,0
						c19.7,0,39.3,0,59,0c1.7,0,3.2,0.1,4.8,0.2c3.2,0.3,6.7-0.5,9.4-2.1c8.3-5,10.1-15.5,10.4-24.2c0.3-9.9,0.1-20,0.1-29.9
						c0-12.9,0-25.9,0-38.8c0-10.5,0-21.1,0-31.6c0-5.2-0.1-10.4,0.1-15.5c0.1-1.9-0.4-3.8-0.9-5.6c-1.5-5.7-4.5-10.6-9.2-14.4
						c-3.2-2.5-7.3-4.1-11.1-5c-3.5-0.8-7-1.5-10.5-2.3c-10-2.3-19.9-4.9-29.9-7.4c-9.2-2.3-18.4-4.8-27.5-7.2
						c-0.8-0.2-1.7-0.5-2.5-0.7c-0.5-0.1-1.4-0.5-2.1-0.6c-0.2,0-0.5,0.1-0.7,0.1c-0.9,0.1-1.9,0.1-2.9,0.3
						c-7,0.7-14.3,1.9-20.7,4.8c-2.3,1.1-4.6,2.3-6.6,3.9c-1.1,0.9-2.3,2.2-3.2,3.5c-0.3,0.7-0.7,1.4-1.1,2
						c-0.6,1.5-0.9,3.1-0.9,4.7c-0.1,0.5,1.2,0.1,1.2-0.2c0.1-0.8,0.1-1.5,0.2-2.3c0.2-1.1,0.6-2.1,1.2-3.1c0.7-1.3,1.6-2.4,2.8-3.5
						c3.9-3.6,9.4-5.6,14.6-6.9c3.1-0.8,6.2-1.4,9.4-1.7c1.2-0.1,2.4-0.3,3.7-0.4c1-0.1,2.1-0.3,3.2-0.3c0.5,0,1.1,0.3,1.7,0.4
						c1,0.3,2,0.5,3.1,0.8c3.9,1.1,7.7,2,11.6,3.1c11.1,2.9,22.1,5.8,33.2,8.5c5.2,1.3,10.5,2.6,15.7,3.8c4.4,1.1,9.1,1.6,13.2,3.6
						c3.2,1.5,6,3.6,8.4,6.2c2.3,2.6,3.8,5.8,4.9,9c0.6,1.9,1,4,1.2,6c0.1,1.1,0,2.1,0,3.1c0,9,0,18.1,0,27.1
						c0,27.1-0.1,54.3,0,81.4c0,5.4-0.1,10.6-1.4,15.9c-1.5,6-5.4,12.5-11.7,14.3c-2.6,0.8-5.2,1-7.9,0.7c-2.2-0.3-4.6-0.1-6.8-0.1
						c-4.7,0-9.4,0-14.1,0c-13.1,0.1-26.2,0-39.3,0c-11.9,0-23.8,0-35.7-0.1c-3,0-6,0-9.1,0c0.3,0-1.8,0.1-2-0.1
						c-0.3-0.3-0.1-1.7-0.1-2.1c0.1-28.7,0-57.5,0-86.2c0-25.7-0.1-51.4,0.1-77.1C193.2,185.6,192,186.5,192,186.7z"/>
					<path class="st0" d="M192.2,186c-0.2,26.7-0.1,53.3-0.1,80c0,28.5,0.1,57.1,0,85.5c0,0.1,0.1,0.3,0.2,0.3
						c1.6,0.1,3.2-0.1,4.8,0c4,0.1,8.1,0.1,12.2,0.1c11.1,0,22.2,0,33.4,0c18.7,0,37.4,0,56.1,0c0.7,0,1.5-0.1,2.3,0
						c0.5,0.1,1.1,0.1,1.7,0.1c2.5,0.1,5-0.3,7.3-1.4c4.5-2.1,7.3-6,9.2-10.3c1.2-2.8,1.8-6,2.2-9.1c0.7-5.6,0.4-11.2,0.4-16.7
						c-0.1-24-0.1-48-0.1-71.9c0-8.8,0-17.7,0-26.5c0-2.5,0.1-5,0-7.5c-0.2-3.5-1.2-7-2.7-10.2c-2.6-5.4-6.9-9.6-12.4-12.3
						c-3.7-1.7-8-2.3-12-3.3c-4-0.9-7.9-1.8-11.9-2.8c-10.1-2.5-20.2-5-30.3-7.6c-7.7-2-15.5-4-23.2-6.1c-0.4-0.1-0.9-0.3-1.3-0.3
						c-0.5-0.1-0.7,0-1.2,0.1c-2.1,0.2-4.2,0.5-6.2,0.7c-6.6,0.9-13.5,2.4-19.3,5.6c-2.1,1.2-4.2,2.6-5.8,4.4c-1,1.1-1.9,2.5-2.4,4
						c-0.6,1.6-0.7,3.1-0.8,4.8c0,0.2,0.7,0.4,0.7,0.1c0.1-0.8,0.3-1.5,0.5-2.3c0.1-1.2,0.4-2.3,1.1-3.2c0.2-0.3,0.3-0.7,0.5-1
						c1.3-1.9,3.2-3.5,5.4-4.4c1.3-0.9,2.7-1.7,4-2.6c0.8-0.3,1.6-0.7,2.4-1c1.2-0.5,2.5-0.8,3.8-1.2c5-1.4,10-2.1,15.1-2.6
						c0.9-0.1,2.1-0.4,3-0.1c1.1,0.3,2.1,0.7,3.2,1c6.4,1.7,12.8,3.4,19.3,5c16,4.2,31.9,8.4,48.1,11.9c6,1.3,11.8,3.9,15.8,8.6
						c1.1,1.3,2.2,2.9,3,4.5c0.6,1.2,1.1,2.3,1.5,3.6c0.6,1.7,1.1,3.5,1.3,5.3c0.3,1.8,0.2,3.7,0.2,5.5c0,6.8,0,13.4,0,20.2
						c0.1,21,0,42.1,0,63.1c0,8.7,0,17.4,0.1,26.1c0,2.5,0,5-0.2,7.6c-0.1,0.6-0.1,1.3-0.1,1.8c-0.4,2-0.8,4.2-1.2,6.2
						c-0.8,2.7-1.9,5.3-3.6,7.6c-2.1,2.9-5.2,5.2-8.8,6.2c-0.6,0.1-1.1,0.2-1.7,0.3c-0.9,0.2-1.7,0.3-2.6,0.3c-0.5,0-1-0.1-1.5-0.1
						c-0.5-0.1-0.9-0.1-1.3-0.1c-17.6,0-35.1,0-52.7,0c-10.8,0-21.7,0-32.5,0c-4.4,0-8.7,0.1-13,0.1c-2,0-4,0.1-6,0.1
						c-1.1,0-2.3,0-3.4-0.3c0.1,0.1,0.1,0.2,0.1,0.3c0-27.6,0-55.2,0-82.9c0-27.5-0.2-55.1,0.1-82.8
						C192.5,185.9,192.2,185.7,192.2,186z"/>
					<path class="st0" d="M192.6,186.3c-0.2,55.2,0.1,110.4,0,165.6c0,0.1,0.1,0.2,0.2,0.2c14.4,0.2,28.7,0.1,43.1,0.1
						c20.1,0,40.1,0,60.2,0c1.5,0,3.1-0.1,4.6,0c0.7,0.1,1.3,0.2,2,0.2c2.8,0.1,5.6-0.5,8.1-1.8c4.9-2.5,7.9-7.4,9.3-12.5
						c1.2-4,1.6-8.1,1.7-12.2c0.1-5.6,0-11.2,0-16.7c0-23.4,0-46.8,0-70.3c0-7.8,0-15.5,0-23.4c0-2.1,0.1-4.4,0-6.6
						c-0.7-9.2-6.2-18.2-15-21.8c-2-0.9-4.1-1.5-6.2-2c-3.5-0.9-7-1.5-10.5-2.3c-10-2.3-19.9-4.9-29.9-7.4c-8.9-2.3-17.7-4.6-26.6-7
						c-1.1-0.3-2.3-0.6-3.4-0.9c-0.6-0.2-1.3-0.5-1.9-0.6c-0.9-0.1-1.9,0.1-2.9,0.3c-6.4,0.6-12.9,1.6-18.9,3.9
						c-3.2,1.2-6.2,2.7-8.9,4.8c-1.1,0.9-2.3,2.1-3.2,3.4c-0.3,0.7-0.7,1.3-1.1,2c-0.6,1.5-0.9,3.1-0.9,4.6
						c-0.1,0.4,0.7,0.2,0.8-0.1c0.1-1.5,0.2-2.9,0.9-4.4c0.5-1,1-1.9,1.7-2.7c1.7-2.1,4-3.8,6.4-5c5.5-2.9,11.9-4.2,18.1-5.1
						c2.1-0.3,4.1-0.5,6.2-0.7c0.7-0.1,1.5-0.2,2.1-0.1c0.9,0.2,1.7,0.5,2.6,0.7c3,0.8,5.9,1.5,8.9,2.3c17.2,4.5,34.4,9,51.8,13.1
						c1.5,0.4,3,0.7,4.6,1.1c0.5,0.1,0.9,0.2,1.5,0.3c2.4,0.4,4.7,1.2,6.9,2.3c1.4,0.6,2.8,1.1,4.2,1.7c0.7,0.5,1.5,1,2.2,1.5
						c1.3,1,2.6,2.1,3.6,3.4c2.9,3.6,4.6,7.7,5.6,12.2c0.3,1.1,0.5,2.3,0.5,3.5c0,0.8-0.1,1.6-0.1,2.4c0,7,0,14,0,21
						c0.1,22.6,0,45.1,0,67.6c0,4.8-0.1,9.6-0.1,14.5c0,4.2,0.2,8.5-0.1,12.7c-0.5,6.4-1.7,13-6,18.1c-2.3,2.8-5.8,4.5-9.4,5.1
						c-1.9,0.3-3.6,0.2-5.5,0c-2.1-0.2-4.4-0.1-6.4-0.1c-4.1,0-8.3,0-12.4,0c-11.4,0.1-22.8,0-34.2,0s-22.9-0.1-34.3-0.1
						c-4.1,0-8.2,0-12.3-0.1c-2.3-0.1-4.8,0.3-7.1,0c0.1,0.1,0.1,0.1,0.2,0.2c0.1-27.6,0-55.1,0-82.8s-0.1-55.1,0.1-82.8
						C193.3,185.5,192.6,186.1,192.6,186.3z"/>
					<path class="st0" d="M192.5,185.9c0.1,55.2,0,110.4,0,165.6c0,0.1,0.1,0.4,0.1,0.4c0.2-0.1,0.3-0.1,0.5-0.3
						c-0.1,0.1-0.3,0.1-0.3,0.1c2.2,0.3,4.4,0.1,6.6,0.1c4,0,8,0,12,0c11.3,0,22.6,0,33.8,0c18.1,0,36.3,0,54.4,0
						c1.4,0,2.8,0.3,4.3,0.2c3.3-0.1,6.6-1.2,9.3-3.1c4.6-3.5,6.9-8.9,8.1-14.3c0.8-3.8,1-7.6,1-11.5c0-4.9,0-9.8,0-14.8
						c0-24.8,0-49.6,0-74.3c0-7.4,0-14.7,0-22.1c0-1.7,0.1-3.5-0.2-5.2c-0.6-4.4-2.2-8.7-4.8-12.5c-3.5-5-9-8.2-14.9-9.8
						c-3.4-0.9-6.9-1.5-10.4-2.3c-4.8-1.1-9.5-2.2-14.3-3.4c-10-2.5-20-5-29.9-7.6c-4.3-1.1-8.5-2.2-12.8-3.3
						c-1.3-0.3-2.6-0.7-3.8-1c-0.9-0.2-1.7-0.6-2.6-0.7c-0.9-0.1-2.1,0.2-3,0.3c-3,0.3-6,0.7-8.9,1.3c-4.7,0.9-9.4,2.1-13.7,4.2
						c-3.3,1.5-6.4,3.8-8.5,6.8c-0.3,0.5-0.9,1.5-1.1,2.1c-0.7,1.6-0.7,3.1-0.9,4.8c0,0.2,0.3,0,0.3-0.2c0.6-1.4,1.2-2.7,1.8-4.1
						c0.3-2.1,1.1-3.7,2.6-4.8c0.9-0.8,1.8-1.5,2.8-2.1c0.7-0.4,1.5-0.9,2.1-1.3c3.2-1.2,6.4-2.3,9.7-3.5c1.2-0.3,2.5-0.6,3.8-0.9
						c4.1-0.8,8.3-1.3,12.4-1.5c0.5,0,0.6,0,1.1,0.1c1.5,0.6,3.2,0.9,4.8,1.3c7,1.8,14,3.7,20.9,5.5c8.3,2.1,16.5,4.2,24.8,6.3
						c3.6,0.9,7.1,1.7,10.7,2.6c4,1,8.1,1.7,12.1,2.9c0.5,0.1,1.1,0.3,1.6,0.5c2.6,1.3,5.1,2.7,7.6,4c1,0.8,1.9,1.6,2.8,2.5
						c1.8,1.9,3.3,4.1,4.4,6.4c0.7,1.7,1.3,3.4,1.8,5.2c0.4,1.5,0.9,3.4,0.9,5.1c-0.2,9.8-0.1,19.6-0.1,29.3c0,21.2,0,42.5,0,63.7
						c0,4.8,0,9.6,0,14.3c0,1.7,0,3.4,0,5.1c0,0.5,0,1.1,0,1.6c-0.1,2.5-0.3,5.2-0.4,7.7c-0.7,5.7-2.4,11.9-6.8,15.9
						c-2.9,2.7-6.5,4.2-10.5,4.2c-0.9,0-1.5-0.1-2.3-0.1c-1-0.1-2.1,0-3,0c-18.4,0-36.8,0-55.3,0c-10.5,0-21,0-31.5,0
						c-3.9,0-7.9,0.1-11.7,0.1c-1.1,0-2.2,0-3.4,0s-2.7,0.2-3.8-0.1c0.1,0.1,0.1,0.3,0.1,0.4c0-55.2,0.1-110.4,0-165.6
						C192.7,186.2,192.5,185.8,192.5,185.9z"/>
					<path class="st0" d="M191.7,186.5c-0.1,55.2,0,110.4,0,165.6c0,0.1,0.1,0.2,0.2,0.2c1.6-0.1,3.3-0.1,4.9-0.1
						c4.2,0.1,8.3,0.1,12.4,0.1c11.7-0.1,23.5,0,35.3,0c12.2,0,24.4,0,36.5,0c4.1,0,8.2,0,12.3,0c2.3,0,4.6-0.1,6.9,0
						c1.2,0.1,2.3,0.3,3.6,0.2c1.5-0.1,3.1-0.4,4.5-0.9c7.1-2.5,10.6-9.6,12.2-16.3c1.1-4.8,1-9.8,1-14.7c0-4.5-0.1-9-0.1-13.5
						c-0.1-13.4-0.1-26.8-0.1-40.3c0-19,0.1-38,0-56.9c0-2.1-0.5-4.4-1.1-6.5c-1.7-5.8-5.2-10.9-10.3-14.3
						c-3.5-2.3-7.3-3.6-11.5-4.4c-4.2-0.9-8.4-1.9-12.6-2.9c-11.3-2.7-22.6-5.6-33.9-8.5c-7.9-2-15.9-4.1-23.8-6.2
						c-0.8-0.2-1.1-0.3-1.9-0.2c-1.8,0.1-3.6,0.3-5.4,0.5c-6.1,0.8-12.5,1.9-18.1,4.4c-3.7,1.7-7.5,3.9-9.7,7.3
						c-0.4,0.6-1.4,3-1.1,2c-0.7,1.9-0.7,2.8-0.8,4.8c0,0.3,1.4,0.2,1.4-0.1c0.1-0.8,0.1-1.5,0.3-2.3c1-1.9,2.1-3.9,3.1-5.8
						c0.9-1.2,2.3-2.1,3.6-3c3.2-2.1,7-3.5,10.6-4.4c4.9-1.4,9.9-2.1,14.9-2.6c0.9-0.1,2-0.3,3-0.1c0.6,0.1,1.2,0.4,1.7,0.5
						c1.1,0.3,2.3,0.6,3.4,0.9c4.1,1.1,8.2,2.1,12.3,3.2c10.5,2.7,21,5.4,31.6,8c4.7,1.2,9.5,2.3,14.2,3.4c4.4,1.1,9.1,1.7,13.4,3.3
						c4.2,1.5,7.8,4.1,10.6,7.6c1.9,2.4,3.4,5.2,4.3,8.1c0.9,2.7,1.3,5.6,1.3,8.4c0,7.8,0,15.7,0,23.6c0,26.1-0.1,52.2,0.1,78.3
						c0.1,9.5,1.1,19.6-2.8,28.7c-2.7,6.3-10.5,11.6-17.5,10.5c-1.3-0.2-2.6,0-3.9,0c-22.7,0-45.3,0-68,0c-9.7,0-19.3,0.1-29-0.2
						c-1.4-0.1-2.8-0.1-4.2-0.2c-0.9-0.1-1.7-0.1-2.6-0.3c-0.1-0.1-0.3-0.1-0.5-0.1c0-0.5,0-0.9,0-1.3c0-1.8,0-3.7,0-5.6
						c0.1-52.8-0.3-105.6,0-158.3C192.7,185.7,191.7,186.2,191.7,186.5z"/>
					<path class="st0" d="M192.7,186.5c0.1,55.2,0,110.4,0,165.6c0,0,0,0.1,0.1,0.1c1.3,0.5,3.3,0.2,4.6,0.1
						c3.6-0.1,7.3-0.1,10.9-0.1c10.9,0,21.9,0,32.8,0c19.2,0,38.4,0,57.5,0c1.2,0,2.3,0,3.6,0.1c0.7,0.1,1.4,0.1,2.1,0.1
						c3.1-0.1,6.1-1.1,8.7-2.7c5.1-3.3,7.7-9.1,8.8-14.8c1-4.8,1-9.8,0.9-14.7c-0.1-5.2-0.1-10.4-0.1-15.7
						c-0.1-24.6-0.1-49.4-0.1-74.1c0-6.6,0-13.1,0-19.6c0-2.1-0.2-4.2-0.7-6.2c-0.7-2.8-1.7-5.4-3.2-7.9c-1.6-2.7-3.9-5.2-6.5-7.1
						c-3.8-2.7-8.1-4.2-12.6-5.1c-8.5-1.7-17-4-25.4-6.1c-9.8-2.5-19.6-5-29.4-7.5c-3.9-1-7.7-2-11.6-3.1c-1-0.3-2-0.5-3.1-0.8
						c-0.4-0.1-0.9-0.4-1.3-0.4c-0.9-0.1-1.9,0.1-2.8,0.2c-2.2,0.2-4.5,0.5-6.7,0.8c-6.4,1.1-13,2.6-18.5,5.9
						c-2.5,1.4-4.6,3.3-6.2,5.6c-1.4,2.1-1.7,4.4-1.8,6.9c0,0.1,0.1-0.3,0.1-0.3c0.3-1.1,0.7-2.2,1-3.3c0.1-1.7,0.6-3.1,1.7-4.2
						c0.3-0.3,0.5-0.6,0.7-0.9c2.7-2.7,5.8-4.6,9.4-5.7c2.1-0.9,4-1.5,6.1-2.1c1.3-0.3,2.5-0.6,3.8-0.9c4.1-0.8,8.3-1.4,12.4-1.4
						c0.9,0,1.6,0.3,2.6,0.5c1.9,0.5,3.8,1,5.7,1.5c7.5,1.9,15,4,22.4,5.8c8.3,2.1,16.5,4.2,24.8,6.3c4,1,7.9,1.9,11.9,2.9
						c3.4,0.9,7,1.5,10.3,2.8c3,1.3,5.8,2.9,8.2,5.2c1.7,1.7,2.4,3.1,3.8,5.4c1.3,2.1,2.1,3.3,2.7,5.4c0.7,2.2,1.4,4.8,1.3,7.2
						c0,0.3-0.1,0.6-0.1,0.8c-0.1,0.7,0,1.4,0,2c0,2.2,0,4.4,0,6.6c0,8.7,0,17.5,0,26.2c0,21.2,0,42.4,0,63.6c0,4.3,0,8.6,0,12.9
						c0,3.8-0.1,7.4-0.7,11.1c-0.9,5.5-2.9,11.2-7.4,14.9c-2.9,2.4-6.7,3.6-10.5,3.5c-0.5,0-1-0.1-1.5-0.1c-1.3-0.2-2.8-0.1-4.1-0.1
						c-19.7,0-39.3,0-58.9,0c-10.1,0-20.2,0-30.3,0.1c-5,0-10.1-0.1-15.2,0.4c0.1,0.1,0.3,0.1,0.4,0.1c0-55.2,0-110.4,0-165.6
						C193.2,186.5,192.7,186.4,192.7,186.5z"/>
				</g>
			</g>
		</g>
	</g>
	<g>
		<g>
			<path d="M193.1,68c-53.6,0-48.6,26.5-48.6,59.1s21.8,59.1,48.6,59.1s48.6-26.5,48.6-59.1S255.7,68,193.1,68z"/>
			<g>
				<g>
					<path class="st0" d="M192.7,67.6c-14.8,0.3-33.4,1.3-42.6,14.4c-3.3,4.7-4.8,10.3-5.6,15.9c-1,7.6-0.7,15.4-0.6,23
						c0.1,4,0,8,0.3,12.1c0.3,6.2,1.7,12.5,3.8,18.3c2.4,6.8,6,13.5,10.7,19.1c5.8,6.8,12.8,12.2,21.3,15.1c7.7,2.7,16,3,23.9,0.9
						c19.1-5,31.8-22.4,36.6-40.3c1.7-6.2,2.3-12.5,2.4-18.9c0.1-3.1,0.1-6.2,0.3-9.3c0.4-6.6,1.1-13.1,1-19.8
						c-0.1-4.8-0.7-9.7-2.8-14.1c-1.4-2.9-3.4-5.5-6-7.5c-3.9-3.1-8.7-4.9-13.6-6.2c-9.4-2.4-19.1-2.7-28.8-2.9
						c-0.1,0-0.3,0.3-0.3,0.3c5.4,0.1,10.8,0.1,16.2,0.6c1.5,0.2,3,0.3,4.6,0.5c3.8,0.4,7.4,1.3,10.8,2.8c2.9,0.4,5.5,1.4,7.9,2.9
						c1.2,0.7,2.3,1.4,3.3,2.3c2.1,3.1,4.3,6.2,6.4,9.4c0.4,1.1,0.7,2.2,0.9,3.3c0.9,4.5,1,9.2,0.8,13.8c-0.2,4.8-0.7,9.6-0.9,14.5
						c-0.4,6.4-0.2,12.7-1,19.1c-1.1,8.2-3.8,16.3-7.9,23.6c-3.4,6.1-7.8,11.5-13.2,15.9c-7.5,6.2-17.3,10.4-27.3,10.1
						c-6.7-0.2-13-1.7-18.9-4.6c-6.1-3-11.2-7.6-15.6-12.7c-7.2-8.4-11.4-19.1-13.2-29.7c-1.1-6.9-1-13.8-1.1-20.8
						c-0.1-6-0.3-12.1,0.3-18c0.5-5.6,1.6-11.1,4.2-16.1c2.1-4.2,5.8-7.4,9.7-9.9c2.9-1.7,6.4-3.1,9.7-4c7.9-2.1,16-2.5,24.2-2.7
						C192.6,68,192.7,67.6,192.7,67.6z"/>
					<path class="st0" d="M192.4,67.5c-14.7,0.3-33.4,1.3-42.8,14.3c-3.6,5.1-5.1,11.3-5.8,17.4c-0.8,7.1-0.6,14.3-0.5,21.5
						c0.1,4-0.1,8,0.3,12.1c0.3,4.7,1.1,9.4,2.4,13.9c1.3,5,3.4,9.8,6,14.4c2.4,4.3,5.3,8.4,8.9,11.9c4.8,4.8,10.3,8.8,16.7,11.3
						c8.1,3.2,17.1,3.8,25.6,1.5c15.8-4.2,27.6-16.9,33.7-31.3c2.7-6.4,4.4-13.2,5-20.1c0.5-4.5,0.3-9,0.5-13.6c0.1-3,0.3-6,0.5-9
						c0.4-5.4,0.8-10.9,0.5-16.3c-0.3-5.3-1.5-11.1-5-15.4c-3.5-4.3-8.4-7-13.7-8.8c-10.3-3.4-21.4-3.7-32.2-3.8
						c-0.5,0,0.1,0.7,0.4,0.7c9.5,0.1,19.2,0.3,28.4,2.8c5.2,1.4,10.3,3.4,14.3,7c6.8,6.2,7.6,15.5,7.4,24.1
						c-0.1,5.2-0.7,10.4-0.9,15.7c-0.5,7.8,0.1,15.7-1.7,23.6c-1.3,4.4-2.7,8.7-4,13.1c-0.8,2-1.8,4-2.9,5.9c-1.7,3.1-3.7,6-5.9,8.8
						c-3.4,4.2-7.5,7.8-12.1,10.7c-3.2,2-7,3.9-10.7,4.8c-1.3,0.3-2.6,0.7-3.8,0.9c-2.6,0.6-5.2,0.8-7.9,0.6c-2.7,0.2-5.3,0-7.9-0.6
						c-1.9-0.3-3.8-0.9-5.6-1.5c-9.7-3.4-17.6-10.1-23.4-18.3c-4.7-6.6-7.9-14.2-9.7-22c-1.1-4.6-1.7-9.3-1.8-14
						c-0.1-3.2-0.1-6.4-0.1-9.6c-0.1-6.6-0.3-13.2,0.4-19.8c0.5-4.7,1.3-9.4,3.3-13.7c7.3-16.6,28.8-18.2,44.8-18.4
						C193.5,68.1,192.7,67.4,192.4,67.5z"/>
					<path class="st0" d="M192.1,66.4c-15.6,0.3-35.7,1.6-44,16.9c-3.3,6-4.2,13-4.6,19.8c-0.4,7.9-0.1,15.9,0,24
						c0.2,10.9,2.3,21.6,7.4,31.3c2.6,5.2,6,9.9,10.1,14.1c6.5,6.6,14.8,11.5,24,13.3c8,1.5,16.3,0.7,23.8-2.3
						c9-3.7,16.5-10.3,22-18.2c5.2-7.4,8.5-15.9,10.3-24.7c1.7-8.8,1.2-17.9,1.8-26.8c0.4-6.4,1.1-12.9,0.7-19.3
						c-0.4-5.5-1.6-10.9-5.1-15.5c-3.2-4.1-7.6-6.7-12.4-8.4c-10.7-4-22.5-4.2-33.8-4.3c-0.5,0,0.3,1.3,0.6,1.3
						c8.3,0.1,16.5,0.4,24.7,1.9c5.3,1.1,10.5,2.7,15.1,5.6c5,3.1,8.2,8.3,9.5,13.9c0.9,4.1,1,8.2,0.9,12.5
						c-0.1,4.8-0.5,9.5-0.8,14.3c-0.3,6-0.1,12.1-0.7,18c-0.9,9.6-3.7,19.4-8.7,27.7c-3.6,5.8-7.9,11.4-13.5,15.5
						c-5.2,4-11.3,7.2-17.8,8.5c-1.3,0.2-2.6,0.5-4,0.7c-9.8,1.6-18.1-1.7-25-10.1c-10.3-2.7-17.5-8.6-21.3-17.6
						c-0.6-1.3-1.3-2.7-1.9-4c-3-7.1-4.7-14.7-5.3-22.4c-0.3-3.4-0.1-6.8-0.2-10.2c0-2.9-0.1-5.9-0.1-8.8c0-10.1,0.2-21.4,6-30.3
						c8.9-13.7,28.1-14.8,43-15C193.3,67.7,192.4,66.4,192.1,66.4z"/>
					<path class="st0" d="M192.8,67.4c-16.3,0.3-37.9,1.9-45.3,18.9c-2.6,6-3.4,12.3-3.6,18.7c-0.3,6.2-0.1,12.5,0,18.7
						c0.1,5.2,0.2,10.4,1.1,15.5c0.9,5.2,2.3,10.4,4.4,15.4c1.7,4,3.8,7.8,6.4,11.5c4,5.6,9,10.5,14.8,14.2
						c7.9,4.9,17.4,7.4,26.9,6.4c9.4-1,18.3-5.2,25.2-11.5c6.4-5.9,11.2-13,14.6-21c2.4-5.6,4-11.8,4.8-17.8
						c0.5-4.2,0.5-8.6,0.6-12.9c0.1-6.9,0.9-13.7,1.1-20.7c0.2-5,0.1-10-1.1-15c-1.1-4.6-3.8-8.6-7.5-11.7c-3-2.4-6.6-4.1-10.2-5.2
						c-10.3-3.4-21.3-3.7-32.1-3.8c-0.5,0-0.1,0.8,0.2,0.8c9.4,0.1,19.1,0.3,28.3,2.9c1.1,0.3,2.2,0.7,3.4,1
						c2.3,0.7,4.5,1.7,6.5,3.2c2,0.9,3.8,2.1,5.2,3.7c0.8,0.8,1.5,1.7,2.1,2.7c5.2,7.6,4.5,17.5,3.9,26.1
						c-0.3,5.4-0.8,10.9-0.9,16.3c-0.1,4.2-0.1,8.5-0.7,12.7c-0.7,4.5-1.6,9-3.2,13.4c-2.5,6.8-5.8,13.1-10.4,18.7
						c-2.6,3.1-5.5,5.9-8.7,8.4c-3,2.3-6.6,4.4-10.2,5.8c-3,1.2-6.2,2-9.4,2.5c-4,0.6-7.9,0.6-11.8,0c-7.2-1.1-14-4.1-19.7-8.4
						c-12.1-9.1-19.4-23.7-21.8-38.2c-1.3-7.4-1-15-1.1-22.5c-0.1-7.3-0.3-14.9,1.3-22.1c0.9-4.4,2.5-8.6,5.1-12.5
						c3.4-4.8,8.9-8.2,14.5-10.1c8.9-3,18.3-3.5,27.6-3.6C193.5,68.2,193.1,67.4,192.8,67.4z"/>
					<path class="st0" d="M192.7,66.6C178,66.8,159.2,68,150,81.1c-5.8,8.3-6.3,18.9-6.4,28.6c0,4.6,0.1,9.2,0.1,13.7
						c0,2.9,0,5.6,0.2,8.5c0.4,6.2,1.7,12.3,3.8,18.2c5.5,16.1,18.3,31.1,35.8,35.2c9.3,2.2,18.9,1.2,27.5-2.9
						c7.6-3.5,13.8-9,18.8-15.6c6.4-8.5,10.3-18.4,12-28.8c0.7-4.2,0.9-8,1-12.3c0.2-5.6,0.4-11.2,0.8-16.7
						c0.7-10.3,2.1-22.9-5.5-31.4c-3.1-3.5-7.2-5.7-11.6-7.3c-10.7-3.8-22.5-4-33.7-4.1c-0.3,0-0.1,1.1,0.3,1.1
						c8.3,0.1,16.6,0.5,24.7,2c6.8,1.3,14,3.8,18.9,8.8c6.4,6.6,6.7,16,6.4,24.5c-0.2,4.8-0.7,9.6-0.9,14.4
						c-0.3,6.3,0,12.7-0.9,18.9c-1.1,7.4-3.1,14.9-6.5,21.6c-3.2,6.1-7.3,12.1-12.5,16.7c-2.1,1.6-4.2,3.2-6.2,4.8
						c-1.1,0.7-2.3,1.3-3.4,2c-3.3,1.8-7.3,3.3-11.1,4.1c-6.5,1.3-13.4,1.3-19.7-0.7c-14.3-4.2-25.1-15.1-31.4-28.1
						c-6.7-13.9-6.8-30.2-6.8-45.3c0-5.8,0.2-11.7,1.3-17.3c0.3-1.4,0.7-2.7,1.1-4.2c0.6-2.1,1.7-4.2,3.2-6c1-2.6,2.6-4.8,4.8-6.6
						c0.7-0.6,1.5-1.2,2.3-1.7c2.2-1.5,4.6-2.7,7.1-3.8c9.3-3.7,19.3-4.2,29.2-4.2C193.3,67.6,193,66.6,192.7,66.6z"/>
					<path class="st0" d="M191.7,67.1c-15.6,0.3-36,1.5-44.4,16.8c-2.3,4.2-3.4,8.9-4,13.6c-0.9,7.6-0.6,15.3-0.5,22.9
						c0.1,4,0,8,0.3,12.1c0.3,4.7,1.1,9.4,2.4,13.9c2,7.1,5.2,13.9,9.5,20c5.5,7.6,13.1,14.3,22.1,17.7c6.4,2.4,13.1,3.5,19.9,2.8
						c15.2-1.5,28.3-12,35.7-24.6c4.7-8,7.7-16.7,8.9-25.8c0.8-6.4,0.5-12.7,0.9-19.1c0.4-7.4,1.4-14.9,0.9-22.3
						c-0.3-4.7-1.3-9.4-3.8-13.5c-2.8-4.4-7.3-7.5-12.2-9.6c-4.6-1.9-9.5-2.9-14.5-3.7c-6.9-1-13.9-1.2-20.9-1.3
						c-0.6,0,0.3,0.8,0.5,0.8c7.6,0.1,15.2,0.3,22.7,1.5c5.1,0.9,10.1,2.1,14.8,4.4c2.4,1.2,4.2,2.6,6.1,4.4c1.7,1.6,3,3.3,4,5.4
						c1.8,4,2.6,8.2,2.7,12.5c0.3,8.6-0.9,17.1-1.1,25.6c-0.1,1.5-0.1,3.1-0.1,4.8c-0.7,6.3-1.5,12.6-2.3,18.8
						c-0.7,2.9-1.7,5.8-2.9,8.6c-3.6,9-9.9,18.2-17.8,23.9c-4.9,3.5-10.1,6.3-16.1,7.8c-2.6,0.8-5.2,1.1-8,0.8
						c-2.7,0.5-5.4,0.5-8-0.1c-7.2-1.1-14-4.2-19.7-8.6c-14.2-10.8-21.5-28.3-22.8-45.5c-0.3-3.4-0.1-6.8-0.2-10.2
						c0-2.9-0.1-5.8-0.1-8.7c0-1.1,0-2.2,0-3.3c1.7-8.6,3.3-17.2,5-25.8c1.1-1.9,2.5-3.8,4.1-5.4c3.3-3.3,7.5-5.6,11.9-7.2
						c8.8-3.1,18.3-3.5,27.6-3.7C193.2,67.9,192,67,191.7,67.1z"/>
					<path class="st0" d="M193.1,67.2c-11.1,0.1-22.8,0.7-32.8,5.9c-5.7,2.9-10.3,7.5-12.7,13.4c-2.2,5.4-3.2,11.2-3.4,16.9
						c-0.4,8-0.2,16.1-0.1,24c0.1,7.9,1.3,15.7,4,23.2c5.5,15.5,17.3,29.7,33.9,34.6c9.1,2.6,18.9,2,27.7-1.5
						c7.7-3.1,14.4-8.4,19.6-14.8c6.6-8.1,10.9-18,13-28.1c1.7-8.8,1.2-17.9,1.7-26.8c0.4-6.4,1.1-12.9,0.7-19.3
						c-0.3-4-1-7.9-2.8-11.5c-2.8-5.5-7.7-9-13.4-11.4c-4.6-1.9-9.5-2.9-14.4-3.6c-6.9-1-13.8-1.1-20.8-1.3c-0.3,0-0.3,0.3,0,0.3
						c8.3,0.1,16.7,0.4,24.8,2.1c5.2,1.1,10.7,2.7,15.2,5.8c4.6,3.2,7.8,7.5,9.1,13c0.9,4,1.2,8.1,1.1,12.3
						c-0.1,4.2-0.4,8.4-0.7,12.7c-0.4,5.4-0.5,10.8-0.7,16.2c-0.5,14.9-5.5,29.7-15.5,41c-2.2,2.5-4.7,4.9-7.4,7
						c-1.1,0.8-2.1,1.5-3.3,2.3c-2.3,1.2-4.6,2.4-6.8,3.6c-6,2.6-12.9,3.5-19.4,3c-1.9-0.1-3.9-0.5-5.8-1c-1.9-0.4-3.8-1-5.5-1.8
						c-2.5-0.8-4.9-1.9-7-3.3c-1.1-0.7-2.2-1.5-3.3-2.2c-5.5-4.1-10.3-9.4-13.8-15.2c-4.2-7-7.2-14.9-8.6-23c-0.7-4-1-7.9-1.1-11.9
						c-0.1-5.8-0.3-11.7-0.2-17.5c0-5.2,0.2-10.4,1.1-15.5c0.5-3.9,1.7-7.5,3.6-11c0.5-0.8,1-1.5,1.5-2.3
						c8.9-12.5,27.1-13.9,42.4-14.1C193.1,67.4,193.4,67.2,193.1,67.2z"/>
				</g>
			</g>
		</g>
	</g>
	<g>
		<g>
			<path d="M218.5,38.9c1.8-3.4,2.9-7.2,2.9-11.3c0-14.3-12.6-25.9-27.9-25.9s-27.9,11.6-27.9,25.9c0,4,1,7.6,2.7,11
				C80.4,80.7,147,141.4,147,141.4V95.7h46h46v45.7C239.1,141.5,305.4,81,218.5,38.9z"/>
			<g>
				<g>
					<path class="st0" d="M219.6,39.3c0.9-1.8,1.6-3.5,2.1-5.4c0.5-1.9,0.7-4.2,0.7-6.1c0-3.1-0.6-6.2-1.8-9
						c-1.8-4.2-4.5-7.9-8.1-10.9c-4-3.3-9-5.4-14.2-6.2c-9.1-1.3-18.5,1.2-25.2,7.4c-3.6,3.5-6.5,8-7.6,12.9
						c-0.5,2.5-0.8,5.1-0.6,7.6c0.3,3.5,1.3,6.7,2.8,9.8c0.1-0.3,0.2-0.5,0.3-0.7c-5.4,2.7-10.9,5.6-16,8.8
						c-4.3,2.7-8.4,5.8-12.2,9.2c-5.1,4.5-9.4,9.9-12.6,15.9c-5.4,10-6.2,21.8-3.4,32.6c2.3,8.9,6.6,17.1,12,24.6
						c2.3,3.3,4.8,6.4,7.6,9.3c1.2,1.3,2.4,2.7,3.8,3.8c0.1,0.1,0.3-0.1,0.3-0.2c0.3-3,0.3-6.2,0.3-9.2c0.1-5.1,0.1-10.1,0.1-15.3
						c0.1-7.6,0.1-15.3,0.1-22.9c-0.1,0-0.1,0.1-0.3,0.1c0.3,0.2,0.7,0.2,1.1,0.3c1.5,0.3,3.1,0.4,4.6,0.5
						c5.3,0.4,10.7,0.3,16.1,0.5c8.1,0.1,16.2,0.1,24.4,0.2c15.4,0.2,30.7,0,46.1,0c-0.3-0.4-0.6-0.7-0.9-1.1
						c-0.3,2.6-0.3,5.4-0.3,8c-0.1,4.6-0.2,9.4-0.2,14c-0.1,8.1-0.1,16.2-0.1,24.2c0,0.2,0.2,0.1,0.3,0.1c1.6-1,3-2.5,4.4-3.8
						c3.5-3.3,6.4-7.2,9.1-11.2c5.6-8.2,10-17.5,11.5-27.3c1.1-7.4,0.5-15-2-22.1c-1.7-4.8-4.2-9.1-7.3-13.1
						c-9.1-12-22.2-19.8-35.6-26.7c-0.1,0-0.5-0.1-0.3,0c16.5,7.6,30.2,19.3,41,35c1,2.1,1.9,4.3,2.6,6.6c0.9,3.1,1.5,6.4,1.7,9.6
						c0.8,11.7-3.3,23.4-9.3,33.4c-2.8,4.6-6,9-9.6,13c-1.3,1.4-2.7,3-4.2,4.3c-0.5,0.5-1.2,1.2-1.9,1.5c0.1,0.1,0.1,0.1,0.3,0.1
						c0-6.2,0-12.3,0.1-18.4c0-4.3,0-8.7,0.1-13c0-2.8,0.1-5.6,0.1-8.4c0-0.5,0.1-1.1,0.1-1.6c0-1.1,0.2-2.1,0.8-3.2
						c0.3-0.1-0.7-1.2-0.9-1.2c-15.3,0-30.5,0-45.9,0c-6.7,0-13.4,0-20.1-0.1c-5.2,0-10.5,0-15.8,0c-2.1,0-4.2,0-6.2-0.1
						c-1.1-0.1-2.4,0.1-3.4-0.4c-0.1,0-0.3,0-0.3,0.1c0,7.6,0,15.3-0.1,23c0,5.2,0,10.2-0.2,15.5c-0.1,2.6,0.1,5.4-0.5,8
						c0.1-0.1,0.1-0.1,0.3-0.2c-2.6-2.7-5.4-5.4-7.7-8.4c-6.2-7.7-11.3-16.2-14.2-25.7c-1.3-4.2-2.1-8.6-2.3-12.9
						c-0.1-2.5,0-5.1,0.3-7.6c0.2-1.5,0.5-3.1,0.9-4.6c1.2-3.1,2.4-6.3,3.6-9.4c1.5-2.8,3.2-5.4,5.2-8c1.3-1.7,2.7-3.3,4.2-4.6
						c2-2.3,4.2-4.3,6.6-6.2c2.7-2.1,5.5-4.2,8.4-6c5-3.3,10.5-5.8,15.9-8.4c0.1-0.1,0.3-0.5,0.3-0.7c-1.6-3.6-2.8-7-2.8-11
						c-0.1-4,0.9-7.9,2.6-11.5c3.2-6.2,8.9-11.1,15.6-13.5c3.1-1.1,6.3-1.7,9.6-1.7c3.4,0.5,6.6,1,10,1.5c3.9,1.2,7.7,3.5,10.6,6.3
						c2.1,2.1,4,4.4,5.4,7.1c1.9,3.7,2.8,7.5,2.8,11.5c0,4-1,7.6-2.9,11.2C218.9,39.3,219.5,39.5,219.6,39.3z"/>
					<path class="st0" d="M219.1,39c1.1-2.3,1.9-4.4,2.4-6.9c0.5-2.5,0.6-5,0.3-7.6c-0.6-5-2.8-9.7-6.2-13.5
						c-6.9-7.9-18.6-11.7-29-9.2c-7.7,1.8-14.5,6.4-18.6,13.1c-2.7,4.4-3.9,9.5-3.6,14.6c0.3,3.6,1.3,6.6,2.8,9.8
						c0.3-0.3,0.5-0.5,0.7-0.8c-10.1,5.2-20.3,10.4-28.7,18.3c-4.2,3.9-7.8,8-10.8,12.7c-6.8,10.7-8.3,23.6-5.2,35.7
						c2.5,9.6,7.4,18.4,13.4,26.3c2.1,2.7,4.3,5.4,6.7,7.8c1,1.1,2.1,2.2,3.3,3.2c0.2,0.1,0.3-0.1,0.3-0.2c0.5-2.1,0.3-4.4,0.3-6.6
						c-0.1-5.2,0.2-10.4,0.2-15.7c0.1-8.2,0.1-16.3,0.1-24.4c-0.1,0.1-0.2,0.2-0.3,0.3c0.7,0.2,1.4,0.2,2.1,0.3
						c1.9,0.1,3.8,0.2,5.6,0.2c5.1,0.1,10.2,0.1,15.3,0.2c7.7,0.1,15.3,0.1,23,0.1c15.3,0.1,30.7,0,46,0c-0.1-0.2-0.3-0.3-0.4-0.5
						c-0.1,0.8-0.1,1.7-0.2,2.4c-0.1,1.9-0.3,3.8-0.3,5.6c-0.1,5.1-0.2,10.2-0.3,15.3c-0.1,7.6-0.1,15.3-0.1,22.8
						c0,0.1,0.2,0.1,0.3,0.1c1.5-0.9,2.7-2.3,4-3.5c1.8-1.9,3.6-3.8,5.3-5.8c6.2-7.4,11.3-16.1,14.1-25.4
						c3.4-11.3,3.2-23.6-2.3-34.3c-3.2-6.2-7.5-11.5-12.5-16.3c-8.2-7.8-18.3-13.5-28.3-18.6c-0.4-0.2-0.3,0.5-0.1,0.7
						c5.5,2.8,10.9,5.6,16,9c2.9,1.9,5.7,4.1,8.5,6.2c6,4.9,11.3,10.9,15,17.6c5.5,10,6.8,21.6,4,32.6c-2.3,8.9-6.6,17.1-12,24.5
						c-1.6,2.3-3.4,4.5-5.3,6.6c-0.9,1-1.9,1.9-2.8,2.9c-0.9,1-1.8,2.1-3,2.8c0.1,0.1,0.2,0.1,0.3,0.1c0-7.1,0-14.2,0.1-21.3
						c0-5.5,0-11.1,0-16.5c0-1.7-0.1-3.6,0-5.4c0.1-0.6,0-1.2,0.3-1.7c0.1-0.2-0.2-0.6-0.4-0.6c-15.3,0-30.5,0-45.9,0
						c-6.7,0-13.4,0-20.1-0.1c-5.2,0-10.5-0.1-15.8-0.1c-2.1,0-4.3,0-6.4-0.1c-0.5,0-0.9-0.1-1.5-0.1c-0.7,0-1.3-0.1-2-0.3
						c-0.2-0.1-0.4,0.1-0.4,0.3c0,7.1,0,14.3-0.1,21.4c0,4.8-0.1,9.6-0.1,14.3c0,2.1,0,4.2-0.1,6.4c0,1.4,0,2.9-0.2,4.2
						c0.1-0.1,0.3-0.3,0.4-0.5c-0.7-0.8-1.5-1.4-2.2-2.2c-2.1-2.2-4.2-4.6-6.1-7c-5.5-7-10.3-15-13.1-23.6
						c-1.5-4.6-2.5-9.5-2.7-14.3c-0.2-5.2,0.6-10.4,2.3-15.5c2.6-7.8,7.7-14.7,13.6-20.4c2.9-2.8,6-5.4,9.2-7.7c1.5-1,3-2,4.4-3
						c4.8-3.1,9.9-5.8,15.2-8.2c0.1-0.1,0.9-0.6,0.7-0.8c-2.5-5.6-3.4-11.1-1.9-16.9c0.9-3.8,2.8-7.2,5.4-10.2
						c6.7-7.8,17.9-11.2,28.1-9c7.9,1.7,15,6.7,18.8,13.7c1.9,3.5,2.9,7.4,3,11.4c0,2-0.3,4-0.7,5.9c-0.5,1.8-1.2,3.7-2.1,5.4
						C218.5,39,218.9,39.2,219.1,39z"/>
					<path class="st0" d="M219.3,38.3c0.8-1.8,1.7-3.6,2.1-5.6c0.6-2.5,0.8-5,0.6-7.6c-0.3-4.6-1.9-9-4.6-12.8
						c-5.8-8.4-16-13-26.3-12.3c-8.9,0.6-17.7,5.2-22.5,12.7c-2.2,3.5-3.7,7.3-4.2,11.5c-0.2,1.9-0.2,4.2,0.1,6.2
						c0.5,2.9,1.4,5.6,2.7,8.3c0-0.1,0-0.2,0-0.3c-9.9,4.8-19.9,10-28.1,17.6c-5,4.6-9.4,9.8-12.6,15.8c-2.8,5.5-4.5,11.5-4.9,17.6
						c-0.4,6.6,0.7,13,2.8,19.2c4.2,12.7,12.4,23.9,22,33.1c0,0,0.3,0.2,0.3,0.1c0.2-0.9,0.3-1.7,0.3-2.7c0.1-2.1,0.2-4.2,0.2-6.2
						c0.1-5.2,0.1-10.3,0.1-15.5c0-7.6,0-15.3,0.1-23c-0.1,0.3-0.3,0.5-0.4,0.7c2.7,0.3,5.4,0.4,8.1,0.5c5,0.2,10.1,0.3,15.2,0.3
						c7.7,0.1,15.3,0.1,23,0.1c15.3,0.1,30.7,0,46,0c0.1-0.1,0.1-0.3,0.1-0.4c-0.3,0.1-0.5,0.4-0.5,0.7c-0.1,0.5-0.1,1-0.3,1.5
						c-0.3,1.9-0.5,3.6-0.6,5.6c-0.1,5-0.1,10-0.2,15.1c-0.1,7.6-0.1,15.2-0.1,22.8c0,0.1,0.1,0.4,0.3,0.3c0.3-0.1,0.3-0.2,0.6-0.5
						c0.7-0.3,1.3-0.7,1.8-1.3c0.3-0.3,0.7-0.6,1-0.9c2.8-2.5,5.2-5.5,7.5-8.4c6-8,11-16.9,13.4-26.7c2.6-10.5,1.8-21.8-3.2-31.7
						c-2.9-5.6-6.6-10.4-11-14.9c-3.6-3.5-7.5-6.7-11.6-9.6c-5.8-4.2-12.1-7.4-18.5-10.6c-0.4-0.2-0.1,1.3,0.2,1.4
						c8.7,4.4,17.1,9.1,24.5,15.3c3,2.4,5.7,5.1,8.2,8c1.3,1.5,2.6,3.1,3.6,4.8c1.6,1.9,3,4.2,4,6.4c2.2,4.6,3.8,9.4,4.4,14.4
						c0.8,7-0.1,14-2.3,20.8c-2.9,8.7-7.6,16.7-13.4,23.9c-1.9,2.3-3.8,4.6-6,6.7c-1,0.9-2,2-3.2,2.5c0.1,0.1,0.2,0.2,0.3,0.3
						c0-7.6,0-15.2,0-22.8c0-5,0-10,0.1-15.1c0.1-1.8,0.2-3.7,0.5-5.5c0.1-0.9,0.5-1.6,0.5-2.5v-0.1c-15.3,0-30.5,0.1-45.9,0
						c-6.7-0.1-13.4-0.1-20.1-0.1c-5.3-0.1-10.6-0.1-15.9-0.2c-2.2-0.1-4.4-0.1-6.6-0.2c-1-0.1-2.8,0.1-3.5-0.8
						c-0.3-0.4-0.5,0.6-0.5,0.7c0,7.6,0,15.3,0,22.8c0,5,0,10,0,15.2c0,2.8,0.1,5.8-0.5,8.6c0.1,0.1,0.3,0.1,0.3,0.1
						c-0.5-0.5-1.1-0.9-1.5-1.4c-2.1-2-4-4.2-5.8-6.4c-2.2-2.7-4.3-5.5-6.2-8.4c-0.7-1.1-1.4-2.1-2.1-3.3c-1.5-2.3-2.6-4.8-3.6-7.5
						c-1.5-2.5-2.6-5.1-3.3-7.8c-0.3-0.9-0.5-1.9-0.7-2.8c-0.6-2.4-1.1-4.8-1.3-7.3c-0.3-4.2-0.2-8.2,0.5-12.3
						c0.4-2.1,0.9-4.2,1.7-6.3c0.4-1.1,0.8-2.1,1.2-3.1c1.1-2.1,2.2-4.2,3.4-6.3c3.4-5.4,7.7-10,12.5-14.1c1.8-1.7,3.8-3.2,6-4.5
						c2.1-1.6,4.2-3.1,6.6-4.4c4.3-2.6,8.8-4.8,13.4-7c0.1-0.1,0-0.3,0-0.3c-2.3-5.7-3.4-10.8-1.7-17.1c1-3.8,3-7.3,5.6-10.3
						c6.1-7,15.7-10.6,25.2-9.6c7.2,0.7,14,4.2,18.7,9.5c3.3,3.8,5.4,8.2,6.1,13.1c0.3,2,0.3,4,0.1,6c-0.4,2.9-1.3,5.6-2.6,8.2
						C218.7,38.5,219.1,38.6,219.3,38.3z"/>
					<path class="st0" d="M219.5,38.8c0.9-1.7,1.6-3.5,2.1-5.4c0.4-1.4,0.6-2.9,0.6-4.4c0.1-2.6-0.1-5.1-0.7-7.6
						c-0.8-2.9-2.1-5.7-3.8-8.1c-3.8-5.4-9.7-9.3-16.2-11c-7.9-2.1-16.4-1-23.3,3.1c-5.3,3.1-9.3,7.8-11.6,13.5
						c-1.1,2.8-1.6,6-1.7,9c-0.1,4,1.2,7.6,2.8,11.3c0.1-0.2,0.2-0.5,0.3-0.7c-10.7,5.6-21.1,11.4-29.8,19.8
						c-4.8,4.6-8.9,9.8-11.7,15.9c-4.8,10.2-5.4,21.5-2.3,32.3c2.2,7.8,6.1,15.2,10.7,21.9c2.3,3.4,4.9,6.6,7.7,9.6
						c1.3,1.5,2.8,3,4.3,4.3c0.1,0.1,0.3,0.1,0.3-0.1c0.1-0.9,0.1-1.8,0.1-2.7c0-1.9,0.1-3.8,0.1-5.7c0.2-5.2,0.2-10.2,0.3-15.5
						c0.1-7.6,0.1-15.3,0.1-23c-0.3,0.3-0.5,0.5-0.8,0.8c2.8,0.1,5.6,0.1,8.3,0.1c5.1,0.1,10.1,0.1,15.2,0.2
						c7.7,0.1,15.3,0.1,23,0.1c15.3,0.1,30.7,0,46,0c-0.3-0.2-0.5-0.5-0.9-0.7c-0.2,15.3-0.2,30.6-0.3,46c0,0.1,0.2,0.3,0.3,0.2
						c1.3-0.7,2.3-2.1,3.5-3.1c2.6-2.3,5-5,7-7.8c5.8-7.6,10.5-16,13.1-25.2c3-10.9,2.4-22.6-2.8-32.8c-3.2-6.2-7.5-11.5-12.5-16.2
						c-8.2-7.8-18.3-13.4-28.3-18.5c-0.4-0.2-0.5,0.8-0.2,0.9c9.3,4.8,18.4,9.9,26.2,16.9c5.6,5,10.7,10.9,14,17.7
						c2.4,5,3.9,10.3,4.4,15.9c0.5,5.5-0.3,11.1-1.8,16.4c-2.6,9-7.2,17.5-13,24.9c-1.1,1.4-2.1,2.7-3.4,4c-0.9,1-2,1.9-2.9,2.9
						c-1,1.1-1.7,2.6-3.2,3.4c0.1,0.1,0.2,0.1,0.3,0.2c0-6.6,0.1-13.3,0.1-19.9c0-4.8,0-9.6,0-14.5c0-1.9-0.1-3.8,0-5.6
						c0-0.5,0-1.1,0.1-1.6c0-1.2,0.2-2.2,0.6-3.3c0.2-0.2-0.7-0.7-0.8-0.7c-15.3,0-30.5,0-45.9,0c-6.7,0-13.4-0.1-20.1-0.1
						c-5.3,0-10.6-0.1-15.8,0c-2,0-4.1,0.1-6.1,0.1c-0.9,0-2.4,0.1-3.2-0.5c-0.3-0.2-0.9,0.5-0.9,0.7c0,7.6-0.1,15.3-0.1,22.8
						c0,5,0.1,10-0.2,15.1c-0.1,0.7-0.1,1.4-0.1,2.1c0.1,1.1,0.2,2.3,0.2,3.4c0,0.7,0,1.4,0,2.1c0.1,0,0.2-0.1,0.3-0.1
						c-2.2-2.3-4.4-4.5-6.4-7c-4.6-5.5-8.8-11.6-11.8-18.1c-1.7-5.4-3.5-10.9-5.2-16.3c-0.1-1-0.3-1.9-0.4-2.9c-0.2-1.9-0.3-4-0.2-6
						c0.1-2.5,0.5-5.2,1-7.6c0.2-1.1,0.5-2.1,0.8-3.1c0.6-2.2,1.5-4.3,2.8-6.3c1.1-2.8,2.6-5.5,4.4-7.9c0.8-1.1,1.7-2.1,2.5-3.1
						c1.9-2.2,4-4.3,6-6.3c3.1-2.8,6.4-5.3,9.8-7.6c5.6-3.9,11.6-7,17.7-10c0.1-0.1,0.4-0.5,0.3-0.7c-1.1-2.5-2.1-5.2-2.4-8
						c-0.3-2.5-0.1-4.9,0.3-7.3c1-5.2,3.7-10.1,7.7-13.7c1.9-1.6,3.9-3.1,6.1-4.2c1.3-0.7,2.7-1.4,4.2-1.8
						c12.1,6.2,24.2,12.3,36.3,18.4c0.8,2.7,0.9,6.2,0.5,8.9c-0.5,2.9-1.4,5.5-2.7,8.2C218.2,39.2,219.5,39,219.5,38.8z"/>
					<path class="st0" d="M219.7,38c1.3-2.7,2.3-5.4,2.7-8.4c0.2-2.1,0.3-4.2,0-6.3c-0.8-5.1-2.9-9.7-6.2-13.6
						c-6.6-7.8-17.7-11-27.7-9.2C179,2.2,170.9,8.3,167,16.9c-1.5,3.3-2.3,6.9-2.3,10.5c0,4.2,1.2,7.7,3,11.5c0-0.1,0-0.3,0-0.4
						c-3.8,1.6-7.5,3.5-11.1,5.5c-2.4,1.4-4.8,2.8-7,4.4c-3.5,2.3-6.8,4.8-9.9,7.6c-5.1,4.6-9.4,9.9-12.6,15.9
						c-5.4,10-6.2,21.8-3.3,32.7c3.8,14.2,12.5,27.1,23.2,37.3c0.1,0.1,0.4-0.1,0.4-0.1c0.1-2.9,0.4-5.9,0.5-8.8
						c0.1-5.2,0.1-10.4,0.2-15.5c0.1-7.7,0.1-15.4,0.1-23.1c-0.3,0.4-0.5,0.8-0.7,1.1c2.7,0.2,5.3,0.3,8,0.3
						c5.1,0.1,10.2,0.1,15.4,0.2c7.7,0.1,15.3,0.1,23,0.1c15.3,0.1,30.7,0,46,0c-0.1-0.1-0.1-0.2-0.1-0.3c-0.3,1.3-0.7,2.5-0.8,4
						c-0.2,1.7-0.3,3.4-0.3,5.1c0,5.1-0.1,10.2-0.1,15.3c-0.1,7.1-0.1,14.3-0.1,21.4c0,0.1,0.1,0.4,0.1,0.4c0.5-0.3,1-0.7,1.5-1
						c1.1-0.9,2.1-1.8,3.1-2.8c1.7-1.8,3.4-3.8,5-5.8c6.4-8,11.7-17.2,14.5-27.1c2.9-10.5,2.5-21.5-2-31.6
						c-3.1-6.8-7.8-12.8-13.4-18c-8.3-7.8-18.3-13.4-28.4-18.5c-0.5-0.2-0.5,1.4-0.3,1.4c5.5,2.8,10.9,5.6,16,9.1
						c2.9,1.9,5.8,4.1,8.5,6.3c6,4.9,11.3,10.9,15,17.7c2.8,5,4.5,10.4,5.2,16c0.7,6.5,0,13.1-1.9,19.4c-2.7,8.5-7.1,16.4-12.5,23.6
						c-2,2.7-4.2,5.4-6.6,7.7c-1.1,1.1-2.3,2.4-3.8,3.1c0.1,0.1,0.1,0.3,0.1,0.4c0.1-7.1,0-14.2,0.1-21.3c0.1-4.7,0.1-9.5,0.3-14.2
						c0.1-2.2,0.1-4.4,0.4-6.7c0.1-0.5,0.1-1.1,0.2-1.5c-0.1-0.7,0.1-1.3,0.4-1.9c0.1-0.1,0.1-0.4-0.1-0.4c-15.3,0-30.5,0.1-45.9,0
						c-6.7,0-13.4-0.1-20.1-0.1c-5.2,0-10.5-0.1-15.8-0.2c-2.1-0.1-4.4,0-6.5-0.2c-0.9-0.1-2.9,0.1-3.3-1c-0.1-0.5-0.9,0.9-0.9,1.1
						c0,7.6,0,15.3,0,22.8c0,5.1,0,10.1,0,15.3c0,1.9,0,4-0.1,5.9c0,0.9,0,1.8-0.2,2.7c0.1-0.1,0.3-0.1,0.4-0.1
						c-1.2-0.9-2.2-2.1-3.3-3.1c-1.6-1.7-3.2-3.5-4.7-5.2c-1.9-2.3-3.8-4.8-5.5-7.4c-0.9-1.4-1.9-2.9-2.8-4.4
						c-0.5-0.8-0.9-1.5-1.3-2.3c-1.9-3.4-3.3-7-4.1-10.9c-1.6-3.1-2.6-6.5-3-9.8c-0.1-1-0.3-2-0.3-3c-0.1-2-0.1-4.1,0-6.2
						c0.1-2.1,0.5-4.2,1.1-6.2c0.3-2.1,0.8-4.2,1.7-6.3c0.4-1.1,0.9-2.1,1.4-3.2c0.7-1.7,1.7-3.3,2.8-4.8c0.9-1.7,2-3.3,3.2-4.7
						c0.8-1.1,1.7-2.1,2.7-3.1c1.4-1.7,3-3.3,4.8-4.6c1.7-1.7,3.4-3.2,5.4-4.6c2.8-2.1,5.8-4.2,8.8-6c4.4-2.6,8.9-4.8,13.6-7
						c0.1-0.1,0-0.4,0-0.4c-1.3-2.6-2.2-5.4-2.6-8.3c-0.4-3-0.1-6,0.7-9c1.5-5.6,5.2-10.7,10.1-14.3c5.9-4.3,13.6-6.3,20.9-5.4
						c9,1,17.8,6.4,22,14.3c1.3,2.6,2.3,5.4,2.7,8.4c0.4,2.9,0.2,5.9-0.5,8.8c-0.5,1.9-1.2,3.7-2.1,5.4
						C218.6,38.9,219.7,38.3,219.7,38z"/>
					<path class="st0" d="M219.1,38.6c0.8-1.8,1.5-3.5,2.1-5.5c0.5-1.9,0.7-4.1,0.7-6c0.1-5.1-1.8-10-4.7-14.3
						C211.6,4.6,201,0.2,191,0.7c-9.7,0.5-18.7,5.5-23.6,13.7c-1.6,2.7-2.7,5.5-3.2,8.6c-0.4,2.5-0.5,5.1-0.1,7.6
						c0.5,2.9,1.5,5.6,2.8,8.3c0.1-0.1,0.3-0.3,0.3-0.4c-5.6,2.7-11.1,5.4-16.4,8.7c-4.4,2.7-8.5,5.8-12.3,9.2
						c-6,5.3-10.9,11.8-14.1,19c-4,9.3-4.2,19.8-1.5,29.4c2.3,8.8,6.7,16.9,12,24.2c3.3,4.6,7,9.2,11.3,12.9
						c0.2,0.2,0.4,0.1,0.4-0.2c0.5-2.1,0.3-4.4,0.5-6.5c0.3-5.4,0.1-10.7,0.2-16c0-8.1,0-16.3,0.1-24.4c-0.1,0-0.2,0-0.3,0.1
						c0.3,0.1,0.7,0.3,1.1,0.5c0.3,0.1,0.7,0.1,1.1,0.1c1.2,0.2,2.4,0.4,3.6,0.5c1.9,0.2,3.8,0,5.7,0.1c1.9,0,3.7,0.1,5.6,0.1
						c7.8,0.1,15.6,0.1,23.4,0.1c10,0,20.1,0,30.1,0c6.4,0,12.9,0,19.3,0c0.2,0,1.9-0.1,1.9,0c0.1,0.1,0.1-0.2-0.1,0.4
						c-0.4,1.9-0.7,4-0.7,5.9c-0.5,13-0.3,26.1-0.5,39.1c0,0.3,0.3,0.2,0.4,0.1c1.4-0.6,2.6-1.7,3.6-2.7c1.6-1.5,3.1-3.3,4.4-4.9
						c1.5-1.7,2.9-3.5,4.2-5.3c6.3-8.8,11.3-18.6,13-29.3c1.6-10.5-0.4-21.2-6-30.3c-3.8-6.2-8.8-11.5-14.4-16.1
						c-7.5-6.2-16.1-11-24.8-15.5c-0.4-0.2-0.2,0.5,0.1,0.7c3.8,1.9,7.5,3.8,11.2,6c2.5,1.4,4.8,2.9,7.1,4.6
						c2.8,1.8,5.3,3.9,7.6,6.2c2.6,1.8,4.8,4,6.8,6.3c0.9,1,1.8,2.1,2.6,3.2c1.9,2.5,3.8,5.2,5.2,8c2.3,4.5,3.8,9.4,4.4,14.4
						c0.2,1.1,0.3,2.1,0.3,3.1c0.2,2,0.1,4.1-0.3,6.2c0,2-0.2,4.1-0.7,6c-0.3,1.4-0.7,2.9-1.1,4.3c-2.3,7.4-5.9,14.5-10.4,20.9
						c-2.6,3.8-5.4,7.2-8.6,10.4c-1.1,1.1-2.5,2.7-4,3.3c0.1,0.1,0.3,0.1,0.4,0.1c0-7,0-14.2,0-21.2c0-4.7,0-9.4,0-14.2
						c0-2.1,0-4.2,0.2-6.2c0.1-1.2,0.1-2.5,0.6-3.6c0-0.1,0-0.1-0.1-0.1c-15.2,0-30.5,0.1-45.7,0c-6.2,0-12.5,0-18.8-0.1
						c-5.8-0.1-11.5-0.1-17.3-0.3c-2.1-0.1-4.4-0.1-6.5-0.4c-0.5-0.1-1-0.1-1.5-0.2c-0.7-0.2-1.5-0.3-2.2-0.4
						c-0.1-0.1-0.4-0.1-0.4,0c0,7.1,0,14.3,0,21.4c0,4.8-0.1,9.6-0.1,14.5c0,2.3,0.1,4.7-0.1,7c-0.1,1.4-0.1,2.9-0.5,4.2
						c0.1-0.1,0.3-0.1,0.4-0.2c-2.3-2.1-4.5-4.6-6.5-7c-6.8-8.1-12.4-17.5-15.5-27.5c-1.3-4.2-2.2-8.7-2.2-13.1
						c0.7-5.1,1.5-10.2,2.3-15.4c0.4-1.1,0.8-2.1,1.2-3.1c1.2-2.8,2.7-5.4,4.4-8c3.6-5.4,8.2-10,13.2-14.1
						c7.3-5.9,15.5-10.3,23.9-14.5c0.1-0.1,0.5-0.2,0.3-0.4c-1.5-3.6-2.7-7.1-2.6-11.1c0-5.9,2.3-11.7,6.2-16.2
						c5.7-6.7,14.4-10.2,23.4-9.8c8.8,0.4,17.1,4.5,22.2,11.6c2.3,3.2,3.9,7,4.4,10.9c0.3,2,0.3,4.1,0.1,6.1
						c-0.3,2.9-1.2,5.8-2.6,8.4C218.7,38.4,219.1,38.6,219.1,38.6z"/>
					<path class="st0" d="M220.5,38.4c0.9-1.7,1.6-3.5,2.1-5.5c0.2-1,0.3-1.9,0.5-2.9c0.3-2,0.1-4.2-0.1-6.2
						c-0.7-5.5-3.6-10.6-7.7-14.6c-7.8-7.6-19.3-10.3-29.9-7.4C178,3.9,171.1,9,167.8,16c-1.3,2.7-2.1,5.6-2.5,8.6
						c-0.1,1-0.2,1.9-0.2,2.9c0.1,1,0.1,2,0.2,3c0.2,1.9,0.7,4,1.4,5.8c-1.6,3.2-4.1,5.4-7.3,6.8c-2.6,1.3-5,2.7-7.5,4.2
						c-4.2,2.7-8.3,5.8-12,9.1c-5.9,5.4-10.9,11.8-14.1,19c-4.6,10.8-4.4,22.7-0.7,33.7c2.3,6.9,5.9,13.3,10.1,19.2
						c2.5,3.5,5.3,7,8.3,10.1c1.2,1.3,2.4,2.6,3.8,3.8c0.1,0.1,0.3-0.1,0.3-0.2c0.9-8,0.7-16.1,0.9-24.2c0.1-7.6,0.1-15.3,0.1-23
						c-0.4,0.3-0.7,0.6-1.1,0.9c1.9,0.3,4,0.3,6,0.3c5.4,0.1,10.9,0.3,16.3,0.3c8.1,0.1,16.2,0.1,24.4,0.1c15.4,0.1,30.7,0,46.1,0
						c-0.3-0.1-0.5-0.3-0.9-0.5c-0.3,2.7-0.3,5.4-0.4,8.1c-0.1,5-0.2,10-0.3,15.1c-0.1,7.6-0.1,15.2-0.1,22.8c0,0.1,0.3,0.1,0.4,0.1
						c0.4-0.1,1.1-0.7,1.3-0.9c1.1-0.9,2.1-1.8,3.1-2.7c2.4-2.3,4.6-4.9,6.6-7.5c6.6-8.3,11.7-17.9,13.9-28.2
						c2.1-9.6,1.1-19.4-3-28.4c-3.2-6.8-7.9-12.7-13.4-17.8c-8.3-7.7-18.3-13.3-28.5-18.4c-0.3-0.1-0.5,0.5-0.3,0.7
						c8.7,4.4,17.1,9.2,24.5,15.5c5.4,4.6,10.5,10,14.1,16.1c4.2,7.2,6.4,15.5,6.2,23.9c-0.1,5-1.1,9.9-2.8,14.7
						c-2.7,8-7,15.5-12.1,22.2c-1.9,2.5-4,4.9-6,7.2c-1.2,1.3-2.5,3-4.2,3.9c0.1,0.1,0.3,0.1,0.4,0.1c0.1-6.6,0.1-13.3,0.1-19.9
						c0.1-4.8,0.1-9.6,0.2-14.5c0.1-1.9,0.1-4,0.1-6c0.1-1.2,0.1-2.3,0.1-3.5c-0.1-0.8,0.2-1.4,0.7-1.9c0.4-0.3-0.7-0.5-0.8-0.5
						c-15.2,0-30.5,0-45.7,0c-6.2,0-12.5,0-18.8-0.1c-4.8,0-9.7,0-14.5-0.1c-2.3,0-4.7-0.1-7-0.1c-0.5,0-1.1-0.1-1.7-0.1
						c-1.1,0-2.2-0.2-3.2-0.7c-0.1-0.3-1.2,0.6-1.2,0.8c0,7.1,0,14.2,0,21.3c0,4.8,0,9.6,0,14.3c0,2.2,0,4.4,0,6.6
						c0,1.4,0.3,2.9-0.2,4.2c0.1-0.1,0.2-0.1,0.3-0.2c-3.4-2.9-6.4-6.6-9.1-10c-5.9-7.6-11-16.1-13.6-25.5
						c-3.2-11.2-2.9-23.3,2.7-33.8c3.2-6,7.5-11.2,12.5-15.8c8.2-7.6,18.3-12.9,28.4-17.6l0,0c-1.3-2.7-2.3-5.3-2.8-8.2
						c-1.3-6.1,0.2-11.4,4.3-15.9c1.1-3.5,3.2-6.3,6.2-8.3c2.1-1.6,4.4-2.7,7-3.3c2.3-1.3,4.9-1.9,7.6-2.1c2.7-0.3,5.4-0.1,8,0.7
						c2.7,0.1,5.2,0.8,7.6,1.9c5.4,2.6,10.2,6.8,12.9,12.1c0.4,0.9,0.8,1.7,1.2,2.7c1,2.3,1.3,4.7,1.1,7.2c0.5,2.5,0.4,5-0.3,7.3
						c-0.5,1.8-1.2,3.7-2.1,5.4C218.7,39,220.4,38.7,220.5,38.4z"/>
				</g>
			</g>
		</g>
	</g>
</g>
<g id="sad">
	<g>
		<g>
			<path class="st1" d="M175,157.8c7.1,0.1,14.2,0.1,21.3,0.1s14.2,0.1,21.3,0c-0.1-0.3-0.2-0.4-0.5-0.6c-0.7-0.6-1.3-1.2-2-1.7
				c-0.7-0.6-1.3-1.1-2.1-1.7c-0.1-0.2-0.4-0.3-0.7-0.3c-0.7-0.1-1.3-0.1-1.9-0.1c-1.5,0-3-0.1-4.5-0.1c-4.9-0.1-9.7-0.1-14.6-0.1
				c-4.6,0-9.3,0.2-13.9,0.1c-2.3-0.1-4.7-0.3-7-0.4c0.1,0.3,0.1,0.4,0.3,0.6c0.5,0.7,1.1,1.3,1.7,1.9c0.5,0.7,1.1,1.3,1.7,1.9
				C174.6,157.5,174.8,157.7,175,157.8z"/>
			<path class="st1" d="M174.1,156.5c7.1,0.1,14.2,0.1,21.3,0.1c7.1,0,14.2,0.1,21.3,0c-0.1-0.2-0.1-0.4-0.3-0.5
				c-0.5-0.6-1.1-1.1-1.7-1.6c-0.6-0.5-1.1-1.1-1.7-1.6c-0.1-0.2-0.3-0.3-0.5-0.3c-0.6-0.1-1.3-0.1-1.9-0.1c-1.5,0-3-0.1-4.5-0.1
				c-4.9-0.1-9.7-0.1-14.6-0.1c-4.6,0-9.3,0.1-13.9,0.1c-2.3-0.1-4.7-0.3-7-0.4c0,0.2,0.1,0.4,0.3,0.6c0.5,0.6,0.9,1.2,1.5,1.7
				c0.5,0.5,1,1.1,1.5,1.7C173.8,156.3,173.9,156.5,174.1,156.5z"/>
			<path class="st1" d="M173.5,158.3c7.1,0.1,14.2,0.1,21.3,0.1s14.2,0.1,21.3,0c-0.1-0.2-0.3-0.4-0.5-0.5c-0.5-0.3-1-0.7-1.5-0.9
				c-0.7-0.4-1.3-0.7-1.9-1.1c-0.5-0.3-0.9-0.5-1.4-0.7c-1.9-0.3-3.9-0.1-5.7-0.1c-4.8-0.1-9.5-0.1-14.3-0.1c-2.9,0-5.7,0-8.5,0.1
				c-2.1,0-4.4,0.1-6.5,0.1c-2.4-0.1-4.8-0.3-7.2-0.4c0.1,0.2,0.2,0.4,0.5,0.5c0.7,0.5,1.3,1,1.9,1.5c0.7,0.5,1.3,1,2,1.5
				C173.1,158.2,173.3,158.3,173.5,158.3z"/>
			<path class="st1" d="M174.1,160.5c7.1,0.1,14.2,0.1,21.4,0.1c7.1,0,14.2,0.1,21.3,0c0.3,0.1,0.3-0.1,0.1-0.1
				c-0.5-0.3-1-0.5-1.5-0.6c-1-0.4-2-0.7-3-1.1c-0.5-0.2-1.1-0.3-1.6-0.5c-2.1-0.3-4.4-0.1-6.5-0.1c-4.9-0.1-9.7-0.1-14.6-0.1
				c-4.6,0-9.2,0.1-13.8,0.1c-2.5-0.1-4.9-0.3-7.4-0.3c-0.3-0.1-0.3,0-0.1,0.1c0.5,0.3,0.9,0.5,1.5,0.7c0.9,0.4,1.9,0.9,2.9,1.3
				C173.1,160.1,173.6,160.3,174.1,160.5z"/>
			<path class="st1" d="M175,156.6c7.1,0.1,14.2,0.1,21.3,0.1s14.2,0.1,21.3,0c-0.1-0.2-0.1-0.4-0.3-0.5c-0.5-0.6-1-1.1-1.5-1.7
				c-0.5-0.5-1.1-1.1-1.6-1.6c-0.1-0.2-0.3-0.3-0.5-0.3c-0.6-0.1-1.3-0.1-1.9-0.1c-1.5,0-3-0.1-4.5-0.1c-4.9-0.1-9.7-0.1-14.6-0.1
				c-4.6,0-9.3,0.1-13.9,0.1c-2.3-0.1-4.7-0.3-7-0.3c0,0.2,0.1,0.4,0.2,0.6c0.4,0.6,0.8,1.2,1.3,1.8c0.4,0.6,0.9,1.2,1.3,1.7
				C174.7,156.4,174.8,156.5,175,156.6z"/>
			<path class="st1" d="M174,155.6c7.1,0.3,14.2,0.2,21.3,0.2c7.1,0,14.2,0,21.3,0.1c0-0.2-0.1-0.3-0.3-0.4
				c-0.4-0.5-0.9-0.9-1.3-1.3s-1.1-1.4-1.8-1.5c-0.6-0.1-1.3-0.1-1.9-0.1c-1.5,0-3,0-4.5-0.1c-4.9-0.1-9.7-0.1-14.6-0.1
				c-4.6,0-9.3,0.1-13.9,0.1c-2.4,0-4.8-0.3-7.3-0.5c0,0.2,0.1,0.3,0.1,0.5c0.3,0.5,0.7,1,1.1,1.5
				C172.6,154.1,173.5,155.5,174,155.6z"/>
			<path class="st1" d="M174.2,155.4c7-0.2,14.1-0.1,21.2-0.1c7.1,0,14.2,0,21.3,0.1c0.1-0.1,0-0.3-0.1-0.3
				c-0.2-0.3-0.4-0.5-0.7-0.7c-0.3-0.3-0.5-0.6-0.8-0.9c-0.2-0.3-0.4-0.4-0.7-0.5c-1.8-0.2-3.8-0.1-5.6-0.1
				c-4.8-0.1-9.5-0.1-14.3-0.1c-5,0-10.1,0.1-15.2,0.1c-2.3,0-4.7-0.1-7.1-0.1c-0.1,0,0.9,1.5,0.8,1.5
				C173.3,154.3,173.8,155.5,174.2,155.4z"/>
			<path class="st1" d="M174.3,158.2c7.1,0.1,14.2,0.1,21.3,0.1c4.6,0,9.1,0,13.8,0c2.5,0,5.1,0.1,7.6,0c-0.1-0.3-0.3-0.4-0.5-0.6
				c-0.7-0.6-1.5-1.1-2.3-1.7s-1.6-1.1-2.4-1.7c-0.2-0.2-0.5-0.3-0.7-0.3c-0.7-0.1-1.3-0.1-1.9-0.1c-1.5,0-3-0.1-4.5-0.1
				c-4.9-0.1-9.7-0.1-14.6-0.1c-4.6,0-9.3,0.2-13.8,0.1c-2.3-0.1-4.7-0.3-7.1-0.5c0.1,0.3,0.3,0.4,0.5,0.6c0.7,0.7,1.4,1.3,2.1,1.9
				c0.7,0.6,1.4,1.3,2.1,1.9C173.8,158,174,158.1,174.3,158.2z"/>
			<path class="st1" d="M173.5,156.3c14.2,0.2,28.4,0.1,42.6,0.1c0-0.2-0.1-0.3-0.3-0.4c-0.3-0.3-0.7-0.6-1-0.9
				c-0.4-0.4-0.9-0.7-1.3-1.1c-0.3-0.3-0.6-0.5-0.9-0.7c-1.8-0.3-3.8-0.1-5.6-0.1c-4.8-0.1-9.5-0.1-14.3-0.1c-2.9,0-5.7,0-8.5,0.1
				c-2.2,0-4.4,0.1-6.6,0.1c-2.4-0.1-4.8-0.3-7.2-0.4c0,0.2,0.1,0.3,0.2,0.5c0.4,0.5,0.8,0.9,1.3,1.4C172,155,173,156.3,173.5,156.3
				z"/>
			<path class="st1" d="M175,155.1c7-0.3,14.1-0.1,21.2-0.1s14.2,0,21.3,0c0.1,0-0.9-1.4-0.9-1.4c-0.3-0.3-0.7-1.1-1.2-1.2
				c-0.6-0.1-1.3-0.1-1.9-0.1c-1.5,0-3,0-4.5-0.1c-4.9-0.1-9.7-0.1-14.6-0.1c-4.6,0-9.3,0.1-13.9,0.1c-2.3,0-4.7-0.1-7.1-0.1
				c-0.2,0,0.7,1.6,0.7,1.5C174.1,154,174.6,155.2,175,155.1z"/>
			<path class="st1" d="M174,159.5c7.1,0.1,14.2,0.1,21.3,0.1c7.1,0,14.2,0.1,21.3,0c-0.1-0.2-0.3-0.4-0.6-0.5
				c-0.6-0.3-1.2-0.6-1.8-0.9c-0.7-0.4-1.5-0.7-2.3-1.1c-0.5-0.3-1.1-0.5-1.6-0.7c-1.9-0.3-3.9-0.1-5.8-0.1
				c-4.8-0.1-9.5-0.1-14.3-0.1c-2.9,0-5.7,0-8.5,0.1c-2.1,0-4.4,0.1-6.5,0.1c-2.4-0.1-4.9-0.3-7.3-0.4c0.1,0.3,0.3,0.4,0.5,0.5
				c0.8,0.5,1.6,1,2.4,1.5c0.8,0.5,1.6,0.9,2.5,1.4C173.5,159.5,173.8,159.5,174,159.5z"/>
			<path class="st1" d="M173.9,157.3c7.1,0.1,14.2,0.1,21.3,0.1s14.2,0.1,21.3,0c-0.1-0.3-0.3-0.4-0.5-0.5c-0.7-0.6-1.3-1.1-2.1-1.6
				c-0.7-0.5-1.4-1.1-2.1-1.6c-0.2-0.2-0.4-0.3-0.7-0.3c-0.7-0.1-1.3-0.1-1.9-0.1c-1.5,0-3-0.1-4.5-0.1c-4.9-0.1-9.7-0.1-14.6-0.1
				c-4.6,0-9.3,0.2-13.9,0.1c-2.3-0.1-4.7-0.3-7.1-0.4c0.1,0.3,0.1,0.4,0.3,0.6c0.6,0.6,1.1,1.3,1.7,1.8c0.6,0.6,1.2,1.2,1.9,1.7
				C173.5,157.1,173.6,157.2,173.9,157.3z"/>
		</g>
	</g>
</g>
<g id="happy">
	<g>
		<g>
			<g>
				<path class="st1" d="M167,154.3c0.5,0.8,1.1,1.6,1.7,2.2c0.7,0.7,1.5,1.4,2.3,1.9c1.2,0.8,2.5,1.5,3.8,2.1
					c2.5,1.3,5,2.6,7.5,3.7c2.4,0.9,4.8,1.7,7.5,2c5.3,0.7,10.7-0.1,15.6-1.9c2.5-0.9,4.9-2.1,7.1-3.7c0.9-0.7,1.7-1.3,2.5-1.9
					c1.6-1.4,3.1-2.9,4.3-4.6c0.1-0.1-3.2-1.1-3.1-1.1c-0.9-0.3-1.7-0.5-2.5-0.7c-0.3-0.1-0.5-0.1-0.7-0.1c-1.7,1.7-3.5,3.5-5.7,4.8
					c-1.5,0.8-3,1.6-4.6,2.1c-4.5,1.7-9.5,2.1-14.3,1.3c-0.9-0.1-1.9-0.3-2.7-0.6c-1.3-0.3-2.5-0.7-3.6-1.5c-2.1-1-4.1-2-6-3.1
					c-1.3-0.7-2.6-1.5-3.7-2.4c-1.3-1.1-2.2-2.3-3.1-3.7c-0.2,0.1-0.3,0.3-0.4,0.5c-0.3,0.7-0.7,1.3-1,2.1c-0.3,0.7-0.6,1.4-0.9,2.1
					C167,153.9,166.9,154.1,167,154.3z"/>
				<path class="st1" d="M166.1,153.1c0.5,0.8,1.1,1.6,1.7,2.2c0.7,0.7,1.5,1.4,2.3,1.9c1.2,0.8,2.5,1.5,3.8,2.1
					c2.5,1.3,5,2.6,7.6,3.8c0.9,0.4,1.9,0.7,2.8,1.1c1.5,0.5,3,0.7,4.6,0.9c5.3,0.7,10.7,0,15.6-1.9c2.5-0.9,4.9-2.1,7.1-3.7
					c0.9-0.7,1.7-1.3,2.5-1.9c1.6-1.4,3-2.9,4.3-4.6c0.1-0.1-2.8-1.3-2.8-1.3c-0.1-0.1-2.7-1.3-2.9-0.9c-1.7,2-3.5,3.9-5.8,5.3
					c-1.5,0.9-3.1,1.7-4.8,2.4c-4.7,1.9-10,2.3-15,1.5c-0.9-0.1-1.9-0.3-2.8-0.6c-1.3-0.3-2.6-0.8-3.7-1.5c-2.1-1.1-4.2-2.1-6.2-3.3
					c-1.3-0.8-2.7-1.6-3.8-2.7c-0.4-0.4-0.9-0.8-1.3-1.3c-0.7-0.8-1.4-1.7-1.9-2.7c-0.1,0.1-0.3,0.3-0.3,0.5
					c-0.3,0.7-0.5,1.3-0.7,2.1c-0.2,0.7-0.4,1.4-0.5,2.1C166,152.7,166,152.9,166.1,153.1z"/>
				<path class="st1" d="M165.4,154.8c0.5,0.9,1.1,1.6,1.8,2.2c0.7,0.7,1.5,1.4,2.4,1.9c1.2,0.7,2.5,1.5,3.8,2.1
					c2.5,1.3,5,2.6,7.5,3.7c0.9,0.4,1.9,0.7,2.9,1.1c1.5,0.5,3,0.7,4.5,0.9c5.3,0.7,10.7-0.1,15.6-1.9c2.5-0.9,4.9-2.1,7.1-3.6
					c0.9-0.6,1.7-1.3,2.5-1.9c1.6-1.4,3.1-2.9,4.3-4.6c0.1-0.1-2.9-0.6-2.9-0.6c-0.7-0.1-1.5-0.2-2.3-0.3c-0.2-0.1-0.5-0.1-0.6,0.1
					c-2,1.9-4,3.6-6.5,4.8c-1.6,0.8-3.3,1.5-5.1,2c-4.8,1.5-10.1,1.3-14.9,0.3c-0.9-0.1-1.9-0.4-2.7-0.7c-1.3-0.4-2.5-0.9-3.6-1.7
					c-1.9-1.1-4-2.1-5.8-3.4c-1.2-0.9-2.3-1.7-3.4-2.7c-1.1-1.2-2.1-2.5-2.9-4c-0.2,0.2-0.3,0.4-0.3,0.6c-0.3,0.9-0.5,1.7-0.7,2.5
					c-0.3,0.9-0.5,1.7-0.7,2.6C165.4,154.4,165.4,154.6,165.4,154.8z"/>
				<path class="st1" d="M166,157.1c0.5,0.9,1.1,1.6,1.9,2.2c0.7,0.7,1.5,1.4,2.5,1.9c1.3,0.8,2.6,1.5,3.9,2.1
					c2.5,1.3,5,2.6,7.5,3.7c2.4,0.9,4.9,1.7,7.5,2c5.3,0.7,10.7-0.1,15.7-1.9c2.5-0.9,4.9-2.1,7-3.6c0.9-0.6,1.7-1.3,2.5-1.9
					c1.6-1.4,3.1-2.9,4.3-4.6c-0.2-0.1-0.4-0.1-0.6-0.1c-0.5,0.1-1,0.1-1.5,0.2c-0.7,0.1-1.3,0.2-1.9,0.3c-0.5,0.1-0.9,0.1-1.3,0.3
					c-0.8,0.6-1.6,1.3-2.5,1.9c0.1-0.1,0.1-0.1,0.1-0.1c-1.3,0.9-2.6,1.7-4,2.3c-0.9,0.4-1.7,0.8-2.7,1.1c-2.2,0.7-4.5,1.3-6.9,1.4
					c-2.2,0.2-4.4,0.1-6.6-0.3c-2.1-0.3-4.4-0.7-6.3-1.5c-0.8-0.3-1.7-0.7-2.5-1c-0.7-0.4-1.3-0.9-2.1-1.3c-1.7-1.1-3.6-2.1-5.3-3.3
					c-1-0.7-2-1.6-2.9-2.4c-0.3-0.3-0.7-0.7-0.9-1.1c-0.7-0.7-1.3-1.6-1.7-2.5c-0.2,0.1-0.4,0.3-0.5,0.6c-0.5,0.8-0.9,1.6-1.3,2.4
					c-0.5,0.8-0.9,1.6-1.3,2.5C166,156.6,166,156.8,166,157.1z"/>
				<path class="st1" d="M167,153.1c0.5,0.9,1,1.6,1.7,2.3c0.7,0.7,1.5,1.4,2.3,1.9c1.2,0.8,2.5,1.5,3.8,2.1c2.5,1.3,5,2.6,7.7,3.7
					c0.9,0.4,1.9,0.7,2.8,1.1c1.5,0.5,3,0.7,4.6,0.9c5.3,0.7,10.7-0.1,15.7-1.9c2.5-0.9,4.9-2.1,7.1-3.7c0.9-0.7,1.7-1.3,2.5-1.9
					c1.6-1.4,3.1-2.9,4.3-4.6c0.1-0.2-2.7-1.4-2.6-1.4c-0.1-0.1-2.6-1.4-2.8-1.1c-1.7,2-3.3,4-5.6,5.4c-1.5,1-3.1,1.9-4.7,2.6
					c-4.6,2.1-9.9,2.7-15,1.9c-1-0.1-1.9-0.3-2.9-0.6c-1.3-0.3-2.6-0.7-3.8-1.4c-2.1-1-4.3-2-6.3-3.1c-1.4-0.7-2.8-1.5-4-2.5
					c-0.5-0.4-0.9-0.7-1.3-1.1c-0.8-0.8-1.5-1.7-1.9-2.7c-0.1,0.1-0.3,0.3-0.3,0.4c-0.3,0.6-0.5,1.1-0.7,1.7
					C167.5,151.2,166.7,152.8,167,153.1z"/>
				<path class="st1" d="M165.6,152.5c0.5,0.8,1.1,1.5,1.8,2.1c0.7,0.7,1.5,1.3,2.4,1.9c1.2,0.8,2.5,1.5,3.8,2.2
					c2.5,1.3,5.1,2.6,7.7,3.8c0.9,0.4,1.9,0.7,2.8,1.1c1.5,0.5,3.1,0.7,4.6,0.9c5.3,0.7,10.7-0.1,15.8-2c2.5-0.9,4.9-2.2,7.1-3.8
					c0.9-0.7,1.7-1.3,2.5-1.9c1.6-1.4,3-3,4.3-4.7c0.1-0.2-2.1-1.3-2.1-1.3c-0.1-0.1-2.1-1.3-2.3-0.9c-1.7,2.3-3.5,4.3-5.8,6
					c-1.5,1.1-3.2,2-5,2.8c-4.8,2.2-10.5,2.8-15.8,2c-1-0.1-2-0.3-3-0.6c-1.4-0.3-2.7-0.7-3.9-1.5c-2.2-1.1-4.4-2.1-6.5-3.3
					c-1.5-0.8-2.9-1.7-4.2-2.7c-0.5-0.4-0.9-0.9-1.4-1.3c-0.8-0.8-1.5-1.7-2-2.7c-0.1,0.1-0.2,0.3-0.3,0.4c-0.1,0.5-0.3,1.1-0.4,1.7
					C165.8,150.8,165.4,152.2,165.6,152.5z"/>
				<path class="st1" d="M165.2,152.1c1.1,1.4,1.1,1.7,2.6,2.9c1.4,1.1,3,2.1,4.6,2.9c1.9,1,3.9,1.9,5.8,2.9
					c2.8,1.3,5.7,2.6,8.9,3.1c5.4,0.9,10.8,0.3,16-1.3c1.5-0.5,3.1-1.1,4.5-1.9c1.5-0.7,2.9-1.5,4.2-2.5c0.9-0.7,1.7-1.3,2.6-2
					c1.6-1.4,3-3.1,4.3-4.8c0.1-0.2-3-2.3-3.3-1.9c-0.5,0.8-1.1,1.6-1.7,2.4c-0.9,1.1-1.9,2.2-3.1,3.1c-1.5,1.3-3.2,2.4-5,3.3
					c-4.5,2.4-9.5,3.5-14.7,3.4c-2.1-0.1-4.2-0.3-6.2-0.9c-1.5-0.3-2.8-0.7-4.1-1.5c-0.9-0.4-1.9-0.9-2.9-1.3
					c-1.6-0.7-3.2-1.6-4.7-2.4c-3-1.6-5.3-3.4-7.2-6.4c-0.3-0.4-0.4,0.7-0.4,0.7c-0.1,0.5-0.1,0.9-0.3,1.4
					C165.2,151.6,165.2,151.8,165.2,152.1z"/>
				<path class="st1" d="M166.3,154.7c0.5,0.8,1.1,1.6,1.8,2.2c0.7,0.7,1.5,1.4,2.4,1.9c1.2,0.8,2.5,1.5,3.8,2.1
					c2.5,1.3,5,2.6,7.5,3.7c2.4,1,4.8,1.7,7.4,2c5.3,0.7,10.7-0.1,15.6-1.9c2.5-0.9,4.9-2.1,7-3.6c0.9-0.6,1.7-1.3,2.5-1.9
					c1.6-1.4,3-2.9,4.3-4.6c-0.2-0.1-0.4-0.3-0.7-0.3c-0.9-0.2-1.7-0.4-2.7-0.6c-0.9-0.2-1.8-0.3-2.7-0.5c-0.3-0.1-0.5-0.1-0.7,0
					c-1.9,1.7-3.8,3.3-6.1,4.5c-1.5,0.7-3.1,1.4-4.7,1.9c-4.5,1.4-9.5,1.4-14.2,0.5c-0.9-0.1-1.8-0.4-2.7-0.7
					c-1.3-0.3-2.4-0.9-3.5-1.6c-1.9-1.1-4-2-5.8-3.3c-1.1-0.7-2.3-1.6-3.4-2.5c-1.2-1.1-2.1-2.3-2.9-3.8c-0.2,0.1-0.3,0.4-0.4,0.6
					c-0.3,0.9-0.7,1.7-1.1,2.5c-0.3,0.9-0.7,1.7-0.9,2.6C166.3,154.2,166.2,154.4,166.3,154.7z"/>
				<path class="st1" d="M165.2,152.9c0.5,0.9,1.1,1.6,1.7,2.2c0.7,0.7,1.5,1.4,2.4,1.9c1.2,0.8,2.5,1.5,3.8,2.2
					c2.5,1.3,5,2.6,7.7,3.8c0.9,0.4,1.9,0.7,2.8,1.1c1.5,0.5,3.1,0.7,4.6,0.9c5.3,0.7,10.7-0.1,15.8-1.9c2.5-0.9,4.9-2.1,7.1-3.7
					c0.9-0.7,1.7-1.3,2.6-1.9c1.6-1.4,3.1-2.9,4.3-4.7c0.1-0.1-2.2-1.1-2.1-1.1c-0.1-0.1-2.1-1-2.3-0.7c-1.8,2.1-3.7,4.2-6.1,5.8
					c-1.6,1-3.3,1.9-5.1,2.6c-4.9,2.1-10.5,2.4-15.8,1.5c-1-0.1-1.9-0.3-2.9-0.7c-1.4-0.3-2.7-0.8-3.9-1.6c-2.1-1.1-4.3-2.1-6.4-3.3
					c-1.4-0.9-2.8-1.7-4-2.8c-0.5-0.4-0.9-0.9-1.3-1.3c-0.8-0.9-1.5-1.8-1.9-2.9c-0.1,0.1-0.2,0.3-0.3,0.5c-0.1,0.6-0.3,1.3-0.3,1.9
					s-0.2,1.3-0.3,1.9C165.1,152.6,165.2,152.8,165.2,152.9z"/>
				<path class="st1" d="M166,151.6c0.8,1.3,1.3,2.2,2.5,3.2c1.1,0.9,2.5,1.7,3.7,2.4c1.7,0.9,3.6,1.8,5.5,2.7
					c2.8,1.4,5.6,2.7,8.7,3.4c5.8,1.3,12,0.9,17.6-1.1c3.1-1.1,6-2.5,8.7-4.4c0.9-0.7,1.7-1.3,2.5-2c1.6-1.4,3-3.1,4.3-4.8
					c0.2-0.3-3-2.5-3.1-2.3c-1.5,2.1-2.8,4-4.7,5.6c-1.9,1.7-3.9,3.1-6.2,4.2c-4.4,2.1-9.8,3.4-14.8,3c-2.1-0.2-4.3-0.5-6.3-1.1
					c-1.3-0.5-2.7-1.1-4-1.7c-0.9-0.4-1.9-0.9-2.9-1.3c-1.7-0.9-3.6-1.7-5.2-2.7c-0.5-0.4-1.1-0.7-1.7-1.1c-1.7-1.2-2.9-2.7-3.7-4.5
					c-0.2-0.4-0.4,0.6-0.4,0.6c-0.1,0.4-0.2,0.8-0.3,1.3C166,151.2,165.9,151.4,166,151.6z"/>
				<path class="st1" d="M165.8,156.1c0.5,0.9,1.1,1.6,1.8,2.2c0.7,0.7,1.5,1.4,2.5,1.9c1.2,0.8,2.5,1.5,3.8,2.1
					c2.5,1.3,5,2.6,7.5,3.7c2.4,0.9,4.8,1.7,7.5,2c5.3,0.7,10.7-0.1,15.6-1.9c2.5-0.9,4.9-2.1,7-3.6c0.9-0.6,1.7-1.3,2.5-1.9
					c1.6-1.4,3-2.9,4.3-4.6c-0.2-0.1-0.4-0.2-0.7-0.1c-0.8-0.1-1.7-0.1-2.5-0.1s-1.7,0-2.5,0.1c-0.3-0.1-0.5,0-0.7,0.1
					c-2.1,1.7-4.3,3.3-6.9,4.4c-1.7,0.7-3.4,1.3-5.1,1.6c-4.7,1.1-9.7,0.7-14.4-0.5c-0.9-0.2-1.7-0.4-2.6-0.8
					c-1.3-0.4-2.3-0.9-3.4-1.7c-1.9-1.1-3.8-2.1-5.5-3.3c-1.1-0.8-2.1-1.6-3-2.6c-1.1-1.1-1.9-2.4-2.7-3.8c-0.2,0.2-0.3,0.4-0.5,0.7
					c-0.4,0.9-0.8,1.8-1.1,2.7c-0.4,0.9-0.7,1.8-1.1,2.7C165.9,155.6,165.8,155.9,165.8,156.1z"/>
				<path class="st1" d="M166,153.8c0.5,0.9,1.1,1.6,1.8,2.2c0.7,0.7,1.5,1.4,2.3,1.9c1.2,0.8,2.5,1.5,3.8,2.1
					c2.5,1.3,5,2.6,7.5,3.7c0.9,0.4,1.9,0.7,2.9,1.1c1.5,0.5,3,0.8,4.6,0.9c5.3,0.7,10.7,0,15.6-1.9c2.5-0.9,4.9-2.1,7-3.6
					c0.9-0.6,1.7-1.3,2.5-1.9c1.6-1.4,3-2.9,4.3-4.6c0.1-0.1-3.1-1.1-3.1-1.1c-0.8-0.3-1.7-0.5-2.5-0.7c-0.3-0.1-0.5-0.1-0.7-0.1
					c-1.8,1.9-3.6,3.6-6,5c-1.5,0.9-3.2,1.6-4.8,2.2c-4.6,1.7-9.9,1.8-14.7,0.9c-0.9-0.1-1.9-0.4-2.8-0.7c-1.3-0.3-2.5-0.9-3.6-1.6
					c-2.1-1.1-4.1-2.1-6-3.3c-1.3-0.8-2.5-1.7-3.6-2.7c-1.3-1.1-2.1-2.5-3-4c-0.2,0.1-0.3,0.3-0.3,0.6c-0.3,0.8-0.5,1.6-0.7,2.4
					c-0.3,0.8-0.5,1.6-0.7,2.4C165.9,153.3,165.8,153.6,166,153.8z"/>
			</g>
		</g>
	</g>
	<g>
		<g>
			<g>
				<path class="st1" d="M170,110.2c2.9,0.4,5.8,0.5,8.7,0.5c3,0.1,6,0,8.9-0.3c-0.1-0.3-0.1-0.4-0.3-0.6c-0.5-0.7-1.1-1.3-1.7-1.9
					c-0.5-0.7-1.1-1.3-1.7-1.9c-0.1-0.2-0.3-0.3-0.5-0.4c-2.9,0.3-5.8,0.3-8.7,0.1c-2.8-0.1-5.6-0.3-8.3-0.7c0,0.3,0.1,0.4,0.3,0.6
					c0.5,0.7,0.9,1.4,1.4,2.1c0.5,0.7,0.9,1.4,1.5,2.1C169.6,110,169.8,110.1,170,110.2z"/>
				<path class="st1" d="M169.2,109c2.9,0.3,5.8,0.5,8.7,0.5c3,0.1,6,0,8.9-0.3c0-0.2-0.1-0.4-0.3-0.6c-0.5-0.6-0.9-1.2-1.5-1.7
					c-0.5-0.6-1-1.1-1.5-1.7c-0.1-0.2-0.3-0.3-0.5-0.4c-2.9,0.3-5.8,0.3-8.7,0.1c-2.8,0-5.6-0.3-8.4-0.7c0,0.2,0.1,0.4,0.2,0.6
					c0.4,0.6,0.8,1.3,1.3,1.9c0.4,0.6,0.9,1.3,1.3,1.9C168.8,108.8,169,108.9,169.2,109z"/>
				<path class="st1" d="M168.5,110.8c2.9,0.4,5.8,0.5,8.8,0.5c3,0.1,6,0,8.9-0.3c-0.1-0.3-0.2-0.4-0.5-0.5
					c-0.7-0.5-1.3-1.1-1.9-1.6c-0.7-0.5-1.3-1-2-1.5c-0.1-0.2-0.4-0.3-0.6-0.3c-2.9,0.2-5.8,0.3-8.7,0.1c-2.9-0.1-5.7-0.3-8.5-0.7
					c0.1,0.3,0.1,0.4,0.3,0.6c0.6,0.6,1.1,1.2,1.7,1.7s1.2,1.1,1.9,1.7C168,110.6,168.2,110.7,168.5,110.8z"/>
				<path class="st1" d="M169.3,113c2.9,0.4,5.9,0.6,8.9,0.5c3,0.1,6,0,8.9-0.3c-0.1-0.2-0.3-0.3-0.6-0.4c-0.8-0.4-1.6-0.8-2.4-1.2
					c-0.8-0.4-1.6-0.7-2.5-1.1c-0.2-0.1-0.5-0.2-0.7-0.2c-3.9,0.2-7.9,0.1-11.7-0.3c0.1,0,0.1,0,0.2,0c-1.9-0.3-4-0.5-5.9-0.7
					c0.1,0.3,0.3,0.4,0.5,0.5c0.7,0.5,1.5,1,2.3,1.5c0.7,0.5,1.5,0.9,2.3,1.4C168.8,112.9,169,113,169.3,113z"/>
				<path class="st1" d="M170.1,109c2.9,0.4,5.8,0.6,8.7,0.5c3,0.1,6,0,8.9-0.3c0.1,0-1.5-2.4-1.5-2.3c-0.4-0.6-0.9-1.2-1.3-1.7
					c-0.1-0.2-0.3-0.3-0.5-0.4c-2.9,0.3-5.8,0.3-8.7,0.1c-2.8,0-5.6-0.3-8.4-0.7c-0.1,0.2,0,0.4,0.1,0.6c0.3,0.6,0.7,1.3,1,1.9
					s0.7,1.3,1.1,1.9C169.8,108.8,169.9,109,170.1,109z"/>
				<path class="st1" d="M169.2,108.4c2.9,0.3,5.7,0.3,8.7,0.3c3,0.1,6,0,8.9-0.3c0.1,0-1.3-1.9-1.2-1.9c-0.1-0.3-1.1-1.7-1.5-1.7
					c-2.9,0.3-5.9,0.3-8.8,0.2c-2.8,0-5.6-0.2-8.4-0.6c-0.1,0,1.1,2.1,1,2C168,106.8,168.7,108.4,169.2,108.4z"/>
				<path class="st1" d="M169.2,107.9c2.9,0.3,5.8,0.4,8.7,0.4c3,0.1,6,0,8.9-0.3c0.2,0-0.8-1.5-0.8-1.4c-0.1-0.2-0.7-1.3-1.1-1.2
					c-3,0.3-5.9,0.4-8.9,0.3c-2.9,0.1-5.7-0.1-8.5-0.5c-0.2,0,0.7,1.5,0.7,1.5C168.4,106.9,168.8,107.9,169.2,107.9z"/>
				<path class="st1" d="M169.3,110.6c2.9,0.4,5.8,0.5,8.8,0.5c3,0.1,6,0,8.9-0.3c-0.1-0.3-0.3-0.4-0.5-0.6
					c-0.7-0.7-1.3-1.3-2.1-1.9c-0.7-0.7-1.4-1.3-2.1-1.9c-0.2-0.2-0.4-0.3-0.7-0.4c-2.9,0.2-5.8,0.3-8.7,0c-2.8-0.1-5.6-0.3-8.4-0.8
					c0.1,0.3,0.1,0.5,0.4,0.7c0.6,0.7,1.2,1.5,1.8,2.2c0.6,0.7,1.3,1.4,1.9,2.1C168.8,110.4,169,110.6,169.3,110.6z"/>
				<path class="st1" d="M168.4,108.8c2.9,0.4,5.8,0.6,8.8,0.6c3,0.1,6,0,8.9-0.3c0-0.2-0.1-0.3-0.2-0.4c-0.4-0.5-0.8-0.9-1.2-1.4
					c-0.3-0.3-1.2-1.6-1.7-1.6c-2.9,0.3-5.9,0.3-8.8,0.1c-2.9,0-5.7-0.3-8.6-0.8c0,0.2,0.1,0.3,0.1,0.5c0.3,0.5,0.7,1,1.1,1.5
					C167.2,107.4,168,108.7,168.4,108.8z"/>
				<path class="st1" d="M170,107.7c2.9,0.3,5.8,0.4,8.7,0.4c3,0.1,6,0,8.9-0.3c0.2,0-0.7-1.5-0.7-1.4c-0.1-0.2-0.6-1.3-0.9-1.3
					c-3,0.3-5.9,0.4-8.9,0.3c-2.9,0.1-5.7-0.1-8.5-0.5c-0.2,0,0.5,1.5,0.5,1.5C169.2,106.6,169.6,107.7,170,107.7z"/>
				<path class="st1" d="M169,112c2.9,0.4,5.9,0.6,8.8,0.5c3,0.1,6,0,8.9-0.3c-0.1-0.3-0.3-0.4-0.5-0.5c-0.8-0.5-1.5-1.1-2.3-1.6
					c-0.8-0.5-1.6-1-2.4-1.5c-0.2-0.2-0.5-0.3-0.7-0.3c-2.9,0.2-5.8,0.1-8.7-0.1c-2.9-0.1-5.7-0.4-8.5-0.9c0.1,0.3,0.3,0.4,0.5,0.6
					c0.7,0.6,1.5,1.3,2.2,1.8c0.7,0.6,1.5,1.2,2.3,1.7C168.6,111.8,168.8,111.9,169,112z"/>
				<path class="st1" d="M168.9,109.7c2.9,0.4,5.8,0.6,8.7,0.5c3,0.1,6,0.1,8.9-0.3c-0.1-0.3-0.1-0.4-0.3-0.6
					c-0.6-0.6-1.1-1.3-1.7-1.9c-0.6-0.6-1.2-1.2-1.9-1.8c-0.1-0.2-0.3-0.3-0.6-0.4c-2.9,0.3-5.8,0.3-8.7,0.1
					c-2.8-0.1-5.6-0.3-8.4-0.7c0,0.3,0.1,0.4,0.3,0.6c0.5,0.7,1,1.3,1.5,2c0.5,0.7,1.1,1.3,1.6,1.9
					C168.5,109.5,168.6,109.6,168.9,109.7z"/>
			</g>
		</g>
	</g>
	<g>
		<g>
			<g>
				<path class="st1" d="M209.3,111c5.3-0.6,10.7-1.3,16-1.9c-0.1-0.3-0.3-0.4-0.5-0.5c-0.7-0.5-1.4-1.1-2.1-1.6
					c-0.7-0.5-1.5-1.1-2.1-1.5c-0.2-0.2-0.4-0.3-0.7-0.3c-5.2,0.6-10.4,1.1-15.6,1.5c0.1,0.3,0.2,0.4,0.5,0.6
					c0.7,0.6,1.3,1.2,1.9,1.7c0.7,0.6,1.3,1.1,2.1,1.7C208.8,110.9,209,111,209.3,111z"/>
				<path class="st1" d="M208.4,109.8c5.3-0.6,10.7-1.2,16-1.8c-0.1-0.2-0.2-0.4-0.4-0.5c-0.6-0.5-1.2-1.1-1.8-1.5
					c-0.6-0.5-1.3-1-1.9-1.5c-0.1-0.2-0.3-0.3-0.6-0.3c-5.2,0.6-10.4,1.1-15.6,1.5c0.1,0.2,0.1,0.4,0.3,0.5c0.5,0.6,1.1,1.1,1.7,1.6
					c0.5,0.5,1.1,1.1,1.7,1.6C207.9,109.6,208.1,109.8,208.4,109.8z"/>
				<path class="st1" d="M207.7,111.6c5.3-0.6,10.7-1.2,16-1.8c-0.1-0.2-0.3-0.3-0.5-0.4c-0.7-0.4-1.5-0.7-2.2-1.1
					c-0.7-0.4-1.5-0.7-2.3-1.1c-0.2-0.1-0.4-0.2-0.7-0.2c-5.2,0.6-10.5,1.1-15.8,1.5c0.1,0.2,0.3,0.3,0.5,0.4
					c0.7,0.4,1.4,0.9,2.1,1.3c0.7,0.4,1.4,0.8,2.1,1.2C207.2,111.6,207.4,111.6,207.7,111.6z"/>
				<path class="st1" d="M208.4,113.9c5.4-0.6,10.7-1.3,16-1.9c0.7-0.1-1.9-0.7-1.5-0.6c-1-0.3-1.9-0.5-3-0.7
					c-0.5-0.1-1.1-0.3-1.5-0.3c-5.3,0.6-10.6,1.1-16,1.6c-0.3,0-0.3,0.1-0.1,0.1c0.5,0.2,1,0.4,1.5,0.5c0.9,0.3,1.9,0.5,2.9,0.8
					C207.3,113.7,207.9,113.8,208.4,113.9z"/>
				<path class="st1" d="M209.3,109.9c5.3-0.6,10.7-1.2,16-1.8c-0.1-0.2-0.1-0.4-0.3-0.5c-0.5-0.5-1.1-1.1-1.7-1.6
					c-0.5-0.5-1.1-1.1-1.7-1.5c-0.1-0.2-0.3-0.3-0.5-0.3c-5.2,0.6-10.3,1.1-15.6,1.5c0,0.2,0.1,0.4,0.3,0.5c0.5,0.6,1,1.1,1.5,1.7
					c0.5,0.6,1,1.1,1.5,1.7C208.9,109.7,209.1,109.8,209.3,109.9z"/>
				<path class="st1" d="M208.3,108.9c5.3-0.6,10.7-1.1,16-1.8c0-0.2-0.1-0.3-0.3-0.4c-0.5-0.4-0.9-0.9-1.3-1.3
					c-0.3-0.3-1.3-1.5-1.9-1.5c-5.2,0.7-10.5,1.2-15.8,1.5c0,0.2,0.1,0.3,0.3,0.5c0.4,0.5,0.8,0.9,1.3,1.4
					C206.7,107.6,207.8,109,208.3,108.9z"/>
				<path class="st1" d="M208.6,108.6c5.2-0.7,10.5-1.4,15.8-2c0.1,0-1.1-1.4-1.1-1.3c-0.2-0.2-0.9-1.1-1.3-1.1
					c-5.2,0.6-10.4,1.2-15.6,1.8c-0.2,0,1,1.5,1,1.4C207.4,107.6,208.1,108.7,208.6,108.6z"/>
				<path class="st1" d="M208.5,111.5c5.3-0.6,10.7-1.2,16-1.8c-0.1-0.3-0.3-0.4-0.6-0.5c-0.8-0.5-1.6-1-2.5-1.5
					c-0.8-0.5-1.7-0.9-2.5-1.4c-0.2-0.1-0.5-0.3-0.7-0.3c-5.2,0.6-10.5,1.1-15.7,1.4c0.1,0.3,0.3,0.4,0.5,0.5
					c0.7,0.6,1.5,1.1,2.3,1.6c0.8,0.5,1.5,1.1,2.4,1.6C208.1,111.4,208.3,111.4,208.5,111.5z"/>
				<path class="st1" d="M207.6,109.6c5.4-0.5,10.7-1.1,16-1.7c-0.1-0.2-0.1-0.3-0.3-0.4c-0.5-0.4-0.9-0.8-1.5-1.2
					c-0.3-0.3-1.5-1.4-2-1.3c-5.2,0.7-10.5,1.2-15.8,1.5c0,0.2,0.1,0.3,0.3,0.4c0.5,0.4,0.9,0.9,1.3,1.3
					C206,108.4,207.1,109.6,207.6,109.6z"/>
				<path class="st1" d="M209.3,108.4c5.3-0.7,10.5-1.4,15.8-2c0.2,0-1-1.5-0.9-1.4c-0.1-0.2-0.9-1.3-1.3-1.2
					c-5.2,0.6-10.4,1.2-15.6,1.8c-0.2,0,0.9,1.6,0.9,1.5C208.3,107.2,208.9,108.4,209.3,108.4z"/>
				<path class="st1" d="M208.3,112.9c5.3-0.6,10.7-1.3,16-1.9c-0.1-0.2-0.3-0.3-0.7-0.4c-0.9-0.3-1.7-0.7-2.6-1
					c-0.9-0.3-1.7-0.6-2.6-0.9c-0.3-0.1-0.5-0.1-0.7-0.1c-5.3,0.6-10.5,1.1-15.8,1.5c0.1,0.2,0.3,0.3,0.6,0.4
					c0.9,0.4,1.7,0.7,2.5,1.1c0.9,0.4,1.7,0.7,2.6,1.1C207.8,112.8,208,112.9,208.3,112.9z"/>
				<path class="st1" d="M208.1,110.6c5.3-0.6,10.7-1.2,16-1.8c-0.1-0.3-0.3-0.4-0.5-0.5c-0.7-0.5-1.4-1-2.1-1.5
					c-0.7-0.5-1.5-0.9-2.1-1.4c-0.2-0.1-0.4-0.3-0.7-0.3c-5.2,0.6-10.5,1.1-15.7,1.5c0.1,0.3,0.2,0.4,0.5,0.5c0.7,0.6,1.3,1.1,2,1.6
					c0.7,0.5,1.3,1.1,2.1,1.6C207.6,110.4,207.9,110.6,208.1,110.6z"/>
			</g>
		</g>
	</g>
	<g>
		<g>
			<g>
				<path class="st1" d="M177,117.2c0.5,0.5,0.9,0.9,1.5,1.4c0.1-0.2,0.2-0.4,0.2-0.6c0.1-0.7,0.1-1.6,0.2-2.3
					c0.1-0.7,0.1-1.6,0.1-2.3c0.1-0.3,0-0.4-0.1-0.6c-0.3-0.4-0.7-0.9-1.1-1.3c-0.1,0.1-0.3,0.4-0.3,0.6c-0.1,0.7-0.3,1.5-0.3,2.3
					c-0.1,0.7-0.2,1.5-0.3,2.3C177,116.9,177,117.1,177,117.2z"/>
				<path class="st1" d="M176.2,116.1c0.5,0.5,0.9,0.9,1.4,1.4c0.1-0.2,0.1-0.4,0.1-0.6c0-0.7,0-1.4-0.1-2.1c0-0.7-0.1-1.4-0.1-2.1
					c0-0.3-0.1-0.4-0.1-0.6c-0.4-0.4-0.7-0.9-1.1-1.3c-0.1,0.1-0.2,0.3-0.1,0.6c-0.1,0.7-0.1,1.4-0.1,2.1c0,0.7,0,1.4,0,2.1
					C176,115.7,176.1,115.9,176.2,116.1z"/>
				<path class="st1" d="M175.6,117.9c0.5,0.5,0.9,0.9,1.5,1.4c0.1-0.3,0.1-0.5,0.1-0.7c-0.1-0.9-0.1-1.7-0.3-2.6
					c-0.1-0.9-0.2-1.7-0.3-2.6c0-0.3-0.1-0.5-0.3-0.7c-0.4-0.4-0.7-0.9-1.1-1.3c-0.1,0.3-0.1,0.4-0.1,0.7c0.1,0.9,0.1,1.7,0.1,2.6
					c0.1,0.9,0.1,1.7,0.3,2.6C175.4,117.4,175.4,117.6,175.6,117.9z"/>
				<path class="st1" d="M176.2,120.1c0.5,0.5,1,0.9,1.5,1.4c0.1-0.3,0.1-0.5,0.1-0.7c0-0.9,0-1.9-0.1-2.8c-0.1-0.9-0.1-1.9-0.1-2.8
					c0-0.3-0.1-0.5-0.2-0.7c-0.3-0.5-0.7-0.9-1.1-1.4c-0.1,0.3-0.2,0.5-0.1,0.7c-0.1,0.9-0.1,1.9-0.1,2.8c0,0.9,0,1.9,0,2.8
					C176,119.6,176,119.8,176.2,120.1z"/>
				<path class="st1" d="M177.1,116.2c0.5,0.5,0.9,0.9,1.4,1.4c0.1-0.1,0.2-0.3,0.2-0.5c0.1-0.6,0.1-1.3,0.1-1.9
					c0.1-0.5,0.3-1.9-0.1-2.4s-0.7-0.9-1.1-1.3c-0.1,0.1-0.2,0.3-0.2,0.5c-0.1,0.6-0.2,1.3-0.3,1.9
					C177.2,114.1,176.7,115.8,177.1,116.2z"/>
				<path class="st1" d="M175.9,115.5c0.5,0.4,0.9,0.8,1.4,1.2c0.1-0.1,0.1-0.3,0.1-0.4c0-0.4,0-0.7-0.1-1.1
					c-0.1-0.5-0.1-0.9-0.1-1.4c0-0.3-0.1-0.7-0.1-1c-0.4-0.5-0.9-0.9-1.3-1.4c-0.1,0.1-0.1,0.3-0.1,0.4c0,0.6,0,1.1,0,1.7
					C175.7,113.8,175.5,115.2,175.9,115.5z"/>
				<path class="st1" d="M175.6,115.1c0.5,0.4,0.9,0.9,1.4,1.3c0.3,0.3,0.2-0.8,0.2-0.7c-0.1-0.5-0.1-0.9-0.1-1.4
					c0-0.3-0.1-0.5-0.1-0.7c-0.4-0.5-0.8-0.9-1.2-1.4c-0.3-0.3-0.3,0.8-0.3,0.7c0,0.5,0.1,0.9,0.1,1.4
					C175.4,114.6,175.4,114.9,175.6,115.1z"/>
				<path class="st1" d="M176.4,117.7c0.5,0.5,0.9,0.9,1.5,1.4c0.1-0.3,0.2-0.5,0.1-0.7c0.1-0.9,0.1-1.9,0.1-2.7
					c0-0.9,0-1.9-0.1-2.7c0.1-0.3,0-0.5-0.1-0.7c-0.3-0.4-0.7-0.9-1.1-1.3c-0.1,0.3-0.2,0.5-0.2,0.7c-0.1,0.9-0.1,1.9-0.1,2.7
					c-0.1,0.9-0.1,1.9-0.1,2.7C176.2,117.2,176.3,117.4,176.4,117.7z"/>
				<path class="st1" d="M175.4,115.8c0.5,0.5,0.9,0.9,1.3,1.4c0.4,0.4,0.1-1.3,0.1-1.1c-0.1-0.7-0.1-1.4-0.3-2.1
					c-0.1-0.4-0.1-0.7-0.3-1.1c-0.4-0.5-0.8-1-1.2-1.5c-0.1-0.1-0.1-0.1-0.1,0c0,0.1,0,0.3-0.1,0.4c0,0.4,0.1,0.9,0.1,1.3
					c0.1,0.7,0.1,1.3,0.2,1.9C175.2,115.3,175.2,115.6,175.4,115.8z"/>
				<path class="st1" d="M176.3,114.6c0.5,0.6,0.9,1.2,1.5,1.8c0.3,0.3,0.3-0.7,0.3-0.6c0-0.5,0.1-1.4-0.1-1.8
					c-0.5-0.7-0.9-1.3-1.3-1.9c-0.3-0.4-0.3,0.7-0.3,0.7c-0.1,0.4-0.1,0.9-0.1,1.3C176.2,114.2,176.2,114.4,176.3,114.6z"/>
				<path class="st1" d="M176,119.1c0.5,0.5,1,0.9,1.5,1.4c0.1-0.3,0.1-0.5,0.1-0.8c-0.1-1-0.1-1.9-0.1-2.9c-0.1-1-0.1-1.9-0.2-2.9
					c0-0.3-0.1-0.5-0.2-0.7c-0.4-0.5-0.7-0.9-1.1-1.4c-0.1,0.3-0.1,0.5-0.1,0.7c0,1,0,1.9,0,2.9c0,1,0.1,1.9,0.1,2.9
					C175.8,118.5,175.9,118.9,176,119.1z"/>
				<path class="st1" d="M176,116.7c0.5,0.5,0.9,0.9,1.5,1.4c0.1-0.2,0.1-0.4,0.1-0.7c0-0.8-0.1-1.7-0.1-2.5
					c-0.1-0.8-0.1-1.7-0.2-2.5c0-0.3-0.1-0.5-0.2-0.7c-0.4-0.4-0.7-0.9-1.1-1.3c-0.1,0.2-0.1,0.4-0.1,0.7c0,0.8-0.1,1.7,0,2.5
					c0,0.8,0,1.7,0.1,2.5C175.8,116.3,175.9,116.5,176,116.7z"/>
			</g>
		</g>
	</g>
	<g>
		<g>
			<g>
				<path class="st1" d="M214.5,116.1c0.3,0.6,0.6,1.3,0.9,1.9c0.2-0.1,0.3-0.3,0.4-0.5c0.3-0.7,0.7-1.4,0.9-2.1
					c0.3-0.7,0.6-1.4,0.9-2.1c0.1-0.2,0.1-0.4,0.1-0.6c-0.2-0.6-0.5-1.1-0.7-1.7c-0.2,0.1-0.3,0.3-0.4,0.5c-0.3,0.7-0.7,1.3-1.1,2
					c-0.3,0.7-0.7,1.3-0.9,2.1C214.5,115.6,214.5,115.9,214.5,116.1z"/>
				<path class="st1" d="M213.7,114.9c0.3,0.6,0.6,1.3,0.9,1.9c0.1-0.1,0.3-0.3,0.3-0.5c0.2-0.7,0.4-1.4,0.6-2.1
					c0.2-0.7,0.3-1.4,0.5-2.1c0.1-0.2,0.1-0.4,0-0.6c-0.3-0.6-0.5-1.1-0.7-1.7c-0.1,0.1-0.3,0.3-0.3,0.5c-0.3,0.7-0.5,1.3-0.7,2.1
					c-0.2,0.7-0.4,1.4-0.6,2.1C213.6,114.4,213.6,114.7,213.7,114.9z"/>
				<path class="st1" d="M213,116.6c0.3,0.6,0.7,1.3,0.9,1.9c0.2-0.2,0.3-0.4,0.3-0.7c0.3-0.9,0.5-1.7,0.7-2.6
					c0.3-0.9,0.5-1.7,0.7-2.6c0.1-0.3,0.1-0.5,0.1-0.7c-0.3-0.6-0.5-1.1-0.7-1.7c-0.2,0.2-0.3,0.4-0.3,0.6c-0.3,0.9-0.5,1.7-0.8,2.5
					s-0.5,1.7-0.7,2.5C213,116.1,213,116.4,213,116.6z"/>
				<path class="st1" d="M213.5,118.9c0.3,0.6,0.7,1.3,1,1.9c0.2-0.1,0.4-0.3,0.5-0.6c0.5-0.8,0.9-1.6,1.3-2.5
					c0.5-0.8,0.9-1.7,1.3-2.5c0.1-0.3,0.2-0.5,0.2-0.7c-0.2-0.6-0.4-1.1-0.7-1.7c-0.3,0.1-0.4,0.3-0.5,0.6c-0.5,0.7-1,1.6-1.5,2.4
					s-0.9,1.6-1.4,2.4C213.6,118.3,213.5,118.5,213.5,118.9z"/>
				<path class="st1" d="M214.5,114.9c0.3,0.7,0.6,1.3,0.9,1.9c0.1-0.1,0.3-0.3,0.3-0.4c0.3-0.6,0.5-1.1,0.7-1.7
					c0.2-0.5,0.8-1.7,0.6-2.3c-0.2-0.6-0.5-1.2-0.7-1.8c-0.1,0.1-0.3,0.2-0.3,0.4c-0.3,0.5-0.5,1.1-0.7,1.7
					C215.1,113.1,214.3,114.4,214.5,114.9z"/>
				<path class="st1" d="M213.2,114.3c0.3,0.5,0.7,1.1,0.9,1.6c0.1-0.1,0.2-0.3,0.3-0.4c0.1-0.4,0.2-0.7,0.3-1.1
					c0.1-0.5,0.2-0.9,0.3-1.5c0.1-0.3,0.1-0.7,0.1-1.1c-0.3-0.6-0.5-1.2-0.8-1.7c-0.1,0.1-0.3,0.3-0.3,0.4c-0.1,0.5-0.3,1.1-0.5,1.7
					C213.4,112.6,212.9,113.8,213.2,114.3z"/>
				<path class="st1" d="M212.7,113.9c0.3,0.6,0.6,1.1,0.9,1.7c0.2,0.4,0.4-0.8,0.3-0.7c0.1-0.5,0.1-0.9,0.2-1.4
					c0.1-0.3,0.1-0.5,0-0.7c-0.3-0.6-0.5-1.1-0.7-1.7c-0.2-0.4-0.5,0.8-0.4,0.7c-0.1,0.5-0.2,0.9-0.3,1.5
					C212.7,113.3,212.7,113.6,212.7,113.9z"/>
				<path class="st1" d="M213.9,116.5c0.3,0.6,0.7,1.3,0.9,1.8c0.2-0.1,0.3-0.4,0.4-0.6c0.3-0.9,0.7-1.7,1-2.6
					c0.3-0.9,0.7-1.7,0.9-2.6c0.1-0.3,0.1-0.5,0.1-0.7c-0.2-0.6-0.5-1.1-0.7-1.7c-0.2,0.1-0.3,0.4-0.4,0.6c-0.4,0.8-0.7,1.7-1.1,2.5
					c-0.3,0.9-0.7,1.7-1.1,2.5C213.9,116,213.8,116.2,213.9,116.5z"/>
				<path class="st1" d="M212.8,114.7c0.3,0.6,0.6,1.3,0.9,1.9c0.1-0.1,0.2-0.3,0.2-0.5c0.1-0.4,0.1-0.9,0.3-1.3
					c0.1-0.6,0.2-1.1,0.3-1.7c0.1-0.4,0.1-0.7,0.1-1.1c-0.3-0.6-0.5-1.2-0.7-1.7c-0.1-0.1-0.1-0.1-0.1-0.1c-0.1,0.1-0.1,0.3-0.1,0.3
					c-0.1,0.4-0.2,0.9-0.3,1.3c-0.1,0.7-0.3,1.3-0.4,2C212.8,114.1,212.7,114.4,212.8,114.7z"/>
				<path class="st1" d="M213.5,113.4c0.3,0.7,0.5,1.5,0.9,2.2c0.1,0.4,0.4-0.7,0.4-0.6c0.1-0.5,0.5-1.3,0.3-1.9
					c-0.3-0.7-0.5-1.5-0.7-2.3c-0.1-0.4-0.5,0.7-0.4,0.6c-0.1,0.4-0.2,0.8-0.3,1.3C213.5,112.9,213.5,113.1,213.5,113.4z"/>
				<path class="st1" d="M213.4,117.9c0.3,0.6,0.7,1.3,1,1.9c0.2-0.2,0.3-0.4,0.5-0.7c0.4-0.9,0.7-1.8,1.1-2.7
					c0.3-0.9,0.7-1.8,1.1-2.7c0.1-0.3,0.2-0.5,0.1-0.7c-0.2-0.6-0.5-1.1-0.7-1.7c-0.2,0.2-0.3,0.4-0.5,0.7c-0.5,0.9-0.9,1.7-1.3,2.7
					s-0.8,1.7-1.2,2.7C213.5,117.3,213.4,117.6,213.4,117.9z"/>
				<path class="st1" d="M213.5,115.5c0.3,0.6,0.7,1.3,0.9,1.9c0.2-0.1,0.3-0.4,0.3-0.6c0.3-0.8,0.5-1.6,0.7-2.4
					c0.3-0.8,0.5-1.6,0.7-2.4c0.1-0.3,0.1-0.5,0.1-0.7c-0.3-0.6-0.5-1.1-0.7-1.7c-0.2,0.1-0.3,0.3-0.3,0.6c-0.3,0.7-0.5,1.6-0.8,2.4
					s-0.5,1.6-0.7,2.4C213.5,115.1,213.5,115.3,213.5,115.5z"/>
			</g>
		</g>
	</g>
</g>
</svg>
